<?xml version="1.0" encoding="UTF-8"?><svg id="_圖層_2" xmlns="http://www.w3.org/2000/svg" viewBox="0 0 400 400"><g><g><path d="m24.36,233.77c-.38,0-.69-.31-.69-.69V100.1c0-42.14,34.29-76.43,76.43-76.43h179.55c.38,0,.69.31.69.69s-.31.69-.69.69H100.1c-41.39,0-75.06,33.67-75.06,75.05v132.98c0,.38-.31.69-.69.69Z" style="fill:#003153;"/><path d="m221.17,376.33h-121.07c-42.15,0-76.43-34.29-76.43-76.43v-30.27c0-.38.31-.69.69-.69s.69.31.69.69v30.27c0,41.38,33.67,75.05,75.06,75.05h121.07c.38,0,.69.31.69.69s-.31.69-.69.69Z" style="fill:#003153;"/><path d="m299.9,376.33h-44.01c-.38,0-.69-.31-.69-.69s.31-.69.69-.69h44.01c41.39,0,75.06-33.67,75.06-75.06V100.09c0-31.61-20.08-60.03-49.98-70.72-.36-.13-.54-.52-.42-.88.13-.36.52-.54.88-.42,30.44,10.89,50.89,39.83,50.89,72.01v199.81c0,42.15-34.29,76.43-76.43,76.43Z" style="fill:#003153;"/></g><rect x="45" y="45.01" width="309.98" height="309.98" rx="55.09" ry="55.09" style="fill:#003153;"/></g><g><path d="m117.88,227.68l-9.41-23.4h-.09l-9.57,23.4h-12.02l15.28-32.54-14.77-31.06h12.96l8.87,21.14.09-.08,8.75-21.06h12.03l-14.57,29.92,15.4,33.67h-12.96Z" style="fill:#fff;"/><path d="m149.09,209.87c.55,5.27,2.67,9.92,8.49,9.92s7.68-3.51,7.68-8.24c0-5.22-2.57-8.26-10.61-12.1-10.89-5.17-15.15-9.75-15.15-19.19,0-10.2,6.55-17.17,18.06-17.17,14.31,0,17.83,9.68,18.02,17.96h-11.16c-.36-3.64-1.3-8.99-7.06-8.99-4.51,0-6.52,2.92-6.52,7.24,0,4.58,2.04,6.72,9.49,10.18,11.41,5.27,16.53,10.4,16.53,21.04,0,9.99-6.18,18.24-19.62,18.24-14.62,0-19.08-9.36-19.48-18.89h11.33Z" style="fill:#fff;"/><path d="m221.12,199.42h-20.41v18.47h22.92l-1.4,9.8h-32.75v-63.6h32.62v9.97h-21.37v15.48h20.41v9.88Z" style="fill:#fff;"/><path d="m235.24,164.09h11.41v53.88h21.76l-1.11,9.72h-32.06v-63.6Z" style="fill:#fff;"/><path d="m278.76,164.09h11.41v53.88h21.76l-1.11,9.72h-32.06v-63.6Z" style="fill:#fff;"/></g></svg>