<?xml version="1.0" encoding="UTF-8"?><svg id="_圖層_2" xmlns="http://www.w3.org/2000/svg" viewBox="0 0 400 400"><g><g><path d="m24.36,233.77c-.38,0-.69-.31-.69-.69V100.1c0-42.14,34.29-76.43,76.43-76.43h179.55c.38,0,.69.31.69.69s-.31.69-.69.69H100.1c-41.39,0-75.06,33.67-75.06,75.05v132.98c0,.38-.31.69-.69.69Z" style="fill:#429698;"/><path d="m221.17,376.33h-121.07c-42.15,0-76.43-34.29-76.43-76.43v-30.27c0-.38.31-.69.69-.69s.69.31.69.69v30.27c0,41.38,33.67,75.05,75.06,75.05h121.07c.38,0,.69.31.69.69s-.31.69-.69.69Z" style="fill:#429698;"/><path d="m299.9,376.33h-44.01c-.38,0-.69-.31-.69-.69s.31-.69.69-.69h44.01c41.39,0,75.06-33.67,75.06-75.06V100.09c0-31.61-20.08-60.03-49.98-70.72-.36-.13-.54-.52-.42-.88.13-.36.52-.54.88-.42,30.44,10.89,50.89,39.83,50.89,72.01v199.81c0,42.15-34.29,76.43-76.43,76.43Z" style="fill:#429698;"/></g><rect x="45" y="45.01" width="309.98" height="309.98" rx="55.09" ry="55.09" style="fill:#429698;"/></g><g><path d="m106.64,155.41c.37-3.23.61-6.65.67-10.19v-5.31h5.85v3.96c0,4.03-.24,7.87-.73,11.53h24.76v5.61h-23.3c4.27,13.05,12.5,23.11,24.58,30.25l-3.6,4.7c-11.71-7.2-19.94-17.26-24.58-30.19-4.03,13.97-12.26,24.21-24.64,30.74l-3.72-4.88c12.56-6.1,20.49-16.34,23.72-30.62h-22.38v-5.61h23.36Z" style="fill:#fff;"/><path d="m186.35,194.93c-4.21,0-6.28-1.95-6.28-5.79v-32.81h-12.62c-.37,5-.92,9.58-1.77,13.6,3.78,2.44,7.62,5.18,11.53,8.29l-3.48,5.25c-3.78-3.66-6.89-6.4-9.45-8.29-.61,1.83-1.28,3.48-1.95,5.06-3.17,6.77-8.36,12.02-15.55,15.67l-3.29-5.18c7.01-3.84,11.77-8.78,14.27-14.76,2.07-5.24,3.35-11.83,3.9-19.64h-14.64v-5.55h14.88v-10.55h5.79v10.55h18.24v37.45c0,.91.43,1.4,1.28,1.4h4.02c1.4,0,2.26-1.04,2.62-3.11.12-2.32.18-4.88.18-7.62l5.67,1.71c-.43,5.12-.79,8.29-1.16,9.45-.79,3.23-3.23,4.88-7.26,4.88h-4.94Z" style="fill:#fff;"/><path d="m253.74,196.09h-5.85v-2.2h-30.92v2.2h-5.92v-40.31h15.8c.73-2.68,1.28-5.43,1.65-8.23h-23.85v-5.67h55.26v5.67h-25.68c-.43,2.87-.98,5.61-1.71,8.23h21.22v40.31Zm-5.85-24.09v-10.67h-30.92v10.67h30.92Zm0,16.22v-10.92h-30.92v10.92h30.92Z" style="fill:#fff;"/><path d="m313.39,163.95v23.97h-11.53c6.59.91,12.87,2.13,18.85,3.72l-1.83,4.57c-6.59-1.89-13.54-3.35-20.74-4.45l1.95-3.84h-14.58l2.5,3.35c-4.57,2.01-11.16,3.66-19.7,4.88l-2.56-4.39c7.93-1.04,14.03-2.32,18.3-3.84h-10.98v-23.97h40.31Zm-45.8-7.5l-1.71-5.61c7.26-3.23,12.62-6.95,16.04-11.22l4.82,2.32c-1.59,2.26-3.66,4.45-6.16,6.53v13.42h-5.61v-9.45c-2.26,1.4-4.7,2.74-7.38,4.03Zm40.19,14.58v-2.81h-29.03v2.81h29.03Zm0,6.34v-2.8h-29.03v2.8h29.03Zm0,3.6h-29.03v2.68h29.03v-2.68Zm-9.27-19.46c-4.03,0-6.04-1.95-6.04-5.79v-15.67h5.67v5.73l19.09-1.16v5.12l-19.09,1.16v3.6c0,1.34.61,2.07,1.89,2.07h11.04c1.1,0,1.83-.18,2.32-.55.61-.49.98-1.77,1.22-3.96l5.25,1.77c-.49,3.66-1.34,5.86-2.56,6.65-1.1.67-2.81,1.04-5.12,1.04h-13.66Z" style="fill:#fff;"/><path d="m84.73,250.72l-1.24-4.28c5.1-4.62,8.52-9.08,10.32-13.4h-9.42v-3.89h5.65c-.6-1.67-1.24-3.3-1.97-4.88l3.81-1.07c.86,2.14,1.5,4.15,1.97,5.95h4.07v3.42c-1.03,3.08-2.61,6.12-4.79,9.12,1.97,1.28,3.81,2.74,5.48,4.32l-2.18,3.34c-1.11-1.33-2.23-2.48-3.34-3.51v17.21h-3.94v-16.57c-1.37,1.41-2.83,2.83-4.41,4.24Zm37.59-25.73v3.6h-23.55v-3.6h23.55Zm-.47,38.11h-3.85v-1.58h-15.07v1.58h-3.85v-19.78h22.78v19.78Zm-1.93-32.24v9.98h-18.84v-9.98h18.84Zm-11.39,19.74v-3.89h-5.61v3.89h5.61Zm0,7.41v-4.03h-5.61v4.03h5.61Zm7.58-23.93h-11.22v3.55h11.22v-3.55Zm-3.73,16.53h5.61v-3.89h-5.61v3.89Zm5.61,7.41v-4.03h-5.61v4.03h5.61Z" style="fill:#fff;"/><path d="m160.22,262.62l-1.11-3.94,4.97.09c1.16,0,1.76-.6,1.76-1.76v-28.04h-26.63v33.91h-4.02v-37.89h34.68v32.93c0,3.12-1.5,4.71-4.45,4.71h-5.18Zm-19.18-22.95v-3.72h5.74c-.86-1.33-1.93-2.74-3.13-4.28l3.08-1.93c1.63,2.06,2.91,3.9,3.81,5.48l-1.03.73h4.8c1.16-2.05,2.18-4.2,3.04-6.42l3.85,1.37c-.81,1.88-1.71,3.55-2.74,5.05h5.52v3.72h-9.46v11.86h4.15v-8.35h3.94v12.12h-20.21v-12.16h3.94v8.39h4.15v-11.86h-9.46Z" style="fill:#fff;"/><path d="m198.76,238.35c.47-2.7.81-5.65.98-8.86h-15.07v-3.9h34.08v3.9h-14.9c-.21,3.25-.56,6.21-.98,8.86h17.13v3.9h-15.2c3,7.66,8.52,13.57,16.61,17.72l-2.53,3.3c-8.35-4.54-14.09-10.96-17.25-19.22-.69,2.4-1.46,4.41-2.4,6.04-2.87,5.1-7.75,9.51-14.6,13.23l-2.57-3.34c6.25-3.25,10.7-7.06,13.36-11.52.98-1.67,1.8-3.72,2.48-6.21h-14.34v-3.9h15.2Z" style="fill:#fff;"/><path d="m232.46,250.72l-1.28-4.28c5.18-4.58,8.69-9.03,10.49-13.4h-9.55v-3.89h5.69c-.6-1.67-1.24-3.3-2.01-4.88l3.85-1.07c.86,2.14,1.54,4.15,2.06,5.95h4.07v3.42c-1.03,3-2.57,5.95-4.71,8.95v.26c2.01,1.2,3.9,2.61,5.61,4.24l-2.18,3.34c-1.16-1.29-2.31-2.36-3.43-3.3v17h-3.98v-16.74c-1.41,1.46-2.95,2.96-4.62,4.41Zm27.66.34v11.9h-3.98v-11.9h-4.88v2.14h-4.07v-23.38h8.95v-6.38h3.98v6.38h9.12v23.34h-4.02v-2.1h-5.1Zm-3.98-17.38h-4.88v4.92h4.88v-4.92Zm-4.88,13.53h4.88v-4.88h-4.88v4.88Zm13.96-13.53h-5.1v4.92h5.1v-4.92Zm-5.1,13.53h5.1v-4.88h-5.1v4.88Z" style="fill:#fff;"/><path d="m303.76,227.39h15.63v3.94h-31.08v8.9c-.13,9.42-1.67,16.96-4.62,22.61l-3.08-2.74c2.35-4.75,3.6-11.39,3.68-19.87v-12.84h15.33c-.6-1.24-1.28-2.36-1.97-3.38l4.24-.69c.69,1.24,1.28,2.61,1.88,4.07Zm1.03,5.27v4.62h13.66v3.85h-13.66v5.44h11.22v16.44h-4.02v-1.88h-16.87v1.88h-4.02v-16.44h9.63v-13.92h4.07Zm7.19,24.66v-6.98h-16.87v6.98h16.87Z" style="fill:#fff;"/></g></svg>