<?xml version="1.0" encoding="UTF-8"?><svg id="_圖層_2" xmlns="http://www.w3.org/2000/svg" viewBox="0 0 400 400"><g><g><path d="m24.36,233.77c-.38,0-.69-.31-.69-.69V100.1c0-42.14,34.29-76.43,76.43-76.43h179.55c.38,0,.69.31.69.69s-.31.69-.69.69H100.1c-41.39,0-75.05,33.67-75.05,75.05v132.98c0,.38-.31.69-.69.69Z" style="fill:#1f9884;"/><path d="m221.17,376.33h-121.07c-42.14,0-76.43-34.29-76.43-76.43v-30.27c0-.38.31-.69.69-.69s.69.31.69.69v30.27c0,41.38,33.67,75.05,75.05,75.05h121.07c.38,0,.69.31.69.69s-.31.69-.69.69Z" style="fill:#1f9884;"/><path d="m299.9,376.33h-44.01c-.38,0-.69-.31-.69-.69s.31-.69.69-.69h44.01c41.39,0,75.05-33.67,75.05-75.06V100.09c0-31.61-20.08-60.03-49.97-70.72-.36-.13-.54-.52-.42-.88.13-.36.53-.54.88-.42,30.44,10.89,50.89,39.83,50.89,72.01v199.81c0,42.15-34.29,76.43-76.43,76.43Z" style="fill:#1f9884;"/></g><rect x="45" y="45.01" width="309.98" height="309.98" rx="55.09" ry="55.09" style="fill:#1f9884;"/></g><g><path d="m103.64,155.41c.37-3.23.61-6.65.67-10.19v-5.31h5.86v3.96c0,4.03-.24,7.87-.73,11.53h24.76v5.61h-23.3c4.27,13.05,12.5,23.11,24.58,30.25l-3.6,4.7c-11.71-7.2-19.94-17.26-24.58-30.19-4.03,13.97-12.26,24.21-24.64,30.74l-3.72-4.88c12.56-6.1,20.49-16.34,23.72-30.62h-22.38v-5.61h23.36Z" style="fill:#fff;"/><path d="m183.35,194.93c-4.21,0-6.28-1.95-6.28-5.79v-32.81h-12.62c-.37,5-.91,9.58-1.77,13.6,3.78,2.44,7.62,5.18,11.53,8.29l-3.48,5.25c-3.78-3.66-6.89-6.4-9.45-8.29-.61,1.83-1.28,3.48-1.95,5.06-3.17,6.77-8.36,12.02-15.55,15.67l-3.29-5.18c7.01-3.84,11.77-8.78,14.27-14.76,2.07-5.24,3.36-11.83,3.9-19.64h-14.64v-5.55h14.88v-10.55h5.79v10.55h18.24v37.45c0,.91.43,1.4,1.28,1.4h4.02c1.4,0,2.26-1.04,2.62-3.11.12-2.32.18-4.88.18-7.62l5.67,1.71c-.43,5.12-.79,8.29-1.16,9.45-.79,3.23-3.23,4.88-7.26,4.88h-4.94Z" style="fill:#fff;"/><path d="m250.74,196.09h-5.86v-2.2h-30.92v2.2h-5.92v-40.31h15.8c.73-2.68,1.28-5.43,1.65-8.23h-23.85v-5.67h55.26v5.67h-25.68c-.43,2.87-.97,5.61-1.71,8.23h21.22v40.31Zm-5.86-24.09v-10.67h-30.92v10.67h30.92Zm0,16.22v-10.92h-30.92v10.92h30.92Z" style="fill:#fff;"/><path d="m310.39,163.95v23.97h-11.53c6.59.91,12.87,2.13,18.85,3.72l-1.83,4.57c-6.59-1.89-13.54-3.35-20.74-4.45l1.95-3.84h-14.58l2.5,3.35c-4.57,2.01-11.16,3.66-19.7,4.88l-2.56-4.39c7.93-1.04,14.03-2.32,18.3-3.84h-10.98v-23.97h40.31Zm-45.8-7.5l-1.71-5.61c7.26-3.23,12.62-6.95,16.04-11.22l4.82,2.32c-1.59,2.26-3.66,4.45-6.16,6.53v13.42h-5.61v-9.45c-2.26,1.4-4.7,2.74-7.38,4.03Zm40.19,14.58v-2.81h-29.03v2.81h29.03Zm0,6.34v-2.8h-29.03v2.8h29.03Zm0,3.6h-29.03v2.68h29.03v-2.68Zm-9.27-19.46c-4.03,0-6.04-1.95-6.04-5.79v-15.67h5.67v5.73l19.09-1.16v5.12l-19.09,1.16v3.6c0,1.34.61,2.07,1.89,2.07h11.04c1.1,0,1.83-.18,2.32-.55.61-.49.98-1.77,1.22-3.96l5.25,1.77c-.49,3.66-1.34,5.86-2.56,6.65-1.1.67-2.81,1.04-5.12,1.04h-13.66Z" style="fill:#fff;"/><path d="m145.36,226.92v-3.55h3.94v3.55h16.78v3.85h-16.78v3h13.66v16.57h-10.02c3.12,3.25,7.79,5.82,14.04,7.71l-1.84,3.77c-7.37-2.96-12.59-6.77-15.76-11.47h-.09v12.93h-3.94v-12.93h-.09c-2.74,4.5-7.79,8.39-15.2,11.65l-2.27-3.64c6.68-2.4,11.35-5.09,14-8.01h-10.19v-16.57h13.74v-3h-16.78v-3.85h16.78Zm0,10.36h-9.8v3.21h9.8v-3.21Zm-9.8,9.55h9.8v-3.17h-9.8v3.17Zm23.46-9.55h-9.72v3.21h9.72v-3.21Zm-9.72,9.55h9.72v-3.17h-9.72v3.17Z" style="fill:#fff;"/><path d="m191.74,252.39c-2.65,3.72-5.91,6.98-9.8,9.76l-2.57-3.3c3.77-2.57,6.94-5.56,9.5-9.03l2.87,2.57Zm8.78-24.58h17.3v3.81h-38.19v-3.81h16.7c-.51-1.37-1.11-2.61-1.71-3.72l4.2-.69c.6,1.29,1.16,2.78,1.71,4.41Zm12.33,7.02v12.93h-11.95v10.75c0,2.78-1.46,4.2-4.33,4.2h-4.62l-.94-3.9c1.46.17,2.83.26,4.15.26,1.11,0,1.71-.56,1.71-1.58v-9.72h-12.25v-12.93h28.22Zm-4.03,3.9h-20.17v5.14h20.17v-5.14Zm9.12,20.38l-2.95,2.96c-2.23-3-5.31-6.21-9.25-9.63l2.7-2.61c3.77,3.12,6.94,6.21,9.5,9.29Z" style="fill:#fff;"/><path d="m253.65,227.39h15.63v3.94h-31.08v8.9c-.13,9.42-1.67,16.96-4.62,22.61l-3.08-2.74c2.35-4.75,3.6-11.39,3.68-19.87v-12.84h15.33c-.6-1.24-1.29-2.36-1.97-3.38l4.24-.69c.68,1.24,1.28,2.61,1.88,4.07Zm1.03,5.27v4.62h13.66v3.85h-13.66v5.44h11.22v16.44h-4.03v-1.88h-16.87v1.88h-4.03v-16.44h9.63v-13.92h4.07Zm7.19,24.66v-6.98h-16.87v6.98h16.87Z" style="fill:#fff;"/></g></svg>