<?xml version="1.0" encoding="UTF-8"?><svg id="_圖層_2" xmlns="http://www.w3.org/2000/svg" viewBox="0 0 400 400"><g><g><path d="m24.36,233.77c-.38,0-.69-.31-.69-.69V100.1c0-42.14,34.29-76.43,76.43-76.43h179.55c.38,0,.69.31.69.69s-.31.69-.69.69H100.1c-41.39,0-75.06,33.67-75.06,75.05v132.98c0,.38-.31.69-.69.69Z" style="fill:#d61518;"/><path d="m221.17,376.33h-121.07c-42.15,0-76.43-34.29-76.43-76.43v-30.27c0-.38.31-.69.69-.69s.69.31.69.69v30.27c0,41.38,33.67,75.05,75.06,75.05h121.07c.38,0,.69.31.69.69s-.31.69-.69.69Z" style="fill:#d61518;"/><path d="m299.9,376.33h-44.01c-.38,0-.69-.31-.69-.69s.31-.69.69-.69h44.01c41.39,0,75.06-33.67,75.06-75.06V100.09c0-31.61-20.08-60.03-49.98-70.72-.36-.13-.54-.52-.42-.88.13-.36.52-.54.88-.42,30.44,10.89,50.89,39.83,50.89,72.01v199.81c0,42.15-34.29,76.43-76.43,76.43Z" style="fill:#d61518;"/></g><rect x="45" y="45.01" width="309.98" height="309.98" rx="55.09" ry="55.09" style="fill:#d61518;"/></g><g><rect x="58.46" y="93.85" width="283.08" height="212.31" style="fill:#d61518;"/><g><g><path d="m188.96,199.32c4.43,1.78,12.34,3.49,24.61,1.32,10.57-1.86,12.55-7.35,11.65-12.46-.96-5.46-6.05-6.88-9.54-7.19-7.75,3.48-15.6,6-21.12,7.58l-5.59,10.74" style="fill:#fff;"/><path d="m200,118.89c-23.44,0-43.66,13.71-53.13,33.55,23.22-4.11,62.52-11.03,67.76-11.96,7.5-1.31,24.79-4.04,27.47,11.19,1.93,10.91-7.76,19.56-19.52,25.92,7.64.64,14.54,3.73,15.85,11.16,1.63,9.26-8.84,16.12-21.53,18.37-13.51,2.38-27.19-1.87-30.45-2.98l-8.13,15.61-14.14,2.49,29.07-58.33,15.54-2.73-11.21,21.55c13.46-5.65,34.02-16.21,32.05-27.41-.52-2.94-2.19-6.18-13.14-4.23-9.97,1.75-65.13,17.52-74.98,20.33-.22,2.06-.33,4.16-.33,6.28,0,32.48,26.33,58.83,58.82,58.83s58.82-26.35,58.82-58.83-26.34-58.82-58.82-58.82" style="fill:#fff;"/></g><g><path d="m81.2,253.78h13.8s7.01.2,7.22,5.66c.21,5.42-5.22,6.68-5.22,6.68,0,0,7.27.87,6.98,7.04-.29,6.22-6.09,7.67-11.65,7.67s-11.08-.04-11.08-.04l-.05-27.02m8.24,10.68s5.54.61,5.51-3.25c0-3.91-5.57-2.98-5.57-2.98l.06,6.23m0,12s1.46.23,3.15-.12c1.91-.37,3.05-1.83,3.07-3.47l-.21-1.77c-.72-2.27-3.32-2.12-3.32-2.12h-2.74l.04,7.48Z" style="fill:#fff;"/><rect x="105.89" y="253.66" width="8.2" height="27.1" style="fill:#fff;"/><path d="m137.77,261.56l4.01-3.23c-2.93-4.74-13.09-6.7-19.16-2.61-6.09,4.11-6.5,16.25-2.21,21.07,4.58,5.1,14.2,6.86,22.08-1.46l-3.84-4.04c-5.66,5-14.31,3.32-14.31-4.14-.38-7.16,7.27-9.58,13.43-5.58" style="fill:#fff;"/><path d="m174.43,261.56l4.01-3.23c-2.94-4.74-13.19-6.84-19.18-2.61-7.15,5.11-7.25,15.75-2.15,21.07,4.9,5.15,14.17,6.86,22.07-1.46l-3.82-4.04c-5.67,5-14.36,3.32-14.36-4.14-.37-7.16,7.27-9.58,13.44-5.58" style="fill:#fff;"/><path d="m198.43,280.78l8.57-.03-10.02-27.13h-7.08s-10.71,27.13-10.71,27.13l6.39-.06,2.31-6.35h8.54l1.99,6.44m-9-10.63l3.02-8.37,2.65,8.37h-5.68Z" style="fill:#fff;"/><path d="m310.25,280.78l8.54-.03-10.03-27.13h-7.04s-10.73,27.13-10.73,27.13l6.4-.06,2.32-6.35h8.52l2.02,6.44m-9-10.63l3.02-8.37,2.65,8.37h-5.67Z" style="fill:#fff;"/><polyline points="230.45 253.62 225.02 270.24 219.31 253.62 209.67 253.58 209.67 280.75 216.1 280.75 216.12 262.73 222.37 280.78 225.88 280.75 232.06 262.79 232.06 280.75 239.8 280.75 239.8 253.58 230.45 253.62" style="fill:#fff;"/><polyline points="252.42 275.53 252.42 269.12 260.76 269.12 260.76 263.9 252.42 263.9 252.42 258.72 260.76 258.72 260.76 253.62 244.32 253.62 244.32 280.78 262.42 280.78 262.42 275.53 252.42 275.53" style="fill:#fff;"/><path d="m283.16,269.01c1.37-.69,2.83-1.78,3.88-3.47,1.85-3.05.73-7.38-.05-8.47-2.74-3.89-7.38-3.4-7.38-3.4l-5.06-.04h-8.17v27.1h8.17v-10.42h2.06l4.05,10.46h9.01l-6.52-11.75m-2.75-5.63c-.46,1.99-3.06,2.29-3.06,2.29l-2.8.08v-7.16l3.18.06s2.28.18,2.65,2.13c.12.67.2,1.91.02,2.6" style="fill:#fff;"/></g></g></g></svg>