<?xml version="1.0" encoding="UTF-8"?><svg id="_圖層_1" xmlns="http://www.w3.org/2000/svg" viewBox="0 0 400 200"><path d="m156.42,122.36c-8.6,0-15.6,7-15.6,15.6s7,15.6,15.6,15.6,15.6-7,15.6-15.6-7-15.6-15.6-15.6" style="fill:#fcb613;"/><path d="m112.83,122.36c-8.6,0-15.6,7-15.6,15.6s7,15.6,15.6,15.6,15.6-7,15.6-15.6-7-15.6-15.6-15.6" style="fill:#ed343e;"/><path d="m200.01,122.36c-8.6,0-15.6,7-15.6,15.6s7,15.6,15.6,15.6,15.6-7,15.6-15.6-7-15.6-15.6-15.6" style="fill:#00af56;"/><path d="m287.19,122.36c-8.6,0-15.6,7-15.6,15.6s7,15.6,15.6,15.6,15.6-7,15.6-15.6-7-15.6-15.6-15.6" style="fill:#00a8df;"/><path d="m243.6,122.36c-8.6,0-15.6,7-15.6,15.6s7,15.6,15.6,15.6,15.6-7,15.6-15.6-7-15.6-15.6-15.6" style="fill:#a04699;"/><path d="m125.83,78.16c0-7.29-5.5-12.8-12.8-12.8s-12.8,5.5-12.8,12.8,5.5,12.8,12.8,12.8,12.8-5.5,12.8-12.8m-30.96,0c0-10.11,8.12-17.75,18.16-17.75s18.16,7.57,18.16,17.68v15.55c0,1.58-1.1,2.68-2.75,2.68s-2.75-1.1-2.75-2.68v-4.54h-.28c-2.13,3.65-6.4,6.81-12.73,6.81-9.77,0-17.82-7.57-17.82-17.75" style="fill:#595a5a;"/><path d="m169.31,78.16c0-7.29-5.5-12.8-12.8-12.8s-12.8,5.5-12.8,12.8,5.5,12.8,12.8,12.8,12.8-5.5,12.8-12.8m-23.94,29.24c-1.44-.69-2.13-1.93-1.58-3.37.55-1.51,1.93-2.13,3.37-1.44,2.48,1.17,5.57,2,8.88,2,8.19,0,13.14-4.89,13.14-13.21v-2.27h-.28c-2.13,3.65-6.4,6.81-12.73,6.81-9.77,0-17.82-7.57-17.82-17.75s8.12-17.75,18.16-17.75,18.16,7.57,18.16,17.68v12.93c0,11.15-7.16,18.65-18.85,18.65-3.58,0-7.16-.69-10.46-2.27" style="fill:#595a5a;"/><path d="m212.8,78.16c0-7.29-5.5-12.8-12.8-12.8s-12.8,5.5-12.8,12.8,5.5,12.8,12.8,12.8,12.8-5.5,12.8-12.8m-30.96,0c0-10.11,8.05-17.75,18.16-17.75s18.16,7.64,18.16,17.75-8.05,17.75-18.16,17.75-18.16-7.64-18.16-17.75" style="fill:#595a5a;"/><path d="m256.28,78.16c0-7.29-5.5-12.8-12.8-12.8s-12.8,5.5-12.8,12.8,5.5,12.8,12.8,12.8,12.8-5.5,12.8-12.8m-30.96,0c0-10.11,7.98-17.75,17.82-17.75,6.33,0,10.6,3.16,12.73,6.81h.28v-18.09c0-1.58,1.1-2.68,2.75-2.68s2.75,1.1,2.75,2.68v29.1c0,10.11-8.05,17.68-18.16,17.68s-18.16-7.64-18.16-17.75" style="fill:#595a5a;"/><path d="m299.77,78.16c0-7.29-5.5-12.8-12.8-12.8s-12.8,5.5-12.8,12.8,5.5,12.8,12.8,12.8,12.8-5.5,12.8-12.8m-30.96,0c0-10.11,8.12-17.75,18.16-17.75s18.16,7.57,18.16,17.68v15.55c0,1.58-1.1,2.68-2.75,2.68s-2.75-1.1-2.75-2.68v-4.54h-.28c-2.13,3.65-6.4,6.81-12.73,6.81-9.77,0-17.82-7.57-17.82-17.75" style="fill:#595a5a;"/></svg>