<?xml version="1.0" encoding="UTF-8"?><svg id="_圖層_1" xmlns="http://www.w3.org/2000/svg" viewBox="0 0 400 200"><g id="Page-1"><g id="AsiaYo-logo-1"><g id="Group"><g><g id="Group-22"><path id="Fill-2" d="m214.48,110.35c-.66-1.15-1.54-2.21-2.63-3.15-1.1-.96-2.38-1.83-3.81-2.59-1.44-.77-2.96-1.48-4.51-2.11-1.05-.44-2.03-.91-2.92-1.4-.91-.5-1.71-1.03-2.38-1.59-.69-.58-1.24-1.21-1.64-1.88-.42-.71-.63-1.48-.63-2.29,0-.67.18-1.27.53-1.8.33-.51.78-.93,1.34-1.27.53-.32,1.14-.56,1.81-.72.66-.16,1.37-.24,2.09-.24.41,0,.9.04,1.43.11.6.08,1.2.3,1.78.67.57.36,1.14.9,1.67,1.6.44.59.83,1.38,1.16,2.34l5.14-1.8c-.54-.84-1.12-1.6-1.73-2.29-.75-.84-1.64-1.57-2.65-2.16-1-.59-2.19-1.06-3.51-1.37-1.34-.32-2.91-.48-4.65-.48-1.89,0-3.65.24-5.21.73-1.55.48-2.9,1.16-4,2.02-1.09.85-1.95,1.89-2.56,3.09-.6,1.19-.91,2.52-.91,3.97,0,1.53.33,2.89.98,4.03.67,1.18,1.56,2.24,2.65,3.16,1.11.94,2.38,1.78,3.78,2.51,1.43.75,2.87,1.44,4.28,2.07.93.42,1.81.87,2.63,1.35.84.49,1.57,1.03,2.17,1.61.62.6,1.12,1.28,1.48,2.02.37.76.56,1.64.56,2.59,0,.62-.15,1.22-.45,1.76-.29.53-.7,1-1.23,1.39-.51.38-1.12.69-1.82.91-.7.22-1.47.34-2.31.34-1.98,0-3.65-.63-4.97-1.86-1.15-1.08-2.08-2.53-2.76-4.33l-5.1,1.96c.45.79.97,1.59,1.53,2.39.68.97,1.56,1.86,2.61,2.65,1.05.79,2.35,1.44,3.88,1.95,1.53.5,3.42.76,5.63.76,2.62,0,4.86-.29,6.68-.86,1.79-.57,3.27-1.35,4.39-2.33,1.11-.97,1.91-2.11,2.4-3.41.5-1.32.75-2.76.75-4.27,0-1.39-.32-2.66-.96-3.77" style="fill:#57c3ea; fill-rule:evenodd;"/><polygon id="Fill-4" points="221.34 124.31 231.26 124.31 231.26 90.26 221.34 93.12 221.34 124.31" style="fill:#57c3ea; fill-rule:evenodd;"/><path id="Fill-6" d="m230.13,77.13c-.49-.44-1.07-.79-1.73-1.05-.66-.26-1.37-.39-2.11-.39s-1.45.13-2.11.39c-.66.26-1.24.61-1.73,1.05-.48.43-.87.95-1.14,1.53-.27.58-.41,1.21-.41,1.87s.14,1.29.41,1.87c.27.58.65,1.09,1.13,1.51.49.43,1.08.78,1.74,1.04.64.25,1.37.38,2.11.38s1.47-.13,2.11-.38c.66-.26,1.25-.61,1.74-1.04.48-.42.87-.93,1.15-1.52.28-.58.42-1.2.42-1.86s-.14-1.28-.42-1.86c-.28-.59-.67-1.11-1.16-1.54" style="fill:#57c3ea; fill-rule:evenodd;"/><path id="Fill-8" d="m258.39,105.2v11.37l-.06.06c-.34.35-.67.67-1,.97-.33.3-.71.58-1.11.84-.4.26-.87.48-1.38.68-.51.19-1.12.35-1.82.47-.52.09-1.02.14-1.48.14-.38,0-.75-.03-1.1-.09-.77-.14-1.44-.41-1.98-.8-.55-.4-.97-.91-1.26-1.53-.29-.62-.43-1.32-.43-2.08s.15-1.56.46-2.25c.3-.69.72-1.34,1.23-1.94.51-.6,1.12-1.17,1.81-1.69.69-.52,1.43-1.02,2.21-1.49.78-.46,1.6-.91,2.44-1.33.84-.42,1.66-.83,2.48-1.24l.69-.28.3-.12v.32Zm6.15-14.66c-1.17-.82-2.68-1.47-4.51-1.93-1.85-.47-4.09-.7-6.65-.7-2.09,0-4.1.22-5.98.65-1.86.43-3.53,1.04-4.95,1.81-1.39.76-2.51,1.66-3.33,2.67-.78.97-1.17,2.03-1.17,3.17,0,.57.11,1.12.34,1.62.23.51.54.95.94,1.31.4.37.89.66,1.46.87.58.21,1.23.32,1.93.32.94,0,1.7-.13,2.27-.39.56-.25,1-.59,1.31-1,.32-.42.55-.91.68-1.46.14-.59.21-1.23.21-1.88s.09-1.28.27-1.85c.18-.61.49-1.15.92-1.62.43-.47.99-.84,1.67-1.1.66-.25,1.48-.38,2.44-.38.82,0,1.58.13,2.25.38.7.27,1.31.7,1.79,1.29.47.58.85,1.32,1.11,2.22.25.87.38,1.93.38,3.15v4.15l-.17.04-1.54.34c-1.43.46-2.93.95-4.46,1.46-1.51.5-2.99,1.04-4.39,1.63-1.39.58-2.72,1.24-3.93,1.95-1.2.7-2.25,1.5-3.13,2.37-.87.86-1.57,1.83-2.07,2.89-.5,1.04-.75,2.24-.75,3.56s.24,2.44.7,3.53c.46,1.08,1.15,2.03,2.02,2.82.88.8,1.98,1.43,3.25,1.88,1.29.45,2.76.68,4.37.68,1.21,0,2.26-.09,3.13-.26.86-.17,1.64-.42,2.31-.73.68-.31,1.31-.68,1.86-1.09.58-.42,1.17-.9,1.78-1.41l.64-.54.36-.31v3.65h9.99v-26.96c0-1.43-.28-2.74-.83-3.88-.55-1.13-1.4-2.12-2.54-2.92h0Z" style="fill:#57c3ea; fill-rule:evenodd;"/><path id="Fill-10" d="m320.92,121.68c-.14,0-.29,0-.43-.02-4.66-.41-8.45-7.47-8.45-15.73s3.54-14.3,8.06-14.3c.14,0,.29,0,.43.02,4.66.41,8.45,7.47,8.45,15.73s-3.54,14.3-8.06,14.3m13.8-28.57c-1.75-1.61-3.86-2.89-6.28-3.81-2.42-.92-5.08-1.39-7.92-1.39s-5.48.48-7.88,1.42c-2.39.94-4.48,2.26-6.22,3.93-1.74,1.67-3.11,3.68-4.09,5.98-.98,2.31-1.48,4.87-1.48,7.61,0,2.54.49,4.94,1.47,7.14.98,2.21,2.35,4.14,4.09,5.76,1.74,1.62,3.84,2.92,6.24,3.84,2.41.93,5.06,1.4,7.9,1.4s5.48-.51,7.88-1.52c2.41-1.01,4.51-2.4,6.26-4.13,1.75-1.73,3.14-3.79,4.13-6.11.99-2.32,1.49-4.83,1.49-7.45,0-2.49-.5-4.84-1.49-6.99-.99-2.16-2.37-4.07-4.12-5.68" style="fill:#57c3ea; fill-rule:evenodd;"/><polygon id="Fill-12" points="304.63 75.69 288.67 97.35 288.5 97.58 288.32 97.35 271.34 75.69 260.25 75.69 279.16 100.15 279.16 100.15 279.26 100.27 281.17 102.73 281.21 102.79 281.21 102.86 281.21 124.31 291.99 124.31 291.99 102.15 291.99 102.08 292.03 102.02 311.2 75.69 304.63 75.69" style="fill:#57c3ea; fill-rule:evenodd;"/><path id="Fill-14" d="m87.77,69.25c-15.96,1.53-28.44,14.98-28.44,31.35,0,5.99,1.67,11.59,4.57,16.35,14.45-10.92,23.82-28.24,23.87-47.7" style="fill:#57c3ea; fill-rule:evenodd;"/><path id="Fill-16" d="m98.8,105.6c-3.4-5.1-6.1-10.7-7.99-16.66-2.75,8.74-7.28,16.69-13.15,23.44l21.14-6.78Z" style="fill:#fabe00; fill-rule:evenodd;"/><path id="Fill-18" d="m99.97,107.3l-32.37,14.52s-.01-.01-.02-.02c0,0-.02.01-.03.02,5.76,6.31,14.05,10.27,23.26,10.27s17.5-3.96,23.26-10.27c-5.41-4.09-10.17-8.99-14.11-14.52" style="fill:#fabe00; fill-rule:evenodd;"/><path id="Fill-20" d="m93.85,69.25h0s0,0,0,0c.03,12.8,4.09,24.67,10.98,34.41l11.41-3.66-10.61,4.76c3.43,4.62,7.5,8.73,12.08,12.2,2.9-4.77,4.57-10.37,4.57-16.35,0-16.37-12.48-29.82-28.44-31.35" style="fill:#57c3ea; fill-rule:evenodd;"/><path id="Fill-1" d="m151.49,107.33l8.08-17.06.2-.42.19.42,7.82,17.06.14.31h-16.58l.15-.31Zm17.76,3.66h.14l.06.13,6.04,13.19h10.89l-22.28-48.62h-4.4l-23.22,48.62h6.81l6.34-13.2.06-.12h19.56Z" style="fill:#6fcfeb; fill-rule:evenodd;"/></g><polygon id="Stroke-23" points="52.57 138.5 347.43 138.5 347.43 61.5 52.57 61.5 52.57 138.5" style="fill:none; stroke:rgba(219,220,220,0);"/></g></g></g></g></svg>