<?xml version="1.0" encoding="UTF-8"?><svg id="_圖層_1" xmlns="http://www.w3.org/2000/svg" viewBox="0 0 400 200"><path d="m164.54,77.64c0-2.77,2.24-5.01,4.99-5.01s5.01,2.24,5.01,5.01-2.24,5.02-5.01,5.02-4.99-2.25-4.99-5.02Z" style="fill:#003580;"/><path d="m243.45,110.99c0-2.77,2.24-5.01,5-5.01s5.01,2.25,5.01,5.01-2.24,5.01-5.01,5.01-5-2.25-5-5.01Z" style="fill:#009fe3;"/><path d="m82.45,84.91c-9.11,0-15.73,6.56-15.73,15.61s6.61,15.61,15.73,15.61,15.79-6.57,15.79-15.61-6.64-15.61-15.79-15.61Zm0,23.92c-4.31,0-7.3-3.42-7.3-8.31s2.99-8.3,7.3-8.3,7.36,3.42,7.36,8.3-2.97,8.31-7.36,8.31Z" style="fill:#003580;"/><path d="m154.85,101.29c-.35-.66-.76-1.23-1.19-1.67l-.28-.29.29-.28c.42-.44.85-.97,1.26-1.57l8.04-11.95h-9.76l-6.04,9.35c-.34.5-1.03.76-2.07.76h-1.38v-17.68c0-3.54-2.2-4.02-4.58-4.02h-4.08v41.73h8.66v-12.52h.81c.99,0,1.66.11,1.97.65l4.77,9.01c1.33,2.44,2.66,2.86,5.16,2.86h6.63l-4.94-8.16-3.28-6.21Z" style="fill:#003580;"/><path d="m196.84,84.84c-4.4,0-7.21,1.96-8.78,3.61l-.53.53-.19-.73c-.46-1.76-2.02-2.74-4.36-2.74h-3.88l.02,30.14h8.59v-13.89c0-1.35.18-2.54.54-3.61.96-3.25,3.62-5.28,6.96-5.28,2.68,0,3.73,1.42,3.73,5.08v13.13c0,3.13,1.45,4.58,4.57,4.58h4.08l-.02-19.17c0-7.61-3.71-11.64-10.75-11.64Z" style="fill:#003580;"/><path d="m169.64,85.52h-4.07l.03,23.3h0v6.83h4.35c.06,0,.1,0,.15,0h2.03s2.01,0,2.01,0h0s.02,0,.02,0v-25.54c.01-3.09-1.46-4.58-4.51-4.58Z" style="fill:#003580;"/><path d="m116.2,84.91c-9.12,0-15.74,6.56-15.74,15.61s6.62,15.61,15.74,15.61,15.79-6.57,15.79-15.61-6.65-15.61-15.79-15.61Zm0,23.92c-4.31,0-7.31-3.42-7.31-8.31s3-8.3,7.31-8.3,7.36,3.42,7.36,8.3-2.96,8.31-7.36,8.31Z" style="fill:#003580;"/><path d="m300.36,84.91c-9.11,0-15.73,6.56-15.73,15.61s6.62,15.61,15.73,15.61,15.79-6.57,15.79-15.61-6.65-15.61-15.79-15.61Zm0,23.92c-4.31,0-7.31-3.42-7.31-8.31s3-8.3,7.31-8.3,7.37,3.42,7.37,8.3-2.97,8.31-7.37,8.31Z" style="fill:#009fe3;"/><path d="m236.08,85.44c-1.63,0-2.89.64-3.52,1.84l-.23.46-.4-.35c-1.39-1.2-3.88-2.62-7.91-2.62-8.03,0-13.45,6.03-13.45,15.01s5.6,15.23,13.61,15.23c2.74,0,4.9-.63,6.61-1.93l.66-.5v.84c0,4.03-2.6,6.25-7.33,6.25-2.29,0-4.38-.56-5.77-1.07-1.82-.55-2.89-.1-3.63,1.73l-.69,1.68-.97,2.47.6.32c3.03,1.6,6.95,2.56,10.5,2.56,7.32,0,15.86-3.75,15.86-14.29l.03-27.64h-3.99Zm-10.37,22.06c-4.69,0-6.36-4.1-6.36-7.94,0-1.69.42-7.21,5.91-7.21,2.73,0,6.37.78,6.37,7.49,0,6.33-3.22,7.66-5.92,7.66Z" style="fill:#003580;"/><path d="m59.39,94.26l-1.26-.71,1.1-.94c1.29-1.11,3.44-3.59,3.44-7.88,0-6.56-5.09-10.79-12.96-10.79h-10.01c-2.34.09-4.2,1.98-4.23,4.33v37.23h14.42c8.75,0,14.41-4.76,14.41-12.14,0-3.98-1.83-7.37-4.9-9.1Zm-15.93-8.34h0v-2.2c0-1.93.82-2.84,2.61-2.96h3.58c3.07,0,4.91,1.84,4.91,4.91,0,2.34-1.26,5.07-4.8,5.07h-6.3v-4.83Zm6.99,22.56h-6.99v-8.37c0-1.79.7-2.72,2.23-2.93h4.77c3.4,0,5.61,2.14,5.61,5.62s-2.15,5.68-5.61,5.68Z" style="fill:#003580;"/><path d="m354.54,84.94c-3.57,0-7.02,1.66-9.23,4.47l-.63.79-.49-.89c-1.59-2.9-4.33-4.37-8.14-4.37s-6.67,2.23-7.91,3.55l-.81.88-.31-1.16c-.46-1.67-1.94-2.59-4.2-2.59h-3.61l-.03,30.03h8.2v-13.25c0-1.17.15-2.31.44-3.51.78-3.21,2.93-6.65,6.55-6.31,2.23.22,3.32,1.94,3.32,5.27v17.8h8.26v-13.25c0-1.45.13-2.54.46-3.63.66-3.06,2.91-6.19,6.4-6.19,2.53,0,3.46,1.43,3.46,5.27v13.41c0,3.04,1.35,4.39,4.38,4.39h3.86v-19.17c.01-7.66-3.36-11.54-9.99-11.54Z" style="fill:#009fe3;"/><path d="m279.88,105.22s-3.56,3.75-8.21,3.75c-4.24,0-8.52-2.6-8.52-8.4,0-5.01,3.32-8.51,8.07-8.51,1.54,0,3.3.56,3.57,1.49l.04.16c.63,2.1,2.55,2.22,2.92,2.22h4.49v-3.93c0-5.18-6.59-7.06-11.02-7.06-9.48,0-16.37,6.61-16.37,15.7s6.81,15.69,16.2,15.69c8.15,0,12.58-5.35,12.62-5.41l.24-.29-3.56-5.91-.46.51Z" style="fill:#009fe3;"/></svg>