<?xml version="1.0" encoding="UTF-8"?><svg id="_圖層_1" xmlns="http://www.w3.org/2000/svg" xmlns:xlink="http://www.w3.org/1999/xlink" viewBox="0 0 400 200"><defs><clipPath id="clippath"><rect x="36.37" y="68.27" width="327.27" height="63.45" style="fill:none;"/></clipPath></defs><g style="clip-path:url(#clippath);"><path d="m164.98,102.2l11.09-15.32c.33-.47.07-.94-.47-.94h-6.03c-.34,0-.74.13-.94.47l-7.32,10.67-7.5-10.67c-.2-.33-.6-.47-.94-.47h-6.44c-.33,0-.54.27-.54.54,0,.13,0,.27.13.4l11.13,15.37-12.27,16.87c-.33.47-.07.94.4.94h6.1c.33,0,.74-.13.94-.47l8.48-12.22,8.61,12.22c.2.34.6.47.94.47h6.5c.33,0,.54-.27.54-.54,0-.13-.07-.27-.13-.4l-12.3-16.92Z" style="fill:#191f3a;"/><path d="m140.2,73.14c.47,0,.8.34.8.8v4.56c0,.47-.34.8-.8.8h-21.65v13.54h19.44c.47,0,.8.33.8.8v4.49c0,.47-.33.8-.8.8h-19.44v14.81h21.65c.47,0,.8.34.8.8v4.69c0,.47-.34.8-.8.8h-25.34c-1.94,0-3.42-1.47-3.42-3.42v-40.09c0-1.94,1.47-3.42,3.42-3.42h25.34Z" style="fill:#191f3a;"/><path d="m200.2,84.87c-6.57,0-10.06,2.88-12.07,5.56v-3.69c0-.47-.34-.81-.8-.81h-5.3c-.47,0-.8.34-.8.81v44.18c0,.47.34.8.8.8h5.36c.47,0,.8-.33.8-.8v-15.22c1.94,2.68,5.43,5.36,12,5.36,10.66,0,16.89-8.04,16.89-18.1s-6.23-18.1-16.89-18.1m-1.21,30.43c-6.57,0-11.06-4.42-11.06-12.27s4.49-12.4,11.06-12.4,10.99,4.56,10.99,12.4-4.42,12.27-10.99,12.27" style="fill:#191f3a;"/><path d="m238.21,84.87c-9.32,0-16.76,6.7-16.76,17.83s6.57,18.37,17.63,18.37c6.37,0,11.66-2.82,14.95-6.7.2-.2.27-.4.27-.6s-.07-.4-.27-.6l-3.08-3.02c-.2-.2-.4-.27-.6-.27s-.4.13-.6.34c-2.55,2.75-5.83,5.09-10.59,5.09-6.94,0-10.28-4.28-10.79-10.46h25.74c.47,0,.8-.34.8-.8v-1.34c0-10.19-6.17-17.83-16.69-17.83m-9.6,14.75c.8-5.59,3.72-9.25,9.55-9.25s9.12,3.42,9.59,9.25h-19.14Z" style="fill:#191f3a;"/><path d="m350.76,85.94h-5.3c-.47,0-.81.33-.81.8v3.75c-2.01-2.68-5.5-5.56-12.2-5.56-10.53,0-16.76,8.04-16.76,18.1s6.24,18.1,16.76,18.1c6.7,0,10.19-2.88,12.2-5.56v3.69c0,.47.34.8.81.8h5.3c.47,0,.8-.34.8-.8v-32.51c0-.47-.33-.8-.8-.8m-16.96,29.43c-6.57,0-10.99-4.56-10.99-12.4s4.42-12.27,10.99-12.27,11.06,4.42,11.06,12.27-4.49,12.4-11.06,12.4" style="fill:#191f3a;"/><path d="m360.02,85.4c-2.08,0-3.69,1.61-3.69,3.62s1.61,3.69,3.69,3.69,3.62-1.61,3.62-3.69-1.61-3.62-3.62-3.62m0,6.64c-1.74,0-2.95-1.27-2.95-3.02s1.21-2.95,2.95-2.95,2.88,1.27,2.88,2.95-1.21,3.02-2.88,3.02" style="fill:#191f3a;"/><path d="m360.69,89.3c.55-.16.73-.63.73-1.02,0-.54-.4-1.07-1.14-1.07h-1.41c-.07,0-.13.07-.13.13v3.35c0,.07.07.13.13.13h.4c.07,0,.13-.07.13-.13v-1.34h.6l.61,1.34c.07.13.13.13.2.13h.47c.07,0,.13-.07.07-.2l-.66-1.33Zm-.54-.55h-.74v-.94h.74c.4,0,.53.27.53.47,0,.27-.13.47-.53.47" style="fill:#191f3a;"/><path d="m294.32,73.14h-5.36c-.47,0-.81.33-.81.8v16.56c-2.01-2.68-5.43-5.56-12.13-5.56-10.52,0-16.76,8.04-16.76,18.1s6.23,18.1,16.76,18.1c6.7,0,10.19-2.88,12.2-5.56v3.69c0,.47.34.8.81.8h5.3c.47,0,.81-.34.81-.8v-45.32c0-.47-.34-.8-.81-.8m-16.96,42.23c-6.57,0-10.99-4.56-10.99-12.4s4.42-12.27,10.99-12.27,11.06,4.42,11.06,12.27-4.49,12.4-11.06,12.4" style="fill:#191f3a;"/><path d="m303.43,73.14h5.5c.44,0,.8.36.8.8v5.5c0,.44-.36.81-.81.81h-5.5c-.44,0-.8-.36-.8-.8v-5.5c0-.44.36-.8.8-.8Z" style="fill:#191f3a;"/><path d="m303.5,85.94h5.36c.44,0,.81.36.81.81v32.51c0,.44-.36.81-.81.81h-5.36c-.44,0-.8-.36-.8-.8v-32.51c0-.44.36-.8.8-.8Z" style="fill:#191f3a;"/><path d="m81.36,124.92h-33.35c-6.43,0-11.65-5.22-11.65-11.65v-33.35c0-6.43,5.22-11.65,11.65-11.65h33.35c6.43,0,11.65,5.22,11.65,11.65v33.35c0,6.43-5.22,11.65-11.65,11.65" style="fill:#fddb33;"/><path d="m53.68,113.91v-5.5c0-.44-.36-.81-.8-.81h-5.5c-.44,0-.8.36-.8.81v5.5c0,.44.36.8.8.8h5.5c.44,0,.8-.36.8-.8" style="fill:#191f3a;"/><path d="m82.8,109.19v-27.09c0-2.01-1.61-3.62-3.62-3.62h-27.08c-.54,0-.87.2-1.21.54l-5.43,5.43c-.4.4-.13,1.01.47,1.01h24.5s-15.19,15.19-15.19,15.19c-.27.27-.4.54-.4,1.01v4c0,.47.34.8.81.8h4c.47,0,.74-.14,1.01-.4l15.19-15.19v24.5c0,.6.6.87,1.01.47l5.43-5.43c.34-.34.54-.67.54-1.21" style="fill:#191f3a;"/></g></svg>