<?xml version="1.0" encoding="UTF-8"?><svg id="_圖層_1" xmlns="http://www.w3.org/2000/svg" xmlns:xlink="http://www.w3.org/1999/xlink" viewBox="0 0 400 200"><defs><clipPath id="clippath"><rect x="32.59" y="70.74" width="334.82" height="58.52" style="fill:none;"/></clipPath></defs><g style="clip-path:url(#clippath);"><path d="m79.07,129.26h-34.45c-6.65,0-12.03-5.39-12.03-12.03v-34.45c0-6.65,5.39-12.03,12.03-12.03h34.45c6.65,0,12.03,5.39,12.03,12.03v34.45c0,6.65-5.39,12.03-12.03,12.03" style="fill:#ef3346;"/><path d="m46.93,95.83h5.68c.46,0,.83.37.83.83v5.68c0,.46-.37.83-.83.83h-5.68c-.46,0-.83-.37-.83-.83v-5.68c0-.46.37-.83.83-.83Z" style="fill:#191e3b;"/><path d="m59.51,108.41h5.68c.46,0,.83.37.83.83v5.68c0,.46-.37.83-.83.83h-5.68c-.46,0-.83-.37-.83-.83v-5.68c0-.46.37-.83.83-.83Z" style="fill:#191e3b;"/><path d="m59.51,95.83h5.68c.46,0,.83.37.83.83v5.68c0,.46-.37.83-.83.83h-5.68c-.46,0-.83-.37-.83-.83v-5.68c0-.46.37-.83.83-.83Z" style="fill:#fddb32;"/><path d="m229.37,103.12c.83-5.78,3.85-9.56,9.87-9.56s9.42,3.53,9.9,9.56h-19.78Zm10.01-15.24c-9.63,0-17.31,6.93-17.31,18.42s6.79,18.98,18.21,18.98c6.58,0,12.05-2.91,15.44-6.93.21-.21.28-.41.28-.62s-.07-.41-.28-.62l-3.19-3.12c-.21-.21-.41-.28-.62-.28s-.42.14-.62.35c-2.63,2.84-6.03,5.26-10.94,5.26-7.17,0-10.62-4.42-11.15-10.8h26.59c.48,0,.83-.35.83-.83v-1.38c0-10.53-6.38-18.42-17.25-18.42" style="fill:#191e3b;"/><path d="m147.49,75.76h-5.75c-.48,0-.83.35-.83.83v19.39h-23.34v-19.39c0-.48-.34-.83-.83-.83h-5.75c-.48,0-.83.35-.83.83v46.82c0,.48.35.83.83.83h5.75c.48,0,.83-.35.83-.83v-20.92h23.34v20.92c0,.48.34.83.83.83h5.75c.48,0,.83-.35.83-.83v-46.82c0-.48-.35-.83-.83-.83" style="fill:#191e3b;"/><path d="m269.23,75.76h-5.54c-.48,0-.83.35-.83.83v46.82c0,.48.35.83.83.83h5.54c.48,0,.83-.35.83-.83v-46.82c0-.48-.35-.83-.83-.83" style="fill:#191e3b;"/><path d="m173.66,119.18c-7.69,0-11.77-5.75-11.77-12.6s4.08-12.6,11.77-12.6,11.77,5.75,11.77,12.6-4.09,12.6-11.77,12.6m0-31.31c-10.32,0-18.98,7.62-18.98,18.7s8.66,18.7,18.98,18.7,18.98-7.62,18.98-18.7-8.66-18.7-18.98-18.7" style="fill:#191e3b;"/><path d="m217.85,88.99h-9v-11.71c0-.62-.62-.9-1.04-.48l-5.61,5.61c-.35.35-.55.69-.55,1.25v5.34h-6.16c-.48,0-.83.35-.83.83v3.88c0,.49.35.83.83.83h6.16v18.91c0,6.58,3.12,10.8,9.7,10.8h6.51c.48,0,.83-.35.83-.83v-4.43c0-.48-.35-.83-.83-.83h-4.57c-3.26,0-4.43-1.25-4.43-4.5v-19.11h9c.48,0,.83-.35.83-.83v-3.88c0-.48-.35-.83-.83-.83" style="fill:#191e3b;"/><path d="m311.33,121.23h-2.4c-.24,0-.4.16-.4.4v2.24c0,.24.16.4.4.4h2.4c.24,0,.4-.16.4-.4v-2.24c0-.24-.16-.4-.4-.4" style="fill:#191e3b;"/><path d="m332.87,122.35c-2.24,0-3.36-1.52-3.36-3.51s1.12-3.51,3.36-3.51,3.35,1.6,3.35,3.51c0,2-1.11,3.51-3.35,3.51m0-9.18c-3.11,0-5.75,2.32-5.75,5.67s2.64,5.67,5.75,5.67,5.75-2.24,5.75-5.67-2.63-5.67-5.75-5.67" style="fill:#191e3b;"/><path d="m292.16,103.11c-5.68-1.25-8.45-2.22-8.45-5.12s2.49-4.43,6.93-4.43c3.95,0,7.06,1.8,9.07,4.64.28.41.76.48,1.18.21l3.74-2.42c.41-.28.55-.69.28-1.18-3.05-4.64-7.89-6.93-14.2-6.93-7.07,0-13.37,3.46-13.37,10.53s5.89,9.35,13.64,11.01c5.47,1.18,7.89,2.08,7.89,5.33s-2.84,4.85-7.62,4.85-8.17-1.94-10.39-5.19c-.28-.48-.76-.62-1.25-.28l-3.74,2.63c-.41.28-.48.69-.28,1.11,2.84,4.78,8.1,7.48,15.58,7.48,9.35,0,14.75-4.64,14.75-10.87,0-7.28-6.02-9.63-13.78-11.36" style="fill:#191e3b;"/><path d="m352.89,113.17c-1.6,0-2.64.64-3.51,1.68-.56-.96-1.76-1.68-3.19-1.68-1.52,0-2.47.72-3.03,1.52v-.8c0-.24-.16-.4-.4-.4h-1.6c-.24,0-.4.16-.4.4v9.98c0,.24.16.4.4.4h1.68c.24,0,.4-.16.4-.4v-5.19c0-2,.56-3.35,2.32-3.35,1.52,0,2,.88,2,2.32v6.23c0,.24.16.4.4.4h1.68c.24,0,.4-.16.4-.4v-5.19c0-2,.64-3.35,2.4-3.35,1.44,0,2,.88,2,2.32v6.23c0,.24.16.4.4.4h1.68c.24,0,.4-.16.4-.4v-6.55c0-2.48-1.53-4.16-4-4.16" style="fill:#191e3b;"/><path d="m324.47,120.68c-.24-.24-.48-.16-.64,0-1.12,1.2-1.84,1.68-3.04,1.68-2,0-3.04-1.52-3.04-3.51s.88-3.51,2.96-3.51c1.36,0,2.08.56,2.79,1.36.16.16.4.24.64.08l.96-.8c.24-.16.4-.4.16-.72-.88-1.2-2.39-2.08-4.55-2.08-3.27,0-5.43,2.24-5.43,5.67s2.16,5.75,5.35,5.75c2.24,0,3.83-.96,4.87-2.4.16-.24.16-.4,0-.56l-1.04-.96Z" style="fill:#191e3b;"/><path d="m80.57,85.02c0-2.08-1.66-3.74-3.74-3.74h-27.98c-.55,0-.9.21-1.25.55l-5.61,5.61c-.41.42-.14,1.04.48,1.04h30.89s0,30.89,0,30.89c0,.62.62.9,1.04.48l5.61-5.61c.35-.35.55-.69.55-1.25v-27.98h0Z" style="fill:#191e3b;"/><path d="m367.29,113.48h-.69c-.12,0-.19,0-.25.12l-1.12,2.94-1.19-2.94c-.06-.12-.13-.12-.25-.12h-.69c-.06,0-.13.06-.13.12v3.5c0,.06.06.12.13.12h.37c.06,0,.12-.06.12-.12v-3.06l1.25,3.06c.06.12.12.12.25.12h.25c.12,0,.19,0,.25-.12l1.19-3.06v3.06c0,.06.06.12.12.12h.37c.06,0,.12-.06.12-.12v-3.5c0-.06-.06-.12-.12-.12" style="fill:#191e3b;"/><path d="m362.16,113.48h-2.87c-.06,0-.13.06-.13.12v.31c0,.06.06.12.13.12h1.12v3.06c0,.06.06.12.13.12h.44c.06,0,.12-.06.12-.12v-3.06h1.06c.06,0,.12-.06.12-.12v-.31c0-.06-.06-.12-.12-.12" style="fill:#191e3b;"/></g></svg>