<?xml version="1.0" encoding="UTF-8"?><svg id="_圖層_1" xmlns="http://www.w3.org/2000/svg" viewBox="0 0 400 200"><path d="m163.38,80.05c-4.53,0-8.59,2.06-11.36,5.31v-3.42h-11.36v55.56h12.63v-19.45c2.77,2.29,6.28,3.67,10.1,3.67,11.16,0,20.2-9.33,20.2-20.83s-9.04-20.83-20.2-20.83Zm20.2,20.83c0-11.51-9.04-20.83-20.2-20.83m-1.26,30.05c-4.88,0-8.84-4.13-8.84-9.22s3.96-9.22,8.84-9.22,8.84,4.13,8.84,9.22-3.96,9.22-8.84,9.22Z" style="fill:#2e499d;"/><circle cx="196.84" cy="114.14" r="7.58" style="fill:#f8b500;"/><path d="m125.51,76.64c-3.91,0-7.07-3.17-7.07-7.07s3.17-7.07,7.07-7.07,7.07,3.17,7.07,7.07-3.17,7.07-7.07,7.07Z" style="fill:#2e499d; fill-rule:evenodd;"/><rect x="119.19" y="81.94" width="12.63" height="37.88" style="fill:#2e499d;"/><polygon points="44.7 64.27 44.7 74.87 61.11 74.87 61.11 119.82 73.74 119.82 73.74 74.87 90.15 74.87 90.15 64.27 44.7 64.27" style="fill:#2e499d; fill-rule:evenodd;"/><path d="m230.93,110.1c-4.88,0-8.84-4.13-8.84-9.22s3.96-9.22,8.84-9.22c2.51,0,4.77,1.09,6.37,2.84l8.36-8.36c-3.77-3.77-8.98-6.1-14.73-6.1-11.51,0-20.83,9.33-20.83,20.83s9.33,20.83,20.83,20.83c5.75,0,10.96-2.33,14.73-6.1l-8.36-8.36c-1.61,1.75-3.87,2.84-6.37,2.84Z" style="fill:#2e499d;"/><path d="m341.45,80.05c-5.11,0-9.27,1.93-11.77,6.21-2.27-3.97-6.43-6.21-11.31-6.21s-8.7,2.29-11.05,6.19v-4.3h-11.36v37.88h12.63v-23.63c0-3.2,2.49-5.79,5.56-5.79s5.56,2.59,5.56,5.79v23.63h11.87v-23.63c0-3.2,2.49-5.79,5.56-5.79s5.56,2.59,5.56,5.79v23.63h12.63v-26c0-8.55-5.37-13.77-13.85-13.77Z" style="fill:#2e499d; fill-rule:evenodd;"/><path d="m268.81,80.05c-11.51,0-20.83,9.33-20.83,20.83s9.33,20.83,20.83,20.83c11.51,0,20.83-9.33,20.83-20.83s-9.33-20.83-20.83-20.83Zm0,30.05c-4.88,0-8.84-4.13-8.84-9.22s3.96-9.22,8.84-9.22,8.84,4.13,8.84,9.22-3.96,9.22-8.84,9.22Z" style="fill:#2e499d;"/><path d="m110.35,81.75c-4.77,0-8.95,2.47-11.36,6.19v-5.99h-11.36v37.88h12.67v-15.9c0-6.53,4.75-10.61,10.61-10.61.68,0,1.33.09,1.98.21v-11.59c-.83-.11-1.67-.2-2.53-.2Z" style="fill:#2e499d;"/></svg>