<?xml version="1.0" encoding="UTF-8"?><svg id="_圖層_1" xmlns="http://www.w3.org/2000/svg" viewBox="0 0 322 90"><path d="m99.32,55.4l-4.68-18.02h3.6c1.59,7.46,2.77,12.43,3.02,14.44h.03c.61-2.97,2.6-10.01,3.69-14.44h3.1c.98,3.65,3.02,11.38,3.55,14.29h.03c.59-3.68,2.61-11.18,3.37-14.29h3.3s-5,18.02-5,18.02h-3.53c-1-4.04-2.84-10.81-3.4-13.58h-.03c-.61,3.03-2.48,9.78-3.5,13.58h-3.53Z"/><path d="m132.86,47.39h-8.73s0,5.2,0,5.2h9.62s-.41,2.8-.41,2.8h-12.5s0-18.01,0-18.01h12.42s0,2.8,0,2.8h-9.13s0,4.43,0,4.43h8.73s0,2.8,0,2.8Z"/><path d="m136.7,37.37h7.54c4.17,0,5.86,2.18,5.86,4.57,0,2.05-1.12,3.39-2.39,3.91,1.23.44,2.94,1.71,2.94,4.18,0,3.19-2.48,5.35-6.17,5.36h-7.78s0-18.02,0-18.02Zm7.1,7.24c2.11,0,2.96-.9,2.96-2.33,0-1.41-1.05-2.25-2.76-2.25h-3.98s0,4.59,0,4.59h3.78Zm-3.77,8.13h3.84c2.16,0,3.33-.94,3.32-2.79,0-1.62-1.05-2.68-3.5-2.68h-3.66s0,5.47,0,5.47Z"/><path d="m160.43,37.36h6.9c5.18,0,8.61,3.45,8.62,8.79,0,5.28-3.33,9.22-8.75,9.22h-6.77s0-18.02,0-18.02Zm3.38,15.25h3.22c3.72,0,5.42-2.73,5.42-6.44,0-3.15-1.57-6.06-5.4-6.06h-3.23s0,12.49,0,12.49Z"/><path d="m191.5,47.38h-8.73s0,5.2,0,5.2h9.62s-.41,2.8-.41,2.8h-12.5s0-18.01,0-18.01h12.42s0,2.8,0,2.8h-9.13s0,4.43,0,4.43h8.73s0,2.8,0,2.8Z"/><path d="m197.72,50.18c.44,1.93,1.8,2.85,4.06,2.85,2.33,0,3.3-.99,3.3-2.44,0-1.58-.88-2.35-4.14-3.12-4.68-1.11-5.98-2.78-5.98-5.25,0-2.98,2.22-5.13,6.4-5.13,4.61,0,6.47,2.54,6.73,5.08h-3.41c-.23-1.28-.98-2.52-3.41-2.52-1.79,0-2.84.77-2.84,2.2,0,1.4.85,1.97,3.85,2.67,5.21,1.24,6.27,3.21,6.27,5.67,0,3.16-2.37,5.42-7.01,5.42-4.56,0-6.81-2.33-7.22-5.43h3.41Z"/><path d="m215.03,37.35v18.02s-3.37,0-3.37,0v-18.02s3.37,0,3.37,0Z"/><path d="m234.78,55.36h-2.51c-.14-.48-.23-1.16-.27-2-.93,1.32-2.61,2.29-5.38,2.29-5.22,0-8.09-3.95-8.09-9.08,0-5.41,3.08-9.48,8.68-9.48,4.48,0,7.18,2.49,7.64,5.62h-3.38c-.45-1.48-1.58-2.93-4.32-2.93-3.87,0-5.13,3.18-5.13,6.64,0,3.31,1.37,6.5,5.11,6.5,3.57,0,4.32-2.44,4.32-4.54v-.17h-4.34s0-2.8,0-2.8h7.64s0,9.96,0,9.96Z"/><path d="m238.87,55.36v-18.02s4.25,0,4.25,0c2.37,4.1,7.03,11.97,7.92,13.93h.04c-.19-2.03-.19-5.06-.19-8.01v-5.92s3.09,0,3.09,0v18.02s-4.02,0-4.02,0c-2.09-3.65-7.13-12.47-8.1-14.53h-.04c.13,1.74.16,5.22.16,8.45v6.07s-3.11,0-3.11,0Z"/><path d="m90.16,69.97l-31.12-49.96-14.22,22.85-14.23-22.84L0,69.2h3.98S30.6,26.41,30.6,26.41l12.24,19.64-14.89,23.93,62.21-.02Zm-31.12-43.57l25.03,40.19h-24.46s-12.8-20.54-12.8-20.54l12.23-19.65Zm-3.41,40.2h-21.6s10.8-17.35,10.8-17.35l10.8,17.35Z"/></svg>