<?xml version="1.0" encoding="UTF-8"?><svg id="_圖層_1" xmlns="http://www.w3.org/2000/svg" viewBox="0 0 400 135"><g><path d="m98.82,65.22c-6.44-2.54-7.4-8.61-15.41-16.34-4.2-4.05-9.33-6.03-14.35-6.03-1.6,0-3.18.2-4.72.6-3.89,1-5.79,3.01-6.55,4.05,1.63.37,3.22,1.12,4.43,3.05.99,1.59,1.16,3.75.57,5.75-.19.65-.47,1.16-.8,1.76.93-.14,1.87-.24,2.86-.24,5.32,0,11.03,2.07,16.7,5.96,3.17,2.18,6.38,4.59,11.14,4.59,3.56,0,5.83-1.62,6.43-2.26.28-.3.26-.67-.3-.89Z" style="fill:#f5333f;"/><path d="m56.55,59.3c2.5-1.14,4.6-4.79,3.15-7.11-1.18-1.91-3.22-2.23-5.61-2.23-.57,0-1.15.06-2.04.13-3.75.27-28.34,3.49-28.57,3.64-.18.13-.43.43-.22,1.18.19.71,1.1,2.09,3.64,2.91-.3.19-1.17.34-1.89.27-1.22-.11-1.9-.39-1.9-.39,0,0-.64,7.64,1.11,10.67,1.11,1.93,2.46,1.69,5.22,1.83,2.36.12,3.14.36,3.91,1.17.45.47.89,1.38.48,1.4-1.24-.02-1.97-.1-2.92-.07-.88.02-1.65.09-2.61.4-.89.29-2.32,1.37-2.93,4.73-.2,1.12-.56,4.39.39,5.09.35.26,1.44.29,3.21.29.34,0,3.72.03,3.76.03.78,0,1.19-.25,1.69-.79,1.33-1.43,4.2-4.01,8.92-5.79,6.71-2.53,7.98-3.85,10.46-6.9,2.95-3.62,2.77-10.47,2.77-10.47Zm-12.28-1.53c-1.54-.58-2.83-1.89-2.83-1.89.02-.7,1.64-1.57,3.54-1.57.91,0,1.89.2,2.78.72-.52,1.19-2.94,2.54-3.48,2.74Z" style="fill:#f5333f;"/><path d="m100.04,74.58c-.28.03-.6.14-1.69.15-3.05,0-8.88-1.2-16.38-7.04-6.12-4.77-12.09-6.96-17.12-6.96-1.98,0-3.74.25-5.46,1.02-.22,3.28-.99,6.67-3.26,9.73-1.3,1.76-2.46,2.99-3.96,4.06,5.43.34,11.61,3.93,14.53,5.55,8.42,4.68,13.97,5.78,17.81,5.76,9.81-.05,15.09-7.18,15.9-11.12.17-.85.05-1.18-.38-1.14Z" style="fill:#f5333f;"/><path d="m82.66,90.83c-3.27-.45-8.34-1.67-17.3-7-2.32-1.38-4.32-2.42-6.26-3.29-3.26-1.46-6.08-2.2-8.84-2.2-3.09.03-5.7.84-8.7,2.36-5.04,2.56-7.92,7.91-8.65,9.45-.28.58.08.79.41.81,2.3.16,6.06.83,10.85,2.71,6.95,2.73,12.99,5.62,20.51,5.86,9.23.29,16.3-4.95,18.14-7.43.5-.68.54-1.17-.16-1.27Z" style="fill:#f5333f;"/><path d="m74.25,39.59c-2.71-1.92-7.37-3.6-12.83-3.6-2.18,0-4.47.3-6.81,1.02-8.58,2.66-12.21,8.39-13.32,11.31,2.84-.36,9.75-1.23,13.38-1.28.41-.78,2.44-4.74,8.95-6.41,1.77-.46,3.39-.69,5.22-.69,1.57,0,3.66.25,5.06.55.03,0,.02,0,0,0,.56.1.8-.58.33-.91Z" style="fill:#f5333f;"/></g><g><g><g><path d="m130.14,92.06v4.52h-4.65c3.2-3.28,5.18-8.17,5.95-11.58l-3.35-.77c-.78,3.62-3.34,9.18-6.57,12.44v2.41h10.98c.63,0,1.14-.51,1.14-1.14v-5.89h-3.5Z" style="fill:#494541;"/><path d="m143.75,72.49l-1.9,1.7c.65.48,2.63,2.51,3,3.26l2.33-1.97c-.71-.8-2.23-2.35-3.43-3Z" style="fill:#494541;"/><rect x="135.56" y="78.93" width="3.5" height="20.65" style="fill:#494541;"/><polygon points="138.21 77.01 136.84 79.52 151.57 79.52 151.57 77.01 138.21 77.01" style="fill:#494541;"/><polygon points="138.21 83.31 136.84 85.82 151.02 85.82 151.02 83.31 138.21 83.31" style="fill:#494541;"/><polygon points="138.21 89.61 136.84 92.11 151.02 92.11 151.02 89.61 138.21 89.61" style="fill:#494541;"/><path d="m120.93,77.01v2.34h11.89c.63,0,1.14-.51,1.14-1.14v-1.2h-13.03Z" style="fill:#494541;"/><path d="m137.67,72.76c-.42,1.74-2.45,6.85-6.41,9.24l1.32,2.47c4.55-1.94,7.87-7.71,8.37-10.64l-3.27-1.08Z" style="fill:#494541;"/><polygon points="143.06 77.52 143.06 98.03 146.56 98.03 146.56 78.33 143.06 77.52" style="fill:#494541;"/><path d="m125.02,72.82c-.15,7.19-2.12,13.47-5.49,18.18l2.26,1.98c4.18-5.22,6.45-11.71,6.72-19.33l-3.49-.83Z" style="fill:#494541;"/><path d="m138.56,95.91v2.51h11.87c.63,0,1.14-.51,1.14-1.14v-1.37h-13.01Z" style="fill:#494541;"/></g><g><g><rect x="168.69" y="77.28" width="5.13" height="2.34" style="fill:#494541;"/><rect x="168.69" y="83.61" width="5.13" height="2.34" style="fill:#494541;"/><rect x="168.69" y="87.96" width="5.12" height="2.34" style="fill:#494541;"/><rect x="168.69" y="94.9" width="5.12" height="2.34" style="fill:#494541;"/><path d="m172.3,87.96v9.29h1.97c.63,0,1.14-.51,1.14-1.14v-8.15h-3.11Z" style="fill:#494541;"/><rect x="178.04" y="78.59" width="10.29" height="2.34" style="fill:#494541;"/><rect x="180.99" y="73.22" width="3.11" height="26.34" style="fill:#494541;"/><rect x="176.45" y="78.59" width="3.11" height="17.5" style="fill:#494541;"/><path d="m185.53,78.59v17.97h1.97c.63,0,1.14-.51,1.14-1.14v-16.83h-3.11Z" style="fill:#494541;"/><rect x="176.04" y="73.22" width="12.6" height="2.34" style="fill:#494541;"/><rect x="178.04" y="78.59" width="10.29" height="2.34" style="fill:#494541;"/><rect x="180.99" y="73.22" width="3.11" height="26.34" style="fill:#494541;"/><rect x="176.45" y="78.59" width="3.11" height="17.57" style="fill:#494541;"/><path d="m185.53,78.59v17.97h1.97c.63,0,1.14-.51,1.14-1.14v-16.83h-3.11Z" style="fill:#494541;"/><rect x="176.04" y="73.22" width="12.6" height="2.34" style="fill:#494541;"/><rect x="167.04" y="77.28" width="3.11" height="22.28" style="fill:#494541;"/><path d="m172.3,77.28v8.66h1.97c.63,0,1.14-.51,1.14-1.14v-7.52h-3.11Z" style="fill:#494541;"/><path d="m164.53,72.85c-.29,1.66-1.99,6.83-7.27,9l.59,2.76c5.69-1.41,9.31-7.48,10-10.97l-3.33-.79Z" style="fill:#494541;"/><path d="m169.91,72.78c-.23,1.09-.96,3.34-2.07,4.76l2.8.62c1.24-.94,2.31-3.43,2.61-4.6l-3.33-.79Z" style="fill:#494541;"/></g><path d="m158.34,73.75l-.74,2.63c4.7.2,4.99,5.77,4.99,7.6v10.21c0,1.37-.94,2.53-2.76,2.79l-.66.03.36,2.75h.84c3.26-.08,5.33-2.41,5.33-5.45v-10.33c0-6.92-2.5-10.1-7.36-10.23Z" style="fill:#494541;"/><path d="m162.95,85.14c-.38,1.14-2.58,3.6-5.73,5.1l.64,2.75c2.96-.69,5.79-2.89,7.78-5.73l-2.69-2.11Z" style="fill:#494541;"/></g></g><g><g><path d="m223.37,84.29c-.96,1.28-2.61,3.11-5.25,4.75h.03s.54,2.44.54,2.44c2.6-.63,6.19-3.45,7.83-6.1l-3.15-1.1Z" style="fill:#494541;"/><rect x="201.37" y="82.03" width="7.12" height="2.34" style="fill:#494541;"/><path d="m205.74,82.03v17.46h2.2c.63,0,1.15-.51,1.15-1.14v-16.32h-3.34Z" style="fill:#494541;"/><path d="m202.51,97.15l.75,2.34h4.68c.63,0,1.15-.51,1.15-1.14v-1.2h-6.58Z" style="fill:#494541;"/><path d="m211.56,97.15v1.2c0,.63.51,1.14,1.14,1.14h4.47l.75-2.34h-6.36Z" style="fill:#494541;"/><path d="m195.35,75.87v2.34h12.79c.63,0,1.14-.51,1.14-1.14v-1.2h-13.93Z" style="fill:#494541;"/><path d="m202.1,72.2l-1.9,1.7c.65.48,2.63,2.5,3,3.26l2.33-1.97c-.71-.8-2.23-2.35-3.43-3Z" style="fill:#494541;"/><path d="m202.49,76.93l-3.32-.7h-.04s-.16.01-.16.01v.14c.24,8.61-1.91,17.36-4.81,21.67l2.48,1.6c3.69-4.84,5.95-13.89,5.85-22.6v-.12Z" style="fill:#494541;"/><path d="m211.94,75.1l.35,2.34h12.21c.63,0,1.14-.51,1.14-1.14v-1.2h-13.7Z" style="fill:#494541;"/><path d="m222.22,78.57c-1.97,1.61-9.14,3.46-10.67,3.46v16.32c0,.63.51,1.14,1.14,1.14h2.2v-14.94c3.62-.41,7.78-1.87,9.91-3.77l-2.58-2.2Z" style="fill:#494541;"/><path d="m212.2,72.59c-.3,1.32-1.64,4.93-3.84,7.32l2.27,1.98c2.82-2.33,4.5-6.11,4.9-8.51l-3.33-.79Z" style="fill:#494541;"/><path d="m219.4,82.33l-3.05.57c.1,4.92,2.09,13.25,7.24,17.05l2.48-1.66c-4.25-4.04-6.77-11.31-6.67-15.96Z" style="fill:#494541;"/></g><g><rect x="243.05" y="81.6" width="6.85" height="2.34" style="fill:#494541;"/><path d="m246.56,81.6v13.76h2.2c.63,0,1.14-.51,1.14-1.14v-12.62h-3.34Z" style="fill:#494541;"/><path d="m243.54,93.02l.75,2.34h4.47c.63,0,1.14-.51,1.14-1.14v-1.2h-6.37Z" style="fill:#494541;"/><path d="m251.69,80.22v2.35h6.06c-.87.94-2.64,1.66-2.64,1.66v8.79h-3.24l.75,2.34h4.69c.63,0,1.14-.51,1.14-1.14v-9.11c1.1-.62,2.49-1.61,2.97-2.64v-2.24h-9.74Z" style="fill:#494541;"/><path d="m231.85,79.87v2.34h5.68c.63,0,1.15-.52,1.15-1.14v-1.2h-6.83Z" style="fill:#494541;"/><path d="m239.42,76.34v2.34h9.12c.63,0,1.14-.51,1.14-1.14v-1.2h-10.26Z" style="fill:#494541;"/><path d="m252.86,75.36l-.32.06-.5,2.39h8.55c.63,0,1.14-.51,1.14-1.14v-1.31h-8.87Z" style="fill:#494541;"/><path d="m252.05,72.84c0,1.23-.79,4.86-2.65,6.77l2.33,1.8c2.19-1.56,3.54-5.17,3.65-7.78l-3.34-.79Z" style="fill:#494541;"/><rect x="250.7" y="86.38" width="11.38" height="2.34" style="fill:#494541;"/><path d="m235.33,80.53v2.77c0,5.26-1.6,10.25-4.52,15.01l2.76,1.07c3.06-3.61,5.11-10.23,5.11-15.5v-3.35h-3.34Z" style="fill:#494541;"/><path d="m245.16,76.83l-2.86-.02h0s-.15,0-.15,0h-.16c.27,6.88-1.01,12.02-3.42,15.79l2.28,1.64c2.96-3.37,4.58-9.84,4.47-17.42h-.15Z" style="fill:#494541;"/><path d="m243.16,72.62l-1.97,1.65c.79.71,2.95,3.25,3.12,3.98l2.89-1.48c-.55-.94-2.95-3.47-4.04-4.16Z" style="fill:#494541;"/><path d="m244.36,97.21c-6.91-.05-7.26-4.7-7.26-5.63v-.22l-2.63.99v.11c0,4.65,3.69,7.11,10.69,7.11h16.29c.63,0,1.14-.51,1.14-1.14v-1.2h-18.23Z" style="fill:#494541;"/><path d="m233.8,73.37l-1.97,1.65c.65.48,3.18,2.98,3.63,3.85l2.33-1.97c-.71-.8-2.79-2.89-3.99-3.54Z" style="fill:#494541;"/></g></g></g><g><g><g><path d="m366.69,53.93v-17.95h-5.79v23.74h18.74c1.3,0,2.36-1.06,2.36-2.35v-3.43h-15.31Z" style="fill:#494541;"/><g><path d="m233.52,36.03v23.68h3.43c1.29,0,2.35-1.06,2.35-2.35v-21.32h-5.78Z" style="fill:#494541;"/><rect x="224.57" y="36.03" width="23.67" height="5.77" style="fill:#494541;"/></g><polygon points="324.83 35.97 316.89 54.92 308.95 35.97 302.69 35.97 312.65 59.71 321.13 59.71 331.09 35.97 324.83 35.97" style="fill:#494541;"/><path d="m355.55,41.8v-5.83h-21.13v23.74h18.77c1.3,0,2.36-1.06,2.36-2.35v-3.43h-15.31v-3.47h14.04v-5.3h-14.04v-3.35h15.31Z" style="fill:#494541;"/><path d="m270,51.59c2.89-1.25,4.92-4.13,4.92-7.47,0-4.49-3.65-8.14-8.14-8.14h-14.06,0s0,0,0,0v23.73h3.43c1.3,0,2.35-1.06,2.35-2.35v-5.11h5.36l3.63,5.99c.49.81,1.66,1.47,2.6,1.47h5.02l-5.12-8.13Zm-11.49-9.84h8.27c1.3,0,2.37,1.06,2.37,2.37s-1.06,2.37-2.37,2.37h-8.27v-4.74Z" style="fill:#494541;"/></g><path d="m299.46,59.71h6.26l-9.96-23.74h-8.48l-9.96,23.74h6.26l2.06-4.93h11.75l2.06,4.93Zm-11.4-10.69l3.46-8.25,3.46,8.25h-6.92Z" style="fill:#494541;"/></g><g><path d="m207.39,36.01v15.56l-13.07-15.56h-6.89v23.7h5.78v-16.09l13.52,16.09h4.09c1.29,0,2.35-1.06,2.35-2.35v-21.35h-5.78Z" style="fill:#494541;"/><g><path d="m169.5,40.74c3.51,0,6.5,1.95,7.65,4.68,1.79-1.26,3.26-2.57,4.3-3.83-2.36-3.9-6.83-6.55-11.95-6.55-7.57,0-13.73,5.77-13.73,12.86,0,1.85.43,3.61,1.18,5.2,1.82-.18,3.79-.55,5.85-1.11-.93-1.16-1.47-2.57-1.47-4.09,0-3.95,3.66-7.16,8.17-7.16Z" style="fill:#494541;"/><path d="m177.66,47.82s0,.06,0,.08c0,3.95-3.67,7.16-8.17,7.16-1.74,0-3.34-.48-4.66-1.29-2.3.7-4.52,1.19-6.6,1.47,2.48,3.33,6.6,5.52,11.26,5.52,7.57,0,13.73-5.77,13.73-12.86,0-1.43-.26-2.8-.72-4.08-1.3,1.39-2.95,2.74-4.84,4Z" style="fill:#494541;"/></g><path d="m145.8,36.01v23.7h3.42c1.3,0,2.35-1.06,2.35-2.35v-21.35h-5.77Z" style="fill:#494541;"/><path d="m126.2,53.94v-17.92h-5.77v23.7h18.71c1.29,0,2.35-1.06,2.35-2.35v-3.42h-15.29Z" style="fill:#494541;"/></g></g></svg>