<?xml version="1.0" encoding="UTF-8"?><svg id="_圖層_1" xmlns="http://www.w3.org/2000/svg" viewBox="0 0 400 135"><g><path d="m251.49,76.25h-22.3v-2.84h5.03c1.75,0,2.84-.87,2.84-2.84v-6.34h0v-11.15c0-1.75-.87-2.84-2.84-2.84h-12.68v-1.09c0-.44.22-.66.66-.66h11.37c.44,0,.66-.22.66-.66v-3.94c0-.44-.22-.66-.66-.66h-15.96c-1.75,0-2.84.87-2.84,2.84v12.02h0v12.02c0,1.75.87,2.84,2.84,2.84h5.03v2.84h-22.52c-.44,0-.66.22-.66.66v3.72c0,.44.22.66.66.66h9.62l-7.21,12.24c-.22.44,0,.66.22.66h5.9c.44,0,.87-.22,1.09-.66l7.21-12.24h5.68v13.55c0,.44.22.66.66.66h5.25c.44,0,.66-.22.66-.66v-13.55h5.68l7.21,12.24c.22.44.66.66,1.09.66h5.9c.44,0,.44-.22.22-.66l-7.21-12.24h9.62c.44,0,.66-.22.66-.66v-3.72c-.44,0-.66-.22-.87-.22Zm-30.17-20.11c0-.22.22-.44.66-.44h7.87c.22,0,.66.22.66.44v2.4h0v.87h-8.96v-.87h0v-2.4s-.22,0-.22,0Zm.44,12.02c-.22,0-.66-.22-.66-.44v-3.06h8.96v3.06c0,.22-.22.44-.66.44h-7.65Zm-21.64,5.25h9.18c1.75,0,2.62-.87,2.62-2.62v-17.71c0-1.75-.87-2.62-2.62-2.62h-9.18c-.44,0-.66.22-.66.66v3.72c0,.22.22.66.66.66h5.03s.44.22.44.44v12.24c0,.22-.22.44-.44.44h-5.03c-.44,0-.66.22-.66.66v3.72c.22,0,.44.44.66.44Zm46.35-18.15h5.03c.44,0,.66-.22.66-.66v-3.72c0-.22-.22-.66-.66-.66h-9.18c-1.75,0-2.62.87-2.62,2.62v17.71c0,1.75.87,2.62,2.62,2.62h9.18c.44,0,.66-.22.66-.66v-3.72c0-.22-.22-.66-.66-.66h-4.81c-.22,0-.44-.22-.44-.44l.22-12.46c-.44.22-.22,0,0,0Z" style="fill:#84329b;"/><path d="m280.13,50.45h-20.55c-.44,0-.66.22-.66.66v3.94c0,.44.22.66.66.66h2.62l-3.06,36.73c0,.44.22.66.66.66h5.68c.44,0,.66-.22.66-.66l2.4-27.98h5.25v24.7c0,.44-.44.66-.66.66h-1.97c-.44,0-.66.22-.66.66v4.15c0,.44.22.66.66.66h5.68c2.4,0,3.72-1.31,3.72-3.72v-29.95c0-1.75-1.09-2.62-2.62-2.62h-8.75l.22-3.72h11.15c.44,0,.66-.22.66-.66v-3.94c-.44,0-.66-.22-1.09-.22Zm-16.83-1.75h13.12c.44,0,.66-.22.66-.66v-3.94c0-.44-.22-.66-.66-.66h-13.12c-.44,0-.66.22-.66.66v3.94c0,.44.22.66.66.66Zm47,6.12v-3.94c0-.44-.22-.66-.66-.66h-16.83l3.72-6.34c.22-.44,0-.66-.22-.66h-5.68c-.44,0-.87.22-1.09.66l-6.12,10.93c-.22.44,0,.66.22.66h26.02c.44,0,.66-.22.66-.66Zm.66,38.7l-11.59-19.9h9.62c.44,0,.66-.22.66-.66v-3.94c0-.44-.22-.66-.66-.66h-18.36v-4.15h19.02c.44,0,.66-.22.66-.66v-3.94c0-.44-.22-.66-.66-.66h-22.96c-1.75,0-2.62,1.09-2.62,2.84v29.73c0,2.4,1.31,3.72,3.72,3.72h5.68c.44,0,.66-.22.66-.66v-4.15c0-.44-.22-.66-.66-.66h-1.97c-.44,0-.66-.22-.66-.66v-17.71l12.9,22.08c.22.44.66.66,1.09.66h6.12c.22-.22.22-.44,0-.66Z" style="fill:#84329b;"/><path d="m329.76,55.48h3.06l-2.4,28.64c0,.44.22.66.66.66h4.81c.44,0,.66-.22.66-.66l1.75-19.68h3.94v16.4c0,.44-.44.66-.66.66h-1.09c-.44,0-.66.22-.66.66v4.15c0,.44.44.66.66.66h4.15c2.4,0,3.72-1.31,3.72-3.72v-21.43c0-1.75-.87-2.84-2.62-2.84h-7l.22-3.72h8.96c.44,0,.66-.22.66-.66v-3.94c0-.44-.22-.66-.66-.66h-18.36c-.44,0-.66.22-.66.66v3.94c.22.66.66.87.87.87Zm-12.24,0h8.53c.44,0,.66-.22.66-.66v-3.94c0-.44-.22-.66-.66-.66h-8.53c-.44,0-.66.22-.66.66v3.94c0,.44.44.66.66.66Zm15.3-6.78h10.49c.44,0,.66-.22.66-.66v-3.94c0-.44-.22-.66-.66-.66h-10.49c-.44,0-.66.22-.66.66v3.94c.22.44.44.66.66.66Zm34.98,1.75h-7.65l3.72-6.34c.22-.44,0-.66-.22-.66h-5.68c-.44,0-.87.22-1.09.66l-6.12,10.93c-.22.44,0,.66.22.66h16.83c.44,0,.66-.22.66-.66v-3.94c0-.44-.22-.66-.66-.66Zm0,21.21h-5.03v-1.31c.22,0,.22-.22.44-.44,2.4-1.97,3.06-4.59,3.28-6.12v-.22h0v-.87h0v-3.06c0-.44-.22-.66-.66-.66h-12.68c-.44,0-.66.22-.66.66v3.94c0,.44.22.66.66.66h8.09c-.22,2.4-1.09,2.84-1.75,3.06h-2.19c-.44,0-.66.22-.66.66v3.72h-5.25c-.44,0-.66.22-.66.66v3.72c0,.44.22.66.66.66h5.25v9.84c0,.44.22.66.66.66h5.03c.44,0,.66-.22.66-.66v-9.84h5.03c.44,0,.66-.22.66-.66v-3.72c-.22-.44-.44-.66-.87-.66Zm0,17.49h-35.64c-.22,0-4.81-.66-4.81-5.47v-23.83c0-.44-.22-.66-.66-.66h-10.06c-.44,0-.66.22-.66.66v3.94c0,.44.22.66.66.66h4.15v20.33c0,4.59-2.84,4.59-3.28,4.59h-.66c-.44,0-.44.44-.44.44v4.15c0,.44.22.66.66.66h.87c3.5,0,5.9-1.75,7.21-3.72,1.53,1.97,3.94,3.5,6.78,3.5h35.85c.44,0,.66-.22.66-.66v-3.94c0-.44-.22-.66-.66-.66Z" style="fill:#84329b;"/><path d="m192.24,45.86h-50.94c-.44,0-.66.22-.66.66v4.59c0,.44.44.66.66.66h39.13v37.17c0,.44-.44.66-.66.66h-2.4c-.44,0-.66.22-.66.66v4.15c0,.44.22.66.66.66h7c2.4,0,3.72-1.31,3.72-3.72v-39.79h4.15c.44,0,.66-.22.66-.66v-4.59c.22,0-.22-.44-.66-.44Zm-21.21,10.93h-20.99c-2.19,0-3.5,1.09-3.5,3.5v19.46c0,2.19,1.31,3.5,3.5,3.5h20.99c2.19,0,3.5-1.09,3.5-3.5v-19.46c0-2.19-1.09-3.5-3.5-3.5Zm-4.15,19.9c0,.44-.22.66-.66.66h-11.37c-.44,0-.66-.22-.66-.66v-13.55c0-.44.22-.66.66-.66h11.37c.44,0,.66.22.66.66v13.55Z" style="fill:#84329b;"/></g><g><path d="m124.03,67.5c0,25.36-20.77,45.91-46.35,45.91s-46.35-20.55-46.35-45.91,20.77-45.91,46.35-45.91,46.35,20.55,46.35,45.91Z" style="fill:#ffc600;"/><path d="m62.81,59.41l-.44.44s-3.06,2.62-6.12,2.62c-1.97,0-4.37-1.31-4.37-3.94,0-2.4,1.53-4.15,3.72-4.15.44,0,.87,0,1.09.22.22,0,.66.22.66.66v.22c0,.22.22.44.44.44h3.72c.22,0,.44-.22.44-.44v-1.53c0-3.06-3.94-4.15-6.34-4.15-2.62,0-5.03.87-6.78,2.62-1.53,1.53-2.4,3.72-2.4,6.12,0,5.03,3.94,8.96,9.18,8.96,4.37,0,7.43-2.62,8.31-3.5-.44-1.31-.87-2.84-1.09-4.59Z" style="fill:#84329b;"/><path d="m90.58,62.47h-.66c-.22,0-.44-.22-.44-.44v-15.09c0-1.75-.87-2.84-2.84-2.84h-3.94c-.22,0-.44.22-.44.44v3.72c0,.22.22.44.44.44h.87c.22,0,.44.22.44.44v14.87c0,1.97.87,2.84,2.84,2.84h3.72c.22,0,.44-.22.44-.44v-3.72s-.22-.22-.44-.22Z" style="fill:#84329b;"/><g><path d="m67.4,90.24c-5.25,0-9.18-3.72-9.18-8.96s3.94-8.96,9.18-8.96,9.18,3.72,9.18,8.96c.22,5.25-3.72,8.96-9.18,8.96h0Zm0-12.9c-2.19,0-3.94,1.75-3.94,4.15s1.75,4.15,3.94,4.15,3.94-1.75,3.94-4.15c0-2.4-1.75-4.15-3.94-4.15h0Z" style="fill:#84329b;"/><path d="m58.22,85.43c0-.22-.22-.44-.44-.44h-.87c-1.09,0-2.4-.44-2.4-2.19v-5.47h3.06c.22,0,.44-.22.44-.44v-3.5c0-.22-.22-.44-.44-.44h-3.06v-3.72c0-.22-.22-.44-.44-.44h-4.15c-.22,0-.44.22-.44.44v3.72h-1.53c-.22,0-.44.22-.44.44v3.5c0,.22.22.44.44.44h1.31v5.9c0,2.62.87,4.37,2.84,5.47,1.53.87,3.28,1.09,4.37,1.09.66,0,1.31,0,1.31-.22h0c.22,0,.44-.44.44-.66v-3.5h0Z" style="fill:#84329b;"/><path d="m95.82,85.21h-.87c-.22,0-.44-.22-.44-.44v-11.15c0-.22-.22-.44-.44-.44h-4.37c-.22,0-.44.22-.44.44v7.21c0,2.19-1.09,4.59-3.72,4.59-1.09,0-1.75-.44-1.75-2.4v-7.21c0-1.75-.87-2.84-2.84-2.84h-3.72c-.22,0-.44.22-.44.44v3.72c0,.22.22.44.44.44h.66c.22,0,.44.22.44.44v5.47c0,2.19.44,3.94,1.53,5.03s2.62,1.75,4.59,1.75c1.75,0,3.5-.66,4.81-1.97.44,1.09,1.31,1.53,2.62,1.53h3.72c.22,0,.44-.22.44-.44v-3.72c.44-.22,0-.44-.22-.44Z" style="fill:#84329b;"/><path d="m108.29,72.75h-.87c-1.53,0-3.06.66-4.37,1.97-.22-1.09-1.31-1.75-2.62-1.75h-3.72c-.22,0-.44.22-.44.44v3.72c0,.22.22.44.44.44h1.31v11.59c0,.22.22.44.44.44h4.15c.22,0,.44-.22.44-.44v-6.34c0-.87,0-1.53.22-2.4.66-1.97,2.19-2.62,3.5-2.62h1.09c.22,0,.44-.22.44-.44v-4.15c.66,0,.44-.22,0-.44Z" style="fill:#84329b;"/></g><path d="m108.29,62.47h-1.31v-5.68c0-2.19-.66-3.94-1.97-5.25-1.31-1.09-3.06-1.75-5.47-1.75-1.53,0-6.34.22-6.34,3.94v1.31c0,.22.22.44.44.44h3.94c.22,0,.44-.22.44-.44v-.22c0-.44.22-.44.44-.66h.87c1.75,0,1.97.66,2.19,1.75-3.06,0-9.62.66-9.62,5.9,0,3.72,3.06,5.47,6.12,5.47,2.19,0,3.5-.87,4.15-1.53.44.87,1.31,1.31,2.4,1.31h3.72c.22,0,.44-.22.44-.44v-3.72c.22-.22,0-.44-.44-.44Zm-9.4.44c-1.09,0-1.53-.66-1.53-1.31,0-1.53,2.62-1.75,4.37-1.75-.22,1.75-1.31,3.06-2.84,3.06Z" style="fill:#84329b;"/><path d="m84.46,58.75c0,5.9-4.81,10.71-10.93,10.71s-10.93-4.81-10.93-10.71,4.81-10.71,10.93-10.71,10.93,4.81,10.93,10.71Z" style="fill:#00a3e0;"/></g></svg>