<?xml version="1.0" encoding="UTF-8"?><svg id="_圖層_1" xmlns="http://www.w3.org/2000/svg" xmlns:xlink="http://www.w3.org/1999/xlink" viewBox="0 0 300 300"><defs><clipPath id="clippath"><rect x="-1.93" y="-1265.95" width="1921.93" height="1007.33" style="fill:none;"/></clipPath></defs><g style="clip-path:url(#clippath);"><path d="m1980.76-497.76c-.04,16.39-.83,424.56-1.83,506.58H-29.14c1.16-101.55,2.1-523.05,2.1-523.05,0,0,165.83-30.89,268.29-48.86,102.39-18.61,210.29-31.65,232.12-33.5,188.27-17.21,376.58,2.79,565.21-3.96,314.09-11.36,632.72,33.88,942.18,102.79Z" style="fill:#fff4eb;"/><rect x="-.33" y="-1295.09" width="1921.93" height="1954.1" style="fill:none;"/></g><g><line x1="182.18" y1="63.29" x2="79.27" y2="63.29" style="fill:none; stroke:#344154; stroke-linecap:round; stroke-miterlimit:10; stroke-width:5.06px;"/><g><line x1="166.76" y1="217.66" x2="79.27" y2="217.66" style="fill:none; stroke:#344154; stroke-linecap:round; stroke-miterlimit:10; stroke-width:5.06px;"/><line x1="79.27" y1="63.29" x2="182.18" y2="63.29" style="fill:none; stroke:#344154; stroke-linecap:round; stroke-miterlimit:10; stroke-width:5.06px;"/></g><path d="m181.01,252.97h-100.58c-7.78,0-14.08-6.3-14.08-14.08V55.08c0-7.78,6.3-14.08,14.08-14.08h100.58c7.78,0,14.08,6.31,14.08,14.08v45.48" style="fill:none; stroke:#344154; stroke-linecap:round; stroke-miterlimit:10; stroke-width:5.06px;"/><path d="m138.86,235.51c0-4.49-3.64-8.14-8.14-8.14s-8.14,3.64-8.14,8.14,3.64,8.14,8.14,8.14,8.14-3.64,8.14-8.14Z" style="fill:none; stroke:#344154; stroke-linecap:round; stroke-miterlimit:10; stroke-width:5.06px;"/><line x1="117.97" y1="52.27" x2="143.48" y2="52.27" style="fill:none; stroke:#344154; stroke-linecap:round; stroke-miterlimit:10; stroke-width:5.06px;"/><path d="m152.19,126.23c0-14.08,11.39-25.47,25.47-25.47" style="fill:none; stroke:#344154; stroke-linecap:round; stroke-miterlimit:10; stroke-width:5.06px;"/><path d="m138.54,128.13c0-22.68,18.35-41.03,41.03-41.03" style="fill:none; stroke:#344154; stroke-linecap:round; stroke-miterlimit:10; stroke-width:5.06px;"/></g><rect x="178.29" y="234" width="57.71" height="23" style="fill:#17c2c9;"/><g><path d="m195.97,158.44v-19.26h7.54c4.16,0,7.54,3.38,7.54,7.54" style="fill:none; stroke:#344154; stroke-linecap:round; stroke-linejoin:round; stroke-width:4.64px;"/><path d="m241.16,173.7c-.37,14.28-2.74,28.46-7.12,42.07-1.42,4.4-2.09,7.86-2.09,7.86h-32.39" style="fill:none; stroke:#344154; stroke-linecap:round; stroke-linejoin:round; stroke-width:4.64px;"/><path d="m195.97,139.18v-20.03c0-4.17-3.38-7.54-7.54-7.54h0c-4.17,0-7.54,3.37-7.54,7.54v55.83l-5.2-13.53c-1.33-3.46-4.64-5.73-8.35-5.73h0c-4.94,0-8.94,4-8.94,8.94h0c0,9.05,2.37,17.96,7.02,25.74,1.78,2.97,3.91,6.04,6.42,8.84,9.27,10.36,11.72,24.39,11.72,24.39" style="fill:none; stroke:#344154; stroke-linecap:round; stroke-linejoin:round; stroke-width:4.64px;"/><path d="m211.05,164.07v-19.26h7.54c4.17,0,7.54,3.38,7.54,7.54v18.26" style="fill:none; stroke:#344154; stroke-linecap:round; stroke-linejoin:round; stroke-width:4.64px;"/><path d="m226.13,154.44h7.54c4.17,0,7.54,3.38,7.54,7.54v11.72" style="fill:none; stroke:#344154; stroke-linecap:round; stroke-linejoin:round; stroke-width:4.64px;"/></g><rect x="177.64" y="233.76" width="58.47" height="23.21" style="fill:none; stroke:#344154; stroke-linecap:round; stroke-linejoin:round; stroke-width:4.64px;"/><path d="m228.04,245.89c0-1.29-1.04-2.33-2.33-2.33s-2.33,1.04-2.33,2.33,1.04,2.33,2.33,2.33,2.33-1.04,2.33-2.33Z" style="fill:none; stroke:#344154; stroke-linecap:round; stroke-linejoin:round; stroke-width:4.95px;"/></svg>