<?xml version="1.0" encoding="UTF-8"?><svg id="_圖層_1" xmlns="http://www.w3.org/2000/svg" xmlns:xlink="http://www.w3.org/1999/xlink" viewBox="0 0 300 300"><defs><clipPath id="clippath"><rect x="-487.93" y="-1265.95" width="1921.93" height="1007.33" style="fill:none;"/></clipPath></defs><g style="clip-path:url(#clippath);"><path d="m1494.76-497.76c-.04,16.39-.83,424.56-1.83,506.58H-515.14c1.16-101.55,2.1-523.05,2.1-523.05,0,0,165.83-30.89,268.29-48.86,102.39-18.61,210.29-31.65,232.12-33.5,188.27-17.21,376.58,2.79,565.21-3.96,314.09-11.36,632.72,33.88,942.18,102.79Z" style="fill:#fff4eb;"/><rect x="-486.33" y="-1295.09" width="1921.93" height="1954.1" style="fill:none;"/></g><g><rect x="63.12" y="43.36" width="149.64" height="189.2" rx="5.52" ry="5.52" style="fill:none; stroke:#344154; stroke-linecap:round; stroke-linejoin:round; stroke-width:5.02px;"/><line x1="87.66" y1="112.91" x2="188.2" y2="112.91" style="fill:none; stroke:#344154; stroke-linecap:round; stroke-linejoin:round; stroke-width:5.02px;"/><line x1="137.93" y1="62.64" x2="137.93" y2="112.96" style="fill:none; stroke:#344154; stroke-linecap:round; stroke-linejoin:round; stroke-width:5.02px;"/><path d="m137.94,62.63s-26.95,10.76-26.95,50.28" style="fill:none; stroke:#344154; stroke-linecap:round; stroke-linejoin:round; stroke-width:5.02px;"/><path d="m137.94,62.63s26.95,10.76,26.95,50.28" style="fill:none; stroke:#344154; stroke-linecap:round; stroke-linejoin:round; stroke-width:5.02px;"/><path d="m137.93,91.34c-27.76,0-34.95-14.56-34.95-14.56" style="fill:none; stroke:#344154; stroke-linecap:round; stroke-linejoin:round; stroke-width:5.02px;"/><path d="m172.9,76.78s-7.19,14.56-34.95,14.56" style="fill:none; stroke:#344154; stroke-linecap:round; stroke-linejoin:round; stroke-width:5.02px;"/><line x1="137.95" y1="163.23" x2="137.95" y2="112.91" style="fill:none; stroke:#344154; stroke-linecap:round; stroke-linejoin:round; stroke-width:5.02px;"/><path d="m188.22,112.96c0,27.77-22.51,50.28-50.28,50.28s-50.28-22.51-50.28-50.28,22.51-50.33,50.28-50.33,50.28,22.64,50.28,50.41v-.08Z" style="fill:none; stroke:#344154; stroke-linecap:round; stroke-linejoin:round; stroke-width:5.02px;"/><path d="m137.94,163.24s26.95-10.76,26.95-50.28" style="fill:none; stroke:#344154; stroke-linecap:round; stroke-linejoin:round; stroke-width:5.02px;"/><path d="m137.94,163.24s-26.95-10.76-26.95-50.28" style="fill:none; stroke:#344154; stroke-linecap:round; stroke-linejoin:round; stroke-width:5.02px;"/><path d="m172.9,149.09s-7.19-14.56-34.95-14.56" style="fill:none; stroke:#344154; stroke-linecap:round; stroke-linejoin:round; stroke-width:5.02px;"/><path d="m102.98,149.09s7.19-14.56,34.95-14.56" style="fill:none; stroke:#344154; stroke-linecap:round; stroke-linejoin:round; stroke-width:5.02px;"/><g><path d="m103.89,179.72h-9.74v29.57h4.78v-11.36h4.96c2.83,0,5.08-.85,6.69-2.51,1.61-1.66,2.43-3.88,2.43-6.6s-.82-4.92-2.43-6.59c-1.62-1.67-3.87-2.52-6.69-2.52Zm3.24,12.92c-.74.97-1.8,1.44-3.24,1.44h-4.96v-10.52h4.96c1.46,0,2.52.48,3.25,1.47.75,1.01,1.12,2.3,1.12,3.83s-.38,2.79-1.13,3.78Z" style="fill:#ff6d3b;"/><path d="m123.48,179.72l-8.88,29.57h4.97l2.08-7.28h8.04l2.08,7.28h4.97l-8.79-29.57h-4.47Zm-.7,18.34l2.92-10.16,2.88,10.16h-5.8Z" style="fill:#ff6d3b;"/><path d="m149.75,192.53c-1.91-.7-3.27-1.45-4.06-2.23-.76-.75-1.13-1.68-1.13-2.83,0-1.26.35-2.28,1.08-3.11.72-.82,1.71-1.22,3.03-1.22s2.43.47,3.25,1.43c.83.97,1.25,2.26,1.25,3.85v.38h4.51l.15-.43v-.06c.06-2.56-.77-4.72-2.44-6.43-1.68-1.7-3.93-2.57-6.68-2.57-2.59,0-4.76.77-6.42,2.31-1.68,1.54-2.53,3.52-2.53,5.89s.77,4.2,2.3,5.6c1.49,1.36,3.63,2.49,6.36,3.34,1.83.68,3.12,1.42,3.82,2.22.69.77,1.03,1.79,1.03,3,0,1.32-.38,2.33-1.15,3.1-.77.76-1.85,1.15-3.23,1.15s-2.62-.44-3.59-1.34c-.95-.88-1.43-2.26-1.43-4.1v-.38h-4.53l-.15.43v.06c-.07,2.92.89,5.2,2.85,6.78,1.93,1.55,4.24,2.34,6.85,2.34s4.93-.73,6.61-2.18c1.7-1.46,2.56-3.44,2.56-5.9,0-2.3-.73-4.2-2.17-5.65-1.41-1.42-3.48-2.59-6.13-3.45Z" style="fill:#ff6d3b;"/><path d="m179.56,195.98c-1.41-1.42-3.48-2.59-6.13-3.45-1.91-.7-3.27-1.45-4.06-2.23-.76-.75-1.13-1.68-1.13-2.83,0-1.26.35-2.28,1.08-3.11.72-.82,1.71-1.22,3.03-1.22s2.43.47,3.25,1.43c.83.97,1.25,2.26,1.25,3.85v.38h4.51l.15-.43v-.06c.06-2.56-.77-4.72-2.44-6.43-1.68-1.7-3.93-2.57-6.68-2.57-2.59,0-4.76.77-6.42,2.31-1.68,1.54-2.53,3.52-2.53,5.89s.77,4.2,2.3,5.6c1.49,1.36,3.63,2.49,6.36,3.34,1.83.68,3.12,1.42,3.82,2.22.69.77,1.03,1.79,1.03,3,0,1.32-.38,2.33-1.15,3.1-.77.76-1.85,1.15-3.23,1.15s-2.62-.44-3.59-1.34c-.95-.88-1.43-2.26-1.43-4.1v-.38h-4.53l-.15.43v.06c-.07,2.92.89,5.2,2.85,6.78,1.93,1.55,4.24,2.34,6.85,2.34s4.93-.73,6.61-2.18c1.7-1.46,2.56-3.44,2.56-5.9,0-2.3-.73-4.2-2.17-5.65Z" style="fill:#ff6d3b;"/></g><path d="m87.56,232.57v19.33c0,2.82,2.29,5.11,5.11,5.11h139.42c2.82,0,5.11-2.29,5.11-5.11V72.91c0-2.82-2.29-5.11-5.11-5.11h-19.33" style="fill:none; stroke:#344154; stroke-linecap:round; stroke-linejoin:round; stroke-width:5.02px;"/></g></svg>