<?xml version="1.0" encoding="UTF-8"?><svg id="_圖層_1" xmlns="http://www.w3.org/2000/svg" xmlns:xlink="http://www.w3.org/1999/xlink" viewBox="0 0 300 300"><defs><clipPath id="clippath"><rect x="-981.93" y="-1265.95" width="1921.93" height="1007.33" style="fill:none;"/></clipPath></defs><g style="clip-path:url(#clippath);"><path d="m1000.76-497.76c-.04,16.39-.83,424.56-1.83,506.58H-1009.14c1.16-101.55,2.1-523.05,2.1-523.05,0,0,165.83-30.89,268.29-48.86,102.39-18.61,210.29-31.65,232.12-33.5,188.27-17.21,376.58,2.79,565.21-3.96,314.09-11.36,632.72,33.88,942.18,102.79Z" style="fill:#fff4eb;"/><rect x="-980.33" y="-1295.09" width="1921.93" height="1954.1" style="fill:none;"/></g><g><path d="m158.13,225.25l2.75-15.6c3.58-20.29,5.38-40.8,5.38-61.33v-80.14c0-6.18-1.81-12.29-5.4-17.61-1.56-2.3-3.22-4.33-4.76-6.03-3.12-3.44-9.06-3.44-12.19,0-1.54,1.7-3.21,3.73-4.76,6.03-3.6,5.32-5.4,11.43-5.4,17.61v80.14c0,20.53,1.8,41.04,5.38,61.33l2.75,15.6" style="fill:none; stroke:#344154; stroke-linecap:round; stroke-miterlimit:10; stroke-width:5.12px;"/><path d="m146.23,80.96c1.14-1.68,2.4-3.37,3.77-5.03,1.37,1.67,2.63,3.35,3.77,5.03.84,1.25,1.58,2.54,2.25,3.87v-16.65c0-4.24-1.26-8.34-3.65-11.87-.71-1.06-1.51-2.11-2.37-3.16-.86,1.05-1.66,2.11-2.37,3.17-2.38,3.52-3.64,7.63-3.64,11.86v16.65c.66-1.33,1.4-2.62,2.24-3.87Z" style="fill:#17c2c9;"/><g><line x1="204.84" y1="122.17" x2="218.07" y2="127.34" style="fill:none; stroke:#344154; stroke-linecap:round; stroke-miterlimit:10; stroke-width:5.12px;"/><line x1="166.26" y1="107.1" x2="190.39" y2="116.53" style="fill:none; stroke:#344154; stroke-linecap:round; stroke-miterlimit:10; stroke-width:5.12px;"/><line x1="232.45" y1="169.23" x2="232.45" y2="185.45" style="fill:none; stroke:#344154; stroke-linecap:round; stroke-miterlimit:10; stroke-width:5.12px;"/><line x1="204.84" y1="165.56" x2="204.84" y2="181.78" style="fill:none; stroke:#344154; stroke-linecap:round; stroke-miterlimit:10; stroke-width:5.12px;"/><path d="m190.41,116.53v-4.42c0-2.77,2.24-5.01,5.01-5.01h4.4c2.77,0,5.01,2.24,5.01,5.01v10.06" style="fill:none; stroke:#344154; stroke-linecap:round; stroke-miterlimit:10; stroke-width:5.12px;"/><path d="m218.06,127.34v-4.87c0-2.77,2.24-5.01,5.01-5.01h4.4c2.77,0,5.01,2.24,5.01,5.01v10.51l7.37,2.88c2.15.84,4.22,1.85,6.18,3.08,4.81,3.02,12.19,8.9,12.19,16.61l-91.96-14.03" style="fill:none; stroke:#344154; stroke-linecap:round; stroke-miterlimit:10; stroke-width:5.12px;"/></g><g><line x1="95.16" y1="122.17" x2="81.93" y2="127.34" style="fill:none; stroke:#344154; stroke-linecap:round; stroke-miterlimit:10; stroke-width:5.12px;"/><line x1="133.74" y1="107.1" x2="109.61" y2="116.53" style="fill:none; stroke:#344154; stroke-linecap:round; stroke-miterlimit:10; stroke-width:5.12px;"/><line x1="67.55" y1="169.23" x2="67.55" y2="185.45" style="fill:none; stroke:#344154; stroke-linecap:round; stroke-miterlimit:10; stroke-width:5.12px;"/><line x1="95.16" y1="165.56" x2="95.16" y2="181.78" style="fill:none; stroke:#344154; stroke-linecap:round; stroke-miterlimit:10; stroke-width:5.12px;"/><path d="m109.59,116.53v-4.42c0-2.77-2.24-5.01-5.01-5.01h-4.4c-2.77,0-5.01,2.24-5.01,5.01v10.06" style="fill:none; stroke:#344154; stroke-linecap:round; stroke-miterlimit:10; stroke-width:5.12px;"/><path d="m81.94,127.34v-4.87c0-2.77-2.24-5.01-5.01-5.01h-4.4c-2.77,0-5.01,2.24-5.01,5.01v10.51l-7.37,2.88c-2.15.84-4.22,1.85-6.18,3.08-4.81,3.02-12.19,8.9-12.19,16.61l91.96-14.03" style="fill:none; stroke:#344154; stroke-linecap:round; stroke-miterlimit:10; stroke-width:5.12px;"/></g><path d="m158.13,225.25s21.14,3.55,21.14,26.1c0,0-5.77-5.64-17.52-5.64" style="fill:none; stroke:#344154; stroke-linecap:round; stroke-linejoin:round; stroke-width:5.12px;"/><path d="m141.85,225.25s-21.14,3.55-21.14,26.1c0,0,5.77-5.64,17.52-5.64" style="fill:none; stroke:#344154; stroke-linecap:round; stroke-linejoin:round; stroke-width:5.12px;"/><line x1="150" y1="241.61" x2="150" y2="258.04" style="fill:none; stroke:#344154; stroke-linecap:round; stroke-linejoin:round; stroke-width:5.12px;"/></g></svg>