<?xml version="1.0" encoding="UTF-8"?><svg id="_圖層_1" xmlns="http://www.w3.org/2000/svg" xmlns:xlink="http://www.w3.org/1999/xlink" viewBox="0 0 300 300"><defs><clipPath id="clippath"><rect x="-1471.93" y="-1265.95" width="1921.93" height="1007.33" style="fill:none;"/></clipPath></defs><g style="clip-path:url(#clippath);"><path d="m510.76-497.76c-.04,16.39-.83,424.56-1.83,506.58h-2008.07c1.16-101.55,2.1-523.05,2.1-523.05,0,0,165.83-30.89,268.29-48.86,102.39-18.61,210.29-31.65,232.12-33.5,188.27-17.21,376.58,2.79,565.21-3.96,314.09-11.36,632.72,33.88,942.18,102.79Z" style="fill:#fff4eb;"/><rect x="-1470.33" y="-1295.09" width="1921.93" height="1954.1" style="fill:none;"/></g><path d="m40,207h220v12c0,6.07-4.93,11-11,11H50c-5.52,0-10-4.48-10-10v-13h0Z" style="fill:#ff6d3b;"/><g><path d="m179.85,78.07v-14.86c0-2.87-2.33-5.2-5.2-5.2h-48.67c-2.87,0-5.2,2.33-5.2,5.2v14.86" style="fill:none; stroke:#344154; stroke-miterlimit:10; stroke-width:5.18px;"/><g><line x1="63.66" y1="200.72" x2="63.66" y2="106.95" style="fill:none; stroke:#344154; stroke-linecap:round; stroke-linejoin:round; stroke-width:5.18px;"/><line x1="236.95" y1="200.72" x2="236.95" y2="106.95" style="fill:none; stroke:#344154; stroke-linecap:round; stroke-linejoin:round; stroke-width:5.18px;"/></g><path d="m215.76,90.47v-14.08c0-2.59,2.1-4.7,4.7-4.7h11.8c2.59,0,4.69,2.1,4.69,4.7v1.68" style="fill:none; stroke:#344154; stroke-linecap:round; stroke-miterlimit:10; stroke-width:5.18px;"/><line x1="236.95" y1="78.07" x2="236.95" y2="85.1" style="fill:none; stroke:#344154; stroke-linecap:round; stroke-miterlimit:10; stroke-width:5.18px;"/><line x1="215.76" y1="78.07" x2="84.86" y2="78.07" style="fill:none; stroke:#344154; stroke-miterlimit:10; stroke-width:5.18px;"/><path d="m63.66,78.07h-10.59c-6.99,0-12.66,5.67-12.66,12.66v126.21c0,6.99,5.67,12.66,12.66,12.66h194.48c6.99,0,12.66-5.67,12.66-12.66v-126.21c0-6.99-5.67-12.66-12.66-12.66h-10.59" style="fill:none; stroke:#344154; stroke-miterlimit:10; stroke-width:5.18px;"/><path d="m84.86,90.47v-14.08c0-2.59-2.1-4.7-4.7-4.7h-11.8c-2.59,0-4.7,2.1-4.7,4.7v1.68" style="fill:none; stroke:#344154; stroke-linecap:round; stroke-miterlimit:10; stroke-width:5.18px;"/><line x1="63.66" y1="78.07" x2="63.66" y2="85.1" style="fill:none; stroke:#344154; stroke-linecap:round; stroke-miterlimit:10; stroke-width:5.18px;"/><line x1="63.66" y1="106.95" x2="236.95" y2="106.95" style="fill:none; stroke:#344154; stroke-miterlimit:10; stroke-width:5.18px;"/></g></svg>