<?xml version="1.0" encoding="UTF-8"?>
<svg xmlns="http://www.w3.org/2000/svg" xmlns:xlink="http://www.w3.org/1999/xlink" viewBox="0 0 300 300">
  <defs>
    <style>
      .cls-1 {
        clip-path: url(#clippath);
      }

      .cls-2, .cls-3 {
        fill: none;
      }

      .cls-2, .cls-4, .cls-5, .cls-6 {
        stroke-width: 0px;
      }

      .cls-7, .cls-8 {
        mix-blend-mode: multiply;
      }

      .cls-3 {
        stroke: #344154;
        stroke-linecap: round;
        stroke-miterlimit: 10;
        stroke-width: 5.06px;
      }

      .cls-9 {
        isolation: isolate;
      }

      .cls-8 {
        opacity: .6;
      }

      .cls-4 {
        fill: #17c2c9;
      }

      .cls-5 {
        fill: #ffe7b0;
      }

      .cls-6 {
        fill: #fcebd0;
      }
    </style>
    <clipPath id="clippath">
      <rect class="cls-2" x="-1.93" y="-1767.95" width="1921.93" height="1007.33"/>
    </clipPath>
  </defs>
  <g class="cls-9">
    <g id="_圖層_1" data-name="圖層 1">
      <g class="cls-1">
        <g class="cls-8">
          <g>
            <path class="cls-5" d="m301.83,294.73c-1.09-2.61-4.77-.77-3.68,1.85,1.09,2.61,4.77.77,3.68-1.85h0Z"/>
            <path class="cls-5" d="m300.32,255.63c-.16-.38-.32-.76-.49-1.14-.09-.28-.24-.52-.44-.71-.17-.22-.37-.39-.62-.5-.25-.13-.51-.19-.78-.17-.27-.03-.54.01-.8.13-.15.09-.31.19-.46.28-.28.23-.5.53-.64.88-.05.18-.1.37-.15.55-.06.4-.02.8.12,1.18.16.38.32.76.49,1.14.09.28.24.52.44.71.17.22.37.39.62.5.25.13.51.19.78.17.27.03.54-.01.8-.13.15-.09.31-.19.46-.28.28-.23.5-.53.64-.88.05-.18.1-.37.15-.55.06-.4.02-.8-.12-1.18h0Z"/>
            <g>
              <path class="cls-5" d="m290.47,264.03c-1.2,2.55,2.4,4.61,3.6,2.06,1.2-2.55-2.4-4.61-3.6-2.06h0Z"/>
              <path class="cls-5" d="m280.74,293.35c-.11.23-.22.47-.33.7-.14.27-.21.55-.2.85-.04.29-.02.57.07.85.07.29.2.53.39.74.16.25.36.44.61.57.17.07.34.14.51.2.35.08.69.06,1.03-.05.16-.08.31-.16.47-.24.31-.22.55-.5.72-.86.11-.23.22-.47.33-.7.14-.27.21-.55.2-.85.04-.29.02-.57-.07-.85-.07-.29-.2-.53-.39-.74-.16-.25-.36-.44-.61-.57-.17-.07-.34-.14-.51-.2-.35-.08-.69-.06-1.03.05l-.47.24c-.31.22-.55.5-.72.86h0Z"/>
              <path class="cls-5" d="m267.5,274.75c-1.2,2.55,2.4,4.61,3.6,2.06,1.2-2.55-2.4-4.61-3.6-2.06h0Z"/>
              <path class="cls-5" d="m286.72,239.97c-1.2,2.55,2.4,4.61,3.6,2.06,1.2-2.55-2.4-4.61-3.6-2.06h0Z"/>
              <path class="cls-5" d="m297.68,282.46c-1.2,2.55,2.4,4.61,3.6,2.06,1.2-2.55-2.4-4.61-3.6-2.06h0Z"/>
            </g>
            <g>
              <path class="cls-5" d="m301.62,247.39c-1.46-2.38-4.82.1-3.36,2.49,1.46,2.38,4.82-.1,3.36-2.49h0Z"/>
              <path class="cls-5" d="m302.06,289.27c-1.46-2.38-4.82.1-3.36,2.49,1.46,2.38,4.82-.1,3.36-2.49h0Z"/>
              <path class="cls-5" d="m287.14,273.45c-.27-.44-.54-.88-.81-1.32-.15-.26-.34-.46-.58-.61-.21-.18-.45-.29-.71-.34-.26-.07-.52-.06-.78.02-.27.03-.52.14-.74.32-.14.13-.27.26-.41.4-.23.3-.38.64-.45,1.02-.01.19-.02.38-.03.57.03.4.14.77.34,1.1.27.44.54.88.81,1.32.15.26.34.46.58.61.21.18.45.29.71.34.26.07.52.06.78-.02.27-.03.52-.14.74-.32.14-.13.27-.26.41-.4.23-.3.38-.64.45-1.02.01-.19.02-.38.03-.57-.03-.4-.14-.77-.34-1.1h0Z"/>
              <path class="cls-5" d="m281.76,243.39c-1.46-2.38-4.82.1-3.36,2.49,1.46,2.38,4.82-.1,3.36-2.49h0Z"/>
              <path class="cls-5" d="m292.77,219.91l.7-.99c.18-.22.31-.47.37-.75.1-.27.14-.55.11-.84,0-.3-.08-.58-.22-.84-.1-.28-.26-.52-.48-.72-.15-.11-.29-.21-.44-.32-.32-.17-.66-.24-1.01-.22-.17.04-.34.07-.52.11-.35.13-.65.35-.89.66l-.7.99c-.18.22-.31.47-.37.75-.1.27-.14.55-.11.84,0,.3.08.58.22.84.1.28.26.52.48.72.15.11.29.21.44.32.32.17.66.24,1.01.22.17-.04.34-.07.52-.11.35-.13.65-.35.89-.66h0Z"/>
            </g>
          </g>
          <g>
            <g>
              <path class="cls-5" d="m250.35,284.85l.83-.86c.21-.19.37-.42.47-.69.14-.25.21-.52.23-.81.03-.3,0-.59-.11-.86-.06-.3-.19-.56-.38-.79-.13-.13-.26-.26-.39-.39-.29-.22-.62-.34-.97-.38-.18,0-.35.02-.53.02-.37.07-.69.24-.97.51l-.83.86c-.21.19-.37.42-.47.69-.14.25-.21.52-.23.81-.03.3,0,.59.11.86.06.3.19.56.38.79.13.13.26.26.39.39.29.22.62.34.97.38.17,0,.35-.02.52-.02.37-.07.69-.24.97-.51h0Z"/>
              <path class="cls-5" d="m270.53,270.08l.82-.88c.21-.19.37-.42.47-.69.14-.25.21-.52.23-.81.03-.3,0-.59-.11-.86-.06-.3-.19-.56-.38-.79-.13-.13-.26-.26-.39-.39-.29-.22-.62-.34-.97-.38-.17,0-.35.02-.52.02-.37.07-.69.24-.97.51l-.82.88c-.21.19-.37.42-.47.69-.14.25-.21.52-.23.81-.03.3,0,.59.11.86.06.3.19.56.38.79.13.13.26.26.39.39.29.22.62.34.97.38.17,0,.35-.02.52-.02.37-.07.69-.24.97-.51h0Z"/>
              <path class="cls-5" d="m271.23,294.63c-1.12-2.59-4.78-.69-3.66,1.91,1.12,2.59,4.78.69,3.66-1.91h0Z"/>
              <path class="cls-5" d="m295.23,289.14l-.31-.72c-.11-.28-.28-.51-.49-.69-.18-.21-.4-.36-.66-.45-.25-.11-.51-.15-.77-.11-.27-.01-.53.05-.78.19-.15.11-.3.22-.46.33-.27.26-.46.57-.58.94-.04.19-.07.37-.11.56-.03.4.03.78.19,1.15l.31.72c.11.28.28.51.49.69.18.21.4.36.66.45.25.11.51.15.77.11.27.01.53-.05.78-.19.15-.11.3-.22.46-.33.27-.26.46-.57.58-.94.04-.19.07-.37.11-.56.03-.4-.03-.78-.19-1.15h0Z"/>
              <path class="cls-5" d="m296.2,266.25c-.21-.18-.42-.37-.64-.55-.22-.17-.46-.28-.72-.32-.25-.09-.51-.1-.78-.04-.28.04-.53.16-.75.34-.24.14-.43.34-.58.59-.08.17-.16.34-.23.51-.12.37-.15.75-.08,1.13.06.19.11.38.17.57.16.36.39.66.69.89.21.18.42.37.64.55.22.17.46.28.72.32.25.09.51.1.78.04.28-.04.53-.16.74-.34.24-.14.43-.34.58-.59.08-.17.16-.34.23-.51.12-.37.15-.75.08-1.13-.06-.19-.11-.38-.17-.57-.16-.36-.39-.66-.69-.89h0Z"/>
            </g>
            <g>
              <path class="cls-5" d="m282.95,237.18c.78,2.74,4.65,1.42,3.87-1.33-.78-2.74-4.65-1.42-3.87,1.33h0Z"/>
              <path class="cls-5" d="m258.3,236.69c-.01.84-.03,1.68-.04,2.51,0,.31.07.6.21.86.09.28.24.52.46.71.19.21.42.35.67.43.24.12.5.18.77.16.18-.03.36-.07.54-.1.35-.12.65-.33.89-.63.1-.16.2-.31.3-.47.16-.35.24-.72.23-1.11.01-.84.03-1.68.04-2.51,0-.31-.07-.6-.21-.86-.09-.28-.24-.52-.46-.71-.19-.21-.42-.35-.67-.43-.24-.12-.5-.18-.77-.16-.18.03-.36.07-.54.1-.35.12-.65.33-.89.63-.1.16-.2.31-.3.47-.16.35-.24.72-.23,1.11h0Z"/>
              <path class="cls-5" d="m235.75,253.38c.78,2.74,4.65,1.42,3.87-1.33-.78-2.74-4.65-1.42-3.87,1.33h0Z"/>
              <path class="cls-5" d="m252.58,265.93c.78,2.74,4.65,1.42,3.87-1.33-.78-2.74-4.65-1.42-3.87,1.33h0Z"/>
              <path class="cls-5" d="m239.04,284.74c.78,2.74,4.65,1.42,3.87-1.33-.78-2.74-4.65-1.42-3.87,1.33h0Z"/>
              <path class="cls-5" d="m289.82,269.66c.23-.08.46-.16.69-.24.27-.08.5-.23.69-.44.22-.17.38-.39.5-.65.13-.26.2-.53.2-.82.05-.3.03-.59-.07-.88-.08-.18-.15-.36-.23-.54-.19-.33-.45-.59-.77-.77-.16-.07-.32-.13-.49-.2-.36-.09-.71-.07-1.06.04-.23.08-.46.16-.69.24-.27.08-.5.23-.69.44-.22.17-.38.39-.5.65-.13.26-.2.53-.2.82-.05.3-.03.59.07.88.08.18.15.36.23.54.19.33.45.59.77.77.16.07.32.13.49.2.36.09.71.07,1.06-.04h0Z"/>
              <path class="cls-5" d="m272.15,286.72c.78,2.74,4.65,1.42,3.87-1.33-.78-2.74-4.65-1.42-3.87,1.33h0Z"/>
              <path class="cls-5" d="m293.5,295.22c.78,2.74,4.65,1.42,3.87-1.33-.78-2.74-4.65-1.42-3.87,1.33h0Z"/>
              <path class="cls-5" d="m272.97,255.19c.78,2.74,4.65,1.42,3.87-1.33-.78-2.74-4.65-1.42-3.87,1.33h0Z"/>
              <path class="cls-5" d="m220.98,270.53c.78,2.74,4.65,1.42,3.87-1.33-.78-2.74-4.65-1.42-3.87,1.33h0Z"/>
              <path class="cls-5" d="m255.95,292.27c.78,2.74,4.65,1.42,3.87-1.33-.78-2.74-4.65-1.42-3.87,1.33h0Z"/>
            </g>
            <g>
              <path class="cls-5" d="m280.29,247.67c.56,2.8,4.52,1.86,3.96-.95-.56-2.8-4.52-1.86-3.96.95h0Z"/>
              <path class="cls-5" d="m296.06,261.81c.56,2.8,4.52,1.86,3.96-.95-.56-2.8-4.52-1.86-3.96.95h0Z"/>
              <path class="cls-5" d="m281.06,279.23c.56,2.8,4.52,1.86,3.96-.95-.56-2.8-4.52-1.86-3.96.95h0Z"/>
              <path class="cls-5" d="m264.2,263.32c.56,2.8,4.52,1.86,3.96-.95-.56-2.8-4.52-1.86-3.96.95h0Z"/>
              <path class="cls-5" d="m297.3,288.37c.56,2.8,4.52,1.86,3.96-.95-.56-2.8-4.52-1.86-3.96.95h0Z"/>
            </g>
            <path class="cls-5" d="m286.55,283.85c-.24.14-.47.28-.71.42-.23.15-.42.34-.55.59-.17.22-.29.48-.34.77-.08.3-.08.6-.01.89.02.3.11.57.26.82.11.15.22.29.33.44.26.27.56.45.91.55.18.02.36.04.54.06.37-.01.7-.12,1.01-.34.24-.14.47-.28.71-.42.23-.15.42-.34.55-.59.17-.22.29-.48.34-.77.08-.3.08-.6.01-.89-.02-.3-.11-.57-.26-.82-.11-.15-.22-.29-.33-.44-.26-.27-.56-.45-.91-.55-.18-.02-.36-.04-.54-.06-.37.01-.7.12-1.01.34h0Z"/>
            <path class="cls-5" d="m272.4,298.28c-2.59.28-2.19,4.72.41,4.44,2.59-.28,2.19-4.72-.41-4.44h0Z"/>
            <g>
              <path class="cls-5" d="m279.81,296.5c-.56,2.8,3.39,3.78,3.96.98.56-2.8-3.39-3.78-3.96-.98h0Z"/>
              <path class="cls-5" d="m258.64,282.51c-.39.72-.78,1.43-1.18,2.15-.14.27-.21.55-.21.86-.05.29-.02.58.07.87.07.28.2.53.39.74.15.24.35.42.59.56.17.07.34.14.51.21.36.09.71.07,1.06-.05.16-.08.31-.16.47-.24.3-.21.53-.49.7-.83.39-.72.78-1.43,1.18-2.15.14-.27.21-.55.21-.86.05-.29.02-.58-.07-.87-.07-.28-.2-.53-.39-.74-.15-.24-.35-.42-.59-.56-.17-.07-.34-.14-.51-.21-.36-.09-.71-.07-1.06.05-.16.08-.31.16-.47.24-.3.21-.53.49-.7.83h0Z"/>
              <path class="cls-5" d="m231.5,284.55c-.56,2.8,3.39,3.78,3.96.98.56-2.8-3.39-3.78-3.96-.98h0Z"/>
              <path class="cls-5" d="m210.89,291.26c-.56,2.8,3.39,3.78,3.96.98.56-2.8-3.39-3.78-3.96-.98h0Z"/>
            </g>
            <g>
              <path class="cls-5" d="m282.56,274.75c-1.64,2.23,1.51,5.04,3.15,2.81,1.64-2.23-1.51-5.04-3.15-2.81h0Z"/>
              <path class="cls-5" d="m269.24,251.87c-.64.45-1.28.9-1.93,1.35-.24.17-.41.39-.54.66-.16.24-.26.51-.29.81-.05.29-.03.57.05.85.04.29.14.55.31.79.12.15.25.29.37.44.29.25.61.41.97.47.17,0,.35,0,.52.01.35-.04.68-.18.97-.4.64-.45,1.28-.9,1.93-1.35.24-.17.41-.39.54-.66.16-.24.26-.51.29-.81.05-.29.03-.57-.05-.85-.04-.29-.14-.55-.31-.79-.12-.15-.25-.29-.37-.44-.29-.25-.61-.41-.97-.47-.17,0-.35,0-.52-.01-.35.04-.68.18-.97.4h0Z"/>
              <path class="cls-5" d="m244.07,240.39c-1.64,2.23,1.51,5.04,3.15,2.81,1.64-2.23-1.51-5.04-3.15-2.81h0Z"/>
              <path class="cls-5" d="m243.91,262.73c-1.64,2.23,1.51,5.04,3.15,2.81,1.64-2.23-1.51-5.04-3.15-2.81h0Z"/>
              <path class="cls-5" d="m222.14,260.67c-1.64,2.23,1.51,5.04,3.15,2.81,1.64-2.23-1.51-5.04-3.15-2.81h0Z"/>
              <path class="cls-5" d="m261.77,298.92c.19.17.37.33.56.5.21.2.45.33.72.39.25.1.5.14.77.1.27-.02.51-.11.74-.27.25-.12.46-.3.63-.55.09-.17.19-.34.28-.51.14-.36.19-.73.16-1.13-.04-.19-.08-.37-.12-.56-.13-.38-.34-.69-.62-.95-.19-.17-.37-.33-.56-.5-.21-.2-.45-.33-.72-.39-.25-.1-.5-.14-.77-.1-.27.02-.51.11-.74.27-.25.12-.46.3-.63.55l-.28.51c-.14.36-.19.73-.16,1.13.04.19.08.37.12.56.13.38.34.69.62.95h0Z"/>
              <path class="cls-5" d="m239.03,292.1c-1.64,2.23,1.51,5.04,3.15,2.81,1.64-2.23-1.51-5.04-3.15-2.81h0Z"/>
              <path class="cls-5" d="m207.23,287.22c-.15.21-.3.41-.45.62-.18.23-.3.49-.36.79-.09.27-.12.55-.08.85.02.3.1.57.24.81.11.28.27.51.5.69.15.1.31.21.46.31.33.16.67.21,1.02.18.17-.04.34-.09.5-.13.34-.14.63-.37.86-.68.15-.21.3-.41.45-.62.18-.23.3-.49.36-.79.09-.27.12-.55.08-.85-.02-.3-.1-.57-.24-.81-.11-.28-.27-.51-.5-.69-.15-.1-.31-.21-.46-.31-.33-.16-.67-.21-1.02-.18-.17.04-.34.09-.5.13-.34.14-.63.37-.86.68h0Z"/>
              <path class="cls-5" d="m197.66,266.07c-1.64,2.23,1.51,5.04,3.15,2.81,1.64-2.23-1.51-5.04-3.15-2.81h0Z"/>
              <path class="cls-5" d="m263.37,275.5c-1.64,2.23,1.51,5.04,3.15,2.81,1.64-2.23-1.51-5.04-3.15-2.81h0Z"/>
              <path class="cls-5" d="m222.88,236.29c-1.64,2.23,1.51,5.04,3.15,2.81,1.64-2.23-1.51-5.04-3.15-2.81h0Z"/>
              <path class="cls-5" d="m188.04,296.06c-.06.29-.12.58-.17.87-.05.29-.03.57.05.85.04.29.14.55.31.79.16.26.36.46.61.59.22.18.46.28.74.32.17,0,.35,0,.52.01.35-.04.68-.18.97-.4.13-.14.26-.27.4-.41.23-.31.37-.67.43-1.07.06-.29.12-.58.17-.87.05-.29.03-.57-.05-.85-.04-.29-.14-.55-.31-.79-.16-.26-.36-.46-.61-.59-.22-.18-.46-.28-.74-.32-.17,0-.35,0-.52-.01-.35.04-.68.18-.97.4-.13.14-.26.27-.4.41-.23.31-.37.67-.43,1.07h0Z"/>
              <path class="cls-5" d="m225.83,280.31c-1.64,2.23,1.51,5.04,3.15,2.81,1.64-2.23-1.51-5.04-3.15-2.81h0Z"/>
            </g>
            <g>
              <path class="cls-5" d="m299.53,291.64c-.79-2.74-4.66-1.4-3.86,1.34.79,2.74,4.66,1.4,3.86-1.34h0Z"/>
              <path class="cls-5" d="m282.67,279.14c-.79-2.74-4.66-1.4-3.86,1.34.79,2.74,4.66,1.4,3.86-1.34h0Z"/>
              <path class="cls-5" d="m296.16,260.29c-.79-2.74-4.66-1.4-3.86,1.34.79,2.74,4.66,1.4,3.86-1.34h0Z"/>
              <path class="cls-5" d="m245.41,275.54c-.23.08-.46.16-.69.24-.27.08-.5.23-.69.44-.21.17-.38.39-.49.66-.13.26-.2.53-.2.82-.05.3-.02.59.07.88.08.18.15.36.23.54.2.33.45.58.77.77.16.07.32.13.49.2.36.09.71.07,1.06-.05.23-.08.46-.16.69-.24.27-.08.5-.23.69-.44.21-.17.38-.39.49-.66.13-.26.2-.53.2-.82.05-.3.02-.59-.07-.88l-.23-.54c-.2-.33-.45-.58-.77-.77-.16-.07-.32-.13-.49-.2-.36-.09-.71-.07-1.06.05h0Z"/>
              <path class="cls-5" d="m263.05,258.42c-.79-2.74-4.66-1.4-3.86,1.34.79,2.74,4.66,1.4,3.86-1.34h0Z"/>
              <path class="cls-5" d="m241.67,249.98c-.79-2.74-4.66-1.4-3.86,1.34.79,2.74,4.66,1.4,3.86-1.34h0Z"/>
              <path class="cls-5" d="m231.34,290.26c-.79-2.74-4.66-1.4-3.86,1.34.79,2.74,4.66,1.4,3.86-1.34h0Z"/>
              <path class="cls-5" d="m221.08,270.47c-.15-.51-.29-1.01-.44-1.52-.07-.3-.21-.55-.4-.76-.15-.24-.35-.42-.6-.55-.23-.15-.48-.22-.75-.22-.27-.05-.53-.03-.8.07-.16.08-.33.17-.49.25-.3.21-.53.5-.69.84-.06.18-.12.36-.18.54-.08.39-.06.78.05,1.16l.44,1.52c.07.3.21.55.4.76.15.24.35.42.6.55.23.15.48.22.75.22.27.05.53.03.8-.07.16-.08.33-.17.49-.25.3-.21.53-.5.69-.84.06-.18.12-.36.18-.54.08-.39.06-.78-.05-1.16h0Z"/>
              <path class="cls-5" d="m223.63,239.98c-.79-2.74-4.66-1.4-3.86,1.34.79,2.74,4.66,1.4,3.86-1.34h0Z"/>
              <path class="cls-5" d="m240.23,220.9c.31-.24.62-.49.93-.73.23-.15.41-.36.55-.61.17-.22.28-.48.33-.77.07-.29.07-.58,0-.87-.02-.3-.12-.58-.28-.84-.11-.15-.23-.29-.34-.44-.26-.26-.57-.43-.91-.52-.17-.02-.35-.04-.52-.05-.37.02-.71.14-1.03.36-.31.24-.62.49-.93.73-.23.15-.41.36-.55.61-.17.22-.28.48-.33.77-.07.29-.07.58,0,.87.02.3.12.58.28.84.11.15.23.29.34.44.26.26.57.43.91.52.17.02.35.04.52.05.37-.02.71-.14,1.03-.36h0Z"/>
              <path class="cls-5" d="m262.07,209.32c.31-.25.61-.5.92-.74.23-.15.41-.36.55-.61.17-.22.28-.48.33-.77.07-.29.07-.58,0-.87-.02-.3-.12-.58-.28-.84-.11-.15-.23-.29-.34-.44-.26-.26-.57-.43-.91-.52-.17-.02-.35-.04-.52-.05-.37.02-.71.14-1.03.36-.31.25-.61.5-.92.74-.23.15-.41.36-.55.61-.17.22-.28.48-.33.77-.07.29-.07.58,0,.87.02.3.12.58.28.84.11.15.23.29.34.44.26.26.57.43.91.52.17.02.35.04.52.05.37-.02.71-.14,1.03-.36h0Z"/>
              <path class="cls-5" d="m259.7,233.73c-.79-2.74-4.66-1.4-3.86,1.34.79,2.74,4.66,1.4,3.86-1.34h0Z"/>
              <path class="cls-5" d="m284.17,231.92c-.07-.25-.15-.51-.22-.76-.07-.3-.21-.55-.4-.76-.15-.24-.35-.42-.6-.55-.23-.15-.48-.22-.75-.22-.27-.05-.53-.03-.8.07-.16.08-.33.17-.49.25-.3.21-.53.5-.69.84-.06.18-.12.36-.18.54-.08.39-.06.78.05,1.16.07.25.15.51.22.76.07.3.21.55.4.76.15.24.35.42.6.55.23.15.48.22.75.22.27.05.53.03.8-.07l.49-.25c.3-.21.53-.5.69-.84.06-.18.12-.36.18-.54.08-.39.06-.78-.05-1.16h0Z"/>
              <path class="cls-5" d="m262.31,289.95c-.79-2.74-4.66-1.4-3.86,1.34.79,2.74,4.66,1.4,3.86-1.34h0Z"/>
              <path class="cls-5" d="m287.98,209.4c-.19-.21-.38-.43-.56-.64-.19-.21-.42-.35-.67-.42-.24-.12-.5-.17-.77-.15-.28,0-.54.08-.78.23-.25.1-.47.27-.65.5-.1.16-.2.31-.29.47-.16.35-.24.72-.23,1.11.03.2.06.39.09.59.11.38.3.71.57.98.19.21.38.43.56.64.19.21.42.35.67.42.24.12.5.17.77.15.28,0,.54-.08.78-.23.25-.1.47-.27.65-.5.1-.16.2-.31.29-.47.16-.35.24-.72.23-1.11-.03-.2-.06-.39-.09-.59-.11-.38-.3-.71-.57-.98h0Z"/>
              <path class="cls-5" d="m279.23,252.81c-.79-2.74-4.66-1.4-3.86,1.34.79,2.74,4.66,1.4,3.86-1.34h0Z"/>
            </g>
            <g>
              <path class="cls-5" d="m289.46,259.83c-2.54-.64-3.45,3.7-.9,4.35,2.54.64,3.45-3.7.9-4.35h0Z"/>
              <path class="cls-5" d="m295.13,289.79c-.47-.12-.94-.24-1.41-.36-.27-.08-.54-.08-.8,0-.26.03-.51.12-.73.29-.23.15-.42.35-.55.6-.18.23-.29.49-.34.79-.02.2-.03.4-.05.6.02.39.12.75.31,1.09l.33.44c.27.27.58.46.94.55.47.12.94.24,1.41.36.27.08.54.08.8,0,.26-.03.51-.12.73-.29.23-.15.42-.35.55-.6.18-.23.29-.49.34-.79.02-.2.03-.4.05-.6-.02-.39-.12-.75-.31-1.09l-.33-.44c-.27-.27-.58-.46-.94-.55h0Z"/>
              <path class="cls-5" d="m272.52,271.84c-2.54-.64-3.45,3.7-.9,4.35,2.54.64,3.45-3.7.9-4.35h0Z"/>
              <path class="cls-5" d="m265.93,246.38c-.03-.42-.07-.83-.1-1.25,0-.3-.07-.57-.2-.83-.09-.27-.24-.51-.44-.7-.19-.22-.42-.36-.68-.44-.25-.13-.51-.18-.8-.16-.17.03-.34.07-.52.1-.34.12-.63.32-.87.6-.1.16-.2.31-.31.47-.17.36-.25.75-.24,1.16.03.42.07.83.1,1.25,0,.3.07.57.2.83.09.27.24.51.44.7.19.22.42.36.68.44.25.13.51.18.8.16l.52-.1c.34-.12.63-.32.87-.6.1-.16.2-.31.31-.47.17-.36.25-.75.24-1.16h0Z"/>
              <path class="cls-5" d="m267.87,219.77c-.04-.42-.08-.83-.12-1.25,0-.3-.07-.57-.2-.83-.09-.27-.24-.51-.44-.7-.19-.22-.42-.36-.68-.44-.25-.13-.51-.18-.8-.16l-.52.1c-.34.12-.63.32-.87.6-.1.16-.2.31-.31.47-.17.36-.25.75-.24,1.16.04.42.08.83.12,1.25,0,.3.07.57.2.83.09.27.24.51.44.7.19.22.42.36.68.44.25.13.51.18.8.16.17-.03.34-.07.52-.1.34-.12.63-.32.87-.6.1-.16.2-.31.31-.47.17-.36.25-.75.24-1.16h0Z"/>
              <path class="cls-5" d="m285.81,234.45c-2.54-.64-3.45,3.7-.9,4.35,2.54.64,3.45-3.7.9-4.35h0Z"/>
              <path class="cls-5" d="m296.73,210.32c-.23-.06-.47-.12-.7-.18-.27-.08-.54-.08-.8,0-.26.03-.51.12-.73.29-.23.15-.42.35-.55.6-.18.23-.29.49-.34.79-.02.2-.03.4-.05.6.02.39.12.75.31,1.09.11.15.22.29.33.44.27.27.58.46.94.55.23.06.47.12.7.18.27.08.54.08.8,0,.26-.03.51-.12.73-.29.23-.15.42-.35.55-.6.18-.23.29-.49.34-.79.02-.2.03-.4.05-.6-.02-.39-.12-.75-.31-1.09l-.33-.44c-.27-.27-.58-.46-.94-.55h0Z"/>
              <path class="cls-5" d="m281,195.24c-.26.07-.52.14-.78.21-.26.08-.48.22-.67.42-.22.17-.39.38-.51.65-.14.27-.21.55-.21.86-.05.29-.03.58.07.87.07.17.15.35.22.52.19.33.44.59.76.78.17.07.34.14.51.21.36.09.71.07,1.06-.04.26-.07.52-.14.78-.21.26-.08.48-.22.67-.42.22-.17.39-.38.51-.65.14-.27.21-.55.21-.86.05-.29.03-.58-.07-.87-.07-.17-.15-.35-.22-.52-.19-.33-.44-.59-.76-.78-.17-.07-.34-.14-.51-.21-.36-.09-.71-.07-1.06.04h0Z"/>
            </g>
            <g>
              <path class="cls-5" d="m301.57,289.02c-.2-.36-.39-.72-.59-1.08-.12-.27-.29-.48-.51-.65-.19-.2-.41-.34-.67-.42-.26-.1-.52-.13-.79-.07-.28,0-.54.08-.78.24-.14.11-.28.23-.43.34-.26.27-.44.59-.54.96-.03.19-.06.38-.09.57-.01.41.07.79.24,1.16.2.36.39.72.59,1.08.12.27.29.48.51.65.19.2.41.34.67.42.26.1.52.13.79.07.28,0,.54-.08.78-.24.14-.11.28-.23.43-.34.26-.27.44-.59.54-.96.03-.19.06-.38.09-.57.01-.41-.07-.79-.24-1.16h0Z"/>
              <path class="cls-5" d="m292.77,264.11c-.2-.36-.4-.71-.6-1.07-.12-.27-.29-.48-.51-.65-.19-.2-.41-.34-.67-.42-.26-.1-.52-.13-.79-.07-.28,0-.54.08-.78.24-.14.11-.28.23-.43.34-.26.27-.44.59-.54.96-.03.19-.06.38-.09.57-.01.41.07.79.24,1.16.2.36.4.71.6,1.07.12.27.29.48.51.65.19.2.41.34.67.42.26.1.52.13.79.07.28,0,.54-.08.78-.24.14-.11.28-.23.43-.34.26-.27.44-.59.54-.96.03-.19.06-.38.09-.57.01-.41-.07-.79-.24-1.16h0Z"/>
              <path class="cls-5" d="m294.85,235.7c-.21.19-.41.38-.62.56-.2.19-.35.43-.44.7-.13.25-.2.53-.2.83-.02.31.03.6.15.88.07.29.21.54.4.75.13.12.27.24.4.36.3.21.63.32.99.34.18-.02.36-.04.54-.05.36-.09.67-.27.93-.55.21-.19.41-.38.62-.56.2-.19.35-.43.44-.7.13-.25.2-.53.2-.83.02-.31-.03-.6-.15-.88-.07-.29-.21-.54-.4-.75-.13-.12-.27-.24-.4-.36-.3-.21-.63-.32-.99-.34-.18.02-.36.04-.54.05-.36.09-.67.27-.93.55h0Z"/>
            </g>
            <path class="cls-5" d="m244.76,293.61c-2.52.75-1.46,5.05,1.06,4.31,2.52-.75,1.46-5.05-1.06-4.31h0Z"/>
            <g>
              <path class="cls-5" d="m192.1,258.29c2.22,1.51,4.35-2.28,2.12-3.79-2.22-1.51-4.35,2.28-2.12,3.79h0Z"/>
              <path class="cls-5" d="m173.25,275.7c.49.64.98,1.29,1.47,1.93.19.23.41.4.67.5.24.14.49.21.77.21.27.02.52-.04.76-.16.26-.08.48-.22.67-.44.11-.15.23-.31.34-.46.19-.34.29-.72.3-1.12-.02-.19-.04-.38-.06-.57-.08-.38-.25-.72-.49-1-.49-.64-.98-1.29-1.47-1.93-.19-.23-.41-.4-.67-.5-.24-.14-.49-.21-.77-.21-.27-.02-.52.04-.76.16-.26.08-.48.22-.67.44-.11.15-.23.31-.34.46-.19.34-.29.72-.3,1.12.02.19.04.38.06.57.08.38.25.72.49,1h0Z"/>
              <path class="cls-5" d="m186.38,301.96c2.22,1.51,4.35-2.28,2.12-3.79-2.22-1.51-4.35,2.28-2.12,3.79h0Z"/>
              <path class="cls-5" d="m216.64,277.91c.13-.23.25-.45.38-.68.16-.26.24-.53.26-.83.06-.28.06-.57-.02-.85-.05-.29-.17-.55-.34-.77-.14-.26-.33-.46-.57-.61-.17-.08-.33-.16-.5-.24-.34-.11-.69-.12-1.03-.03-.16.07-.32.13-.48.2-.32.19-.58.46-.77.8-.13.23-.25.45-.38.68-.15.26-.24.53-.26.83-.06.28-.06.57.02.85.05.29.17.55.34.77.14.26.33.46.57.61.17.08.33.16.5.24.34.11.69.12,1.03.03.16-.07.32-.13.48-.2.32-.19.58-.46.77-.8h0Z"/>
              <path class="cls-5" d="m213.5,303.57c2.22,1.51,4.35-2.28,2.12-3.79-2.22-1.51-4.35,2.28-2.12,3.79h0Z"/>
              <path class="cls-5" d="m234.65,294.6c2.22,1.51,4.35-2.28,2.12-3.79-2.22-1.51-4.35,2.28-2.12,3.79h0Z"/>
              <path class="cls-5" d="m218.51,256.62c2.22,1.51,4.35-2.28,2.12-3.79-2.22-1.51-4.35,2.28-2.12,3.79h0Z"/>
              <path class="cls-5" d="m238.02,264.26c.41.28.82.56,1.23.84.23.17.48.27.76.29.26.07.52.06.78-.02.26-.06.5-.18.7-.37.23-.15.42-.36.56-.63.07-.18.15-.36.22-.55.1-.38.11-.76.02-1.14-.06-.18-.12-.36-.18-.53-.17-.35-.42-.64-.73-.85-.41-.28-.82-.56-1.23-.84-.23-.17-.48-.27-.76-.29-.26-.07-.52-.06-.78.02-.26.06-.5.18-.7.37-.23.15-.42.36-.56.63-.07.18-.15.36-.22.55-.1.38-.11.76-.02,1.14.06.18.12.36.18.53.17.35.42.64.73.85h0Z"/>
              <path class="cls-5" d="m254.22,289.22c2.22,1.51,4.35-2.28,2.12-3.79-2.22-1.51-4.35,2.28-2.12,3.79h0Z"/>
              <path class="cls-5" d="m195.32,279.12c2.22,1.51,4.35-2.28,2.12-3.79-2.22-1.51-4.35,2.28-2.12,3.79h0Z"/>
            </g>
            <g>
              <path class="cls-5" d="m247.27,300.32c-.2-.81-.41-1.62-.61-2.42-.08-.3-.22-.55-.42-.76-.16-.24-.37-.42-.62-.54-.24-.14-.49-.2-.75-.2-.26-.04-.52-.01-.77.09-.16.09-.32.18-.49.26-.3.23-.53.52-.69.88-.05.18-.11.36-.16.54-.07.38-.04.76.07,1.14.2.81.41,1.62.61,2.42.08.3.22.55.42.76.16.24.37.42.62.54.24.14.49.2.75.2.26.04.52.01.77-.09.16-.09.32-.18.49-.26.3-.23.53-.52.69-.88.05-.18.11-.36.16-.54.07-.38.04-.76-.07-1.14h0Z"/>
              <path class="cls-5" d="m264.55,277.24c-1.46-2.38-4.82.1-3.36,2.48,1.46,2.38,4.82-.1,3.36-2.48h0Z"/>
              <path class="cls-5" d="m245.17,270.47c-1.46-2.38-4.82.1-3.36,2.48,1.46,2.38,4.82-.1,3.36-2.48h0Z"/>
              <path class="cls-5" d="m253.27,248.18c-1.46-2.38-4.82.1-3.36,2.48,1.46,2.38,4.82-.1,3.36-2.48h0Z"/>
              <path class="cls-5" d="m208.54,278.56c-.2.15-.4.3-.6.44-.24.16-.42.37-.55.64-.16.23-.26.49-.31.78-.06.29-.06.57.02.85.03.3.13.57.29.82.12.15.24.3.36.45.27.25.58.42.93.5.17.01.34.03.52.04.36-.03.7-.15,1-.37.2-.15.4-.3.6-.44.24-.16.42-.37.55-.64.16-.23.26-.49.31-.78.06-.29.06-.57-.02-.85-.03-.3-.13-.57-.29-.82-.12-.15-.24-.3-.36-.45-.27-.25-.58-.42-.93-.5-.17-.01-.34-.03-.52-.04-.36.03-.7.15-1,.37h0Z"/>
              <path class="cls-5" d="m221.06,256.66c-1.46-2.38-4.82.1-3.36,2.48,1.46,2.38,4.82-.1,3.36-2.48h0Z"/>
              <path class="cls-5" d="m198.4,255.19c-1.46-2.38-4.82.1-3.36,2.48,1.46,2.38,4.82-.1,3.36-2.48h0Z"/>
              <path class="cls-5" d="m198.82,297.06c-1.46-2.38-4.82.1-3.36,2.48,1.46,2.38,4.82-.1,3.36-2.48h0Z"/>
              <path class="cls-5" d="m183.91,281.24l-.81-1.32c-.15-.26-.34-.46-.58-.61-.21-.18-.45-.29-.71-.34-.26-.07-.52-.06-.78.02-.27.03-.52.14-.74.32-.14.13-.27.26-.41.4-.23.3-.38.64-.45,1.02-.01.19-.02.38-.03.57.02.4.14.77.34,1.1.27.44.54.88.81,1.32.15.26.34.46.58.61.21.18.45.29.71.34.26.07.52.06.78-.02.27-.03.52-.14.74-.32.14-.13.27-.26.41-.4.23-.3.38-.64.45-1.02.01-.19.02-.38.03-.57-.02-.4-.14-.77-.34-1.1h0Z"/>
              <path class="cls-5" d="m178.55,251.17c-1.46-2.38-4.82.1-3.36,2.48,1.46,2.38,4.82-.1,3.36-2.48h0Z"/>
              <path class="cls-5" d="m189.57,227.7c.23-.33.47-.66.7-.99.18-.22.31-.47.37-.75.1-.27.14-.55.11-.84,0-.3-.08-.58-.22-.84-.1-.28-.26-.52-.48-.72-.15-.11-.29-.21-.44-.32-.32-.17-.66-.24-1.01-.22-.17.04-.34.07-.52.11-.35.13-.65.35-.89.66-.23.33-.47.66-.7.99-.18.22-.31.47-.37.75-.1.27-.14.55-.11.84,0,.3.08.58.22.84.1.28.26.52.48.72.15.11.29.21.44.32.32.17.66.24,1.01.22.17-.04.34-.07.52-.11.35-.13.65-.35.89-.66h0Z"/>
              <path class="cls-5" d="m207.53,209.81c.23-.33.46-.67.69-1,.18-.22.31-.47.37-.75.1-.27.14-.55.11-.84,0-.3-.08-.58-.22-.84-.1-.28-.26-.52-.48-.72-.15-.11-.29-.21-.44-.32-.32-.17-.66-.24-1.01-.22-.17.04-.34.07-.52.11-.35.13-.65.35-.89.66-.23.33-.46.67-.69,1-.18.22-.31.47-.37.75-.1.27-.14.55-.11.84,0,.3.08.58.22.84.1.28.26.52.48.72.15.11.29.21.44.32.32.17.66.24,1.01.22.17-.04.34-.07.52-.11.35-.13.65-.35.89-.66h0Z"/>
              <path class="cls-5" d="m211.52,233.98c-1.46-2.38-4.82.1-3.36,2.48,1.46,2.38,4.82-.1,3.36-2.48h0Z"/>
              <path class="cls-5" d="m234.51,224.66c-.13-.22-.27-.44-.4-.66-.15-.26-.34-.46-.58-.61-.21-.18-.45-.29-.71-.34-.26-.07-.52-.06-.78.02-.27.03-.52.14-.75.32-.14.13-.27.26-.41.4-.23.3-.38.64-.45,1.02-.01.19-.02.38-.03.57.02.4.14.77.34,1.1.13.22.27.44.4.66.15.26.34.46.58.61.21.18.45.29.71.34.26.07.52.06.78-.02.27-.03.52-.14.75-.32.14-.13.27-.26.41-.4.23-.3.38-.64.45-1.02.01-.19.02-.38.03-.57-.02-.4-.14-.77-.34-1.1h0Z"/>
              <path class="cls-5" d="m255.67,220.84c-1.46-2.38-4.82.1-3.36,2.48,1.46,2.38,4.82-.1,3.36-2.48h0Z"/>
              <path class="cls-5" d="m228.43,287.16c-1.46-2.38-4.82.1-3.36,2.48,1.46,2.38,4.82-.1,3.36-2.48h0Z"/>
              <path class="cls-5" d="m274.25,256.16c-1.46-2.38-4.82.1-3.36,2.48,1.46,2.38,4.82-.1,3.36-2.48h0Z"/>
              <path class="cls-5" d="m232.4,201.85c-.23-.15-.47-.29-.7-.44-.24-.14-.49-.2-.75-.2-.26-.04-.52-.01-.77.09-.27.09-.5.24-.69.46-.22.18-.38.4-.49.68-.05.18-.11.36-.16.54-.07.38-.04.76.07,1.14.08.18.16.36.24.54.21.33.47.59.8.77.23.15.47.29.7.44.24.14.49.2.75.2.26.04.52.01.77-.09.27-.09.5-.24.69-.46.22-.18.38-.4.49-.68.05-.18.11-.36.16-.54.07-.38.04-.76-.07-1.14-.08-.18-.16-.36-.24-.54-.21-.33-.47-.59-.8-.77h0Z"/>
              <path class="cls-5" d="m235.13,246.26c-1.46-2.38-4.82.1-3.36,2.48,1.46,2.38,4.82-.1,3.36-2.48h0Z"/>
            </g>
            <g>
              <path class="cls-5" d="m212.22,257.92c.88-2.7-2.93-4.22-3.82-1.52-.88,2.7,2.93,4.22,3.82,1.52h0Z"/>
              <path class="cls-5" d="m231.63,274.71c.47-.66.94-1.31,1.41-1.97.17-.25.27-.52.31-.82.08-.28.09-.57.03-.87-.04-.29-.14-.55-.3-.78-.12-.26-.3-.47-.53-.63-.16-.09-.32-.18-.48-.28-.34-.14-.7-.17-1.06-.1-.16.06-.33.12-.49.17-.32.17-.59.41-.79.73-.47.66-.94,1.31-1.41,1.97-.17.25-.27.52-.31.82-.08.28-.09.57-.03.87.04.29.14.55.3.78.12.26.3.47.53.63.16.09.32.18.48.28.34.14.7.17,1.06.1.16-.06.33-.12.49-.17.32-.17.59-.41.79-.73h0Z"/>
              <path class="cls-5" d="m258.8,276.45c.88-2.7-2.93-4.22-3.82-1.52-.88,2.7,2.93,4.22,3.82,1.52h0Z"/>
              <path class="cls-5" d="m252.27,255.28c.88-2.7-2.93-4.22-3.82-1.52-.88,2.7,2.93,4.22,3.82,1.52h0Z"/>
              <path class="cls-5" d="m273.42,249.34c.88-2.7-2.93-4.22-3.82-1.52-.88,2.7,2.93,4.22,3.82,1.52h0Z"/>
              <path class="cls-5" d="m224.59,227.54c-.23-.09-.45-.18-.68-.27-.26-.12-.52-.15-.79-.11-.26,0-.52.05-.76.19-.25.12-.45.29-.61.52-.2.2-.34.45-.43.74-.04.19-.08.39-.11.58-.03.39.04.76.19,1.12l.28.48c.24.31.53.53.87.67.23.09.45.18.68.27.26.12.52.15.79.11.26,0,.52-.05.76-.19.25-.12.45-.29.61-.52.2-.2.34-.45.43-.74.04-.19.08-.39.11-.58.03-.39-.04-.76-.19-1.12-.09-.16-.19-.32-.28-.48-.24-.31-.53-.53-.87-.67h0Z"/>
              <path class="cls-5" d="m248.08,225.75c.88-2.7-2.93-4.22-3.82-1.52-.88,2.7,2.93,4.22,3.82,1.52h0Z"/>
              <path class="cls-5" d="m235.71,204.79c.88-2.7-2.93-4.22-3.82-1.52-.88,2.7,2.93,4.22,3.82,1.52h0Z"/>
              <path class="cls-5" d="m205.26,229.82c.88-2.7-2.93-4.22-3.82-1.52-.88,2.7,2.93,4.22,3.82,1.52h0Z"/>
              <path class="cls-5" d="m208.01,207.27c.16-.5.33-1,.49-1.49.1-.28.14-.58.1-.87,0-.29-.05-.57-.17-.83-.11-.27-.26-.5-.47-.68-.18-.22-.41-.38-.68-.47-.18-.04-.35-.08-.53-.13-.36-.03-.7.04-1.02.2-.15.1-.29.2-.44.31-.28.26-.48.58-.61.95-.16.5-.33,1-.49,1.49-.1.28-.14.58-.1.87,0,.29.05.57.17.83.11.27.26.5.47.68.18.22.41.38.68.47.18.04.35.08.53.13.36.03.7-.04,1.02-.2.15-.1.29-.2.44-.31.28-.26.48-.58.61-.95h0Z"/>
              <path class="cls-5" d="m226.87,184.8c.88-2.7-2.93-4.22-3.82-1.52-.88,2.7,2.93,4.22,3.82,1.52h0Z"/>
              <path class="cls-5" d="m250.62,180.76c.38.01.76.03,1.14.04.27.03.53,0,.77-.12.26-.07.48-.2.68-.39.22-.19.38-.41.48-.69.15-.26.23-.54.24-.85,0-.19-.02-.38-.03-.58-.07-.38-.21-.72-.44-1.02-.13-.13-.26-.26-.39-.39-.31-.23-.64-.37-1.01-.4-.38-.01-.76-.03-1.14-.04-.27-.03-.53,0-.77.12-.26.07-.48.2-.68.39-.22.19-.38.41-.48.69-.15.26-.23.54-.24.85,0,.19.02.38.03.58.07.38.21.72.44,1.02.13.13.26.26.39.39.31.23.64.37,1.01.4h0Z"/>
              <path class="cls-5" d="m274.4,186.17c.38,0,.76.02,1.14.02.27.03.53,0,.77-.12.26-.07.48-.2.68-.39.22-.19.38-.41.48-.69.15-.26.23-.54.24-.85,0-.19-.02-.38-.03-.58-.07-.38-.21-.72-.44-1.02-.13-.13-.26-.26-.39-.39-.31-.23-.64-.37-1.01-.4-.38,0-.76-.02-1.14-.02-.27-.03-.53,0-.77.12-.26.07-.48.2-.68.39-.22.19-.38.41-.48.69-.15.26-.23.54-.24.85,0,.19.02.38.03.58.07.38.21.72.44,1.02.13.13.26.26.39.39.31.23.64.37,1.01.4h0Z"/>
              <path class="cls-5" d="m259.04,203.94c.88-2.7-2.93-4.22-3.82-1.52-.88,2.7,2.93,4.22,3.82,1.52h0Z"/>
              <path class="cls-5" d="m279.53,218.85c.08-.25.16-.5.24-.75.1-.28.14-.58.1-.87,0-.29-.05-.57-.17-.83-.11-.27-.26-.5-.47-.68-.18-.22-.41-.38-.68-.47-.18-.04-.35-.08-.53-.13-.36-.03-.7.04-1.02.2-.15.1-.29.2-.44.31-.28.26-.48.58-.61.95-.08.25-.16.5-.24.75-.1.28-.14.58-.1.87,0,.29.05.57.17.83.11.27.26.5.47.68.18.22.41.38.68.47.18.04.35.08.53.13.36.03.7-.04,1.02-.2.15-.1.29-.2.44-.31.28-.26.48-.58.61-.95h0Z"/>
              <path class="cls-5" d="m294.89,235.37c.88-2.7-2.93-4.22-3.82-1.52-.88,2.7,2.93,4.22,3.82,1.52h0Z"/>
              <path class="cls-5" d="m230.09,250.25c.88-2.7-2.93-4.22-3.82-1.52-.88,2.7,2.93,4.22,3.82,1.52h0Z"/>
              <path class="cls-5" d="m280.02,272.66c.88-2.7-2.93-4.22-3.82-1.52-.88,2.7,2.93,4.22,3.82,1.52h0Z"/>
              <path class="cls-5" d="m294.99,203.54c-.03-.29-.06-.59-.1-.88-.04-.29-.14-.55-.3-.78-.12-.26-.3-.47-.53-.63-.23-.19-.47-.3-.75-.34-.26-.09-.52-.1-.79-.03-.16.06-.33.12-.49.17-.32.17-.59.41-.79.73-.08.18-.17.35-.25.53-.12.38-.15.77-.09,1.16.03.29.06.59.1.88.04.29.14.55.3.78.12.26.3.47.53.63.23.19.47.3.75.34.26.09.52.1.79.03.16-.06.33-.12.49-.17.32-.17.59-.41.79-.73.08-.18.17-.35.25-.53.12-.38.15-.77.09-1.16h0Z"/>
              <path class="cls-5" d="m264.06,232.11c.88-2.7-2.93-4.22-3.82-1.52-.88,2.7,2.93,4.22,3.82,1.52h0Z"/>
            </g>
            <g>
              <path class="cls-5" d="m260.14,181.95c2.53.73,3.54-3.59,1.01-4.31-2.53-.73-3.54,3.59-1.01,4.31h0Z"/>
              <path class="cls-5" d="m246.77,204.69c.64.46,1.28.92,1.92,1.37.24.16.5.25.77.26.26.06.53.05.79-.05.26-.07.49-.2.68-.4.22-.16.4-.37.52-.63l.2-.55c.09-.39.09-.78-.01-1.17-.07-.17-.14-.35-.2-.52-.18-.34-.43-.61-.74-.8-.64-.46-1.28-.92-1.92-1.37-.24-.16-.5-.25-.77-.26-.26-.06-.53-.05-.79.05-.26.07-.49.2-.68.4-.22.16-.4.37-.52.63l-.2.55c-.09.39-.09.78.01,1.17.07.17.14.35.2.52.18.34.43.61.74.8h0Z"/>
              <path class="cls-5" d="m247.75,234.61c2.53.73,3.54-3.59,1.01-4.31-2.53-.73-3.54,3.59-1.01,4.31h0Z"/>
              <path class="cls-5" d="m266.31,225.58c2.53.73,3.54-3.59,1.01-4.31-2.53-.73-3.54,3.59-1.01,4.31h0Z"/>
              <path class="cls-5" d="m273.68,248.22c2.53.73,3.54-3.59,1.01-4.31-2.53-.73-3.54,3.59-1.01,4.31h0Z"/>
              <path class="cls-5" d="m288.81,192.81c.06-.26.12-.51.18-.77.08-.29.09-.59.03-.88-.02-.29-.1-.56-.24-.81-.13-.26-.3-.47-.53-.63-.2-.2-.44-.34-.71-.4-.18-.02-.36-.05-.54-.07-.36,0-.69.11-1,.31-.14.12-.27.23-.41.35-.26.29-.43.62-.52,1.01-.06.26-.12.51-.18.77-.08.29-.09.59-.03.88.02.29.1.56.24.81.13.26.3.47.53.63.2.2.44.34.71.4.18.02.36.05.54.07.36,0,.69-.11,1-.31.14-.12.27-.23.41-.35.26-.29.43-.62.52-1.01h0Z"/>
              <path class="cls-5" d="m292.65,218.38c2.53.73,3.54-3.59,1.01-4.31-2.53-.73-3.54,3.59-1.01,4.31h0Z"/>
              <path class="cls-5" d="m284.92,171.84c2.53.73,3.54-3.59,1.01-4.31-2.53-.73-3.54,3.59-1.01,4.31h0Z"/>
              <path class="cls-5" d="m288.35,270.51c2.53.73,3.54-3.59,1.01-4.31-2.53-.73-3.54,3.59-1.01,4.31h0Z"/>
              <path class="cls-5" d="m268.77,200.84c2.53.73,3.54-3.59,1.01-4.31-2.53-.73-3.54,3.59-1.01,4.31h0Z"/>
              <path class="cls-5" d="m253.19,257.52c2.53.73,3.54-3.59,1.01-4.31-2.53-.73-3.54,3.59-1.01,4.31h0Z"/>
              <path class="cls-5" d="m288.39,236.45c2.53.73,3.54-3.59,1.01-4.31-2.53-.73-3.54,3.59-1.01,4.31h0Z"/>
            </g>
            <g>
              <path class="cls-5" d="m297.89,268.05c-.24-.33-.47-.66-.71-.99-.15-.25-.34-.44-.58-.57-.21-.17-.45-.28-.72-.32-.27-.06-.53-.05-.79.04-.27.04-.52.16-.74.35-.13.13-.25.26-.38.4-.22.3-.36.64-.43,1.03,0,.19-.01.39-.02.58.04.41.16.78.38,1.11.24.33.47.66.71.99.15.25.34.44.58.57.21.17.45.28.72.32.27.06.53.05.79-.04.27-.04.52-.16.74-.35.13-.13.25-.26.38-.4.22-.3.36-.65.43-1.03,0-.19.01-.39.02-.58-.04-.41-.16-.78-.38-1.11h0Z"/>
              <path class="cls-5" d="m286.21,244.61c-.24-.32-.48-.65-.72-.97-.15-.25-.34-.44-.58-.57-.21-.17-.45-.28-.72-.32-.27-.06-.53-.05-.79.04-.27.04-.52.16-.74.35-.13.13-.25.26-.38.4-.22.3-.36.65-.43,1.03,0,.19-.01.39-.02.58.04.41.16.78.38,1.11.24.32.48.65.72.97.15.25.34.44.58.57.21.17.45.28.72.32.27.06.53.05.79-.04.27-.04.52-.16.74-.35.13-.13.25-.26.38-.4.22-.3.36-.65.43-1.03,0-.19.01-.39.02-.58-.04-.41-.16-.78-.38-1.11h0Z"/>
              <path class="cls-5" d="m284.91,216.13c-.18.22-.37.43-.55.65-.18.22-.29.47-.35.76-.1.27-.13.55-.1.85.02.31.1.59.25.85.11.27.27.5.49.69.15.1.29.2.44.3.32.16.67.23,1.02.2.18-.04.35-.09.53-.13.34-.14.63-.37.86-.68l.55-.65c.18-.22.29-.47.35-.76.1-.27.13-.55.1-.85-.02-.31-.1-.59-.25-.85-.11-.27-.27-.5-.49-.69-.15-.1-.29-.2-.44-.3-.32-.16-.67-.23-1.02-.2-.18.04-.35.09-.53.13-.34.14-.63.37-.86.68h0Z"/>
            </g>
          </g>
          <g>
            <g>
              <path class="cls-5" d="m199.37,290.57c-2.48-.88-3.72,3.36-1.24,4.24,2.48.88,3.72-3.36,1.24-4.24h0Z"/>
              <path class="cls-5" d="m141.94,291.49c0-.42-.01-.84-.02-1.26.02-.3-.02-.58-.14-.84-.07-.28-.2-.53-.38-.74-.18-.23-.39-.4-.64-.51-.24-.15-.5-.23-.78-.24-.17.02-.35.03-.52.05-.35.09-.65.26-.91.51-.11.15-.23.29-.34.44-.2.34-.31.72-.33,1.13l.02,1.26c-.02.3.02.58.14.84.07.28.2.53.38.74.18.23.39.4.64.51.24.15.5.23.78.24.17-.02.35-.03.52-.05.34-.09.65-.26.91-.51.11-.15.23-.29.34-.44.2-.34.31-.72.33-1.13h0Z"/>
              <path class="cls-5" d="m171.44,284.82c-.23-.08-.46-.16-.69-.24-.26-.11-.53-.13-.8-.08-.26,0-.51.07-.75.22-.24.13-.44.31-.6.54-.19.21-.33.46-.4.76-.03.2-.06.39-.1.59-.01.39.06.76.22,1.11.1.16.2.31.29.47.25.3.54.51.89.64.23.08.46.16.69.24.26.11.53.13.8.08.26,0,.51-.07.75-.22.24-.13.44-.31.6-.54.19-.21.33-.46.4-.76.03-.2.06-.39.1-.59.01-.39-.06-.76-.22-1.11-.1-.16-.2-.31-.29-.47-.25-.3-.54-.51-.89-.64h0Z"/>
              <path class="cls-5" d="m185.87,267.41c-2.48-.88-3.72,3.36-1.24,4.24,2.48.88,3.72-3.36,1.24-4.24h0Z"/>
              <path class="cls-5" d="m220.31,282.58c-2.48-.88-3.72,3.36-1.24,4.24,2.48.88,3.72-3.36,1.24-4.24h0Z"/>
              <path class="cls-5" d="m156.95,268.3c-.27.04-.53.09-.8.13-.26.05-.5.17-.7.35-.23.14-.42.34-.56.6-.16.25-.26.53-.28.83-.07.29-.07.58,0,.87.06.18.12.36.18.54.16.35.4.63.69.85.16.09.33.17.49.26.35.12.7.14,1.06.06.27-.04.53-.09.8-.13.26-.05.5-.17.7-.35.23-.14.42-.34.56-.6.16-.25.26-.53.28-.83.07-.29.07-.58,0-.87-.06-.18-.12-.36-.18-.54-.16-.35-.4-.63-.69-.85-.16-.09-.33-.17-.49-.26-.35-.12-.7-.14-1.06-.06h0Z"/>
            </g>
            <g>
              <path class="cls-5" d="m128.66,258.92c2.35,1.26,4.12-2.75,1.76-4.01-2.35-1.26-4.12,2.75-1.76,4.01h0Z"/>
              <path class="cls-5" d="m111.48,278.32c.55.59,1.09,1.17,1.64,1.76.21.21.44.36.71.43.25.12.51.16.78.13.27-.01.51-.09.74-.24.25-.11.46-.28.63-.51.1-.17.2-.33.3-.5.16-.36.22-.74.2-1.14-.04-.19-.07-.37-.11-.56-.12-.37-.31-.69-.58-.95-.55-.59-1.09-1.17-1.64-1.76-.21-.21-.44-.36-.71-.43-.25-.12-.51-.16-.78-.13-.27.01-.51.09-.74.24-.25.11-.46.28-.63.51-.1.17-.2.33-.3.5-.16.36-.22.74-.2,1.14.04.19.07.37.11.56.12.37.31.69.58.95h0Z"/>
              <path class="cls-5" d="m126.93,303.01c2.35,1.26,4.12-2.75,1.76-4.01-2.35-1.26-4.12,2.75-1.76,4.01h0Z"/>
              <path class="cls-5" d="m154.84,275.75c.1-.24.21-.48.31-.71.13-.27.19-.56.18-.86.04-.29,0-.57-.09-.85-.08-.28-.21-.53-.4-.73-.16-.24-.37-.42-.63-.55l-.52-.19c-.35-.07-.7-.04-1.03.08-.15.08-.31.17-.46.25-.3.22-.53.52-.69.88l-.31.71c-.13.27-.19.56-.18.86-.04.29,0,.57.09.85.08.28.21.53.4.73.16.24.37.42.63.55.17.06.34.13.52.19.35.07.7.04,1.03-.08.15-.08.31-.17.46-.25.3-.22.53-.52.69-.88h0Z"/>
              <path class="cls-5" d="m154.05,301.64c2.35,1.26,4.12-2.75,1.76-4.01-2.35-1.26-4.12,2.75-1.76,4.01h0Z"/>
              <path class="cls-5" d="m174.27,290.39c2.35,1.26,4.12-2.75,1.76-4.01-2.35-1.26-4.12,2.75-1.76,4.01h0Z"/>
              <path class="cls-5" d="m154.78,254.36c2.35,1.26,4.12-2.75,1.76-4.01-2.35-1.26-4.12,2.75-1.76,4.01h0Z"/>
              <path class="cls-5" d="m174.87,259.82c.43.23.87.46,1.3.7.25.14.51.21.78.2.26.04.52,0,.77-.1.26-.09.48-.23.66-.44.22-.18.39-.41.5-.69.06-.19.11-.38.17-.57.06-.39.04-.76-.08-1.14-.08-.17-.15-.34-.23-.51-.2-.33-.47-.59-.8-.77-.43-.23-.87-.46-1.3-.7-.25-.14-.51-.21-.78-.2-.26-.04-.52,0-.77.1-.26.09-.48.23-.66.44-.22.18-.39.41-.5.69-.06.19-.11.38-.17.57-.06.39-.04.76.08,1.14.08.17.15.34.23.51.2.33.47.59.8.77h0Z"/>
              <path class="cls-5" d="m193.25,282.89c2.35,1.26,4.12-2.75,1.76-4.01-2.35-1.26-4.12,2.75-1.76,4.01h0Z"/>
              <path class="cls-5" d="m133.75,279.3c2.35,1.26,4.12-2.75,1.76-4.01-2.35-1.26-4.12,2.75-1.76,4.01h0Z"/>
            </g>
            <g>
              <path class="cls-5" d="m159.17,221.62c2.24,1.48,4.32-2.34,2.08-3.82-2.24-1.48-4.32,2.34-2.08,3.82h0Z"/>
              <path class="cls-5" d="m140.5,239.28c.5.64.99,1.27,1.49,1.91.19.23.41.4.68.49.24.14.49.21.77.2.27.01.52-.04.76-.17.25-.08.48-.23.67-.44.11-.16.23-.31.34-.47.19-.35.28-.72.29-1.12-.02-.19-.04-.38-.06-.57-.09-.38-.25-.71-.5-1-.5-.64-.99-1.27-1.49-1.91-.19-.23-.41-.4-.68-.49-.24-.14-.49-.21-.77-.2-.27-.01-.52.04-.76.17-.25.08-.48.23-.67.44-.11.16-.23.31-.34.47-.19.35-.28.72-.29,1.12.02.19.04.38.06.57.09.38.26.71.5,1h0Z"/>
              <path class="cls-5" d="m133.78,268.26c2.24,1.48,4.32-2.34,2.08-3.82-2.24-1.48-4.32,2.34-2.08,3.82h0Z"/>
              <path class="cls-5" d="m153.91,265.36c2.24,1.48,4.32-2.34,2.08-3.82-2.24-1.48-4.32,2.34-2.08,3.82h0Z"/>
              <path class="cls-5" d="m155.19,289.35c2.24,1.48,4.32-2.34,2.08-3.82-2.24-1.48-4.32,2.34-2.08,3.82h0Z"/>
              <path class="cls-5" d="m183.91,240.92c.12-.23.25-.45.37-.68.15-.26.24-.54.25-.84.06-.28.05-.57-.03-.85-.06-.29-.17-.55-.34-.76-.14-.26-.34-.46-.58-.61-.17-.08-.33-.16-.5-.24-.34-.1-.69-.11-1.04-.02-.16.07-.32.14-.48.21-.32.19-.57.46-.76.81-.12.23-.25.45-.37.68-.15.26-.24.54-.25.84-.06.28-.05.57.03.85.06.29.17.55.34.77.14.26.34.46.58.61.17.08.33.16.5.24.34.1.69.11,1.04.02.16-.07.32-.14.48-.21.32-.19.57-.46.76-.81h0Z"/>
              <path class="cls-5" d="m181.05,266.62c2.24,1.48,4.32-2.34,2.08-3.82-2.24-1.48-4.32,2.34-2.08,3.82h0Z"/>
              <path class="cls-5" d="m202.1,257.38c2.24,1.48,4.32-2.34,2.08-3.82-2.24-1.48-4.32,2.34-2.08,3.82h0Z"/>
              <path class="cls-5" d="m185.56,219.61c2.24,1.48,4.32-2.34,2.08-3.82-2.24-1.48-4.32,2.34-2.08,3.82h0Z"/>
              <path class="cls-5" d="m205.15,227c.41.27.83.55,1.24.82.23.17.49.26.76.28.26.07.52.06.78-.03.26-.06.5-.19.69-.38.23-.16.42-.37.55-.64.07-.18.14-.37.21-.55.09-.38.1-.76.01-1.14-.06-.18-.13-.35-.19-.53-.18-.35-.42-.63-.74-.84-.41-.27-.83-.55-1.24-.82-.23-.17-.49-.26-.76-.28-.26-.07-.52-.06-.77.03-.26.06-.5.19-.69.38-.23.16-.42.37-.55.64-.07.18-.14.37-.21.55-.09.38-.1.76-.01,1.14.06.18.13.35.19.53.18.35.42.63.74.84h0Z"/>
              <path class="cls-5" d="m221.61,251.76c2.24,1.48,4.32-2.34,2.08-3.82-2.24-1.48-4.32,2.34-2.08,3.82h0Z"/>
              <path class="cls-5" d="m220.7,278.18c-.09.41-.17.82-.26,1.22-.08.28-.1.57-.04.86,0,.29.08.56.22.81.12.27.3.49.52.65.2.21.44.35.71.42.17.03.35.05.52.08.35,0,.69-.09,1-.27l.42-.34c.27-.28.45-.62.55-1.02.09-.41.17-.82.26-1.22.08-.28.1-.57.04-.86,0-.29-.08-.56-.22-.81-.12-.27-.3-.49-.52-.65-.2-.21-.44-.35-.71-.42-.17-.03-.35-.05-.52-.08-.35,0-.69.09-1,.27l-.42.34c-.27.28-.45.62-.55,1.02h0Z"/>
              <path class="cls-5" d="m198.42,282.73c2.24,1.48,4.32-2.34,2.08-3.82-2.24-1.48-4.32,2.34-2.08,3.82h0Z"/>
              <path class="cls-5" d="m181.23,301.92c.21.14.41.27.62.41.23.17.49.26.76.28.26.07.52.06.77-.03.26-.06.5-.19.69-.38.23-.16.42-.37.55-.64.07-.18.14-.37.21-.55.09-.38.1-.76.01-1.14-.06-.18-.13-.35-.19-.53-.18-.35-.42-.63-.74-.84-.21-.14-.41-.27-.62-.41-.23-.17-.49-.26-.76-.28-.26-.07-.52-.06-.77.03-.26.06-.5.19-.69.38-.23.16-.42.37-.55.64-.07.18-.14.37-.21.55-.09.38-.1.76-.01,1.14.06.18.13.35.19.53.18.35.42.63.74.84h0Z"/>
              <path class="cls-5" d="m162.61,242.41c2.24,1.48,4.32-2.34,2.08-3.82-2.24-1.48-4.32,2.34-2.08,3.82h0Z"/>
              <path class="cls-5" d="m133.14,291.91c2.24,1.48,4.32-2.34,2.08-3.82-2.24-1.48-4.32,2.34-2.08,3.82h0Z"/>
              <path class="cls-5" d="m172.34,282.63c2.24,1.48,4.32-2.34,2.08-3.82-2.24-1.48-4.32,2.34-2.08,3.82h0Z"/>
            </g>
            <g>
              <path class="cls-5" d="m257.3,271.44c-1.73,2.14,1.31,5.11,3.04,2.96,1.73-2.14-1.3-5.11-3.04-2.96h0Z"/>
              <path class="cls-5" d="m244.91,247.95l-1.98,1.25c-.24.16-.43.37-.56.64-.17.23-.28.5-.32.8-.06.29-.06.57.01.85.03.29.12.56.28.8.12.15.24.3.36.45.27.27.59.44.95.52.17.01.34.03.52.04.36-.02.68-.14.98-.35.66-.42,1.32-.83,1.98-1.25.24-.16.43-.37.56-.64.17-.23.28-.5.32-.8.06-.29.06-.57-.01-.85-.03-.29-.12-.56-.28-.8-.12-.15-.24-.3-.36-.45-.27-.27-.59-.44-.95-.52-.17-.01-.34-.03-.52-.04-.36.02-.68.14-.98.35h0Z"/>
              <path class="cls-5" d="m220.23,235.25c-1.73,2.14,1.3,5.11,3.04,2.96,1.73-2.14-1.3-5.11-3.04-2.96h0Z"/>
              <path class="cls-5" d="m219.17,257.56c-1.73,2.14,1.3,5.11,3.04,2.96,1.73-2.14-1.31-5.11-3.04-2.96h0Z"/>
              <path class="cls-5" d="m197.5,254.44c-1.73,2.14,1.3,5.11,3.04,2.96,1.73-2.14-1.3-5.11-3.04-2.96h0Z"/>
              <path class="cls-5" d="m235.56,294.57c.18.18.36.35.54.53.2.21.44.36.7.43.24.12.5.16.77.13.27,0,.52-.08.75-.23.26-.11.47-.28.65-.51.1-.17.2-.33.3-.5.16-.35.22-.72.2-1.12-.03-.19-.06-.37-.1-.56-.12-.38-.31-.71-.58-.98-.18-.18-.36-.35-.54-.53-.2-.21-.44-.36-.7-.43-.24-.12-.5-.16-.77-.13-.27,0-.52.08-.75.23-.26.11-.47.28-.65.51-.1.17-.2.33-.3.5-.16.35-.22.72-.2,1.12.03.19.06.37.1.56.12.38.31.71.58.98h0Z"/>
              <path class="cls-5" d="m213.11,286.66c-1.73,2.14,1.3,5.11,3.04,2.96,1.73-2.14-1.3-5.11-3.04-2.96h0Z"/>
              <path class="cls-5" d="m254.3,300.35c-1.73,2.14,1.3,5.11,3.04,2.96,1.73-2.14-1.3-5.11-3.04-2.96h0Z"/>
              <path class="cls-5" d="m181.54,280.24c-.16.2-.32.4-.48.59-.19.22-.32.48-.39.77-.11.27-.14.55-.12.84,0,.3.08.57.21.82.1.28.25.52.47.71.15.11.3.22.45.33.32.17.66.25,1.02.23.17-.04.34-.07.51-.11.35-.13.64-.34.89-.64.16-.2.32-.4.48-.59.19-.22.32-.48.39-.77.11-.27.14-.55.12-.84,0-.3-.08-.57-.21-.82-.1-.28-.25-.52-.47-.71-.15-.11-.3-.22-.45-.33-.32-.17-.66-.25-1.02-.23-.17.04-.34.07-.51.11-.35.13-.64.34-.89.64h0Z"/>
              <path class="cls-5" d="m172.83,258.64c-1.73,2.14,1.3,5.11,3.04,2.96,1.73-2.14-1.3-5.11-3.04-2.96h0Z"/>
              <path class="cls-5" d="m238.1,271.26c-1.73,2.14,1.31,5.11,3.04,2.96,1.73-2.14-1.3-5.11-3.04-2.96h0Z"/>
              <path class="cls-5" d="m199.22,230.12c-1.73,2.14,1.3,5.11,3.04,2.96,1.73-2.14-1.3-5.11-3.04-2.96h0Z"/>
              <path class="cls-5" d="m162,288.13c-.07.29-.14.57-.21.86-.06.29-.06.57.01.85.03.29.12.56.28.8.15.27.34.47.58.62.21.19.45.31.72.35.17.01.34.03.52.04.36-.02.68-.14.98-.35.14-.13.27-.26.41-.39.24-.3.4-.65.47-1.04.07-.29.14-.57.21-.86.06-.29.06-.57-.01-.85-.03-.29-.12-.56-.28-.8-.15-.27-.34-.47-.58-.62-.21-.19-.45-.31-.72-.35-.17-.01-.34-.03-.52-.04-.36.02-.68.14-.98.35-.14.13-.27.26-.41.39-.24.3-.4.65-.47,1.04h0Z"/>
              <path class="cls-5" d="m200.4,274.24c-1.73,2.14,1.3,5.11,3.04,2.96,1.73-2.14-1.31-5.11-3.04-2.96h0Z"/>
            </g>
            <g>
              <path class="cls-5" d="m233.08,293.1c-.63.47-1.26.93-1.89,1.4-.23.18-.4.4-.52.68-.15.24-.24.52-.27.82-.04.29-.02.57.07.85.05.29.16.55.33.78.13.14.26.28.38.42.29.24.62.39.98.45.17,0,.35,0,.52,0,.35-.05.67-.19.96-.43.63-.47,1.26-.93,1.89-1.4.23-.18.4-.4.52-.68.15-.24.24-.52.27-.82.04-.29.02-.57-.07-.85-.05-.29-.16-.55-.33-.78-.13-.14-.26-.28-.38-.42-.29-.24-.62-.39-.98-.45-.17,0-.35,0-.52,0-.35.05-.67.19-.96.43h0Z"/>
              <path class="cls-5" d="m207.65,282.36c-1.59,2.27,1.63,5,3.22,2.72,1.59-2.27-1.63-5-3.22-2.72h0Z"/>
              <path class="cls-5" d="m186.36,278.88c-1.59,2.27,1.63,5,3.22,2.72,1.59-2.27-1.63-5-3.22-2.72h0Z"/>
            </g>
            <path class="cls-5" d="m165.76,302.22c1.47,2.38,4.82-.11,3.35-2.5-1.47-2.38-4.82.11-3.35,2.5h0Z"/>
            <g>
              <path class="cls-5" d="m153.24,285.07c.35,2.84,4.37,2.26,4.02-.59-.35-2.84-4.37-2.26-4.02.59h0Z"/>
              <path class="cls-5" d="m129,280c-.14.82-.28,1.65-.43,2.47-.05.31-.02.6.07.89.05.29.16.55.34.79.16.24.36.42.59.54.22.17.46.27.73.3.18,0,.36,0,.54,0,.36-.05.69-.2.98-.45.12-.14.24-.27.36-.41.21-.31.35-.66.4-1.05.14-.82.28-1.65.43-2.47.05-.31.02-.6-.07-.89-.05-.29-.16-.55-.34-.79-.16-.24-.36-.42-.59-.54-.22-.17-.46-.27-.73-.3-.18,0-.36,0-.54,0-.36.05-.69.2-.98.45-.12.14-.24.27-.36.41-.21.31-.35.66-.4,1.05h0Z"/>
              <path class="cls-5" d="m104.21,292.26c.35,2.84,4.37,2.26,4.02-.59-.35-2.84-4.37-2.26-4.02.59h0Z"/>
              <path class="cls-5" d="m140.63,300.95c.35,2.84,4.37,2.26,4.02-.59-.35-2.84-4.37-2.26-4.02.59h0Z"/>
            </g>
            <g>
              <path class="cls-5" d="m176.03,283.09c-2.35-1.25-4.11,2.76-1.75,4.01,2.35,1.25,4.11-2.76,1.75-4.01h0Z"/>
              <path class="cls-5" d="m156.23,288c-2.35-1.25-4.11,2.76-1.75,4.01,2.35,1.25,4.11-2.76,1.75-4.01h0Z"/>
              <path class="cls-5" d="m152.97,264.24c-2.35-1.25-4.11,2.76-1.75,4.01,2.35,1.25,4.11-2.76,1.75-4.01h0Z"/>
              <path class="cls-5" d="m129.11,289.47c-2.35-1.25-4.11,2.76-1.75,4.01,2.35,1.25,4.11-2.76,1.75-4.01h0Z"/>
              <path class="cls-5" d="m88.68,281.93c.05-.41.1-.83.15-1.24.06-.29.05-.58-.03-.86-.03-.29-.13-.55-.29-.79-.15-.26-.34-.46-.58-.6-.22-.19-.46-.31-.74-.35-.17,0-.35-.02-.52-.03-.35.03-.68.16-.97.37-.13.13-.26.25-.39.38-.24.31-.4.67-.47,1.07-.05.41-.1.83-.15,1.24-.06.29-.05.58.03.86.03.29.13.55.29.79.15.26.34.46.58.6.22.19.46.31.74.35.17,0,.35.02.52.03.35-.03.68-.16.97-.37.13-.13.26-.25.39-.38.24-.31.4-.67.47-1.07h0Z"/>
              <path class="cls-5" d="m95.94,256.48c.05-.42.09-.83.14-1.25.06-.29.05-.58-.03-.86-.03-.29-.13-.55-.29-.79-.15-.26-.34-.46-.58-.6-.22-.19-.46-.31-.74-.35-.17,0-.35-.02-.52-.03-.35.03-.68.16-.97.37-.13.13-.26.25-.39.38-.24.31-.4.67-.47,1.07-.05.42-.09.83-.14,1.25-.06.29-.05.58.03.86.03.29.13.55.29.79.15.26.34.46.58.6.22.19.46.31.74.35.17,0,.35.02.52.03.35-.03.68-.16.97-.37.13-.13.26-.25.39-.38.24-.31.4-.67.47-1.07h0Z"/>
              <path class="cls-5" d="m110.48,275.16c-2.35-1.25-4.11,2.76-1.75,4.01,2.35,1.25,4.11-2.76,1.75-4.01h0Z"/>
              <path class="cls-5" d="m126,254.32c-.22-.12-.43-.23-.65-.35-.25-.14-.51-.21-.78-.2-.26-.04-.52,0-.77.1-.26.09-.48.24-.66.45-.22.18-.38.41-.5.69-.06.19-.11.38-.17.57-.06.39-.03.76.08,1.14.08.17.16.34.23.51.21.33.47.59.8.76.22.12.43.23.65.35.25.14.51.21.78.2.26.04.52,0,.77-.1.26-.09.48-.24.66-.45.22-.18.38-.41.5-.69.06-.19.11-.38.17-.57.06-.39.03-.76-.08-1.14-.08-.17-.16-.34-.23-.51-.21-.33-.47-.59-.8-.76h0Z"/>
              <path class="cls-5" d="m142.48,239.26c-2.35-1.25-4.11,2.76-1.75,4.01,2.35,1.25,4.11-2.76,1.75-4.01h0Z"/>
              <path class="cls-5" d="m174.71,259.47c-2.35-1.25-4.11,2.76-1.75,4.01,2.35,1.25,4.11-2.76,1.75-4.01h0Z"/>
              <path class="cls-5" d="m113.71,235.79c-.27,0-.54,0-.81.01-.27.01-.51.09-.74.24-.25.11-.45.28-.63.51-.19.23-.32.49-.38.78-.11.27-.14.56-.11.86.04.19.07.37.11.56.12.37.31.68.58.94.15.11.3.22.45.33.33.17.68.25,1.04.22.27,0,.54,0,.81-.01.27-.01.51-.09.74-.24.25-.11.45-.28.63-.51.19-.23.32-.49.38-.78.11-.27.14-.56.11-.86-.04-.19-.07-.37-.11-.56-.12-.37-.31-.68-.58-.94-.15-.11-.3-.22-.45-.33-.33-.17-.68-.25-1.04-.22h0Z"/>
              <path class="cls-5" d="m136.45,272.65c-2.35-1.25-4.11,2.76-1.75,4.01,2.35,1.25,4.11-2.76,1.75-4.01h0Z"/>
            </g>
            <g>
              <path class="cls-5" d="m195.68,241.9c-2.16,1.59.09,5.3,2.26,3.71,2.16-1.59-.09-5.3-2.26-3.71h0Z"/>
              <path class="cls-5" d="m189.06,215.75c-.73.22-1.47.44-2.2.66-.27.09-.5.24-.69.46-.22.18-.38.4-.49.68-.12.26-.19.54-.18.82-.04.29-.01.57.08.85.08.18.16.36.24.54.21.33.47.59.8.77.16.06.33.12.49.18.35.08.69.05,1.03-.07.73-.22,1.47-.44,2.2-.66.27-.09.5-.24.69-.46.22-.18.38-.4.49-.68.12-.26.19-.54.18-.83.04-.29.01-.57-.08-.85-.08-.18-.16-.36-.24-.54-.21-.33-.47-.59-.8-.77-.16-.06-.33-.12-.49-.18-.35-.08-.69-.05-1.03.07h0Z"/>
              <path class="cls-5" d="m168.07,196.63c-2.16,1.59.09,5.3,2.26,3.71,2.16-1.59-.09-5.3-2.26-3.71h0Z"/>
              <path class="cls-5" d="m161.93,217.91c-2.16,1.59.09,5.3,2.26,3.71,2.16-1.59-.09-5.3-2.26-3.71h0Z"/>
              <path class="cls-5" d="m141.66,208.89c-2.16,1.59.09,5.3,2.26,3.71,2.16-1.59-.09-5.3-2.26-3.71h0Z"/>
              <path class="cls-5" d="m169.33,258.24c.13.22.27.44.4.66.15.26.34.46.58.61.21.18.45.29.71.34.26.07.52.06.78-.02.27-.03.52-.14.75-.32l.41-.4c.23-.3.38-.64.45-1.02.01-.19.02-.38.03-.57-.02-.4-.14-.77-.34-1.1-.13-.22-.27-.44-.4-.66-.15-.26-.34-.46-.58-.61-.21-.18-.45-.29-.71-.34-.26-.07-.52-.06-.78.02-.27.03-.52.14-.75.32-.14.13-.27.26-.41.4-.23.3-.38.64-.45,1.02-.01.19-.02.38-.03.57.02.4.14.77.34,1.1h0Z"/>
              <path class="cls-5" d="m149.4,244.37c-2.16,1.59.09,5.3,2.26,3.71,2.16-1.59-.09-5.3-2.26-3.71h0Z"/>
              <path class="cls-5" d="m148.09,269.28c-2.16,1.59.09,5.3,2.26,3.71,2.16-1.59-.09-5.3-2.26-3.71h0Z"/>
              <path class="cls-5" d="m186.16,269.02c-2.16,1.59.09,5.3,2.26,3.71,2.16-1.59-.09-5.3-2.26-3.71h0Z"/>
              <path class="cls-5" d="m171.79,285.35c-.4.29-.8.59-1.2.88-.24.16-.42.37-.55.64-.16.23-.27.49-.31.78-.06.29-.06.57.02.85.03.3.13.57.29.82.12.15.24.3.36.45.27.26.58.42.93.5.17.01.34.03.52.04.36-.03.7-.15,1-.37.4-.29.8-.59,1.2-.88.24-.16.42-.37.55-.64.16-.23.27-.49.31-.78.06-.29.06-.57-.02-.85-.03-.3-.13-.57-.29-.82-.12-.15-.24-.3-.36-.45-.27-.26-.58-.42-.93-.5-.17-.01-.34-.03-.52-.04-.36.03-.7.15-1,.37h0Z"/>
              <path class="cls-5" d="m144.46,291.11c-2.16,1.59.09,5.3,2.26,3.71,2.16-1.59-.09-5.3-2.26-3.71h0Z"/>
              <path class="cls-5" d="m123.11,278.87c-.3-.26-.6-.52-.9-.78-.2-.2-.43-.34-.69-.41-.24-.11-.5-.16-.76-.13-.28,0-.53.09-.76.24-.26.11-.47.29-.65.53-.1.16-.19.32-.29.48-.15.35-.22.72-.2,1.11.03.19.07.38.1.57.12.39.32.72.6.99.3.26.6.52.9.78.2.2.43.34.69.41.24.11.5.16.76.13.28,0,.53-.09.76-.24.26-.11.47-.29.65-.53.1-.16.19-.32.29-.48.15-.35.22-.72.2-1.11-.03-.19-.07-.38-.1-.57-.12-.39-.32-.72-.6-.99h0Z"/>
              <path class="cls-5" d="m106.83,259.02c-.3-.25-.61-.51-.91-.76-.2-.2-.43-.34-.69-.41-.24-.11-.5-.16-.76-.13-.28,0-.53.09-.76.24-.26.11-.47.29-.65.53-.1.16-.19.32-.29.48-.15.35-.22.72-.2,1.11.03.19.07.38.1.57.12.39.32.72.6.99.3.25.61.51.91.76.2.2.43.34.69.41.24.11.5.16.76.13.28,0,.53-.09.76-.24.26-.11.47-.29.65-.53.1-.16.19-.32.29-.48.15-.35.22-.72.2-1.11-.03-.19-.07-.38-.1-.57-.12-.39-.32-.72-.6-.99h0Z"/>
              <path class="cls-5" d="m128.8,254.75c-2.16,1.59.09,5.3,2.26,3.71,2.16-1.59-.09-5.3-2.26-3.71h0Z"/>
              <path class="cls-5" d="m120.29,229.42c-.2.15-.4.29-.6.44-.24.16-.42.37-.55.64-.16.23-.27.49-.31.78-.06.29-.06.57.02.85.03.3.13.57.29.82.12.15.24.3.36.45.27.26.58.42.93.5.17.01.34.03.52.04.36-.03.7-.15,1-.37.2-.15.4-.29.6-.44.24-.16.42-.37.55-.64.16-.23.27-.49.31-.78.06-.29.06-.57-.02-.85-.03-.3-.13-.57-.29-.82-.12-.15-.24-.3-.36-.45-.27-.26-.58-.42-.93-.5-.17-.01-.34-.03-.52-.04-.36.03-.7.15-1,.37h0Z"/>
              <path class="cls-5" d="m116.8,206.12c-2.16,1.59.09,5.3,2.26,3.71,2.16-1.59-.09-5.3-2.26-3.71h0Z"/>
              <path class="cls-5" d="m177.12,236.41c-2.16,1.59.09,5.3,2.26,3.71,2.16-1.59-.09-5.3-2.26-3.71h0Z"/>
              <path class="cls-5" d="m148.89,185.85c-2.16,1.59.09,5.3,2.26,3.71,2.16-1.59-.09-5.3-2.26-3.71h0Z"/>
              <path class="cls-5" d="m99.56,231.64c-.13.26-.27.51-.4.77-.12.26-.19.54-.18.83-.04.29-.01.57.08.85.08.3.22.55.42.76.16.24.37.42.62.54.16.06.33.12.49.18.35.08.69.05,1.03-.07.16-.09.32-.18.49-.26.3-.22.53-.52.69-.88.13-.26.27-.51.4-.77.12-.26.19-.54.18-.82.04-.29.01-.57-.08-.85-.08-.3-.22-.55-.42-.76-.16-.24-.37-.42-.62-.54-.16-.06-.33-.12-.49-.18-.35-.08-.69-.05-1.03.07-.16.09-.33.18-.49.26-.3.22-.53.52-.69.88h0Z"/>
              <path class="cls-5" d="m139.93,228.84c-2.16,1.59.09,5.3,2.26,3.71,2.16-1.59-.09-5.3-2.26-3.71h0Z"/>
            </g>
            <g>
              <path class="cls-5" d="m226.25,211.54c-1.31,2.47,2.19,4.74,3.5,2.26,1.31-2.47-2.19-4.74-3.5-2.26h0Z"/>
              <path class="cls-5" d="m209.94,191.14c-.57.55-1.14,1.1-1.72,1.65-.21.21-.35.46-.44.75-.13.26-.18.55-.17.85,0,.3.05.57.16.83.08.28.22.52.41.73.14.12.29.25.43.37.32.2.66.31,1.02.31.17-.02.34-.05.51-.07.34-.1.64-.29.9-.56.57-.55,1.14-1.1,1.72-1.65.21-.21.35-.46.44-.75.13-.26.18-.55.17-.85,0-.3-.05-.57-.16-.83-.08-.28-.22-.52-.41-.73-.14-.12-.29-.25-.43-.37-.32-.2-.66-.31-1.02-.31-.17.02-.34.05-.51.07-.34.1-.64.29-.9.56h0Z"/>
              <path class="cls-5" d="m183.5,183.98c-1.31,2.47,2.19,4.74,3.5,2.26,1.31-2.47-2.19-4.74-3.5-2.26h0Z"/>
              <path class="cls-5" d="m186.41,206.1c-1.31,2.47,2.19,4.74,3.5,2.26,1.31-2.47-2.19-4.74-3.5-2.26h0Z"/>
              <path class="cls-5" d="m164.62,207.7c-1.31,2.47,2.19,4.74,3.5,2.26,1.31-2.47-2.19-4.74-3.5-2.26h0Z"/>
              <path class="cls-5" d="m209.04,238.91c.21.13.42.27.62.4.24.17.49.26.76.27.26.06.52.05.77-.03.26-.06.49-.19.69-.39.23-.16.41-.37.54-.64.07-.18.14-.37.21-.55.09-.38.09-.76,0-1.14-.06-.18-.13-.35-.19-.53-.18-.35-.43-.63-.74-.83-.21-.13-.42-.27-.62-.4-.24-.17-.49-.26-.76-.27-.26-.06-.52-.05-.77.03-.26.06-.49.19-.69.39-.23.16-.41.37-.54.64-.07.18-.14.37-.21.55-.09.38-.09.76,0,1.14.06.18.13.35.19.53.18.35.43.63.74.83h0Z"/>
              <path class="cls-5" d="m185.64,235.96c-1.31,2.47,2.19,4.74,3.5,2.26,1.31-2.47-2.19-4.74-3.5-2.26h0Z"/>
              <path class="cls-5" d="m194.33,259.04c-1.31,2.47,2.19,4.74,3.5,2.26,1.31-2.47-2.19-4.74-3.5-2.26h0Z"/>
              <path class="cls-5" d="m228.44,240.55c-1.31,2.47,2.19,4.74,3.5,2.26,1.31-2.47-2.19-4.74-3.5-2.26h0Z"/>
              <path class="cls-5" d="m222,262.15c-.24.46-.49.91-.73,1.37-.15.26-.23.54-.24.84-.06.28-.04.57.03.85.06.29.18.54.35.76.14.25.34.46.59.6.17.08.33.15.5.23.35.1.69.1,1.04,0,.16-.07.32-.14.48-.21.32-.2.57-.47.75-.82.24-.46.49-.91.73-1.37.15-.26.23-.54.24-.84.06-.28.04-.57-.03-.85-.06-.29-.18-.54-.35-.76-.14-.25-.34-.46-.59-.6-.17-.08-.33-.15-.5-.23-.35-.1-.69-.1-1.04,0-.16.07-.32.14-.48.21-.32.2-.57.47-.75.82h0Z"/>
              <path class="cls-5" d="m199.72,280.45c-1.31,2.47,2.19,4.74,3.5,2.26,1.31-2.47-2.19-4.74-3.5-2.26h0Z"/>
              <path class="cls-5" d="m175.68,279.66c-.37-.09-.74-.18-1.12-.27-.26-.09-.52-.1-.78-.04-.26.01-.51.1-.74.25-.25.14-.44.33-.59.58-.19.22-.31.48-.38.79-.02.19-.04.38-.07.57,0,.39.09.75.26,1.09.11.15.21.31.32.46.26.29.57.49.93.6.37.09.74.18,1.12.27.26.09.52.1.78.04.26-.01.51-.1.74-.25.25-.14.44-.33.59-.58.19-.22.31-.48.38-.79.02-.19.04-.38.07-.57,0-.39-.09-.75-.26-1.09-.11-.15-.21-.31-.32-.46-.26-.29-.57-.49-.93-.6h0Z"/>
              <path class="cls-5" d="m153.18,269.58c-.37-.08-.75-.17-1.12-.25-.26-.09-.52-.1-.78-.04-.26.01-.51.1-.74.25-.25.14-.44.33-.59.58-.19.22-.31.48-.38.79-.02.19-.04.38-.07.57,0,.39.09.75.26,1.09.11.15.21.31.32.46.26.29.57.49.93.6.37.08.75.17,1.12.25.26.09.52.1.78.04.26-.01.51-.1.74-.25.25-.14.44-.33.59-.58.19-.22.31-.48.38-.79.02-.19.04-.38.07-.57,0-.39-.09-.75-.26-1.09-.11-.15-.21-.31-.32-.46-.26-.29-.57-.49-.93-.6h0Z"/>
              <path class="cls-5" d="m171.24,255.2c-1.31,2.47,2.19,4.74,3.5,2.26,1.31-2.47-2.19-4.74-3.5-2.26h0Z"/>
              <path class="cls-5" d="m153.55,236.44c-.12.23-.24.46-.36.69-.15.26-.23.54-.24.84-.06.28-.04.57.03.85.06.29.18.54.35.76.14.25.34.46.59.6.17.08.33.15.5.23.35.1.69.1,1.04,0,.16-.07.32-.14.48-.21.32-.2.57-.47.75-.82.12-.23.24-.46.36-.69.15-.26.23-.54.24-.84.06-.28.04-.57-.03-.85-.06-.29-.18-.54-.35-.76-.14-.25-.34-.46-.59-.6-.17-.08-.33-.15-.5-.23-.35-.1-.69-.1-1.04,0-.16.07-.32.14-.48.21-.32.2-.57.47-.75.82h0Z"/>
              <path class="cls-5" d="m141.18,217.12c-1.31,2.47,2.19,4.74,3.5,2.26,1.31-2.47-2.19-4.74-3.5-2.26h0Z"/>
              <path class="cls-5" d="m207.4,215.49c-1.31,2.47,2.19,4.74,3.5,2.26,1.31-2.47-2.19-4.74-3.5-2.26h0Z"/>
              <path class="cls-5" d="m161.99,183.46c-1.31,2.47,2.19,4.74,3.5,2.26,1.31-2.47-2.19-4.74-3.5-2.26h0Z"/>
              <path class="cls-5" d="m135.8,248.38c-.02.3-.03.59-.05.89,0,.29.05.57.16.83.08.28.22.52.41.73.19.23.42.39.68.48.24.14.5.2.77.19.17-.02.34-.05.51-.07.34-.1.64-.29.9-.56.11-.16.22-.31.33-.47.18-.35.28-.72.28-1.12.02-.3.03-.59.05-.89,0-.3-.05-.57-.16-.83-.08-.28-.22-.52-.41-.73-.19-.23-.42-.39-.68-.48-.24-.14-.5-.2-.77-.19-.17.02-.34.05-.51.07-.34.1-.64.29-.9.56-.11.16-.22.31-.33.47-.18.35-.28.72-.28,1.12h0Z"/>
              <path class="cls-5" d="m170.97,226.51c-1.31,2.47,2.19,4.74,3.5,2.26,1.31-2.47-2.19-4.74-3.5-2.26h0Z"/>
            </g>
            <g>
              <path class="cls-5" d="m179.93,273.67c1.49-2.35-1.83-4.91-3.33-2.56-1.49,2.35,1.83,4.91,3.33,2.56h0Z"/>
              <path class="cls-5" d="m194.69,295.44c.61-.5,1.22-1,1.83-1.49.22-.19.39-.42.49-.7.14-.25.22-.53.23-.83.03-.29,0-.57-.1-.84-.06-.29-.18-.54-.36-.76-.13-.14-.27-.27-.4-.41-.3-.23-.63-.36-1-.4-.17,0-.35.02-.52.03-.35.07-.66.23-.94.48-.61.5-1.22,1-1.83,1.49-.22.19-.39.42-.49.7-.14.25-.22.53-.23.83-.03.29,0,.57.1.84.06.28.18.54.36.76.13.14.27.27.4.41.3.23.63.36,1,.4l.52-.03c.35-.07.66-.23.94-.48h0Z"/>
              <path class="cls-5" d="m219.25,282.63c1.49-2.35-1.83-4.91-3.33-2.56-1.49,2.35,1.83,4.91,3.33,2.56h0Z"/>
              <path class="cls-5" d="m241.09,282.98c1.49-2.35-1.83-4.91-3.33-2.56-1.49,2.35,1.83,4.91,3.33,2.56h0Z"/>
              <path class="cls-5" d="m199.1,247.93c-.2-.15-.4-.3-.59-.46-.22-.19-.47-.3-.74-.34-.25-.09-.51-.1-.77-.03-.27.04-.51.15-.72.32-.24.14-.44.33-.59.59-.08.18-.17.35-.25.53-.12.37-.15.75-.08,1.13.05.18.1.36.16.54.15.36.38.66.68.9.2.15.4.3.59.46.22.19.47.3.74.34.25.09.51.1.77.03.27-.04.51-.15.72-.32.24-.14.44-.33.59-.59.08-.18.17-.35.25-.53.12-.37.15-.75.08-1.13-.05-.18-.1-.36-.16-.54-.15-.36-.38-.66-.68-.9h0Z"/>
              <path class="cls-5" d="m222.22,252.95c1.49-2.35-1.83-4.91-3.33-2.56-1.49,2.35,1.83,4.91,3.33,2.56h0Z"/>
              <path class="cls-5" d="m215.25,229.17c1.49-2.35-1.83-4.91-3.33-2.56-1.49,2.35,1.83,4.91,3.33,2.56h0Z"/>
              <path class="cls-5" d="m179.88,244.56c1.49-2.35-1.83-4.91-3.33-2.56-1.49,2.35,1.83,4.91,3.33,2.56h0Z"/>
              <path class="cls-5" d="m187.9,223.61c.28-.43.55-.87.83-1.3.17-.24.27-.52.3-.81.08-.28.09-.56.03-.85-.04-.29-.14-.56-.3-.79-.13-.27-.31-.48-.54-.65-.16-.09-.32-.18-.48-.28-.34-.13-.68-.16-1.03-.1-.16.06-.33.11-.49.17-.33.17-.6.42-.81.75-.28.43-.55.87-.83,1.3-.17.24-.27.52-.3.81-.08.28-.09.56-.03.85.04.29.14.56.3.79.13.27.31.48.54.65.16.09.32.18.48.28.34.13.68.16,1.03.1.16-.06.33-.11.49-.17.33-.17.6-.42.81-.75h0Z"/>
              <path class="cls-5" d="m211.45,207.36c1.49-2.35-1.83-4.91-3.33-2.56-1.49,2.35,1.83,4.91,3.33,2.56h0Z"/>
              <path class="cls-5" d="m235.36,210.29c.36.12.73.25,1.09.37.25.11.51.15.77.11.26.01.51-.05.75-.18.25-.12.46-.29.63-.53.2-.2.35-.45.43-.75.04-.19.07-.38.11-.57.03-.39-.03-.76-.18-1.11-.09-.16-.19-.33-.28-.49-.24-.31-.53-.54-.88-.68-.36-.12-.73-.25-1.09-.37-.25-.11-.51-.15-.77-.11-.26-.01-.51.05-.75.18-.25.12-.46.29-.63.53-.2.2-.35.45-.43.75-.04.19-.07.38-.11.57-.03.39.03.76.18,1.11.09.16.19.33.28.49.24.31.53.54.88.68h0Z"/>
              <path class="cls-5" d="m257.05,222.34c.37.12.73.23,1.1.35.25.11.51.15.77.11.26.01.51-.05.75-.18.25-.12.46-.29.63-.53.2-.2.35-.45.43-.75.04-.19.07-.38.11-.57.03-.39-.03-.76-.18-1.11-.09-.16-.19-.33-.28-.49-.24-.31-.53-.54-.88-.68-.37-.12-.73-.23-1.1-.35-.25-.11-.51-.15-.77-.11-.26-.01-.51.05-.75.18-.25.12-.46.29-.63.53-.2.2-.35.45-.43.75-.04.19-.07.38-.11.57-.03.39.03.76.18,1.11.09.16.19.33.28.49.24.31.53.54.88.68h0Z"/>
              <path class="cls-5" d="m237.99,235.06c1.49-2.35-1.83-4.91-3.33-2.56-1.49,2.35,1.83,4.91,3.33,2.56h0Z"/>
              <path class="cls-5" d="m254.24,255.33c.14-.22.28-.43.41-.65.17-.24.27-.52.3-.81.08-.28.09-.56.03-.85-.04-.29-.14-.56-.3-.79-.13-.27-.31-.48-.54-.65l-.48-.28c-.34-.13-.68-.16-1.03-.1-.16.06-.33.11-.49.17-.33.17-.6.42-.81.75-.14.22-.28.43-.41.65-.17.24-.27.52-.3.81-.08.28-.09.56-.03.85.04.29.14.56.3.79.13.27.31.48.54.65.16.09.32.18.48.28.34.13.68.16,1.03.1.16-.06.33-.11.49-.17.33-.17.6-.42.81-.75h0Z"/>
              <path class="cls-5" d="m265.15,275.68c1.49-2.35-1.83-4.91-3.33-2.56-1.49,2.35,1.83,4.91,3.33,2.56h0Z"/>
              <path class="cls-5" d="m199.02,271.41c1.49-2.35-1.83-4.91-3.33-2.56-1.49,2.35,1.83,4.91,3.33,2.56h0Z"/>
              <path class="cls-5" d="m272.81,245.01c.04-.29.08-.59.12-.88.03-.29,0-.57-.1-.84-.06-.29-.18-.54-.36-.76-.17-.25-.39-.43-.64-.54-.23-.16-.48-.25-.76-.26l-.52.03c-.35.07-.66.23-.94.48-.12.15-.25.29-.37.44-.21.33-.33.7-.36,1.1-.04.29-.08.59-.12.88-.03.29,0,.57.1.84.06.29.18.54.36.76.17.25.39.43.64.54.23.16.48.25.76.26l.52-.03c.35-.07.66-.23.94-.48.12-.15.25-.29.37-.44.21-.33.33-.7.36-1.1h0Z"/>
              <path class="cls-5" d="m236.14,263.67c1.49-2.35-1.83-4.91-3.33-2.56-1.49,2.35,1.83,4.91,3.33,2.56h0Z"/>
            </g>
            <g>
              <path class="cls-5" d="m201.89,264.24c2.61.03,2.64-4.43.02-4.46-2.61-.03-2.64,4.43-.02,4.46h0Z"/>
              <path class="cls-5" d="m193.98,289.91c.72.27,1.44.55,2.16.82.27.1.54.11.81.05.27-.01.52-.1.76-.26.24-.14.43-.33.57-.57.18-.21.3-.47.37-.75.03-.2.05-.39.08-.59,0-.4-.09-.78-.27-1.13-.1-.15-.21-.3-.31-.45-.25-.28-.55-.47-.89-.58-.72-.27-1.44-.55-2.16-.82-.27-.1-.54-.11-.81-.05-.27.01-.52.1-.76.26-.24.14-.43.33-.57.57-.18.21-.3.47-.37.75-.03.2-.05.39-.08.59,0,.4.09.78.27,1.13.1.15.21.3.31.45.25.28.55.47.89.58h0Z"/>
              <path class="cls-5" d="m232.08,267.08c0-.26,0-.53,0-.79.01-.31-.04-.59-.17-.86-.08-.28-.22-.52-.42-.72-.18-.22-.4-.37-.65-.47-.24-.14-.5-.21-.78-.2-.18.02-.36.05-.54.07-.34.1-.64.29-.9.56-.11.15-.21.3-.32.45-.19.35-.28.72-.28,1.12,0,.26,0,.53,0,.79-.01.31.04.59.17.86.08.28.22.52.42.72.18.22.4.38.65.47.24.14.5.21.78.2.18-.02.36-.05.54-.07.34-.1.64-.29.9-.56.11-.15.21-.3.32-.45.19-.35.28-.72.28-1.12h0Z"/>
              <path class="cls-5" d="m241.48,290.86c2.61.03,2.64-4.43.02-4.46-2.61-.03-2.64,4.43-.02,4.46h0Z"/>
              <path class="cls-5" d="m255.31,271.13c2.61.03,2.64-4.43.02-4.46-2.61-.03-2.64,4.43-.02,4.46h0Z"/>
              <path class="cls-5" d="m223.65,247.77c2.61.03,2.64-4.43.02-4.46-2.61-.03-2.64,4.43-.02,4.46h0Z"/>
              <path class="cls-5" d="m243.91,243.2c.48,0,.96,0,1.44.01.28.01.54-.05.78-.18.25-.09.47-.24.65-.45.2-.2.34-.44.42-.71.13-.26.19-.55.18-.86-.02-.2-.05-.4-.07-.59-.09-.38-.27-.71-.52-.99-.14-.12-.27-.24-.41-.35-.31-.2-.66-.31-1.02-.31-.48,0-.96,0-1.44-.01-.28-.01-.54.05-.78.18-.25.09-.47.24-.65.45-.2.2-.34.44-.42.71-.13.26-.19.55-.18.86.02.2.05.4.07.59.09.38.27.71.52.99.14.12.27.24.41.35.32.2.66.31,1.02.31h0Z"/>
              <path class="cls-5" d="m269.49,255.37c2.61.03,2.64-4.43.02-4.46-2.61-.03-2.64,4.43-.02,4.46h0Z"/>
              <path class="cls-5" d="m280.91,278.68l.35,1.2c.06.29.18.54.36.76.14.24.33.44.57.58.23.17.48.26.75.27.27.07.54.06.81-.03.16-.07.32-.15.49-.22.31-.2.55-.46.73-.79.07-.18.14-.35.21-.53.1-.39.1-.79,0-1.19l-.35-1.2c-.06-.29-.18-.54-.36-.76-.14-.24-.33-.44-.57-.58-.23-.17-.48-.26-.75-.27-.27-.07-.54-.06-.81.03-.16.07-.32.15-.49.22-.31.2-.55.46-.73.79-.07.18-.14.35-.21.53-.1.39-.1.79,0,1.19h0Z"/>
              <path class="cls-5" d="m263.85,295.05c2.61.03,2.64-4.43.02-4.46-2.61-.03-2.64,4.43-.02,4.46h0Z"/>
              <path class="cls-5" d="m214.44,280.26c2.61.03,2.64-4.43.02-4.46-2.61-.03-2.64,4.43-.02,4.46h0Z"/>
            </g>
            <g>
              <path class="cls-5" d="m225.81,294.33c2.55.59,3.38-3.78.82-4.36-2.55-.59-3.38,3.78-.82,4.36h0Z"/>
              <path class="cls-5" d="m246.5,294.22c.47.11.94.22,1.42.33.27.07.54.07.8-.01.26-.03.5-.13.72-.3.23-.15.41-.36.54-.61.17-.23.28-.5.33-.8.01-.2.03-.4.04-.6-.02-.39-.14-.75-.33-1.08-.11-.14-.23-.29-.34-.43-.27-.27-.59-.44-.95-.53-.47-.11-.94-.22-1.42-.33-.27-.07-.54-.07-.8.01-.26.03-.5.13-.72.3-.23.15-.41.36-.54.61-.17.23-.28.5-.33.8l-.04.6c.03.39.14.75.33,1.08.11.14.23.29.34.43.27.27.59.44.95.53h0Z"/>
            </g>
            <g>
              <path class="cls-5" d="m115.65,290.25c-2.57-.47-3.23,3.93-.65,4.4,2.57.47,3.23-3.93.65-4.4h0Z"/>
              <path class="cls-5" d="m59,300.49c-.06-.41-.13-.83-.19-1.24-.02-.3-.1-.57-.25-.81-.11-.27-.26-.49-.48-.67-.21-.2-.44-.33-.71-.4-.26-.11-.52-.15-.8-.11-.17.04-.34.09-.51.13-.33.14-.61.36-.83.66-.09.16-.19.33-.28.49-.15.37-.21.76-.17,1.17.06.41.13.83.19,1.24.02.3.1.57.25.81.11.27.26.49.48.67.21.2.44.33.71.4.26.11.52.15.8.11.17-.04.34-.09.51-.13.33-.14.61-.36.83-.66.09-.16.19-.33.28-.49.15-.37.21-.76.17-1.17h0Z"/>
              <path class="cls-5" d="m87.26,289.09c-.24-.04-.48-.09-.71-.13-.27-.06-.54-.05-.8.05-.26.04-.5.16-.71.34-.22.16-.4.37-.52.63-.16.24-.26.51-.3.82,0,.2-.01.4-.02.6.04.39.16.74.37,1.06.12.14.24.28.35.42.28.26.6.42.97.48.24.04.48.09.71.13.27.06.54.05.8-.05.26-.04.5-.16.71-.34.22-.16.4-.37.52-.63.16-.24.26-.51.3-.82,0-.2.01-.4.02-.6-.04-.39-.16-.74-.37-1.06-.12-.14-.24-.28-.35-.42-.28-.26-.6-.42-.97-.48h0Z"/>
              <path class="cls-5" d="m99.2,269.52c-2.57-.47-3.23,3.93-.65,4.4,2.57.47,3.23-3.93.65-4.4h0Z"/>
              <path class="cls-5" d="m135.27,278.94c-2.57-.47-3.23,3.93-.65,4.4,2.57.47,3.23-3.93.65-4.4h0Z"/>
              <path class="cls-5" d="m70.72,275.11c-.26.09-.51.17-.77.26-.25.1-.47.25-.65.46-.21.18-.36.41-.47.68-.13.28-.18.57-.17.87-.03.29,0,.58.12.86.08.17.16.33.25.5.21.32.48.56.8.73.17.06.35.12.52.18.36.06.71.03,1.05-.12.26-.09.51-.17.77-.26.25-.1.47-.25.65-.46.21-.18.36-.41.47-.68.13-.28.18-.57.17-.87.03-.29,0-.58-.12-.86-.08-.17-.16-.33-.25-.5-.21-.32-.48-.56-.8-.73-.17-.06-.35-.12-.52-.18-.36-.06-.71-.03-1.05.12h0Z"/>
            </g>
            <g>
              <path class="cls-5" d="m119.66,295.94c-1.18-2.56-4.8-.55-3.61,2.01,1.18,2.56,4.8.55,3.61-2.01h0Z"/>
              <path class="cls-5" d="m130.19,274.92c-1.18-2.56-4.8-.55-3.61,2.01,1.18,2.56,4.8.55,3.61-2.01h0Z"/>
              <path class="cls-5" d="m82.39,299.03c-.21.12-.43.24-.64.36-.25.13-.46.31-.62.56-.19.2-.32.45-.39.74-.09.28-.12.56-.08.85,0,.3.06.58.2.85.1.16.21.33.31.49.24.29.53.5.87.62l.51.11c.36.02.71-.06,1.04-.24.21-.12.43-.24.64-.36.25-.13.46-.31.62-.56.19-.2.32-.45.39-.74.09-.28.12-.56.08-.85,0-.3-.06-.58-.2-.85-.1-.16-.21-.33-.31-.49-.24-.29-.53-.5-.87-.62-.17-.04-.34-.07-.51-.11-.36-.02-.71.06-1.04.24h0Z"/>
              <path class="cls-5" d="m97.26,278.98c-1.18-2.56-4.8-.55-3.61,2.01,1.18,2.56,4.8.55,3.61-2.01h0Z"/>
              <path class="cls-5" d="m74.93,274.47c-1.18-2.56-4.8-.55-3.61,2.01,1.18,2.56,4.8.55,3.61-2.01h0Z"/>
              <path class="cls-5" d="m57.64,298.36c-.22-.47-.44-.95-.66-1.42-.12-.28-.29-.51-.51-.68-.19-.21-.41-.35-.67-.43-.25-.1-.51-.13-.77-.09-.27,0-.53.07-.78.22-.15.11-.3.23-.45.34-.26.26-.45.58-.56.96-.03.19-.06.37-.1.56-.02.4.05.78.22,1.14.22.47.44.95.66,1.42.12.28.29.51.51.68.19.21.41.35.67.43.25.1.51.13.77.09.27,0,.53-.07.78-.22.15-.11.3-.23.45-.34.26-.26.45-.58.56-.96.03-.19.06-.37.1-.56.02-.4-.05-.78-.22-1.14h0Z"/>
              <path class="cls-5" d="m55.66,267.81c-1.18-2.56-4.8-.55-3.61,2.01,1.18,2.56,4.8.55,3.61-2.01h0Z"/>
              <path class="cls-5" d="m69.22,246.01c.27-.3.54-.59.81-.88.21-.19.36-.43.45-.7.13-.25.2-.52.21-.82.03-.3-.02-.59-.13-.86-.07-.29-.2-.55-.4-.78-.13-.12-.27-.25-.4-.37-.3-.21-.62-.33-.98-.35-.17.01-.35.03-.52.04-.36.08-.68.26-.96.53-.27.3-.54.59-.81.88-.21.19-.36.43-.45.7-.13.25-.2.52-.21.82-.03.3.02.59.13.86.07.29.2.55.4.78.13.12.27.25.4.37.3.21.62.33.98.35.17-.01.35-.03.52-.04.36-.08.68-.26.96-.53h0Z"/>
              <path class="cls-5" d="m89.05,230.68c.27-.3.53-.6.8-.9.21-.19.36-.43.45-.7.13-.25.2-.52.21-.82.03-.3-.02-.59-.13-.86-.07-.29-.2-.55-.4-.78-.13-.12-.27-.25-.4-.37-.3-.21-.62-.33-.98-.35-.17.01-.35.03-.52.04-.36.08-.68.26-.96.53-.27.3-.53.6-.8.9-.21.19-.36.43-.45.7-.13.25-.2.52-.21.82-.03.3.02.59.13.86.07.29.2.55.4.78.13.12.27.25.4.37.3.21.62.33.98.35.17-.01.35-.03.52-.04.36-.08.68-.26.96-.53h0Z"/>
              <path class="cls-5" d="m90.31,255.2c-1.18-2.56-4.8-.55-3.61,2.01,1.18,2.56,4.8.55,3.61-2.01h0Z"/>
              <path class="cls-5" d="m114.18,249.05c-.11-.24-.22-.47-.33-.71-.12-.28-.29-.51-.51-.68-.19-.21-.41-.35-.67-.43-.25-.1-.51-.13-.77-.09-.27,0-.53.07-.78.22-.15.11-.3.23-.45.34-.26.26-.45.58-.56.96-.03.19-.06.37-.1.56-.02.4.05.78.22,1.14.11.24.22.47.33.71.12.28.29.51.51.68.19.21.41.35.67.43.25.1.51.13.77.09.27,0,.53-.07.78-.22.15-.11.3-.23.45-.34.26-.26.45-.58.56-.96.03-.19.06-.37.1-.56.02-.4-.05-.78-.22-1.14h0Z"/>
              <path class="cls-5" d="m135.61,248.11c-1.18-2.56-4.8-.55-3.61,2.01,1.18,2.56,4.8.55,3.61-2.01h0Z"/>
              <path class="cls-5" d="m150.13,285.66c-1.18-2.56-4.8-.55-3.61,2.01,1.18,2.56,4.8.55,3.61-2.01h0Z"/>
              <path class="cls-5" d="m114.62,226.14c-.22-.18-.43-.35-.65-.53-.22-.17-.46-.27-.72-.3-.26-.08-.52-.08-.78-.01-.28.05-.52.17-.74.37-.23.15-.42.35-.56.61-.07.17-.15.34-.22.51-.11.37-.13.75-.06,1.14.06.19.12.38.18.56.17.36.4.65.71.87.22.18.43.35.65.53.22.17.46.27.72.3.26.08.52.08.78.01.28-.05.52-.17.74-.37.23-.15.42-.35.56-.61.07-.17.15-.34.22-.51.11-.37.13-.75.06-1.14-.06-.19-.12-.38-.18-.56-.17-.36-.4-.65-.71-.87h0Z"/>
              <path class="cls-5" d="m112.39,270.56c-1.18-2.56-4.8-.55-3.61,2.01,1.18,2.56,4.8.55,3.61-2.01h0Z"/>
            </g>
            <g>
              <path class="cls-5" d="m76.51,239.2c2.21-1.52.05-5.3-2.16-3.78-2.21,1.52-.05,5.3,2.16,3.78h0Z"/>
              <path class="cls-5" d="m82.42,265.55c.74-.2,1.48-.39,2.22-.59.27-.08.51-.22.7-.44.22-.17.39-.39.51-.66.13-.26.2-.53.2-.82.05-.29.03-.57-.06-.85l-.23-.54c-.2-.34-.46-.6-.78-.79l-.49-.2c-.35-.09-.69-.07-1.03.04-.74.2-1.48.39-2.22.59-.27.08-.51.22-.7.44-.22.17-.39.39-.51.66-.13.26-.2.53-.2.82-.05.29-.03.57.06.85.08.18.15.36.23.54.2.34.46.6.78.79l.49.2c.35.09.69.07,1.03-.04h0Z"/>
              <path class="cls-5" d="m102.9,285.34c2.21-1.52.05-5.3-2.16-3.78-2.21,1.52-.05,5.3,2.16,3.78h0Z"/>
              <path class="cls-5" d="m109.6,264.27c2.21-1.52.05-5.3-2.16-3.78-2.21,1.52-.05,5.3,2.16,3.78h0Z"/>
              <path class="cls-5" d="m129.62,273.94c2.21-1.52.05-5.3-2.16-3.78-2.21,1.52-.05,5.3,2.16,3.78h0Z"/>
              <path class="cls-5" d="m103.29,223.72c-.13-.22-.26-.45-.39-.67-.14-.27-.33-.48-.56-.63-.2-.19-.44-.31-.7-.36-.26-.08-.52-.08-.78,0-.27.02-.52.12-.75.29-.14.13-.28.25-.42.38-.24.29-.4.63-.48,1.01-.02.19-.03.38-.05.57.01.4.12.77.31,1.12.13.22.26.45.39.67.14.27.33.48.56.63.2.19.44.31.7.36.26.08.52.08.78,0,.27-.02.52-.12.75-.29.14-.13.28-.25.42-.38.24-.29.4-.63.48-1.01.02-.19.03-.38.05-.57-.01-.4-.12-.77-.31-1.12h0Z"/>
              <path class="cls-5" d="m122.84,238.23c2.21-1.52.05-5.3-2.16-3.78-2.21,1.52-.05,5.3,2.16,3.78h0Z"/>
              <path class="cls-5" d="m124.82,213.38c2.21-1.52.05-5.3-2.16-3.78-2.21,1.52-.05,5.3,2.16,3.78h0Z"/>
              <path class="cls-5" d="m86.75,212.4c2.21-1.52.05-5.3-2.16-3.78-2.21,1.52-.05,5.3,2.16,3.78h0Z"/>
              <path class="cls-5" d="m101.56,196.55c.41-.28.81-.56,1.22-.84.24-.15.43-.36.57-.62.17-.22.28-.48.33-.77.07-.29.07-.57,0-.85-.02-.3-.11-.58-.27-.83-.12-.15-.23-.31-.35-.46-.26-.26-.57-.44-.92-.53l-.52-.06c-.37.01-.7.13-1.01.34-.41.28-.81.56-1.22.84-.24.15-.43.36-.57.62-.17.22-.28.48-.33.77-.07.29-.07.57,0,.85.02.3.11.58.27.83.12.15.23.31.35.46.26.26.57.44.92.53.17.02.34.04.52.06.37-.01.7-.13,1.01-.34h0Z"/>
              <path class="cls-5" d="m129.03,191.68c2.21-1.52.05-5.3-2.16-3.78-2.21,1.52-.05,5.3,2.16,3.78h0Z"/>
              <path class="cls-5" d="m150.04,204.6c.29.27.58.54.88.81.19.21.42.35.67.43.24.12.49.17.76.15.28,0,.53-.07.77-.22.26-.1.48-.27.66-.51.1-.16.2-.32.3-.47.16-.35.24-.71.23-1.1-.03-.19-.06-.38-.09-.57-.11-.39-.3-.73-.57-1-.29-.27-.58-.54-.88-.81-.19-.21-.42-.35-.67-.43-.24-.12-.49-.17-.76-.15-.28,0-.53.07-.77.22-.26.1-.48.27-.66.51-.1.16-.2.32-.3.47-.16.35-.24.71-.23,1.1.03.19.06.38.09.57.11.39.3.73.57,1h0Z"/>
              <path class="cls-5" d="m165.79,224.97c.3.26.59.53.89.79.19.21.42.35.67.43.24.12.49.17.76.15.28,0,.53-.07.77-.22.26-.1.48-.27.66-.51.1-.16.2-.32.3-.47.16-.35.24-.71.23-1.1-.03-.19-.06-.38-.09-.57-.11-.39-.3-.73-.57-1l-.89-.79c-.19-.21-.42-.35-.67-.43-.24-.12-.49-.17-.76-.15-.28,0-.53.07-.77.22-.26.1-.48.27-.66.51-.1.16-.2.32-.3.47-.16.35-.24.71-.23,1.1.03.19.06.38.09.57.11.39.3.73.57,1h0Z"/>
              <path class="cls-5" d="m143.71,228.52c2.21-1.52.05-5.3-2.16-3.78-2.21,1.52-.05,5.3,2.16,3.78h0Z"/>
              <path class="cls-5" d="m151.53,254.12c.2-.14.41-.28.61-.42.24-.15.43-.36.57-.62.17-.22.28-.48.33-.77.07-.29.07-.57,0-.85-.02-.3-.11-.58-.27-.83-.12-.15-.23-.31-.35-.46-.26-.26-.57-.44-.92-.53-.17-.02-.34-.04-.52-.06-.37.01-.7.13-1.01.34l-.61.42c-.24.15-.43.36-.57.62-.17.22-.28.48-.33.77-.07.29-.07.57,0,.85.02.3.11.58.27.83.12.15.23.31.35.46.26.26.57.44.92.53.17.02.34.04.52.06.37-.01.7-.13,1.01-.34h0Z"/>
              <path class="cls-5" d="m154.4,277.52c2.21-1.52.05-5.3-2.16-3.78-2.21,1.52-.05,5.3,2.16,3.78h0Z"/>
              <path class="cls-5" d="m94.91,245.29c2.21-1.52.05-5.3-2.16-3.78-2.21,1.52-.05,5.3,2.16,3.78h0Z"/>
              <path class="cls-5" d="m121.78,296.73c2.21-1.52.05-5.3-2.16-3.78-2.21,1.52-.05,5.3,2.16,3.78h0Z"/>
              <path class="cls-5" d="m172.31,252.58c.14-.25.28-.51.42-.76.13-.26.2-.53.2-.82.05-.29.03-.57-.06-.85-.07-.3-.21-.56-.4-.77-.15-.24-.36-.43-.61-.56-.16-.07-.32-.13-.49-.2-.35-.09-.69-.07-1.03.04-.16.08-.33.16-.49.25-.31.21-.55.5-.72.86-.14.25-.28.51-.42.76-.13.26-.2.53-.2.82-.05.29-.03.57.06.85.07.3.21.56.4.77.15.24.36.43.61.56.16.07.32.13.49.2.35.09.69.07,1.03-.04l.49-.25c.31-.21.55-.5.72-.86h0Z"/>
              <path class="cls-5" d="m131.89,254.06c2.21-1.52.05-5.3-2.16-3.78-2.21,1.52-.05,5.3,2.16,3.78h0Z"/>
            </g>
            <g>
              <path class="cls-5" d="m201.34,193.38c-1.01,2.64,2.73,4.38,3.74,1.74,1.01-2.64-2.73-4.38-3.74-1.74h0Z"/>
              <path class="cls-5" d="m182.76,175.48c-.5.63-1,1.26-1.51,1.88-.18.24-.3.5-.35.8-.09.28-.12.57-.07.87.03.29.11.56.26.8.11.27.28.49.5.66.16.1.31.2.47.3.34.16.69.21,1.05.16.17-.05.33-.1.5-.15.33-.15.61-.38.83-.68.5-.63,1-1.26,1.51-1.88.18-.24.3-.5.35-.8.09-.28.12-.57.07-.87-.03-.29-.11-.56-.26-.8-.11-.27-.28-.49-.5-.66-.16-.1-.31-.2-.47-.3-.34-.16-.69-.21-1.05-.16-.17.05-.33.1-.5.15-.33.15-.61.38-.83.68h0Z"/>
              <path class="cls-5" d="m155.71,172.17c-1.01,2.64,2.73,4.38,3.74,1.74,1.01-2.64-2.73-4.38-3.74-1.74h0Z"/>
              <path class="cls-5" d="m161.22,193.69c-1.01,2.64,2.73,4.38,3.74,1.74,1.01-2.64-2.73-4.38-3.74-1.74h0Z"/>
              <path class="cls-5" d="m139.81,198.39c-1.01,2.64,2.73,4.38,3.74,1.74,1.01-2.64-2.73-4.38-3.74-1.74h0Z"/>
              <path class="cls-5" d="m187.53,222.99c.22.1.44.21.67.31.25.13.52.18.79.16.26.02.52-.02.76-.15.25-.1.47-.26.64-.48.21-.19.36-.43.46-.72.05-.19.09-.38.14-.58.04-.39,0-.77-.13-1.13-.09-.17-.17-.33-.26-.5-.22-.32-.5-.56-.84-.72-.22-.1-.44-.21-.67-.31-.25-.13-.52-.18-.79-.16-.26-.02-.52.02-.76.15-.25.1-.47.26-.64.48-.21.19-.36.43-.46.72-.05.19-.09.38-.14.58-.04.39,0,.77.13,1.13.09.17.17.33.26.5.22.32.5.56.84.72h0Z"/>
              <path class="cls-5" d="m163.98,223.42c-1.01,2.64,2.73,4.38,3.74,1.74,1.01-2.64-2.73-4.38-3.74-1.74h0Z"/>
              <path class="cls-5" d="m175.33,245.07c-1.01,2.64,2.73,4.38,3.74,1.74,1.01-2.64-2.73-4.38-3.74-1.74h0Z"/>
              <path class="cls-5" d="m206.95,221.84c-1.01,2.64,2.73,4.38,3.74,1.74,1.01-2.64-2.73-4.38-3.74-1.74h0Z"/>
              <path class="cls-5" d="m203.12,244.19c-.19.49-.37.98-.56,1.46-.12.28-.16.57-.14.87-.02.29.02.57.13.84.09.28.24.51.44.7.17.23.39.4.65.51.17.05.35.11.52.16.35.05.7,0,1.03-.14.15-.09.3-.19.45-.28.29-.24.51-.55.65-.92.19-.49.37-.98.56-1.46.12-.28.16-.57.14-.87.02-.29-.02-.57-.13-.84-.09-.28-.24-.51-.44-.7-.17-.23-.39-.4-.65-.51-.17-.05-.35-.11-.52-.16-.35-.05-.7,0-1.03.14-.15.09-.3.19-.45.28-.29.24-.51.55-.65.92h0Z"/>
              <path class="cls-5" d="m183.2,265.53c-1.01,2.64,2.73,4.38,3.74,1.74,1.01-2.64-2.73-4.38-3.74-1.74h0Z"/>
              <path class="cls-5" d="m159.29,268.19c-.38-.04-.76-.07-1.14-.11-.27-.05-.53-.03-.78.07-.26.05-.49.17-.7.35-.23.17-.4.39-.51.66-.16.25-.25.53-.28.83,0,.19,0,.39,0,.58.05.39.18.74.39,1.05.12.14.24.28.37.41.29.25.63.41.99.46.38.04.76.07,1.14.11.27.05.53.03.78-.07.26-.05.49-.17.7-.35.23-.17.4-.39.51-.66.16-.25.25-.53.28-.83,0-.19,0-.39,0-.58-.05-.39-.18-.74-.39-1.05-.12-.14-.24-.28-.37-.41-.29-.25-.63-.41-.99-.46h0Z"/>
              <path class="cls-5" d="m135.8,261.41l-1.14-.09c-.27-.05-.53-.03-.78.07-.26.05-.49.17-.7.35-.23.17-.4.39-.51.66-.16.25-.25.53-.28.83,0,.19,0,.39,0,.58.05.39.18.74.39,1.05.12.14.24.28.37.41.29.25.63.41.99.46.38.03.76.06,1.14.09.27.05.53.03.78-.07.26-.05.49-.17.7-.35.23-.17.4-.39.51-.66.16-.25.25-.53.28-.83,0-.19,0-.39,0-.58-.05-.39-.18-.74-.39-1.05-.12-.14-.24-.28-.37-.41-.29-.25-.63-.41-.99-.46h0Z"/>
              <path class="cls-5" d="m151.99,244.56c-1.01,2.64,2.73,4.38,3.74,1.74,1.01-2.64-2.73-4.38-3.74-1.74h0Z"/>
              <path class="cls-5" d="m132.24,228.49c-.09.24-.19.49-.28.73-.12.28-.16.57-.14.87-.02.29.02.57.13.84.09.28.24.51.44.7.17.23.39.4.65.51.17.05.35.11.52.16.35.05.7,0,1.03-.14.15-.09.3-.19.45-.28.29-.24.51-.55.65-.92.09-.24.19-.49.28-.73.12-.28.16-.57.14-.87.02-.29-.02-.57-.13-.84-.09-.28-.24-.51-.44-.7-.17-.23-.39-.4-.65-.51-.17-.05-.35-.11-.52-.16-.35-.05-.7,0-1.03.14-.15.09-.3.19-.45.28-.29.24-.51.55-.65.92h0Z"/>
              <path class="cls-5" d="m117.69,211.1c-1.01,2.64,2.73,4.38,3.74,1.74,1.01-2.64-2.73-4.38-3.74-1.74h0Z"/>
              <path class="cls-5" d="m183.13,200c-1.01,2.64,2.73,4.38,3.74,1.74,1.01-2.64-2.73-4.38-3.74-1.74h0Z"/>
              <path class="cls-5" d="m134.33,174.73c-1.01,2.64,2.73,4.38,3.74,1.74,1.01-2.64-2.73-4.38-3.74-1.74h0Z"/>
              <path class="cls-5" d="m116.06,242.87c.02.3.04.59.05.89.03.29.11.56.26.8.11.27.28.49.5.66.22.2.46.33.73.38.25.1.52.13.79.08.17-.05.33-.1.5-.15.33-.15.61-.38.83-.68.09-.17.18-.34.28-.51.14-.37.19-.76.14-1.16-.02-.3-.04-.59-.05-.89-.03-.29-.11-.56-.26-.8-.11-.27-.28-.49-.5-.66-.22-.2-.46-.33-.73-.38-.25-.1-.52-.13-.79-.08-.17.05-.33.1-.5.15-.33.15-.61.38-.83.68-.09.17-.18.34-.28.51-.14.37-.19.76-.14,1.15h0Z"/>
              <path class="cls-5" d="m148.33,216.14c-1.01,2.64,2.73,4.38,3.74,1.74,1.01-2.64-2.73-4.38-3.74-1.74h0Z"/>
            </g>
          </g>
        </g>
        <g class="cls-7">
          <path class="cls-6" d="m407.52,29.98c-6.41-3.42-15.58-2.23-22.65-3.77-5.47-1.19-10.88-2.47-16.17.02-4.87,2.29-9.08,5.79-13.99,8.1-3.35,1.58-6.5,3.12-9.32,5.56-2.29,1.98-4.31,4.27-6.88,5.92-2.65,1.7-5.68,2.49-8.48,3.86-9.53,4.67-16.95,14.15-24.59,21.16-8.54,7.84-17.27,14.76-23.91,24.38-7.54,10.92-16.18,19.87-25.3,29.36-10.68,11.11-20.32,23.26-30.41,34.89-19.58,22.55-36.04,47.5-53.76,71.52-10.51,14.25-21.88,27.93-31.97,42.47-9.09,13.11-19.6,24.07-29.55,36.36-9.42,11.63-18.01,23.3-25.94,35.93-2.89,4.61-4.17,8.4-5.85,13.47-.88,2.65-3.13,5.11-2.91,8.09.88,11.54,19.74,10.77,27.31,11.24,23.28,1.43,46.63,3.96,69.93,4.77,16.62.58,33.35-1.29,49.9-1.39,6.76-.04,7.76-1.65,11.96-6.89,3.86-4.82,8.36-8.93,12.33-13.66,10.38-12.35,19.17-28.09,27.03-42.15,13.7-24.49,28.79-48.06,41.81-72.94,10.43-19.93,21-39.82,32.03-59.4,10.67-18.95,19.96-38.74,31.38-57.21,7.44-12.04,16.45-24.13,22.79-36.73,4.86-9.66,7.82-20.63,12.06-30.6,2.43-5.7,8.79-19.71,4.54-24.31-2.19-2.37-8.68-6.61-11.36-8.04Z"/>
        </g>
        <rect class="cls-2" x="-.33" y="-1797.09" width="1921.93" height="1954.1"/>
      </g>
      <g>
        <rect class="cls-3" x="42.14" y="128.18" width="215.72" height="109.82"/>
        <path class="cls-3" d="m79.64,118.94c0-5.1-4.13-9.23-9.23-9.23s-9.23,4.13-9.23,9.23,4.13,9.23,9.23,9.23,9.23-4.13,9.23-9.23Z"/>
        <line class="cls-3" x1="70.41" y1="109.71" x2="70.41" y2="55.62"/>
        <path class="cls-3" d="m243.07,118.94c0-5.1-4.13-9.23-9.23-9.23s-9.23,4.13-9.23,9.23,4.13,9.23,9.23,9.23,9.23-4.13,9.23-9.23Z"/>
        <line class="cls-3" x1="233.84" y1="109.71" x2="233.84" y2="55.62"/>
        <g>
          <line class="cls-3" x1="230.73" y1="144.76" x2="69.27" y2="144.76"/>
          <line class="cls-3" x1="230.73" y1="221.41" x2="69.27" y2="221.41"/>
        </g>
        <g>
          <path class="cls-4" d="m100.66,201.14h-5.03v-15.92h-14.13v15.92h-5.03v-36.1h5.03v16.34h14.13v-16.34h5.03v36.1Z"/>
          <path class="cls-4" d="m136.93,188.07c0,4.28-1.16,7.61-3.47,10-2.31,2.39-5.41,3.58-9.3,3.58s-6.88-1.2-9.15-3.58-3.4-5.72-3.4-10v-9.92c0-4.26,1.13-7.6,3.4-10.02,2.26-2.41,5.31-3.62,9.12-3.62s6.99,1.2,9.31,3.61c2.32,2.4,3.48,5.75,3.48,10.03v9.92Zm-5.01-9.99c0-3.14-.67-5.52-2.02-7.15-1.35-1.63-3.27-2.44-5.76-2.44s-4.27.81-5.57,2.44c-1.3,1.63-1.95,4.01-1.95,7.15v9.99c0,3.17.65,5.58,1.96,7.21,1.31,1.64,3.16,2.46,5.58,2.46s4.41-.81,5.75-2.44c1.34-1.63,2.01-4.04,2.01-7.23v-9.99Z"/>
          <path class="cls-4" d="m168.83,168.91h-9.57v32.23h-5.06v-32.23h-9.5v-3.87h24.12v3.87Z"/>
          <path class="cls-4" d="m195.5,184.38h-12.25v12.94h14.43v3.82h-19.46v-36.1h19.34v3.87h-14.3v11.63h12.25v3.84Z"/>
          <path class="cls-4" d="m212.85,197.32h14.6v3.82h-19.64v-36.1h5.03v32.28Z"/>
        </g>
      </g>
    </g>
  </g>
</svg>