<?xml version="1.0" encoding="utf-8"?>
<!-- Generator: Adobe Illustrator 27.2.0, SVG Export Plug-In . SVG Version: 6.00 Build 0)  -->
<svg version="1.1" id="_圖層_1" xmlns="http://www.w3.org/2000/svg" xmlns:xlink="http://www.w3.org/1999/xlink" x="0px" y="0px"
	 viewBox="0 0 90 90" style="enable-background:new 0 0 90 90;" xml:space="preserve">
<style type="text/css">
	.st0{fill:#00A19B;stroke:#00A19B;stroke-width:2;stroke-linecap:round;stroke-linejoin:round;stroke-miterlimit:10;}
</style>
<path class="st0" d="M44.8,27.7c-0.6,0-1.2,0.3-1.6,0.8L15.9,56.8C15.4,57.4,15,58.1,15,59s0.2,1.7,0.7,2.3c0.5,0.6,1.2,1,1.9,1
	c0.7,0,1.4-0.2,2-0.8L45,35.1l25.4,26.4c0.5,0.6,1.2,0.9,2,0.8c0.7,0,1.4-0.4,1.9-1c0.5-0.6,0.7-1.4,0.7-2.3s-0.4-1.6-0.9-2.2
	L46.8,28.5C46.3,27.9,45.5,27.7,44.8,27.7C44.8,27.7,44.8,27.7,44.8,27.7z"/>
</svg>
