<?xml version="1.0" encoding="utf-8"?>
<!-- Generator: Adobe Illustrator 27.2.0, SVG Export Plug-In . SVG Version: 6.00 Build 0)  -->
<svg version="1.1" id="圖層_1" xmlns="http://www.w3.org/2000/svg" xmlns:xlink="http://www.w3.org/1999/xlink" x="0px" y="0px"
	 viewBox="0 0 1440 1580" style="enable-background:new 0 0 1440 1580;" xml:space="preserve">
<style type="text/css">
	.st0{fill:#FF7F61;}
	.st1{fill:#D46437;}
	.st2{fill:#DBAA5F;}
	.st3{fill:#B88F50;}
	.st4{fill:#C69963;}
	.st5{fill:#AA8657;}
	.st6{fill:#FFBA5C;}
	.st7{fill:#FFA549;}
	.st8{fill:#E3B620;}
</style>
<g>
	<path class="st0" d="M1338.9,342.3c4.5,2.1,8.5,4.2,12.6,6c2.9,1.3,3.7,0.7,3.8-2.5c0.1-4,0.3-8.1-2.1-12c2.5-0.2,4.6-0.3,6.7-0.6
		c6.9-1.3,7.4-2.5,3.6-8.2c-1-1.5-2.2-3-3.3-4.4c-3.5-4.1-7.7-6.8-14.1-5.2c2.4-3.2,4.4-5.6,8.1-5.7c1.5-0.1,3,0.1,2.8-2
		c-0.2-1.8-1.9-3.1-3.8-2.5c-4.1,1.1-7.9,2.7-10.6,6.2c-0.6,0.7-1.1,1.4-1.9,2.3c-0.9-1-1.6-1.9-2.3-2.7c-3.9-4.8-9.1-7-15.2-7.6
		c-3.6-0.4-4.6,0.5-4.9,4.1c-0.3,2.9,0.6,5.5,2.1,7.9c0.5,0.8,1.1,1.5,1.9,2.6c-1.5,0.3-2.8,0.4-4.1,0.8c-2,0.7-4,1.3-5.7,2.4
		c-2.3,1.4-2.4,2.7-1.2,5c2.2,4,5,7.2,9.9,8.1c0.3,0.1,0.6,0.3,1,0.6c-4.1,4.2-4.4,9.1-2.9,14.2c0.8,2.8,1.6,3.2,4.3,2.4
		C1329.5,349.4,1335,346.9,1338.9,342.3z"/>
	<g>
		<path class="st1" d="M1340.2,320.9c-3.4,5.8-6.1,12.1-7.9,18.6c-0.4,1.4-2.5,0.8-2.1-0.5c1.9-6.7,4.6-13.1,8.1-19.1
			C1339,318.6,1340.9,319.7,1340.2,320.9L1340.2,320.9z"/>
	</g>
</g>
<g>
	<g>
		<path class="st2" d="M1300.6,661.2c4.8,22.4,25.9,41.8,47.9,43.6c4,0.3,8.1-0.2,11.9-1.3c6.8-2,9.9-4.8,10.1-9.4
			c-18.1-15.2-50.1-33.5-68.4-43.4C1300,652.8,1299.6,656.3,1300.6,661.2z"/>
		<path class="st3" d="M1368.2,684.5c-19.9-35.7-32.7-37.3-57.8-36.8c-3.9,0.1-6.6,1-8.3,2.8c18.3,10,50.4,28.2,68.4,43.4
			C1370.6,691.4,1369.8,688.4,1368.2,684.5z"/>
	</g>
	<g>
		<path class="st4" d="M162.7,202.5c0.2-0.3,0.5-0.6,0.8-0.8c3.9-3.2,8.2-6.5,13.3-6.9c1.3-0.1,2.8-0.1,3.5-1.2
			c0.7-1.2-0.3-2.9-1.7-3.3c-1.4-0.4-2.8,0.1-4.1,0.7c-4.6,2-8.9,4.5-13,7.3c-0.3,0.2-0.6,0.4-0.9,0.6c-0.5,0.4-1.1,0.7-1.7,0.8
			c-0.7,0.1-1.4-0.1-2.1-0.3c-4.5-1.5-8.7-4.1-13.4-2.8c-5.1,1.4-9.9,4.2-14.1,7.5c-8.7,6.9-14.4,17.1-16.6,28
			c-1.7,8.5-2.4,17.2-2.3,25.8c0.1,5.9-0.4,11.8-0.1,17.7c0.1,1.7-0.2,7.3,1.2,8.5c18.5-34.1,51.6-79.5,51.6-79.5
			C162.6,203.9,162.4,203.1,162.7,202.5z"/>
		<path class="st4" d="M116.4,282c10.3-7.4,21-14.4,32-20.7c12.4-7.1,25.5-16.4,28-30.5c1.5-8.3-0.9-19.7-9.1-23.7
			c-1.5-0.7-3.3-1.3-4.3-2.7c0,0-33.1,45.5-51.6,79.5l0,0C113.2,285.4,114.8,283.1,116.4,282z"/>
		<path class="st5" d="M116.4,282c10.3-7.4,21-14.4,32-20.7c12.4-7.1,25.5-16.4,28-30.5c1.5-8.3-0.9-19.7-9.1-23.7
			c-1.5-0.7-3.3-1.3-4.3-2.7c0,0-33.1,45.5-51.6,79.5l0,0C113.2,285.4,114.8,283.1,116.4,282z"/>
	</g>
	<g>
		<path class="st6" d="M1348.2,1209.7c8.3-4.4,19.1-6,25.9-7.8c-2-1-6.6-3.1-8.7-3.8c-13.5-4.5-28-2.9-42,0.4
			c-10.5,2.4-26.5,5.1-31.9,15.6c-5.3,10.3-6.4,22.6-13.7,31.8c0.2,0.1,0.4,0.1,0.6,0.2c4.7-1.3,11.9-3.4,16.2-5.1
			C1301.4,1238.3,1328.1,1220.5,1348.2,1209.7z"/>
		<path class="st7" d="M1323.8,1249.2c5.9-1.4,11.8-3.5,16.8-6.9c14.5-10,19.9-29.3,33.6-40.4c-0.9-0.5-17.6,3.4-25.9,7.8
			c-20.2,10.8-46.8,28.6-53.6,31.3c-4.3,1.7-11.5,3.8-16.2,5.1C1292.8,1251.6,1308.8,1252.7,1323.8,1249.2z"/>
	</g>
	<path class="st8" d="M117.3,1298.7c1.1-13.3,2.1-28.3-8.1-36.9c-5.5-4.7-33.7-27.4-40.4-30.2c-6-2.5-1.2-5.3,1.4-5.1
		c6.9,0.6,38,31.5,44.9,35.3c10.8,5.9,20.9,5.8,34.8,2.8c12.6-2.7,20.6-5.6,33-9.3c6.6,18.7,1.8,36.9-9.1,53.4
		c-7.1,10.7-10.7,15.9-21.3,23.1c-14.2,9.6-34.1,7.6-46.7,5.4C109.6,1322.4,115.9,1314.6,117.3,1298.7z"/>
</g>
<g>
	<path class="st0" d="M137.3,591.1c-4.5,2.1-8.5,4.2-12.6,6c-2.9,1.3-3.7,0.7-3.8-2.5c-0.1-4-0.3-8.1,2.1-12
		c-2.5-0.2-4.6-0.3-6.7-0.6c-6.9-1.3-7.4-2.5-3.6-8.2c1-1.5,2.2-3,3.3-4.4c3.5-4.1,7.7-6.8,14.1-5.2c-2.4-3.2-4.4-5.6-8.1-5.7
		c-1.5-0.1-3,0.1-2.8-2c0.2-1.8,1.9-3.1,3.8-2.5c4.1,1.1,7.9,2.7,10.6,6.2c0.6,0.7,1.1,1.4,1.9,2.3c0.9-1,1.6-1.9,2.3-2.7
		c3.9-4.8,9.1-7,15.2-7.6c3.6-0.4,4.6,0.5,4.9,4.1c0.3,2.9-0.6,5.5-2.1,7.9c-0.5,0.8-1.1,1.5-1.9,2.6c1.5,0.3,2.8,0.4,4.1,0.8
		c2,0.7,4,1.3,5.7,2.4c2.3,1.4,2.4,2.7,1.2,5c-2.2,4-5,7.2-9.9,8.1c-0.3,0.1-0.6,0.3-1,0.6c4.1,4.2,4.4,9.1,2.9,14.2
		c-0.8,2.8-1.6,3.2-4.3,2.4C146.6,598.2,141.2,595.7,137.3,591.1z"/>
	<g>
		<path class="st1" d="M136,569.7c3.4,5.8,6.1,12.1,7.9,18.6c0.4,1.4,2.5,0.8,2.1-0.5c-1.9-6.7-4.6-13.1-8.1-19.1
			C137.2,567.4,135.2,568.4,136,569.7L136,569.7z"/>
	</g>
</g>
</svg>
