<svg width="1440" height="1580" viewBox="0 0 1440 1580" fill="none" xmlns="http://www.w3.org/2000/svg">
<path opacity="0.1" fill-rule="evenodd" clip-rule="evenodd" d="M1272.82 756.883L1286.88 742.816C1291.2 738.499 1298.2 738.499 1302.51 742.816L1316.58 756.883C1320.9 761.2 1320.9 768.198 1316.58 772.514L1302.51 786.582C1298.2 790.898 1291.2 790.898 1286.88 786.582L1272.82 772.514C1268.5 768.198 1268.5 761.2 1272.82 756.883ZM1275.94 760.009C1273.35 762.599 1273.35 766.798 1275.94 769.388L1290.01 783.456C1292.6 786.045 1296.8 786.045 1299.39 783.456L1313.46 769.388C1316.05 766.798 1316.05 762.599 1313.46 760.009L1299.39 745.942C1296.8 743.352 1292.6 743.352 1290.01 745.942L1275.94 760.009Z" fill="#00A19B"/>
<rect opacity="0.3" x="1329" y="681.713" width="32" height="32" rx="5" transform="rotate(-60 1329 681.713)" fill="#00A19B"/>
<rect opacity="0.1" x="1244" y="196.426" width="60" height="60" rx="5" transform="rotate(-45 1244 196.426)" fill="#00A19B"/>
<rect opacity="0.3" x="69" y="390" width="28" height="28" rx="5" transform="rotate(-30 69 390)" fill="#00A19B"/>
<path opacity="0.1" fill-rule="evenodd" clip-rule="evenodd" d="M112.815 320.883L126.883 306.816C131.199 302.499 138.198 302.499 142.514 306.816L156.582 320.883C160.898 325.2 160.898 332.198 156.582 336.514L142.514 350.582C138.198 354.898 131.199 354.898 126.883 350.582L112.815 336.514C108.499 332.198 108.499 325.2 112.815 320.883ZM115.942 324.009C113.352 326.599 113.352 330.798 115.942 333.388L130.009 347.456C132.599 350.045 136.798 350.045 139.388 347.456L153.455 333.388C156.045 330.798 156.045 326.599 153.455 324.009L139.388 309.942C136.798 307.352 132.599 307.352 130.009 309.942L115.942 324.009Z" fill="#00A19B"/>
<rect opacity="0.3" x="1329" y="1564" width="32" height="32" rx="5" transform="rotate(-60 1329 1564)" fill="#00A19B"/>
<rect opacity="0.1" x="63" y="1432.43" width="60" height="60" rx="5" transform="rotate(-45 63 1432.43)" fill="#00A19B"/>
<path opacity="0.1" fill-rule="evenodd" clip-rule="evenodd" d="M118.815 1032.88L132.883 1018.82C137.199 1014.5 144.198 1014.5 148.514 1018.82L162.582 1032.88C166.898 1037.2 166.898 1044.2 162.582 1048.51L148.514 1062.58C144.198 1066.9 137.199 1066.9 132.883 1062.58L118.815 1048.51C114.499 1044.2 114.499 1037.2 118.815 1032.88ZM121.942 1036.01C119.352 1038.6 119.352 1042.8 121.942 1045.39L136.009 1059.46C138.599 1062.04 142.798 1062.04 145.388 1059.46L159.455 1045.39C162.045 1042.8 162.045 1038.6 159.455 1036.01L145.388 1021.94C142.798 1019.35 138.599 1019.35 136.009 1021.94L121.942 1036.01Z" fill="#00A19B"/>
</svg>
