<?xml version="1.0" encoding="UTF-8"?>
<svg xmlns="http://www.w3.org/2000/svg" xmlns:xlink="http://www.w3.org/1999/xlink" viewBox="0 0 800 500">
  <defs>
    <style>
      .cls-1 {
        clip-path: url(#clippath);
      }

      .cls-2 {
        fill: none;
      }

      .cls-2, .cls-3, .cls-4, .cls-5, .cls-6 {
        stroke-width: 0px;
      }

      .cls-3 {
        fill: #fdf5c3;
      }

      .cls-3, .cls-7 {
        isolation: isolate;
      }

      .cls-8 {
        clip-path: url(#clippath-1);
      }

      .cls-9 {
        fill: #fff;
        stroke: #fdd089;
        stroke-miterlimit: 10;
      }

      .cls-4 {
        fill: #f7e0db;
      }

      .cls-5 {
        fill: #cf9d74;
      }

      .cls-6 {
        fill: #ebd553;
        mix-blend-mode: multiply;
        opacity: .4;
      }
    </style>
    <clipPath id="clippath">
      <rect class="cls-2" x="1196" y="-704" width="600" height="860"/>
    </clipPath>
    <clipPath id="clippath-1">
      <rect class="cls-2" x="3" y="-705" width="1080" height="590"/>
    </clipPath>
  </defs>
  <g class="cls-7">
    <g id="_圖層_1" data-name="圖層 1">
      <g class="cls-1">
        <rect class="cls-4" x="702.05" y="-703.95" width="1255.06" height="819.71"/>
        <path class="cls-5" d="m1767.13,76.89s-94.36-41.54-223.02-97.65c-493.25-215.12-830.78-264.74-830.78-264.74L660.32-3.5l919.51,172.84,187.3-92.45Z"/>
        <path class="cls-6" d="m2064.47,181.22l17.38-177.26s-235.59-132.68-662.85-101.2c-349.77,25.77-373.96-55.58-658.64-67.74l-21.2,216.26,1325.3,129.94Z"/>
      </g>
      <g>
        <circle class="cls-3" cx="145.71" cy="321.48" r="47.76"/>
        <g class="cls-7">
          <path class="cls-9" d="m130.22,317.14l-11.08,1.5c-.15,1.21-.49,3.77-.65,4.69,1-.86,2.51-1.54,4.47-1.81,4.59-.62,7.85,1.89,8.51,6.78.83,6.15-2.03,12.33-10.54,13.48-6.78.92-10.44-1.97-10.95-7.06l7.41-1c.22,1.78,1.1,3.18,3.07,2.92,2.97-.4,3.38-4.16,3.04-6.69-.24-1.77-1.16-2.99-3.14-2.73-1.55.21-2.52,1.12-3.03,2.71l-6.82.24c.8-4.18,2.04-12.91,2.47-16.77l17.96-2.42-.72,6.16Z"/>
          <path class="cls-9" d="m157.06,323.01c-.44,6.63-2.98,14.29-11.04,15.38-8.54,1.15-11.32-5.35-10.77-14.46.43-7.22,3.41-14.51,11-15.53,8.61-1.16,11.41,5.79,10.82,14.61Zm-14.2.77c-.4,6.38.14,9.73,2.81,9.37,2.17-.29,3.27-3.3,3.69-10.09.41-6.53.08-9.8-2.64-9.43-2.62.35-3.49,4.39-3.85,10.16Z"/>
          <path class="cls-9" d="m182.51,319.57c-.44,6.63-2.98,14.29-11.04,15.38-8.54,1.15-11.32-5.35-10.77-14.46.43-7.21,3.41-14.51,11-15.53,8.61-1.16,11.41,5.79,10.82,14.61Zm-14.2.77c-.4,6.38.14,9.73,2.81,9.37,2.17-.29,3.27-3.3,3.69-10.09.41-6.53.08-9.8-2.64-9.43-2.62.35-3.49,4.39-3.85,10.16Z"/>
        </g>
        <circle class="cls-3" cx="654.29" cy="195.32" r="47.76"/>
        <g class="cls-7">
          <path class="cls-9" d="m640.8,190.97l-11.08,1.5c-.15,1.21-.49,3.77-.65,4.69,1-.86,2.51-1.54,4.47-1.81,4.59-.62,7.85,1.89,8.51,6.78.83,6.15-2.03,12.33-10.54,13.48-6.78.92-10.44-1.97-10.95-7.06l7.41-1c.22,1.78,1.1,3.18,3.07,2.92,2.97-.4,3.38-4.16,3.04-6.69-.24-1.77-1.16-2.99-3.14-2.73-1.55.21-2.52,1.12-3.03,2.71l-6.82.24c.8-4.18,2.04-12.91,2.47-16.77l17.96-2.42-.72,6.16Z"/>
          <path class="cls-9" d="m667.65,196.85c-.44,6.63-2.98,14.29-11.04,15.38-8.54,1.15-11.32-5.35-10.77-14.46.43-7.22,3.41-14.51,11-15.53,8.61-1.16,11.41,5.79,10.82,14.61Zm-14.2.77c-.4,6.38.14,9.73,2.81,9.37,2.17-.29,3.27-3.3,3.69-10.09.41-6.53.08-9.8-2.64-9.43-2.62.35-3.49,4.39-3.85,10.16Z"/>
          <path class="cls-9" d="m693.09,193.41c-.44,6.63-2.98,14.29-11.04,15.38-8.54,1.15-11.32-5.35-10.77-14.46.43-7.21,3.41-14.51,11-15.53,8.61-1.16,11.41,5.79,10.82,14.61Zm-14.2.77c-.4,6.38.14,9.73,2.81,9.37,2.17-.29,3.27-3.3,3.69-10.09.41-6.53.08-9.8-2.64-9.43-2.62.35-3.49,4.39-3.85,10.16Z"/>
        </g>
      </g>
      <g class="cls-8">
        <path class="cls-5" d="m1155.25-98.75s-104.06-29.71-245.87-69.73C365.69-321.9,6.09-334.9,6.09-334.9L-13.44-63.78,970.99,7.13l184.26-105.88Z"/>
        <path class="cls-6" d="m872.06,66.66l43.56-195.78s-158.88-161.16-493.34-151.34c-273.8,8.04-278.59-83.71-495.79-113.95l-53.15,238.84L872.06,66.66Z"/>
      </g>
    </g>
  </g>
</svg>