<?xml version="1.0" encoding="UTF-8"?>
<svg id="_圖層_1" data-name="圖層 1" xmlns="http://www.w3.org/2000/svg" viewBox="0 0 800 500">
  <defs>
    <style>
      .cls-1 {
        fill: #fff;
        stroke-width: 0px;
      }
    </style>
  </defs>
  <path class="cls-1" d="m872.91,457.08c-48.78,0-90.13,16.52-104.03,39.28-8.87-2.41-18.58-3.62-28.4-3.62-11.39,0-22.65,1.63-32.72,4.89-5.27-22.9-42.91-40.63-88.69-40.63-41.71,0-76.71,14.75-86.53,34.67-15.1-14.47-44.7-24.32-78.74-24.32-20.49-.07-40.51,3.62-57.17,10.71-17.5-17.3-52.62-29.07-93.13-29.07-53.33,0-97.32,20.49-104.03,47.01-22.17-4.47-46.38-4.25-68.44.64-6.11-22.34-43.39-39.57-88.45-39.57-32.84,0-61.48,9.15-77.06,22.76-16.06-7.73-37.39-12.41-61-12.41-49.38,0-89.41,20.63-89.41,46.09s40.03,46.09,89.41,46.09c32.84,0,61.48-9.15,77.06-22.76,15.94,7.66,37.39,12.41,60.88,12.41,12.11,0,24.21-1.28,35.6-3.83,6.11,22.34,43.39,39.57,88.45,39.57,41.47,0,76.35-14.61,86.41-34.32,15.7,4.4,32.96,6.67,50.46,6.67,30.44,0,57.89-6.74,77.06-17.37,16.18,11.91,42.91,19.71,73.23,19.71,41.71,0,76.71-14.75,86.53-34.67,15.1,14.47,44.7,24.32,78.74,24.32,25.05,0,47.7-5.32,64-13.97,8.63,12.05,31.04,20.63,57.41,20.63,16.06.07,31.76-3.33,43.87-9.57,19.78,14.18,52.14,23.47,88.69,23.47,60.29,0,109.19-25.24,109.19-56.37s-48.9-56.44-109.19-56.44Z"/>
</svg>