<?xml version="1.0" encoding="UTF-8"?><svg id="_圖層_1" xmlns="http://www.w3.org/2000/svg" xmlns:xlink="http://www.w3.org/1999/xlink" viewBox="0 0 330 185"><defs><clipPath id="clippath"><path d="m174.43,33.66h-21.44c-1.21,0-2.19.98-2.19,2.19v90.62c0,1.39,1.13,2.52,2.52,2.52h52.37c1.26,0,2.29-1.03,2.29-2.29V35.9c0-1.24-1.01-2.24-2.24-2.24h-13.74v-4.66c0-2.62-2.12-4.75-4.75-4.75h-8.07c-2.62,0-4.75,2.12-4.75,4.75v4.66h-.02Z" style="fill:none;"/></clipPath><clipPath id="clippath-1"><path d="m150.18,81.44l37.14,21.54,21.54-37.14-37.14-21.54s-21.54,37.14-21.54,37.14Zm45.97,1.96c-5.39,9.29-17.29,12.45-26.57,7.05-9.29-5.39-12.45-17.29-7.05-26.57,5.39-9.29,17.29-12.45,26.57-7.05,9.29,5.39,12.45,17.29,7.05,26.57Z" style="fill:none;"/></clipPath><linearGradient id="_未命名漸層_10" x1="144.39" y1="915.62" x2="175.89" y2="903.73" gradientTransform="translate(0 937.34) scale(1 -1)" gradientUnits="userSpaceOnUse"><stop offset="0" stop-color="#f6efb3"/><stop offset=".45" stop-color="#f6cfe1"/><stop offset=".48" stop-color="#b9e1f7"/><stop offset=".71" stop-color="#dcc5de"/><stop offset="1" stop-color="#dbeac0"/></linearGradient><linearGradient id="_未命名漸層_10-2" x1="143.88" y1="914.23" x2="175.36" y2="902.33" xlink:href="#_未命名漸層_10"/><linearGradient id="_未命名漸層_10-3" x1="145.09" y1="917.48" x2="176.58" y2="905.58" xlink:href="#_未命名漸層_10"/><linearGradient id="_未命名漸層_10-4" x1="145.44" y1="918.4" x2="176.94" y2="906.5" xlink:href="#_未命名漸層_10"/><linearGradient id="_未命名漸層_10-5" x1="146.05" y1="920.03" x2="177.55" y2="908.13" xlink:href="#_未命名漸層_10"/><linearGradient id="_未命名漸層_10-6" x1="146.41" y1="920.94" x2="177.89" y2="909.04" xlink:href="#_未命名漸層_10"/><linearGradient id="_未命名漸層_10-7" x1="144.56" y1="916.05" x2="176.05" y2="904.15" xlink:href="#_未命名漸層_10"/><linearGradient id="_未命名漸層_10-8" x1="143.99" y1="914.55" x2="175.47" y2="902.65" xlink:href="#_未命名漸層_10"/><linearGradient id="_未命名漸層_10-9" x1="142.89" y1="911.64" x2="174.37" y2="899.74" xlink:href="#_未命名漸層_10"/><linearGradient id="_未命名漸層_10-10" x1="144.38" y1="915.59" x2="175.87" y2="903.69" xlink:href="#_未命名漸層_10"/><linearGradient id="_未命名漸層_11" x1="-2398.86" y1="138.43" x2="-2383.88" y2="117.78" gradientTransform="translate(58.83 2430.35) rotate(90) scale(1 -1)" gradientUnits="userSpaceOnUse"><stop offset="0" stop-color="#9d9d9e"/><stop offset=".05" stop-color="#a4a4a5"/><stop offset=".14" stop-color="#b9baba"/><stop offset=".24" stop-color="#dadbdb"/><stop offset=".31" stop-color="#cbcccc"/><stop offset=".45" stop-color="#b9b9ba"/><stop offset=".54" stop-color="#b3b3b4"/><stop offset=".62" stop-color="#b9b9ba"/><stop offset=".74" stop-color="#cbcccc"/><stop offset=".81" stop-color="#dadbdb"/><stop offset="1" stop-color="#9d9d9e"/></linearGradient></defs><g><path d="m137.95,12.72h82.79c3.05,0,5.53,2.47,5.53,5.53v137.75c0,3.05-2.47,5.53-5.53,5.53h-82.79c-3.05,0-5.53-2.47-5.53-5.53V18.26c0-3.05,2.47-5.53,5.53-5.53v-.02Z" style="fill:#807b76;"/><rect x="147.36" y="30.74" width="63.94" height="101.76" rx="2.8" ry="2.8"/><rect x="176.35" y="26.03" width="21.29" height="26.73" rx="3.3" ry="3.3"/><circle cx="215.48" cy="22.78" r="3" style="fill:none; stroke:#132539; stroke-linecap:round; stroke-linejoin:round; stroke-width:.3px;"/><path d="m220.84,133.57V34.83c0-1.34-.53-2.64-1.49-3.58l-3.8-3.8c2.61,0,4.71-2.12,4.71-4.73s-2.12-4.73-4.73-4.73-4.73,2.11-4.73,4.71l-3.24-3.24c-.95-.95-2.24-1.49-3.58-1.49h-61.19c-2.62,0-4.73,2.12-4.73,4.73v117.57c0,1.34.53,2.64,1.49,3.58l3.57,3.57h-.03c-2.62,0-4.73,2.12-4.73,4.73s2.12,4.73,4.73,4.73,4.73-2.12,4.73-4.73v-.03l3.52,3.52c.95.95,2.24,1.49,3.58,1.49h35.8" style="fill:none; stroke:#132539; stroke-linecap:round; stroke-linejoin:round; stroke-width:.3px;"/><circle cx="143.1" cy="152.27" r="3" style="fill:none; stroke:#132539; stroke-linecap:round; stroke-linejoin:round; stroke-width:.3px;"/><rect x="140.16" y="47.79" width="5.04" height="15.32" rx=".56" ry=".56" style="fill:none; stroke:#132539; stroke-linecap:round; stroke-linejoin:round; stroke-width:.2px;"/><rect x="140.84" y="49.88" width="3.67" height="11.15" rx=".35" ry=".35" style="fill:none; stroke:#132539; stroke-linecap:round; stroke-linejoin:round; stroke-width:.12px;"/><rect x="140.16" y="104.09" width="5.04" height="15.32" rx=".56" ry=".56" style="fill:none; stroke:#132539; stroke-linecap:round; stroke-linejoin:round; stroke-width:.2px;"/><rect x="140.84" y="106.18" width="3.67" height="11.15" rx=".35" ry=".35" style="fill:none; stroke:#132539; stroke-linecap:round; stroke-linejoin:round; stroke-width:.12px;"/><polygon points="144.76 153.1 143.99 152.33 144.76 151.57 143.99 150.81 143.23 151.57 142.47 150.81 141.7 151.57 142.47 152.33 141.7 153.1 142.47 153.86 143.23 153.1 143.99 153.86 144.76 153.1" style="fill:none; stroke:#132539; stroke-linecap:round; stroke-linejoin:round; stroke-width:.3px;"/><polygon points="217.01 23.56 216.25 22.78 217.01 22.02 216.25 21.25 215.48 22.02 214.72 21.25 213.96 22.02 214.72 22.78 213.96 23.56 214.72 24.31 215.48 23.54 216.25 24.31 217.01 23.56" style="fill:none; stroke:#132539; stroke-linecap:round; stroke-linejoin:round; stroke-width:.3px;"/><line x1="141.39" y1="111.74" x2="143.91" y2="111.74" style="fill:none; stroke:#132539; stroke-miterlimit:10; stroke-width:.2px;"/><g><line x1="141.39" y1="55.29" x2="143.91" y2="55.29" style="fill:none; stroke:#132539; stroke-miterlimit:10; stroke-width:.2px;"/><line x1="142.65" y1="54.03" x2="142.65" y2="56.57" style="fill:none; stroke:#132539; stroke-miterlimit:10; stroke-width:.2px;"/></g><rect x="150.45" y="134.83" width="15.32" height="5.04" rx=".56" ry=".56" style="fill:none; stroke:#132539; stroke-linecap:round; stroke-linejoin:round; stroke-width:.2px;"/><rect x="152.52" y="135.52" width="11.15" height="3.67" rx=".35" ry=".35" style="fill:none; stroke:#132539; stroke-linecap:round; stroke-linejoin:round; stroke-width:.12px;"/><rect x="171.54" y="134.83" width="15.32" height="5.04" rx=".56" ry=".56" style="fill:none; stroke:#132539; stroke-linecap:round; stroke-linejoin:round; stroke-width:.2px;"/><rect x="173.63" y="135.52" width="11.15" height="3.67" rx=".35" ry=".35" style="fill:none; stroke:#132539; stroke-linecap:round; stroke-linejoin:round; stroke-width:.12px;"/><g><path d="m156.09,138.43h-.3v-1.43l-.43,1h-.23l-.41-1v1.41h-.3v-2.11h.3l.53,1.29.53-1.29h.3v2.11l.02.02Z" style="fill:#132539;"/><path d="m156.77,138.25c-.12-.15-.18-.35-.18-.6v-.56c0-.22.07-.41.18-.56.13-.17.3-.23.53-.23s.4.08.51.23.18.35.18.56v.56c0,.25-.07.45-.18.6-.12.15-.28.22-.51.23-.23,0-.41-.08-.53-.23Zm.12-1.16v.56c0,.17.03.28.1.37s.17.13.32.13c.27,0,.4-.17.4-.5v-.56c0-.15-.03-.27-.1-.37-.07-.08-.17-.13-.3-.13-.15,0-.25.05-.32.13-.07.1-.1.22-.1.37Z" style="fill:#132539;"/><path d="m158.5,138.43v-2.09h.7c.2,0,.35.07.46.18.1.13.17.32.17.56v.56c0,.25-.05.43-.17.56-.1.13-.27.2-.46.2h-.7v.02Zm.3-1.79v1.49h.4c.1,0,.18-.05.25-.13.05-.08.08-.2.08-.35v-.56c0-.15-.03-.25-.1-.33-.05-.08-.13-.12-.23-.12,0,0-.4,0-.4,0Z" style="fill:#132539;"/><path d="m160.32,138.43v-2.11h1.23v.32h-.93v.56h.83v.32h-.83v.61h.96v.3h-1.28.02Z" style="fill:#132539;"/></g><g><g><path d="m174.54,138.43v-2.11h.3v1.81h.88v.3h-1.18Z" style="fill:#132539;"/><path d="m176.27,136.45c.1-.12.27-.17.5-.18.17,0,.32.05.43.15s.17.23.17.4h-.3s-.03-.13-.1-.17c-.05-.03-.13-.07-.22-.07-.13,0-.23.02-.28.07s-.08.13-.08.23.02.18.08.23c.05.05.18.08.37.1.18.02.33.08.45.2.1.1.15.25.17.45,0,.18-.07.35-.18.45s-.3.17-.53.17-.41-.05-.53-.17c-.1-.12-.17-.27-.17-.41h.3c0,.18.13.27.4.27.12,0,.22-.02.3-.07.07-.03.1-.12.1-.23s-.03-.2-.1-.25c-.05-.03-.18-.08-.4-.1-.2-.03-.35-.12-.43-.22s-.12-.23-.12-.4c0-.18.05-.33.17-.45h.02Z" style="fill:#132539;"/><path d="m177.7,138.46l.91-2.19h.3l-.91,2.19h-.3Z" style="fill:#132539;"/><path d="m179.29,138.43v-2.09h.7c.2,0,.35.07.46.18.1.13.17.32.17.56v.56c0,.25-.05.43-.17.56-.1.13-.27.2-.46.2h-.7v.02Zm.3-1.79v1.49h.4c.1,0,.18-.05.25-.13.05-.08.08-.2.08-.35v-.56c0-.15-.03-.25-.1-.33-.05-.08-.13-.12-.23-.12,0,0-.4,0-.4,0Z" style="fill:#132539;"/></g><polygon points="184.12 137.43 182.64 136.6 182.64 137.28 181.12 137.28 181.12 137.6 182.64 137.6 182.64 138.26 184.12 137.43" style="fill:#132539;"/></g><rect x="150.45" y="142.1" width="36.41" height="7.75" rx=".56" ry=".56" style="fill:none; stroke:#132539; stroke-linecap:round; stroke-linejoin:round; stroke-width:.2px;"/><rect x="151.38" y="142.78" width="34.53" height="6.37" rx=".35" ry=".35" style="fill:none; stroke:#132539; stroke-linecap:round; stroke-linejoin:round; stroke-width:.12px;"/><g style="clip-path:url(#clippath);"><g><g><path d="m189.6,101.16l-.13-.65.78-.48-.6-.75.15-.61.32-.78-.8.17s-1.64-.6-1.71-.58-.12,1.29-.12,1.29l-.6.25.37,1.05-.83.22.13,1.16,1.19.1.23-.83,1.61.45Z" style="fill:#383331;"/><path d="m155.39,82.34c.07.12.83,1.11.83,1.11l1-.22-.2-.96,1.23-.17.05-1.34-.78-.3.9-.78.68.63-.03-2.16-2.61-.05-1.03,1.59-.56-2.69-.85,2.9-.23,2.22,1.61.22v-.02Z" style="fill:#383331;"/><polygon points="161.38 82.59 161.15 81.49 160.17 81.69 159.54 82.4 161.38 82.59" style="fill:#383331;"/><path d="m158.75,78.59l.61-1.33,1.39-.3h1.61l.3-1.88-1.23-1.16-.35-1.63,1.41-.53-3.09-.68-.17,1.38s-.58,2.01-.71,2.04-1.64.35-1.39.75.41,3.6.41,3.6l1.19-.25v-.02Z" style="fill:#383331;"/><path d="m204.33,53.78l-.12-1.49-2.32-1.51-1,.55-.25-1.21-1.71-1.21-.46-1.54-1.86.4-3.67,3.58-3.42-.17-3.73,5.58-3.53,1.89-1.29,2.36-2.06,2.37-1.99,1.39-.13,1-.61,1.03-1.84,1.13-1.88,3.53-2.66,1.53-.23,4.28-1.39.8.22,1.01.98.08v.6l-1.28,1.89-1.08.78.38,1.79-2.02,1.29,2.92,2.26-.61,3.3-.18,2.04,1.29,1.24-.46,1.69-.18.8,1.89,1.08-.86.85,1.13.38.3.25,1.28,1.61-.15,4.63,1.05.63,1.38.61.71-1.66c.43-.81,1.79-2.09,1.79-2.09,0,0,1.43-.93,2.27-1.61l.25.05-.05-.23c.23-.22.38-.38.38-.48l1.01-.41.7-1.59,1.03-.35.85-.88-.63-1.66.6-.8.86.13.35-1.31,1.96-.22-.18-1.54,1.96.41v-1.24l.73-2.09,1.48-1.56.07-1.81,1.38-1.46.86.17.03-1.81,1.51-5.58.86-.46v-1.88l1.29-.85.66-2.09-.71-1.71,1.74-1.93,1.05-.28-.08-1.99,1.48-.51.4-1.39,1.94-1.31-1.15-2.46.53-.4-.58-2.7,1.26-1.23,1.49-.8,1.96-.85-1.93-.63.05-.02Z" style="fill:#383331;"/><path d="m199.47,51.7s.35-1.29.13-1.36-1.86-1.24-1.86-1.24l-1.48,1.79,1.15.48,2.07.33h-.02Z" style="fill:#717071;"/><path d="m199.89,56.86l1.08-.23,1.34-1.26-1.63-1.18-1.54,2.12-2.14-.35-1.91,1.73-1.97.07-2.99.85-4.12,1.15-1.76,1.76-.91,2.41.41,1.96-1.89,1.24-.18,1.97h1.66l1.29.96.71,1.36-1.93.4s-.96-1.31-1.16-1.28-1.54.53-1.54.53l.56,2.67,2.19,1-3.29.7-.83.63-2.64.56-.5,1.61.86.75-1.36,2.07-.86.18-.55,2.29.96,2.26.37,2.06.9,1.26-1.58,1.38v2.69l-.17,2.04-.68,1.33.58,2.47-1.33,2.37,1.08.56,1.89-1.64,2.7.65.61-1.05-.12-1.19,2.7-.3-.76-1.64.91-2.54,1-.22.51-1.49,1.44-.71,1.58-.96-2.04-.6-.05-1.51.85-.88.27-1.58,1.64-2.42,2.04-.37-1.1,1.54-2.17,3.22.28,1.33,1.59-2.62-.3,2.47,1.13-1.83.28-1.99,1.38-1.61,1.46-4.17-1.61,2.19-1.24.13s.03-1.33.13-1.51.88-2.36.88-2.36l.68-2.06,1.86-1.24.7-3.34,1.61-.86.91-2.22,1.79-.32.45-1.83.43-1.19.86-1.15.18-1.08h.71l.28-1.59-1.36-.13-1.49-.23.12-1.41.61-1.99,1.15-.86.05.07Z" style="fill:#717071;"/><polygon points="194.94 67.24 196.15 68.65 196.45 67.47 197.23 67.58 197.59 66.67 196.58 65.51 195.64 66.61 194.94 67.24" style="fill:#5a5757;"/><path d="m192.73,68.53l1.19-1.84,1.59-.96.3-.88-.37-1.73-.98-.35-1.81,1.56-1.63,1.86-1.63.35-.45,2.09s.17,1.43-.02,1.53-1.34,1.46-1.34,1.46l1.49.53-2.42.51-.75,1.13.28,1.36-.66.13-.73,2.79.07-3.58-.9-.3-1.59,1.97.08,2.69-1.06.22.15-1.94-1.79,1.29-.22,3.58,1.46-.32-.2,2.31-2.31,3.12.61.98-1.05,2.57-1.69,1.11.3,1.39,1.19-.25-.23,1.23-1.26.27-.81,3,3.24.63.68-4.56,1.48.1.32-2.75-.81-.93.05-1.05,1.34-.15-.51.86,1.43,1.21,1.18-1.91-.56-1.68-.07-1.97,1.69.81.6-1.29.46-1.63-.25-1.19-.17-.78,1.53.91.86-2.61,1.54-2.11-.51-1.79,1-.81,1.59.27-.32-1.49.76-.55-.71-1.71,1.39-.3,2.39-.1-.41-1.94-2.09-.38h.05Z" style="fill:#5a5757;"/><polygon points="187.6 68.45 188.35 66.42 190.33 66.01 193.43 63 192.5 61.2 193.74 59.62 191.49 60.37 189.96 61.11 188.19 60.45 186.84 61.63 187.95 62.92 185.03 65.05 186.08 66.62 185.55 68.61 185.68 69.19 187.6 68.45" style="fill:#5a5757;"/></g><g><circle cx="179.36" cy="73.66" r="10.02" style="fill:none; stroke:#fff; stroke-miterlimit:10; stroke-width:.07px;"/><circle cx="179.34" cy="73.66" r="19.43" transform="translate(77.91 238.88) rotate(-80.78)" style="fill:none; stroke:#fff; stroke-miterlimit:10; stroke-width:.07px;"/><g style="clip-path:url(#clippath-1);"><g><line x1="161.77" y1="63.45" x2="196.91" y2="83.85" style="fill:none; stroke:#fff; stroke-miterlimit:10; stroke-width:.07px;"/><line x1="161.77" y1="63.45" x2="196.91" y2="83.85" style="fill:none; stroke:#fff; stroke-miterlimit:10; stroke-width:.07px;"/><line x1="163.81" y1="60.55" x2="194.87" y2="86.77" style="fill:none; stroke:#fff; stroke-miterlimit:10; stroke-width:.07px;"/><line x1="166.45" y1="57.94" x2="192.23" y2="89.36" style="fill:none; stroke:#fff; stroke-miterlimit:10; stroke-width:.07px;"/><line x1="169.22" y1="56.03" x2="189.46" y2="91.28" style="fill:none; stroke:#fff; stroke-miterlimit:10; stroke-width:.07px;"/><line x1="172.52" y1="54.51" x2="186.16" y2="92.81" style="fill:none; stroke:#fff; stroke-miterlimit:10; stroke-width:.07px;"/><line x1="175.96" y1="53.61" x2="182.73" y2="93.7" style="fill:none; stroke:#fff; stroke-miterlimit:10; stroke-width:.07px;"/><line x1="179.66" y1="53.33" x2="179.04" y2="93.97" style="fill:none; stroke:#fff; stroke-miterlimit:10; stroke-width:.07px;"/><line x1="183.01" y1="53.66" x2="175.67" y2="93.66" style="fill:none; stroke:#fff; stroke-miterlimit:10; stroke-width:.07px;"/><line x1="186.51" y1="54.64" x2="172.17" y2="92.68" style="fill:none; stroke:#fff; stroke-miterlimit:10; stroke-width:.07px;"/><line x1="189.71" y1="56.17" x2="168.97" y2="91.13" style="fill:none; stroke:#fff; stroke-miterlimit:10; stroke-width:.07px;"/><line x1="192.72" y1="58.34" x2="165.98" y2="88.98" style="fill:none; stroke:#fff; stroke-miterlimit:10; stroke-width:.07px;"/><line x1="195.06" y1="60.76" x2="163.63" y2="86.55" style="fill:none; stroke:#fff; stroke-miterlimit:10; stroke-width:.07px;"/><line x1="196.98" y1="63.57" x2="161.7" y2="83.75" style="fill:none; stroke:#fff; stroke-miterlimit:10; stroke-width:.07px;"/><line x1="198.47" y1="66.8" x2="160.21" y2="80.51" style="fill:none; stroke:#fff; stroke-miterlimit:10; stroke-width:.07px;"/><line x1="199.4" y1="70.39" x2="159.28" y2="76.93" style="fill:none; stroke:#fff; stroke-miterlimit:10; stroke-width:.07px;"/><line x1="199.67" y1="73.99" x2="159.01" y2="73.33" style="fill:none; stroke:#fff; stroke-miterlimit:10; stroke-width:.07px;"/><line x1="199.27" y1="77.61" x2="159.41" y2="69.71" style="fill:none; stroke:#fff; stroke-miterlimit:10; stroke-width:.07px;"/><line x1="198.36" y1="80.84" x2="160.34" y2="66.46" style="fill:none; stroke:#fff; stroke-miterlimit:10; stroke-width:.07px;"/><line x1="163.16" y1="62.31" x2="195.52" y2="85.01" style="fill:none; stroke:#fff; stroke-miterlimit:10; stroke-width:.07px;"/><line x1="163.16" y1="62.31" x2="195.52" y2="85.01" style="fill:none; stroke:#fff; stroke-miterlimit:10; stroke-width:.07px;"/><line x1="165.4" y1="59.64" x2="193.28" y2="87.66" style="fill:none; stroke:#fff; stroke-miterlimit:10; stroke-width:.07px;"/><line x1="168.17" y1="57.33" x2="190.51" y2="89.97" style="fill:none; stroke:#fff; stroke-miterlimit:10; stroke-width:.07px;"/><line x1="171.03" y1="55.7" x2="187.65" y2="91.61" style="fill:none; stroke:#fff; stroke-miterlimit:10; stroke-width:.07px;"/><line x1="174.35" y1="54.49" x2="184.34" y2="92.81" style="fill:none; stroke:#fff; stroke-miterlimit:10; stroke-width:.07px;"/><line x1="177.76" y1="53.91" x2="180.92" y2="93.41" style="fill:none; stroke:#fff; stroke-miterlimit:10; stroke-width:.07px;"/><line x1="181.37" y1="53.94" x2="177.32" y2="93.37" style="fill:none; stroke:#fff; stroke-miterlimit:10; stroke-width:.07px;"/><line x1="184.58" y1="54.54" x2="174.1" y2="92.78" style="fill:none; stroke:#fff; stroke-miterlimit:10; stroke-width:.07px;"/><line x1="187.9" y1="55.77" x2="170.78" y2="91.55" style="fill:none; stroke:#fff; stroke-miterlimit:10; stroke-width:.07px;"/><line x1="190.89" y1="57.53" x2="167.81" y2="89.79" style="fill:none; stroke:#fff; stroke-miterlimit:10; stroke-width:.07px;"/><line x1="193.6" y1="59.88" x2="165.09" y2="87.43" style="fill:none; stroke:#fff; stroke-miterlimit:10; stroke-width:.07px;"/><line x1="195.67" y1="62.42" x2="163.01" y2="84.89" style="fill:none; stroke:#fff; stroke-miterlimit:10; stroke-width:.07px;"/><line x1="197.31" y1="65.31" x2="161.37" y2="82.01" style="fill:none; stroke:#fff; stroke-miterlimit:10; stroke-width:.07px;"/><line x1="198.47" y1="68.58" x2="160.21" y2="78.74" style="fill:none; stroke:#fff; stroke-miterlimit:10; stroke-width:.07px;"/><line x1="199.07" y1="72.13" x2="159.61" y2="75.19" style="fill:none; stroke:#fff; stroke-miterlimit:10; stroke-width:.07px;"/><line x1="199.02" y1="75.65" x2="159.66" y2="71.67" style="fill:none; stroke:#fff; stroke-miterlimit:10; stroke-width:.07px;"/><line x1="198.34" y1="79.13" x2="160.34" y2="68.17" style="fill:none; stroke:#fff; stroke-miterlimit:10; stroke-width:.07px;"/><line x1="197.16" y1="82.2" x2="161.52" y2="65.1" style="fill:none; stroke:#fff; stroke-miterlimit:10; stroke-width:.07px;"/></g></g><g><path d="m194.84,91.86l-1.08-1.61.2-.13.91,1.36.15-.4.13.2-.15.48-.15.1h-.02Z" style="fill:#fff;"/><path d="m193.68,91.4l.58.86-.83.55-.12-.18.63-.43-.3-.45s-.1.15-.22.23c-.1.07-.22.1-.37.08-.13,0-.27-.12-.4-.32-.12-.18-.18-.35-.17-.5.02-.13.1-.27.25-.37.17-.1.3-.15.43-.1.12.03.22.1.28.2l-.2.13s-.1-.1-.17-.12c-.07,0-.15,0-.23.07-.08.05-.12.12-.13.2,0,.08.03.18.12.33.08.12.15.18.22.22.07.03.15,0,.25-.05.07-.05.1-.08.13-.13.02-.03.03-.08.02-.12h0l.2-.13.02.02Z" style="fill:#fff;"/></g><g><path d="m201.63,81.51l-1.81-.68.08-.22,1.53.58-.12-.41.22.08.15.48-.07.17h.02Z" style="fill:#fff;"/><path d="m200.53,82.95c-.13-.05-.3-.22-.46-.5s-.3-.51-.38-.7l-.3.76-.2-.08.38-1.01.2.08c.08.18.22.41.38.71.17.28.32.45.45.5.08.03.17.03.23,0,.07-.02.12-.08.15-.17.03-.08.03-.17,0-.25-.03-.07-.1-.12-.18-.15l.08-.22c.13.05.22.13.28.27.07.13.07.28,0,.43-.05.15-.15.25-.27.32-.12.07-.27.07-.41,0h.05Z" style="fill:#fff;"/></g><path d="m202.18,69.04c.18-.03.33,0,.45.08s.2.22.22.37c.03.18,0,.32-.08.43s-.22.18-.41.22-.46,0-.8-.12-.53-.18-.63-.23l-.03-.23c.13.07.37.13.68.25.08.03.17.05.23.07-.03-.05-.07-.12-.08-.2-.03-.17,0-.3.1-.4s.22-.17.37-.2v-.03Zm.32.27s-.17-.05-.28-.03c-.08,0-.15.05-.22.1-.07.05-.08.15-.07.28,0,.1.07.17.13.2,0,0,.02,0,.03.02h.22c.13-.02.22-.05.27-.1.05-.05.07-.13.05-.25-.02-.1-.07-.18-.13-.22h0Z" style="fill:#fff;"/><g><path d="m183.75,96.82l-.32-1.91.23-.03.27,1.63.3-.32.03.23-.35.38-.18.03.02-.02Z" style="fill:#fff;"/><path d="m182.26,95.08c.17-.03.32,0,.43.08s.18.22.22.37c.02.13,0,.23-.03.32-.05.08-.1.15-.18.2.07.03.13.07.2.13s.1.15.12.27c.02.15,0,.27-.08.38s-.2.18-.35.2c-.17.03-.3,0-.41-.07-.1-.08-.17-.18-.2-.33-.02-.12,0-.22.03-.3s.08-.15.13-.18c-.08-.02-.15-.05-.22-.12-.07-.05-.12-.15-.13-.3-.03-.17,0-.32.08-.43s.22-.18.4-.22Zm.38.76s.05-.17.03-.27c0-.08-.05-.17-.12-.22-.07-.05-.15-.07-.27-.05-.12.02-.2.07-.23.15-.03.07-.05.15-.03.25,0,.1.05.18.12.25.05.05.15.08.27.07.12-.02.18-.07.23-.15v-.03Zm.13.65c0-.1-.05-.17-.1-.22-.05-.05-.13-.07-.23-.07-.12.02-.18.07-.22.13s-.03.15-.02.25c0,.08.05.15.1.18.05.05.13.05.23.03.08,0,.15-.05.2-.12.03-.07.05-.13.03-.22v.02Z" style="fill:#fff;"/></g><g><path d="m171.69,95.05c.05-.13.2-.3.48-.5.27-.18.5-.32.68-.41l-.78-.25.07-.2,1.03.33-.07.2c-.18.08-.41.23-.68.41-.28.18-.43.35-.48.48-.03.08-.03.17,0,.23s.08.12.18.15c.08.03.17.03.25,0,.07-.03.12-.1.15-.18l.22.07c-.05.13-.13.23-.25.3-.13.07-.27.08-.43.03-.15-.05-.25-.13-.32-.25s-.08-.27-.02-.41h-.03Z" style="fill:#fff;"/><path d="m170.56,95.22l.6-1.84.22.07-.5,1.56.4-.13-.07.22-.48.18s-.17-.05-.17-.05Z" style="fill:#fff;"/></g><g><path d="m162.02,88.11c.1-.1.32-.18.65-.22.32-.03.58-.05.8-.05l-.58-.58.15-.15.75.76-.15.15c-.2,0-.46,0-.8.05-.33.03-.55.1-.65.2-.07.07-.1.13-.1.22,0,.07.02.15.08.22s.13.1.22.1.15-.03.22-.1l.17.17c-.1.1-.22.15-.37.15s-.28-.05-.4-.17c-.1-.12-.17-.23-.17-.37s.05-.27.17-.38h.02Z" style="fill:#fff;"/><path d="m160.84,87.63l1.48-.5-.35-.35-.51.5-.17-.17.51-.5-.15-.17.15-.15.15.17.22-.22.17.17-.22.22.51.51-.15.15-1.49.5-.17-.17h.02Z" style="fill:#fff;"/></g><g><path d="m156.77,77.13c.15,0,.35.08.61.28.27.18.46.37.61.5l-.03-.81h.22l.03,1.06h-.22c-.15-.13-.35-.3-.63-.5-.27-.2-.46-.3-.61-.3-.1,0-.17.03-.22.08s-.08.12-.07.22c0,.1.03.17.1.23.07.05.13.08.22.07v.23c-.13,0-.25-.03-.37-.13s-.17-.23-.18-.4c0-.15.03-.28.12-.38s.22-.17.38-.17l.03.02Z" style="fill:#fff;"/><path d="m156.74,76.81h-.48l-.03-1.08h.22c.48.15,1.06.3,1.74.45v.23c-.65-.15-1.23-.3-1.73-.45v.63h.3v.23l-.02-.02Z" style="fill:#fff;"/></g><g><path d="m157.37,66.61c-.07-.13-.07-.27,0-.43.07-.15.15-.27.27-.33.12-.07.25-.07.41,0,.15.05.25.15.3.28,0,.02,0,.05.02.08.02-.02.05-.05.07-.05.12-.08.27-.1.45-.03.15.07.27.15.33.28.07.13.05.28,0,.45-.07.18-.17.3-.32.35-.13.05-.25.05-.38,0q-.09-.03,0,0l.08-.22s.15.03.22,0,.13-.1.17-.22c.03-.1.03-.18,0-.27-.05-.07-.12-.13-.2-.17-.12-.05-.2-.05-.28-.02-.07.03-.13.12-.2.28h0l-.2-.08v-.03c.05-.12.07-.22.03-.28-.02-.07-.1-.13-.22-.18-.1-.03-.17-.03-.23,0s-.12.1-.15.18-.03.17,0,.25c.03.07.08.12.15.15l-.08.22c-.12-.05-.22-.13-.27-.25l.03.03Z" style="fill:#fff;"/><path d="m159.03,65.86l-.86-.33c-.13-.05-.23-.15-.28-.28-.07-.13-.07-.28,0-.43.05-.15.15-.25.28-.32.13-.05.25-.07.4,0l.86.33c.15.05.25.15.32.28.05.12.05.27,0,.41s-.15.27-.28.33-.27.07-.41,0h-.02Zm-.78-.56l.86.33c.08.03.17.03.23,0s.12-.1.15-.18.03-.15,0-.23c-.03-.07-.08-.12-.18-.15l-.86-.33s-.15-.03-.23,0c-.07.03-.12.08-.15.17s-.03.17,0,.23.08.12.17.15l.02.02Z" style="fill:#fff;"/></g><g><path d="m163.99,56.05c0-.15.08-.27.22-.38.13-.1.27-.15.4-.15s.25.07.37.2c.1.12.13.25.12.4,0,.02,0,.05-.02.08h.08c.15,0,.28.05.4.2.1.13.15.27.15.41,0,.13-.1.27-.23.38-.15.12-.3.17-.45.15-.13-.02-.25-.08-.33-.18q-.06-.07,0,0l.18-.15s.12.1.2.1.17-.02.25-.1c.08-.07.12-.15.13-.23,0-.08-.03-.17-.08-.25-.07-.1-.15-.15-.23-.15s-.18.03-.32.15h0l-.13-.17h.03c.1-.1.17-.18.18-.25s0-.17-.1-.27c-.07-.08-.13-.12-.2-.12s-.15.02-.23.08c-.07.05-.12.13-.13.22,0,.08,0,.15.05.22l-.18.15c-.08-.1-.12-.22-.1-.35h-.02Z" style="fill:#fff;"/><path d="m165.05,55.19c0-.15.08-.27.22-.38.13-.1.27-.15.4-.15s.25.07.37.2c.1.12.13.25.12.4,0,.02,0,.05-.02.08h.08c.15,0,.28.05.4.2.1.13.15.27.15.41,0,.13-.1.27-.23.38-.15.12-.3.17-.45.15-.13-.02-.25-.08-.33-.18q-.06-.07,0,0l.18-.15s.12.1.2.1.17-.02.25-.1c.08-.07.12-.15.13-.23,0-.08-.03-.17-.08-.25-.07-.1-.15-.15-.23-.15s-.18.03-.32.15h0l-.13-.17s.02,0,.03-.02c.1-.08.17-.17.18-.23s0-.17-.1-.27c-.07-.08-.13-.12-.2-.12s-.15.02-.23.08c-.07.05-.12.13-.13.22,0,.08,0,.15.05.22l-.18.15c-.08-.1-.12-.22-.1-.35h-.02Z" style="fill:#fff;"/></g><path d="m175.21,51.5l-.12-.93c-.02-.13.02-.27.12-.38.08-.12.22-.18.38-.2.15-.02.3,0,.4.1.12.08.17.2.2.35l.12.93c.02.17,0,.3-.1.4-.08.1-.22.17-.37.18-.17.02-.3,0-.41-.1-.12-.08-.18-.2-.2-.37l-.02.02Zm.13-.96l.12.93c0,.1.05.17.12.22.07.05.13.07.23.05.08,0,.15-.05.2-.1.05-.05.07-.13.05-.23l-.12-.93c0-.08-.05-.15-.1-.2s-.13-.07-.22-.05c-.08,0-.17.05-.22.1-.05.07-.07.13-.07.22Z" style="fill:#fff;"/><path d="m187.02,51.37c.12-.08.27-.08.43-.05.17.05.28.12.35.23.08.12.08.25.05.41-.05.15-.13.27-.25.33-.02,0-.05.02-.08.03.02,0,.05.03.07.07.1.12.12.27.07.45-.05.17-.13.28-.27.35-.12.07-.27.08-.45.03-.18-.05-.32-.15-.38-.27s-.07-.25-.05-.38q.01-.09,0,0l.23.07s0,.15.03.22c.03.07.12.12.23.15.1.03.18.02.27-.03.07-.05.12-.12.15-.22.03-.12.03-.2,0-.28-.03-.07-.13-.13-.3-.17h0l.05-.2h.03c.13.03.22.03.28,0s.12-.1.17-.23c.03-.1.02-.17,0-.23s-.1-.1-.2-.13c-.08-.02-.17-.02-.25.02-.07.03-.12.08-.13.17l-.23-.07c.03-.12.12-.22.23-.3l-.05.03Z" style="fill:#fff;"/><path d="m196.05,59.07c.15-.12.38-.22.71-.28.33-.07.56-.12.71-.13l.15.18c-.15,0-.38.05-.7.12-.08.02-.18.03-.27.07.07.02.15.07.2.13.1.12.13.23.12.37,0,.13-.1.25-.25.38s-.3.18-.43.17c-.13,0-.25-.08-.37-.22s-.15-.27-.13-.41c.02-.13.1-.27.25-.38v.02Zm.15.18c-.08.07-.15.13-.17.22-.02.07,0,.17.08.25.07.08.13.12.22.12.07,0,.17-.03.27-.12.08-.07.15-.15.17-.22.02-.07,0-.15-.08-.23-.07-.08-.15-.13-.27-.12h-.07s-.1.07-.13.1h-.02Z" style="fill:#fff;"/><g><polygon points="172.45 59.9 172.93 57.76 174.78 58.94 172.45 59.9" style="fill:none; stroke:#fff; stroke-miterlimit:10; stroke-width:.07px;"/><g><line x1="172.04" y1="55.59" x2="175.69" y2="64.48" style="fill:none; stroke:#fff; stroke-miterlimit:10; stroke-width:.07px;"/><polygon points="175.08 64.61 174.1 62.22 173.52 62.46 173.98 60.32 175.84 61.49 175.26 61.74 176.25 64.13 175.08 64.61" style="fill:none; stroke:#fff; stroke-miterlimit:10; stroke-width:.07px;"/></g></g><g><polygon points="184.95 90.17 185.43 88.03 187.29 89.21 184.95 90.17" style="fill:none; stroke:#fff; stroke-miterlimit:10; stroke-width:.07px;"/><g><line x1="183.31" y1="82.82" x2="186.91" y2="91.5" style="fill:none; stroke:#fff; stroke-miterlimit:10; stroke-width:.07px;"/><rect x="183.54" y="82.65" width="1.26" height="4.48" transform="translate(-18.46 76.83) rotate(-22.47)" style="fill:none; stroke:#fff; stroke-miterlimit:10; stroke-width:.07px;"/></g></g></g><rect x="179.34" y="54.24" width=".63" height="2.87" style="fill:#f8ec00;"/><g><g><path d="m190.63,53.98v-1.54h.63c.13,0,.25.03.33.1.08.07.13.18.13.33s-.05.25-.15.32c-.07.05-.13.08-.2.1l.38.7h-.22l-.37-.68h-.37v.68h-.18Zm.18-.85h.45s.15-.02.2-.07c.05-.03.07-.1.07-.2s-.03-.17-.08-.2c-.05-.03-.13-.05-.23-.05h-.4v.51Z" style="fill:#9b9b9c;"/><path d="m192.93,52.55c.1.08.15.2.15.33h-.18s-.03-.15-.1-.2-.15-.08-.27-.08-.22.03-.28.1c-.07.07-.1.17-.1.3v.41c0,.13.03.23.1.3s.17.1.28.1.2-.03.27-.08c.07-.05.1-.13.1-.22h.18c0,.13-.05.25-.15.35-.1.08-.23.13-.4.13s-.3-.05-.41-.15c-.1-.1-.15-.25-.15-.41v-.41c0-.17.05-.3.15-.41.1-.1.25-.17.41-.17s.3.05.4.13v-.02Z" style="fill:#9b9b9c;"/><path d="m193.18,52.43h1.03v.17h-.41v1.38h-.18v-1.38h-.41v-.17h-.02Z" style="fill:#9b9b9c;"/><path d="m195.04,53.35h-.45v.63h-.18v-1.54h.65c.13,0,.23.03.33.12.08.08.13.2.13.35,0,.13-.05.25-.13.33s-.2.12-.33.12h-.02Zm-.45-.17h.4c.08,0,.17-.02.23-.07.07-.05.08-.12.08-.22s-.03-.18-.1-.23c-.07-.05-.13-.07-.22-.07h-.41v.58h.02Z" style="fill:#9b9b9c;"/></g><g><path d="m190.53,55.7v-.75c0-.12.05-.22.13-.28.08-.08.18-.12.32-.12s.23.03.32.12.12.17.12.3v.75c0,.13-.03.23-.12.32-.08.07-.18.12-.32.12s-.23-.03-.32-.12-.12-.18-.12-.32l-.02-.02Zm.2-.75v.75s.02.13.07.18c.05.03.1.07.18.07.07,0,.13-.02.17-.07.03-.03.07-.1.07-.18v-.75s-.02-.13-.07-.17c-.03-.05-.1-.07-.17-.07s-.13.02-.18.07c-.05.05-.07.1-.07.17Z" style="fill:#9b9b9c;"/><path d="m191.59,55.39v-.83h.8v.17h-.6v.43s.13-.05.25-.05c.1,0,.2.03.28.1.08.07.12.2.12.4,0,.18-.03.32-.12.4-.07.08-.18.13-.33.13s-.27-.03-.33-.12c-.07-.08-.1-.17-.1-.27h.18s.02.1.07.15c.03.03.1.05.18.07.07,0,.13-.03.18-.08s.07-.13.07-.27c0-.12-.02-.18-.05-.23s-.1-.07-.18-.07c-.07,0-.1,0-.15.03-.03,0-.05.03-.07.07h-.18l-.02-.03Z" style="fill:#9b9b9c;"/><path d="m192.65,56.1v-1.54h.18v1.38h.8v.17h-1,.02Z" style="fill:#9b9b9c;"/></g><rect x="188.53" y="53.55" width="1.48" height=".3" transform="translate(-1.59 101.43) rotate(-29.88)" style="fill:#9b9b9c;"/><rect x="188.52" y="54.93" width="1.48" height=".3" transform="translate(-2.28 101.6) rotate(-29.88)" style="fill:#9b9b9c;"/></g><g><polyline points="207.5 73.29 194.61 77.82 172.19 88.36 168.35 89.87 172.82 83.07 179.36 73.66 187.9 55.77" style="fill:none; stroke:#88b827; stroke-miterlimit:10; stroke-width:.2px;"/><rect x="167.67" y="89.18" width="1.39" height="1.39" transform="translate(-11.46 153.82) rotate(-47.67)" style="fill:none; stroke:#88b827; stroke-miterlimit:10; stroke-width:.2px;"/><rect x="194" y="76.93" width="1.39" height="1.39" transform="translate(6.2 169.29) rotate(-47.67)" style="fill:none; stroke:#88b827; stroke-miterlimit:10; stroke-width:.2px;"/><g><path d="m190.81,74.19c.1-.08.23-.13.41-.13.15,0,.27.03.37.1s.13.15.13.27h-.2s-.03-.12-.08-.15c-.05-.03-.13-.05-.22-.05-.13,0-.22.02-.27.07-.05.03-.07.1-.07.2,0,.08.02.13.07.18s.15.07.32.1c.17.02.28.07.38.13.08.07.13.17.13.33,0,.13-.05.25-.15.33s-.23.12-.43.12-.35-.03-.43-.12-.13-.17-.13-.28h.2s.03.12.1.17c.07.03.15.05.28.05.12,0,.2-.02.27-.07.07-.03.1-.12.1-.2s-.03-.17-.08-.2c-.05-.03-.17-.07-.35-.1s-.3-.07-.37-.15c-.07-.07-.1-.17-.1-.3s.05-.23.13-.32l-.02.02Z" style="fill:#7db52d;"/><path d="m192.95,74.19c.1.1.15.2.15.35h-.2c0-.08-.03-.17-.1-.22-.07-.05-.15-.08-.27-.08-.13,0-.23.03-.3.12-.07.07-.1.18-.1.3v.43c0,.13.03.23.1.32.07.07.17.1.28.1s.22-.03.28-.08c.07-.05.1-.13.1-.23h.2c0,.15-.05.27-.15.37s-.23.13-.41.15c-.17,0-.32-.05-.43-.17-.1-.1-.17-.25-.17-.43v-.43c0-.18.05-.32.17-.43s.25-.17.43-.17c.17,0,.32.05.41.13v-.02Z" style="fill:#7db52d;"/><path d="m193.28,75.1v-.45c0-.17.05-.3.17-.41s.25-.18.41-.17c.18,0,.32.05.41.17s.15.25.17.43v.45c0,.18-.05.33-.17.43-.1.1-.25.15-.41.17-.17,0-.32-.05-.43-.17-.1-.1-.17-.25-.17-.43l.02-.02Zm.2-.45v.45c0,.13.03.23.1.32.07.07.17.1.28.1s.22-.03.28-.1.1-.17.1-.32v-.45c0-.12-.03-.22-.1-.3s-.17-.12-.28-.12-.22.03-.28.12c-.07.07-.1.17-.12.3h.02Z" style="fill:#7db52d;"/><path d="m195.35,75.02h-.46v.65h-.2v-1.59h.66c.13,0,.25.03.35.12.08.08.13.2.13.37,0,.15-.05.25-.13.35-.08.08-.2.13-.35.13v-.02Zm-.46-.18h.41c.1,0,.17-.02.23-.07.07-.05.1-.12.1-.22,0-.12-.03-.18-.1-.23s-.13-.07-.22-.07h-.43v.6-.02Z" style="fill:#7db52d;"/><path d="m196.02,75.68v-1.59h1v.18h-.8v.51h.71v.18h-.71v.55h.83v.18h-1.03v-.02Z" style="fill:#7db52d;"/></g><g><path d="m162.93,91.75h1.06v.18h-.43v1.43h-.2v-1.43h-.43s0-.18,0-.18Z" style="fill:#7db52d;"/><path d="m164.16,93.36v-1.59h.65c.15,0,.27.03.35.12.08.07.13.18.13.33s-.05.27-.15.33c-.07.05-.13.08-.22.1l.4.73h-.22l-.37-.71h-.38v.71h-.2v-.02Zm.2-.88h.46c.08,0,.15-.02.2-.07.05-.03.07-.12.07-.2,0-.1-.03-.17-.08-.22-.05-.03-.13-.07-.25-.05h-.41v.53h.02Z" style="fill:#7db52d;"/><path d="m165.53,93.36v-1.59h1v.18h-.8v.51h.71v.18h-.71v.55h.83v.18h-1.03v-.02Z" style="fill:#7db52d;"/><path d="m166.78,93.36v-1.59h.2l.85,1.28v-1.28h.2v1.59h-.2l-.85-1.28v1.28h-.2Z" style="fill:#7db52d;"/><path d="m168.34,93.36v-1.59h.61c.17,0,.28.05.4.15.1.1.15.23.15.41v.46c0,.18-.05.32-.15.41s-.23.15-.4.15h-.61Zm.2-1.43v1.24h.41c.12,0,.2-.03.25-.12.07-.07.1-.17.1-.28v-.46c0-.12-.03-.22-.1-.28-.07-.07-.15-.1-.25-.1,0,0-.41,0-.41,0Z" style="fill:#7db52d;"/></g></g><g><path d="m170.15,73.87v-1.06c-.1.1-.25.18-.41.27v-.18c.23-.1.38-.23.46-.4h.15v1.38s-.2,0-.2,0Z" style="fill:#9b9b9c;"/><path d="m170.99,73.16h0c-.15-.05-.23-.17-.23-.32.02-.23.17-.35.45-.37.27,0,.41.13.45.37,0,.17-.08.27-.25.3h0c.18.05.28.17.3.35,0,.25-.18.38-.51.38s-.46-.13-.48-.38c0-.18.12-.3.28-.35v.02Zm.22.58c.18,0,.28-.08.28-.23s-.1-.25-.3-.27c-.17.02-.27.1-.27.27s.1.25.28.25v-.02Zm0-1.11c-.15,0-.23.08-.23.22s.08.22.23.23c.15-.02.23-.1.23-.23,0-.15-.08-.22-.23-.23v.02Z" style="fill:#9b9b9c;"/><path d="m172.27,73.63v.23h-.25v-.23h.25Z" style="fill:#9b9b9c;"/><path d="m173.07,72.48c.32,0,.48.23.48.7s-.17.7-.48.7c-.33,0-.48-.23-.5-.7,0-.46.17-.7.5-.7Zm0,1.26c.18,0,.27-.18.27-.55s-.08-.56-.27-.55c-.18,0-.27.18-.27.55s.08.55.27.55Z" style="fill:#9b9b9c;"/><path d="m174.78,73.87h-.93v-1.36h.2v1.21h.73v.17-.02Z" style="fill:#9b9b9c;"/></g><g><path d="m170.51,76.6h.8v.17h-1.08v-.13c.1-.2.27-.38.48-.55.25-.18.38-.33.35-.43,0-.17-.1-.27-.28-.27-.17,0-.27.1-.32.3l-.22-.07c.08-.28.27-.41.56-.41.32,0,.46.15.5.43.03.18-.1.37-.37.53-.2.13-.33.27-.43.43Z" style="fill:#7ec3c8;"/><path d="m171.99,75.2c.37,0,.55.27.55.8s-.18.8-.55.8-.55-.27-.56-.8c0-.51.2-.78.56-.8Zm0,1.43c.2,0,.32-.2.32-.61s-.1-.63-.32-.63c-.2,0-.32.2-.32.63s.1.63.32.61Z" style="fill:#7ec3c8;"/></g><g><path d="m162.76,80.06h.2v.17h-.2v.35h-.22v-.35h-.76v-.15l.76-1.08h.22v1.06Zm-.75,0h.53v-.78h0v.08s-.03.05-.03.05c0,0-.02.03-.03.05-.07.08-.12.15-.15.22,0,0,0,.02-.03.03,0,.02-.02.03-.03.05-.05.07-.1.15-.17.25-.02.03-.03.05-.03.07l-.05-.02Z" style="fill:#7ec3c8;"/><path d="m163.63,79.02c.37,0,.55.27.55.8s-.18.8-.55.8-.55-.27-.56-.8c0-.51.2-.78.56-.8Zm0,1.43c.2,0,.32-.2.32-.61s-.1-.63-.32-.63c-.2,0-.32.2-.32.63s.1.63.32.61Z" style="fill:#7ec3c8;"/></g><g><line x1="182.24" y1="53.28" x2="183.84" y2="53.58" style="fill:none; stroke:#e65898; stroke-miterlimit:10; stroke-width:.28px;"/><line x1="183.52" y1="50.91" x2="182.84" y2="54.47" style="fill:none; stroke:#e65898; stroke-miterlimit:10; stroke-width:.28px;"/></g><g><rect x="179.11" y="70.51" width=".53" height="5.41" style="fill:#f8ec00;"/><rect x="176.67" y="72.25" width="5.41" height=".53" style="fill:#f8ec00;"/><rect x="178.25" y="74.85" width="2.24" height=".53" style="fill:#f8ec00;"/></g></g></g><g><g><path d="m156.19,100.99l-.45-1.49h.18l.35,1.24.35-1.24h.17l-.43,1.49h-.17Z" style="fill:#9d9d9e;"/><path d="m157,100.46v-.41c0-.15.05-.28.13-.4.1-.12.22-.17.35-.17.15,0,.27.05.35.17.08.1.13.23.13.4v.41c0,.17-.05.32-.13.41s-.2.15-.35.15-.27-.05-.37-.15c-.08-.1-.13-.23-.13-.4l.02-.02Zm.17-.41v.41c0,.12.03.22.08.28.07.07.13.1.25.1.1,0,.18-.03.23-.1s.08-.17.08-.28v-.41c0-.12-.03-.2-.08-.28-.05-.07-.13-.1-.23-.1s-.18.03-.23.1c-.07.07-.08.17-.1.28Z" style="fill:#9d9d9e;"/><path d="m158.38,100.99v-1.49h.55c.12,0,.22.03.3.1s.12.17.12.32c0,.13-.05.23-.13.32-.05.05-.12.07-.18.08l.33.68h-.18l-.32-.66h-.33v.66h-.17.02Zm.17-.83h.4s.13-.02.17-.07c.05-.03.07-.1.07-.18,0-.1-.02-.17-.07-.2s-.12-.05-.22-.05h-.35v.5Z" style="fill:#9d9d9e;"/><path d="m160.14,99.51v1.49h-.17v-1.26l-.25.2v-.18l.28-.25h.13Z" style="fill:#9d9d9e;"/></g><g><path d="m157.02,101.9v1.49h-.15v-1.13l-.35.83h-.12l-.35-.83v1.13h-.15v-1.49h.15l.41.98.4-.98h.15Z" style="fill:#9d9d9e;"/><path d="m157.42,103.4v-1.49h.15v.75l.61-.75h.18l-.46.6.51.9h-.18l-.43-.76-.22.28v.5h-.15l-.02-.02Z" style="fill:#9d9d9e;"/><path d="m158.75,102.45v.4c0,.12.03.22.08.28.05.07.13.1.22.1.1,0,.17-.03.22-.1s.08-.17.08-.28v-.07h-.3v-.17h.45v.23c0,.17-.03.3-.12.4s-.18.15-.33.15c-.13,0-.25-.05-.33-.15-.08-.1-.13-.23-.13-.4v-.4c0-.15.05-.28.13-.4.08-.1.2-.17.33-.17s.25.05.33.13c.08.08.12.18.12.32h-.15c0-.08-.03-.15-.08-.2-.05-.05-.13-.07-.22-.07-.1,0-.17.03-.23.1-.05.07-.08.17-.08.28h.02Z" style="fill:#9d9d9e;"/></g><g><polygon points="154.83 101.4 152.82 101.4 153.82 99.96 154.83 101.4" style="fill:none; stroke:#9d9d9e; stroke-miterlimit:10; stroke-width:.1px;"/><line x1="153.82" y1="99.46" x2="153.82" y2="99.96" style="fill:none; stroke:#9d9d9e; stroke-miterlimit:10; stroke-width:.1px;"/><line x1="153.82" y1="101.4" x2="153.82" y2="103.46" style="fill:none; stroke:#9d9d9e; stroke-miterlimit:10; stroke-width:.1px;"/></g><g><path d="m156.51,104.18v1.71h-.22v-1.46l-.3.23v-.2l.35-.28h.17Z" style="fill:#8dc120;"/><path d="m157.72,104.18v1.71h-.22v-1.46l-.3.23v-.2l.35-.28h.17Z" style="fill:#8dc120;"/><path d="m158.35,105.44v-.83c0-.13.05-.23.13-.32.1-.08.22-.13.35-.13s.25.05.35.13c.08.08.13.2.13.33v.83c0,.15-.05.27-.13.35s-.2.12-.35.13c-.15,0-.27-.05-.35-.13-.08-.08-.13-.2-.13-.35v-.02Zm.22-.83v.83c0,.08.02.15.07.2s.12.07.2.07.13-.02.18-.07c.05-.05.07-.12.07-.2v-.83s-.02-.13-.07-.18-.12-.07-.18-.07-.15.02-.2.07c-.05.05-.08.12-.08.18h.02Z" style="fill:#8dc120;"/></g><g><path d="m160.42,105.9v-1.15h.13l.6.93v-.93h.13v1.15h-.13l-.6-.91v.91h-.13Z" style="fill:#80cacf;"/><path d="m162.6,104.74v1.15h-.13v-.88l-.32.63h-.1l-.32-.63v.88h-.13v-1.15h.13l.38.75.37-.75h.13-.02Z" style="fill:#80cacf;"/></g></g><g><polyline points="160.51 109.2 205.1 109.2 205.1 125.28" style="fill:none; stroke:#9d9d9e; stroke-miterlimit:10; stroke-width:.2px;"/><line x1="156.97" y1="109.2" x2="156.97" y2="124.06" style="fill:none; stroke:#9d9d9e; stroke-miterlimit:10; stroke-width:.2px;"/><line x1="158.45" y1="110.35" x2="156.97" y2="110.35" style="fill:none; stroke:#9d9d9e; stroke-miterlimit:10; stroke-width:.2px;"/><line x1="158.45" y1="112.87" x2="156.97" y2="112.87" style="fill:none; stroke:#9d9d9e; stroke-miterlimit:10; stroke-width:.2px;"/><line x1="158.45" y1="115.41" x2="156.97" y2="115.41" style="fill:none; stroke:#9d9d9e; stroke-miterlimit:10; stroke-width:.2px;"/><line x1="158.45" y1="117.95" x2="156.97" y2="117.95" style="fill:none; stroke:#9d9d9e; stroke-miterlimit:10; stroke-width:.2px;"/><line x1="158.45" y1="120.49" x2="156.97" y2="120.49" style="fill:none; stroke:#9d9d9e; stroke-miterlimit:10; stroke-width:.2px;"/><line x1="158.45" y1="123.03" x2="156.97" y2="123.03" style="fill:none; stroke:#9d9d9e; stroke-miterlimit:10; stroke-width:.2px;"/><g><path d="m153.49,112.09l-.43.9h.32v-.45h.15v.45h.15v.13h-.15v.2h-.15v-.2h-.46v-.13l.43-.9h.15Z" style="fill:#9d9d9e;"/><path d="m153.92,112.99v-.6c0-.08.03-.17.1-.23s.15-.1.25-.1.18.03.25.1.1.13.1.23v.6c0,.1-.03.18-.1.25-.07.05-.15.08-.25.08s-.18-.03-.25-.08c-.07-.07-.1-.15-.1-.25Zm.15-.6v.6s.02.12.05.15.08.05.15.05c.05,0,.1-.02.13-.05.03-.03.05-.08.05-.15v-.6s-.02-.1-.05-.13c-.03-.03-.08-.05-.13-.05s-.1.02-.15.05c-.03.03-.05.08-.05.13Z" style="fill:#9d9d9e;"/><path d="m154.91,112.99v-.6c0-.08.03-.17.1-.23s.15-.1.25-.1.18.03.25.1.1.13.1.23v.6c0,.1-.03.18-.1.25-.07.05-.15.08-.25.08s-.18-.03-.25-.08c-.07-.07-.1-.15-.1-.25Zm.15-.6v.6s.02.12.05.15.08.05.15.05c.05,0,.1-.02.13-.05.03-.03.05-.08.05-.15v-.6s-.02-.1-.05-.13c-.03-.03-.08-.05-.13-.05s-.1.02-.15.05c-.03.03-.05.08-.05.13Z" style="fill:#9d9d9e;"/></g><g><path d="m153.67,117.37c0,.1-.07.23-.2.4s-.23.28-.33.38h.53v.13h-.68v-.13c.08-.08.2-.22.33-.38.13-.17.2-.3.2-.38,0-.07,0-.1-.05-.15-.03-.03-.08-.05-.13-.05s-.12.02-.15.05-.05.08-.05.13h-.15c0-.08.03-.17.1-.23s.15-.1.25-.1.18.03.25.08c.07.07.1.15.1.25h-.02Z" style="fill:#9d9d9e;"/><path d="m153.95,117.95v-.6c0-.08.03-.17.1-.23s.15-.1.25-.1.18.03.25.1.1.13.1.23v.6c0,.1-.03.18-.1.25-.07.05-.15.08-.25.08s-.18-.03-.25-.08c-.07-.07-.1-.15-.1-.25Zm.15-.6v.6s.02.12.05.15.08.05.15.05c.05,0,.1-.02.13-.05.03-.03.05-.08.05-.15v-.6s-.02-.1-.05-.13c-.03-.03-.08-.05-.13-.05s-.1.02-.15.05c-.03.03-.05.08-.05.13Z" style="fill:#9d9d9e;"/><path d="m154.93,117.95v-.6c0-.08.03-.17.1-.23s.15-.1.25-.1.18.03.25.1.1.13.1.23v.6c0,.1-.03.18-.1.25-.07.05-.15.08-.25.08s-.18-.03-.25-.08c-.07-.07-.1-.15-.1-.25Zm.15-.6v.6s.02.12.05.15.08.05.15.05c.05,0,.1-.02.13-.05.03-.03.05-.08.05-.15v-.6s-.02-.1-.05-.13c-.03-.03-.08-.05-.13-.05s-.1.02-.15.05c-.03.03-.05.08-.05.13Z" style="fill:#9d9d9e;"/></g><g><path d="m153.87,125.92v-1.23h.8v.13h-.65v.4h.56v.13h-.56v.56h-.15Z" style="fill:#9d9d9e;"/><path d="m154.96,125.92v-1.23h.15v1.1h.65v.13s-.8,0-.8,0Z" style="fill:#9d9d9e;"/></g><g><path d="m157,116.47h-.66v-1.36h1.36v.66c0,.38-.32.7-.7.7Z" style="fill:none; stroke:#80cacf; stroke-miterlimit:10; stroke-width:.2px;"/><path d="m157.7,117.82h-1.36v-1.36h.66c.38,0,.7.32.7.7v.66Z" style="fill:none; stroke:#80cacf; stroke-miterlimit:10; stroke-width:.2px;"/></g><rect x="156.19" y="117.63" width="1.97" height=".46" style="fill:#ffef00;"/><path d="m160.14,108.29v-.6c0-.08.03-.17.1-.23s.15-.1.25-.1.18.03.25.1.1.13.1.23v.58c0,.1-.03.18-.1.25-.07.05-.15.08-.25.08s-.18-.03-.25-.08c-.07-.07-.1-.15-.1-.25v.02Zm.15-.6v.6s.02.12.05.15.08.05.15.05c.05,0,.1,0,.13-.05.03-.03.05-.08.05-.15v-.58s-.02-.1-.05-.13c-.03-.03-.08-.05-.13-.05s-.1.02-.15.05c-.03.03-.05.08-.05.13v-.02Z" style="fill:#80cacf;"/><g><path d="m171.34,107.56l-.43.9h.32v-.45h.15v.45h.15v.13h-.15v.2h-.15v-.2h-.46v-.13l.43-.9h.15Z" style="fill:#80cacf;"/><path d="m171.59,108.47v-.6c0-.08.03-.17.1-.23s.15-.1.25-.1.18.03.25.1.1.13.1.23v.58c0,.1-.03.18-.1.25-.07.05-.15.08-.25.08s-.18-.03-.25-.08c-.07-.07-.1-.15-.1-.25v.02Zm.15-.6v.6s.02.12.05.15.08.05.15.05c.05,0,.1,0,.13-.05.03-.03.05-.08.05-.15v-.58s-.02-.1-.05-.13c-.03-.03-.08-.05-.13-.05s-.1.02-.15.05c-.03.03-.05.08-.05.13v-.02Z" style="fill:#80cacf;"/></g><g><path d="m182.16,108.81c-.12,0-.2-.03-.27-.1s-.1-.15-.1-.25c0-.08.02-.15.05-.2s.08-.08.13-.1c-.03-.02-.07-.07-.1-.1-.03-.05-.05-.1-.05-.18,0-.1.03-.17.1-.23s.15-.1.25-.1.18.03.25.08c.07.05.08.13.08.23,0,.07-.02.13-.05.18s-.07.08-.1.1c.05.02.08.05.13.1.03.05.05.12.05.2,0,.1-.03.2-.1.27s-.15.1-.27.1h-.02Zm-.17-.51s-.05.1-.05.17c0,.05.02.1.05.15.03.03.08.07.15.07.08,0,.13-.02.17-.07s.05-.1.05-.15c0-.07,0-.12-.05-.17-.03-.05-.08-.07-.17-.07-.07,0-.13.02-.17.07h.02Zm-.02-.41s0,.12.03.15.07.05.13.07c.07,0,.12-.02.15-.07.02-.03.03-.08.03-.15,0-.05,0-.1-.03-.13-.03-.03-.07-.05-.15-.05-.05,0-.1.02-.13.05-.03.03-.05.08-.05.13h.02Z" style="fill:#80cacf;"/><path d="m182.63,108.47v-.6c0-.08.03-.17.1-.23s.15-.1.25-.1.18.03.25.1.1.13.1.23v.58c0,.1-.03.18-.1.25-.07.05-.15.08-.25.08s-.18-.03-.25-.08c-.07-.07-.1-.15-.1-.25v.02Zm.15-.6v.6s.02.12.05.15.08.05.15.05c.05,0,.1,0,.13-.05.03-.03.05-.08.05-.15v-.58s-.02-.1-.05-.13c-.03-.03-.08-.05-.13-.05s-.1.02-.15.05c-.03.03-.05.08-.05.13v-.02Z" style="fill:#80cacf;"/></g><g><path d="m193.23,107.56v1.23h-.15v-1.05l-.22.17v-.15l.25-.2h.12Z" style="fill:#80cacf;"/><path d="m194.26,107.89c0,.1-.07.22-.18.38-.13.17-.23.28-.33.38h.51v.13h-.68v-.13c.08-.08.2-.22.33-.38.13-.17.2-.3.2-.38,0-.07,0-.1-.05-.15-.03-.03-.08-.05-.13-.05s-.12.02-.15.05c-.03.03-.05.08-.05.13h-.15c0-.08.03-.17.1-.23s.15-.1.25-.1.18.03.25.08c.07.05.1.13.1.25l-.02.02Z" style="fill:#80cacf;"/><path d="m194.38,108.47v-.6c0-.08.03-.17.1-.23s.15-.1.25-.1.18.03.25.1.1.13.1.23v.58c0,.1-.03.18-.1.25-.07.05-.15.08-.25.08s-.18-.03-.25-.08c-.07-.07-.1-.15-.1-.25v.02Zm.15-.6v.6s.02.12.05.15.08.05.15.05c.05,0,.1,0,.13-.05.03-.03.05-.08.05-.15v-.58s-.02-.1-.05-.13c-.03-.03-.08-.05-.13-.05s-.1.02-.15.05c-.03.03-.05.08-.05.13v-.02Z" style="fill:#80cacf;"/></g><g><path d="m204.02,107.56v1.23h-.15v-1.05l-.22.17v-.15l.25-.2h.12Z" style="fill:#80cacf;"/><path d="m204.35,108.42c0-.12.05-.28.15-.46s.17-.32.22-.4h.15s-.12.22-.22.4c-.03.05-.05.1-.07.15.03-.03.08-.05.15-.05.1,0,.17.03.23.08.05.05.08.15.08.27s-.03.22-.08.28-.15.1-.25.1c-.12,0-.2-.03-.27-.1-.05-.07-.08-.15-.08-.28l-.02.02Zm.15,0s0,.13.03.17.08.07.15.07.12-.02.13-.05c.03-.03.05-.1.05-.18,0-.07,0-.13-.03-.17s-.07-.05-.15-.05c-.07,0-.13.03-.17.08,0,0,0,.02-.02.03v.1Z" style="fill:#80cacf;"/><path d="m205.16,108.47v-.6c0-.08.03-.17.1-.23s.15-.1.25-.1.18.03.25.1.1.13.1.23v.58c0,.1-.03.18-.1.25-.07.05-.15.08-.25.08s-.18-.03-.25-.08c-.07-.07-.1-.15-.1-.25v.02Zm.15-.6v.6s.02.12.05.15.08.05.15.05c.05,0,.1,0,.13-.05.03-.03.05-.08.05-.15v-.58s-.02-.1-.05-.13c-.03-.03-.08-.05-.13-.05s-.1.02-.15.05c-.03.03-.05.08-.05.13v-.02Z" style="fill:#80cacf;"/></g><polyline points="205.18 114.47 189.46 114.75 182.16 116.46 168.29 116.46 162.3 117.67" style="fill:none; stroke:#7db52d; stroke-dasharray:0 0 0 .4; stroke-miterlimit:10; stroke-width:.2px;"/><polyline points="204.93 120.32 194.79 120.32 194.79 119.39 161.62 119.39 161.62 120.32 160.69 120.32" style="fill:none; stroke:#717071; stroke-dasharray:0 0 0 .4; stroke-miterlimit:10; stroke-width:.2px;"/><rect x="190.84" y="122.9" width="14.09" height="2.54" style="fill:#80cacf;"/><rect x="190.77" y="122.9" width="14.09" height="2.54" style="fill:#878787;"/><rect x="160.56" y="122.9" width=".8" height="2.54" style="fill:#80cacf;"/><rect x="198.66" y="122.9" width="1.33" height="2.54" style="fill:#717071;"/><rect x="161.3" y="122.9" width="29.54" height="2.54" style="fill:#717071;"/><path d="m161.55,123.04l.75-.32.13.08.17-.08.91.05.51-.05,1.19-.18.27.1.2-.07s-.1-.41,0-.4.65.08.65.08l.56-.65.95-.15.33-.41.08-.2.83-.23.15.15.43-.1h.66l.4.12.56-.75h1.1l.32.58.41.15.27-.3.83.17.3.22.18-.46.5-.15,1.21.4,1-.33,1.19-.1.63.28.45-.12.32.32.73.07.22-.13.17.38,1.08-.18.28-.17,1.08.58.38-.03.37.38.65-.17.2.38.8.25.1.25.73-.25,1.18-.13.78-.12.53.43.17-.12.35.5.4.15.22-.15.46.32-2.85,1.83-25.22-.27-1.21-1.41v-.03Z" style="fill:#717071;"/><line x1="171.86" y1="109.2" x2="171.86" y2="125.28" style="fill:none; stroke:#9d9d9e; stroke-dasharray:0 0 0 .4; stroke-miterlimit:10; stroke-width:.2px;"/><line x1="183.04" y1="109.2" x2="183.04" y2="125.28" style="fill:none; stroke:#9d9d9e; stroke-dasharray:0 0 0 .4; stroke-miterlimit:10; stroke-width:.2px;"/><line x1="194.21" y1="109.2" x2="194.21" y2="125.28" style="fill:none; stroke:#9d9d9e; stroke-dasharray:0 0 0 .4; stroke-miterlimit:10; stroke-width:.2px;"/><line x1="160.69" y1="109.2" x2="160.69" y2="125.28" style="fill:none; stroke:#9d9d9e; stroke-dasharray:0 0 0 .4; stroke-miterlimit:10; stroke-width:.2px;"/><g><polygon points="162.3 117.83 159.18 118.38 159.09 117.93 161.98 117.42 162.3 117.83" style="fill:#ffef00;"/><polygon points="160.06 118 159.13 118.17 158.71 117.32 159.09 117.25 160.06 118" style="fill:#ffef00;"/></g><path d="m154.9,123.16v-.6c0-.08.03-.17.1-.23s.15-.1.25-.1.18.03.25.1.1.13.1.23v.6c0,.1-.03.18-.1.25s-.15.08-.25.08-.18-.03-.25-.08c-.07-.07-.1-.15-.1-.25Zm.15-.6v.6s.02.12.05.15.08.05.15.05c.05,0,.1-.02.13-.05.03-.03.05-.08.05-.15v-.6s-.02-.1-.05-.13c-.03-.03-.08-.05-.13-.05s-.1.02-.15.05c-.03.03-.05.08-.05.13Z" style="fill:#9d9d9e;"/></g><g><g><path d="m153.14,37.68v.35c0,.1.02.18.07.23.05.05.12.08.2.08s.15-.03.2-.08c.05-.05.07-.13.07-.23v-.07h-.27v-.13h.4v.2c0,.15-.03.25-.1.35-.07.08-.17.13-.3.13-.12,0-.22-.05-.3-.13s-.12-.2-.12-.35v-.35c0-.13.03-.25.12-.33.08-.08.17-.13.3-.13s.22.03.3.12c.07.07.12.17.12.27h-.13s-.03-.13-.08-.18c-.05-.03-.12-.07-.2-.07s-.15.03-.2.08c-.05.07-.07.13-.07.23v.02Z" style="fill:#9d9d9e;"/><path d="m154.12,37.3s.17-.1.28-.1c.1,0,.18.03.25.08.07.05.1.12.1.22h-.13s-.02-.08-.07-.12c-.03-.02-.08-.03-.15-.03-.08,0-.15,0-.18.05-.03.03-.05.08-.05.17,0,.07,0,.1.05.15.03.03.1.07.22.08.12,0,.2.05.27.1.07.05.1.13.1.25,0,.1-.03.2-.1.25-.07.07-.17.1-.3.1s-.23-.03-.3-.1c-.07-.07-.1-.13-.1-.22h.13s.02.1.07.13.12.03.2.05c.08,0,.15,0,.18-.05.05-.03.07-.08.07-.17s-.02-.13-.05-.17-.12-.05-.25-.07c-.12-.02-.22-.05-.27-.12-.05-.05-.07-.13-.07-.23s.03-.18.1-.25v-.02Z" style="fill:#9d9d9e;"/></g><path d="m157.45,42.34l.76-1.15.13.03-.76,1.15-.13-.03Z" style="fill:#fff;"/><g><path d="m161.2,37.22h.75v.13h-.3v1.13h-.13v-1.13h-.3v-.13h-.02Z" style="fill:#9d9d9e;"/><path d="m162.56,37.22l.41,1.26h-.15l-.1-.33h-.48l-.1.33h-.15l.4-1.26h.17Zm-.07.15l-.2.63h.38l-.2-.63h.02Z" style="fill:#9d9d9e;"/><path d="m163.18,37.3s.17-.1.28-.1c.1,0,.18.03.25.08.07.05.1.12.1.22h-.13s-.02-.08-.07-.12c-.03-.02-.08-.03-.15-.03-.08,0-.15,0-.18.05-.03.03-.05.08-.05.17,0,.07,0,.1.05.15.03.03.1.07.22.08.12,0,.2.05.27.1.07.05.1.13.1.25,0,.1-.03.2-.1.25-.07.07-.17.1-.3.1s-.23-.03-.3-.1c-.07-.07-.1-.13-.1-.22h.13s.02.1.07.13.12.03.2.05c.08,0,.15,0,.18-.05.05-.03.07-.08.07-.17s-.02-.13-.05-.17-.12-.05-.25-.07c-.12-.02-.22-.05-.27-.12-.05-.05-.07-.13-.07-.23s.03-.18.1-.25v-.02Z" style="fill:#9d9d9e;"/></g><g><polyline points="154.1 45.28 155.11 45.81 155.24 44.67" style="fill:none; stroke:#7db52d; stroke-miterlimit:10; stroke-width:.2px;"/><line x1="153.77" y1="43.27" x2="155.11" y2="45.81" style="fill:none; stroke:#7db52d; stroke-miterlimit:10; stroke-width:.2px;"/></g><g><path d="m155.49,37.28c.1-.1.23-.17.41-.17.17,0,.3.05.4.13s.15.22.15.38-.05.28-.17.38c-.02,0-.05.03-.07.05.03,0,.05.02.08.05.13.08.18.22.18.41,0,.17-.05.32-.15.41s-.25.15-.43.15c-.2,0-.35-.05-.45-.17-.1-.1-.13-.23-.15-.37q-.01-.09,0,0h.23s.03.15.08.22c.05.05.15.08.27.08.1,0,.18-.03.25-.1.05-.07.08-.15.08-.25,0-.12-.03-.22-.08-.27-.05-.07-.17-.08-.33-.08h0v-.22h.03c.13,0,.23-.02.28-.07.07-.05.1-.13.1-.27,0-.1-.03-.18-.08-.22-.05-.05-.13-.08-.23-.08s-.17.03-.23.08c-.05.05-.08.12-.08.2h-.23c0-.13.05-.25.15-.35l-.02.03Z" style="fill:#8dc120;"/><path d="m157.93,37.66c0,.15-.1.35-.3.61-.2.27-.38.46-.53.61h.83v.22h-1.1v-.22c.15-.15.32-.35.53-.61.22-.27.32-.46.32-.61,0-.1-.03-.17-.08-.23-.05-.05-.12-.08-.22-.08s-.17.03-.23.08c-.05.05-.08.13-.08.22h-.23c0-.13.05-.27.15-.37.1-.12.23-.17.4-.17.15,0,.28.05.38.13.1.1.15.23.15.4l.02.02Z" style="fill:#8dc120;"/><path d="m159.01,37.15v1.96h-.23v-1.66l-.35.27v-.23l.41-.32h.18l-.02-.02Z" style="fill:#8dc120;"/></g><g><path d="m164.62,37.28c.1-.1.23-.17.41-.17.17,0,.3.05.4.13s.15.22.15.38-.05.28-.17.38c-.02,0-.05.03-.07.05.03,0,.05.02.08.05.13.08.18.22.18.41,0,.17-.05.32-.15.41s-.25.15-.43.15c-.2,0-.35-.05-.45-.17-.1-.1-.13-.23-.15-.37q-.01-.09,0,0h.23s.03.15.08.22c.05.05.15.08.27.08.1,0,.18-.03.25-.1.05-.07.08-.15.08-.25,0-.12-.03-.22-.08-.27-.05-.07-.17-.08-.33-.08h0v-.22h.03c.13,0,.23-.02.28-.07.07-.05.1-.13.1-.27,0-.1-.03-.18-.08-.22-.05-.05-.13-.08-.23-.08s-.17.03-.23.08c-.05.05-.08.12-.08.2h-.23c0-.13.05-.25.15-.35l-.02.03Z" style="fill:#8dc120;"/><path d="m166.05,37.28c.1-.1.23-.17.41-.17.17,0,.3.05.4.13s.15.22.15.38-.05.28-.17.38c-.02,0-.05.03-.07.05.03,0,.05.02.08.05.13.08.18.22.18.41,0,.17-.05.32-.15.41s-.25.15-.43.15c-.2,0-.35-.05-.45-.17-.1-.1-.13-.23-.15-.37q-.01-.09,0,0h.23s.03.15.08.22c.05.05.15.08.27.08.1,0,.18-.03.25-.1.05-.07.08-.15.08-.25,0-.12-.03-.22-.08-.27-.05-.07-.17-.08-.33-.08h0v-.22h.03c.13,0,.23-.02.28-.07.07-.05.1-.13.1-.27,0-.1-.03-.18-.08-.22-.05-.05-.13-.08-.23-.08s-.17.03-.23.08c-.05.05-.08.12-.08.2h-.23c0-.13.05-.25.15-.35l-.02.03Z" style="fill:#8dc120;"/><path d="m167.39,38.59v-.95c0-.15.05-.27.17-.37.1-.1.23-.15.4-.15s.3.05.4.15.15.22.15.37v.95c0,.17-.05.3-.15.4s-.23.13-.4.15c-.17,0-.3-.05-.41-.15-.1-.1-.15-.23-.15-.4Zm.25-.95v.95c0,.1.03.18.08.23.05.05.13.08.23.08.08,0,.17-.03.22-.08.05-.05.08-.13.08-.23v-.95c0-.08-.03-.17-.08-.22-.05-.05-.12-.08-.22-.08s-.17.03-.23.08c-.05.05-.08.13-.08.22Z" style="fill:#8dc120;"/></g><g><path d="m153.25,40.57c.1-.1.23-.17.41-.17.17,0,.3.05.4.13s.15.22.15.38-.05.28-.17.38c-.02,0-.05.03-.07.05.03,0,.05.02.08.05.13.08.18.22.18.41,0,.17-.05.32-.15.41s-.25.15-.43.15c-.2,0-.35-.05-.45-.17-.1-.1-.13-.23-.15-.37q-.01-.09,0,0h.23s.03.15.08.22c.05.05.15.08.27.08.1,0,.18-.03.25-.1.05-.07.08-.15.08-.25,0-.12-.03-.22-.08-.27-.05-.07-.17-.08-.33-.08h0v-.22h.03c.13,0,.23-.02.28-.07.07-.05.1-.13.1-.27,0-.1-.03-.18-.08-.22-.05-.05-.13-.08-.23-.08s-.17.03-.23.08c-.05.05-.08.12-.08.2h-.23c0-.13.05-.25.15-.35l-.02.03Z" style="fill:#8dc120;"/><path d="m155.46,40.44l-.68,1.43h.5v-.71h.23v.71h.23v.22h-.23v.32h-.23v-.32h-.75v-.22l.7-1.43h.23Z" style="fill:#8dc120;"/><path d="m156.01,41.81c0-.2.08-.45.23-.75s.28-.51.37-.63h.23c-.08.13-.2.33-.35.63-.05.08-.08.17-.12.25.07-.05.15-.07.23-.07.15,0,.28.05.37.15.1.1.13.23.13.43s-.05.35-.15.45c-.1.1-.23.15-.4.15-.18,0-.32-.05-.41-.15s-.13-.25-.15-.45l.02-.02Zm.25,0c0,.12,0,.2.07.27.05.07.13.1.25.1.1,0,.18-.03.22-.08.05-.05.08-.15.08-.28,0-.12-.02-.2-.07-.27-.03-.07-.12-.08-.23-.08s-.2.05-.27.13c0,0-.02.03-.03.05v.17h-.02Z" style="fill:#8dc120;"/></g><g><path d="m159.89,40.95c0,.15-.1.35-.3.61-.2.27-.38.46-.53.61h.83v.22h-1.1v-.22c.15-.15.32-.35.53-.61.22-.27.32-.46.32-.61,0-.1-.03-.17-.08-.23-.05-.05-.12-.08-.22-.08s-.17.03-.23.08c-.05.05-.08.13-.08.22h-.23c0-.13.05-.27.15-.37.1-.12.23-.17.4-.17.15,0,.28.05.38.13.1.1.15.23.15.4l.02.02Z" style="fill:#8dc120;"/><path d="m161.32,40.95c0,.15-.1.35-.3.61-.2.27-.38.46-.53.61h.83v.22h-1.1v-.22c.15-.15.32-.35.53-.61.22-.27.32-.46.32-.61,0-.1-.03-.17-.08-.23-.05-.05-.12-.08-.22-.08s-.17.03-.23.08c-.05.05-.08.13-.08.22h-.23c0-.13.05-.27.15-.37.1-.12.23-.17.4-.17.15,0,.28.05.38.13.1.1.15.23.15.4l.02.02Z" style="fill:#8dc120;"/></g></g><g><circle cx="205.93" cy="37.28" r=".45" style="fill:none; stroke:#80cacf; stroke-miterlimit:10; stroke-width:.1px;"/><g><path d="m204.4,41.96v-1.06h.13l.56.85v-.85h.13v1.06h-.13l-.56-.85v.85h-.13Z" style="fill:#80cacf;"/><path d="m206.41,40.9v1.06h-.13v-.81l-.3.58h-.1l-.3-.58v.8h-.13v-1.06h.13l.35.7.35-.7h.13v.02Z" style="fill:#80cacf;"/></g><g><path d="m201.03,38.59v-.95c0-.15.05-.27.17-.37.1-.1.23-.15.4-.15s.3.05.4.15c.1.1.15.22.15.37v.95c0,.17-.05.3-.15.4s-.23.13-.4.15c-.17,0-.3-.05-.41-.15-.1-.1-.15-.23-.15-.4h0Zm.25-.95v.95c0,.1.03.18.08.23.05.05.13.08.23.08.08,0,.17-.03.22-.08.05-.05.08-.13.08-.23v-.95c0-.08-.03-.17-.08-.22-.05-.05-.12-.08-.22-.08s-.17.03-.23.08c-.05.05-.08.13-.08.22Z" style="fill:#8dc120;"/><path d="m202.47,37.63v-.5h1.11v.22c-.18.48-.35,1.06-.53,1.74h-.23c.17-.65.35-1.23.51-1.74h-.63v.28h-.23,0Z" style="fill:#8dc120;"/><path d="m203.98,37.28c.1-.1.23-.17.41-.17.17,0,.3.05.4.13.1.08.15.22.15.38s-.05.28-.17.38c-.02,0-.05.03-.07.05.03,0,.05.02.08.05.13.08.18.22.18.41,0,.17-.05.32-.15.41s-.25.15-.43.15c-.2,0-.35-.05-.45-.17-.1-.1-.13-.23-.15-.37q-.01-.09,0,0h.23s.03.15.08.22c.05.05.15.08.27.08.1,0,.18-.03.25-.1.05-.07.08-.15.08-.25,0-.12-.03-.22-.08-.27-.05-.07-.17-.08-.33-.08h0v-.22h.03c.13,0,.23-.02.28-.07.07-.05.1-.13.1-.27,0-.1-.03-.18-.08-.22-.05-.05-.13-.08-.23-.08s-.17.03-.23.08c-.05.05-.08.12-.08.2h-.23c0-.13.05-.25.15-.35l-.02.03Z" style="fill:#8dc120;"/></g><g><path d="m201.1,43.65c0,.15-.1.35-.3.61-.2.27-.38.46-.53.61h.83v.22h-1.1v-.22c.15-.15.32-.35.53-.61.22-.27.32-.46.32-.61,0-.1-.03-.17-.08-.23-.05-.05-.12-.08-.22-.08s-.17.03-.23.08c-.05.05-.08.13-.08.22h-.23c0-.13.05-.27.15-.37.1-.12.23-.17.4-.17.15,0,.28.05.38.13.1.1.15.23.15.4l.02.02Z" style="fill:#8dc120;"/><path d="m202.52,43.65c0,.15-.1.35-.3.61-.2.27-.38.46-.53.61h.83v.22h-1.1v-.22c.15-.15.32-.35.53-.61.22-.27.32-.46.32-.61,0-.1-.03-.17-.08-.23-.05-.05-.12-.08-.22-.08s-.17.03-.23.08c-.05.05-.08.13-.08.22h-.23c0-.13.05-.27.15-.37.1-.12.23-.17.4-.17.15,0,.28.05.38.13.1.1.15.23.15.4l.02.02Z" style="fill:#8dc120;"/><path d="m202.97,44v-.32h.33v.32h-.33Zm0,1.11v-.32h.33v.32h-.33Z" style="fill:#8dc120;"/><path d="m204.5,43.14v1.96h-.23v-1.66l-.35.27v-.23l.41-.32h.18l-.02-.02Z" style="fill:#8dc120;"/><path d="m206.07,43.14l-.68,1.43h.5v-.71h.23v.71h.23v.22h-.23v.32h-.23v-.32h-.75v-.22l.7-1.43h.23Z" style="fill:#8dc120;"/></g><g><path d="m196.45,37.96h-.33v.5h-.13v-1.24h.46c.1,0,.17.03.23.1.07.07.1.15.1.28,0,.12-.03.2-.1.27-.07.07-.15.1-.25.1h.02Zm-.33-.13h.3s.12-.02.17-.05.07-.1.07-.17c0-.08-.02-.15-.07-.18s-.1-.05-.15-.05h-.3v.46l-.02-.02Z" style="fill:#9d9d9e;"/><path d="m196.96,38.46v-1.24h.45c.1,0,.18.03.25.08.07.05.1.15.1.27s-.03.2-.1.27c-.05.03-.1.07-.15.08l.28.56h-.15l-.27-.55h-.27v.55h-.13l-.02-.02Zm.13-.68h.32s.1-.02.15-.05c.03-.03.05-.08.05-.15,0-.08-.02-.13-.07-.17-.03-.03-.1-.05-.17-.05h-.28v.41Z" style="fill:#9d9d9e;"/><path d="m197.99,37.32s.17-.1.28-.1c.1,0,.18.03.25.08.07.05.1.12.1.2h-.13s-.02-.08-.07-.12c-.03-.02-.08-.03-.15-.03-.08,0-.15,0-.18.05-.03.03-.05.08-.05.15s0,.1.05.15c.03.03.1.05.22.08.12,0,.2.05.27.1.07.05.1.13.1.25,0,.1-.03.18-.1.25-.07.07-.17.1-.3.1s-.23-.03-.3-.1c-.07-.07-.1-.13-.1-.22h.13s.02.1.07.13.12.03.2.05c.08,0,.15,0,.18-.05.05-.03.07-.08.07-.17s-.02-.13-.05-.15c-.03-.03-.12-.05-.25-.07-.12-.02-.22-.05-.27-.12-.05-.05-.07-.13-.07-.23s.03-.18.1-.25h0Z" style="fill:#9d9d9e;"/><path d="m198.86,38.08v-.85h.13v.85s.02.12.07.18c.05.05.12.08.22.08s.17-.03.2-.08c.05-.05.07-.12.07-.18v-.85h.13v.85c0,.1-.03.2-.1.28s-.17.12-.3.12-.23-.03-.32-.12c-.07-.08-.1-.17-.1-.28Z" style="fill:#9d9d9e;"/><path d="m199.8,37.23h.75v.13h-.3v1.1h-.13v-1.1h-.3v-.13h-.02Z" style="fill:#9d9d9e;"/></g><g><path d="m201.05,40.6v-.5h1.11v.22c-.18.48-.35,1.06-.53,1.74h-.23c.17-.65.35-1.23.51-1.74h-.63v.28h-.23,0Z" style="fill:#8dc120;"/><path d="m202.34,42.06v-.32h.33v.32h-.33Z" style="fill:#8dc120;"/><path d="m202.94,40.49c.08-.08.2-.13.37-.13.15,0,.27.03.35.12s.13.18.13.33c0,.13-.05.25-.15.33-.02,0-.03.03-.07.05.02,0,.05.02.07.03.12.07.17.2.17.37,0,.15-.05.27-.13.37-.08.08-.22.13-.37.13-.17,0-.3-.05-.38-.15-.08-.08-.12-.2-.13-.32q-.01-.08,0,0h.2s.02.13.07.18.13.07.23.07c.08,0,.17-.03.22-.08.05-.05.07-.13.07-.22,0-.1-.02-.18-.07-.23-.05-.05-.15-.08-.28-.07h0v-.18h.03c.12,0,.2-.02.25-.05s.08-.12.08-.23c0-.08-.02-.15-.07-.2s-.12-.07-.2-.07-.15.02-.2.07-.08.1-.08.17h-.2c0-.12.05-.22.13-.3l-.03.02Z" style="fill:#8dc120;"/></g></g><g><g><g><path d="m196.47,101.06l-.45-1.49h.18l.35,1.24.35-1.24h.17l-.43,1.49h-.17Z" style="fill:#9d9d9e;"/><path d="m197.3,100.51v-.41c0-.15.05-.28.13-.4.1-.12.22-.17.35-.17.15,0,.27.05.35.17.08.1.13.23.13.4v.41c0,.17-.05.32-.13.41s-.2.15-.35.15-.27-.05-.37-.15c-.08-.1-.13-.23-.13-.4l.02-.02Zm.17-.41v.41c0,.12.03.22.08.28.07.07.13.1.25.1.1,0,.18-.03.23-.1s.08-.17.08-.28v-.41c0-.12-.03-.2-.08-.28-.05-.07-.13-.1-.23-.1s-.18.03-.23.1c-.07.07-.08.17-.1.28Z" style="fill:#9d9d9e;"/><path d="m198.67,101.06v-1.49h.55c.12,0,.22.03.3.1.08.07.12.17.12.32,0,.13-.05.23-.13.32-.05.05-.12.07-.18.08l.33.68h-.18l-.32-.66h-.33v.66h-.17.02Zm.17-.83h.4s.13-.02.17-.07c.05-.03.07-.1.07-.18,0-.1-.02-.17-.07-.2s-.12-.05-.22-.05h-.35v.5Z" style="fill:#9d9d9e;"/><path d="m200.73,99.96c0,.12-.07.27-.22.46-.13.2-.27.35-.37.46h.58v.17h-.75v-.17c.1-.12.22-.27.37-.46s.22-.35.22-.46c0-.07-.02-.13-.05-.17-.03-.05-.08-.07-.15-.07s-.12.02-.17.07c-.03.05-.05.1-.05.17h-.17c0-.1.03-.2.1-.28s.17-.13.28-.13c.1,0,.2.03.27.1.07.07.1.17.1.3v.02Z" style="fill:#9d9d9e;"/></g><g><path d="m197.31,101.95v1.49h-.15v-1.13l-.35.83h-.12l-.35-.83v1.13h-.15v-1.49h.15l.41.98.4-.98h.15Z" style="fill:#9d9d9e;"/><path d="m197.71,103.45v-1.49h.15v.75l.61-.75h.18l-.46.6.51.9h-.18l-.43-.76-.22.28v.5h-.15l-.02-.02Z" style="fill:#9d9d9e;"/><path d="m199.04,102.5v.4c0,.12.03.22.08.28.05.07.13.1.22.1.1,0,.17-.03.22-.1s.08-.17.08-.28v-.07h-.3v-.17h.45v.23c0,.17-.03.3-.12.4s-.18.15-.33.15c-.13,0-.25-.05-.33-.15s-.13-.23-.13-.4v-.4c0-.15.05-.28.13-.4.08-.1.2-.17.33-.17s.25.05.33.13c.08.08.12.18.12.32h-.15c0-.08-.03-.15-.08-.2s-.13-.07-.22-.07c-.1,0-.17.03-.23.1-.05.07-.08.17-.08.28h.02Z" style="fill:#9d9d9e;"/></g><g><line x1="204.13" y1="99.53" x2="204.13" y2="100.19" style="fill:none; stroke:#9d9d9e; stroke-miterlimit:10; stroke-width:.1px;"/><polyline points="203.62 103.7 203.62 101.64 203.12 101.64 204.13 100.19 205.13 101.64 204.63 101.64 204.63 103.7" style="fill:none; stroke:#9d9d9e; stroke-miterlimit:10; stroke-width:.1px;"/></g><g><path d="m196.8,104.24v1.73h-.22v-1.46l-.3.23v-.2l.35-.28h.17v-.02Z" style="fill:#8dc120;"/><path d="m197.99,104.24v1.73h-.22v-1.46l-.3.23v-.2l.35-.28h.17v-.02Z" style="fill:#8dc120;"/><path d="m198.64,105.5v-.83c0-.13.05-.23.13-.32.1-.08.22-.13.35-.13s.25.05.35.13c.08.08.13.2.13.33v.83c0,.15-.05.27-.13.35s-.2.12-.35.13c-.15,0-.27-.05-.35-.13-.08-.08-.13-.2-.13-.35v-.02Zm.22-.83v.83c0,.08.02.15.07.2s.12.07.2.07.13-.02.18-.07c.05-.05.07-.12.07-.2v-.83s-.02-.13-.07-.18-.12-.07-.18-.07-.15.02-.2.07c-.05.05-.08.12-.08.18h.02Z" style="fill:#8dc120;"/></g><g><path d="m200.88,105.95v-1.15h.13l.6.93v-.93h.13v1.15h-.13l-.6-.91v.91h-.13Z" style="fill:#80cacf;"/><path d="m203.05,104.81v1.15h-.13v-.88l-.32.65h-.1l-.32-.63v.88h-.13v-1.15h.13l.38.75.37-.75h.13l-.02-.02Z" style="fill:#80cacf;"/></g></g><g><g><path d="m200.05,91.8h1.06v.18h-.43v1.41h-.2v-1.41h-.43v-.18h0Z" style="fill:#80cacf;"/><path d="m201.31,93.39v-1.59h.98v.18h-.8v.51h.7v.18h-.7v.55h.83v.18h-1.01v-.02Z" style="fill:#80cacf;"/><path d="m202.59,93.39v-1.59h.65c.15,0,.27.03.35.1s.13.18.13.33-.05.25-.15.33c-.07.05-.13.08-.22.1l.4.71h-.22l-.37-.7h-.38v.7h-.2v.02Zm.2-.88h.46c.08,0,.15-.02.2-.07.05-.03.07-.1.07-.2s-.03-.17-.08-.22c-.05-.03-.13-.05-.25-.05h-.4v.53h0Z" style="fill:#80cacf;"/><path d="m204,93.39v-1.59h.65c.15,0,.27.03.35.1s.13.18.13.33-.05.25-.15.33c-.07.05-.13.08-.22.1l.4.71h-.22l-.37-.7h-.38v.7h-.2v.02Zm.2-.88h.46c.08,0,.15-.02.2-.07.05-.03.07-.1.07-.2s-.03-.17-.08-.22c-.05-.03-.13-.05-.25-.05h-.4v.53h0Z" style="fill:#80cacf;"/></g><rect x="200" y="93.89" width="5.21" height="3.93" style="fill:none; stroke:#e6dc56; stroke-miterlimit:10; stroke-width:.1px;"/><line x1="205.21" y1="95.85" x2="200" y2="95.85" style="fill:none; stroke:#e6dc56; stroke-miterlimit:10; stroke-width:.1px;"/><g><path d="m201.76,94.22v1.33h-.17v-1.13l-.23.18v-.17l.28-.22h.12Z" style="fill:#8dc120;"/><path d="m202.57,94.32s.17-.1.28-.12c.12,0,.2.03.27.1.07.07.1.15.1.27s-.03.2-.12.27c0,0-.03.02-.05.03.02,0,.03.02.05.03.08.05.13.15.13.28,0,.12-.03.22-.1.28-.07.07-.17.1-.28.1-.13,0-.23-.03-.3-.12-.07-.07-.1-.15-.1-.25q0-.07,0,0h.17s.02.1.05.15c.03.03.1.05.18.05.07,0,.13-.02.17-.07.03-.05.05-.1.05-.17,0-.08-.02-.15-.05-.18s-.12-.07-.23-.05h0v-.15h.03c.08,0,.15,0,.2-.05.03-.03.07-.1.07-.18,0-.07-.02-.12-.05-.15s-.08-.05-.15-.05-.12.02-.15.05c-.03.03-.07.08-.07.13h-.17c0-.08.03-.17.1-.23l-.03.02Z" style="fill:#8dc120;"/><path d="m204.48,94.57c0,.1-.07.23-.2.41s-.25.32-.37.41h.56v.15h-.73v-.15c.1-.1.22-.23.37-.41s.22-.32.22-.41c0-.07-.02-.12-.05-.15s-.08-.05-.15-.05-.12.02-.15.05c-.03.03-.05.08-.05.15h-.17c0-.1.03-.18.1-.25s.17-.12.27-.12.2.03.27.1c.07.07.1.15.1.27h-.02Z" style="fill:#8dc120;"/></g><g><path d="m202.49,96.26s.17-.1.28-.12c.12,0,.2.03.27.1.07.07.1.15.1.27s-.03.2-.12.27c0,0-.03.02-.05.03.02,0,.03.02.05.03.08.05.13.15.13.28,0,.12-.03.22-.1.28-.07.07-.17.1-.28.1-.13,0-.23-.03-.3-.12-.07-.07-.1-.15-.1-.25q0-.07,0,0h.17s.02.1.05.15c.03.03.1.05.18.05.07,0,.13-.02.17-.07.03-.05.05-.1.05-.17,0-.08-.02-.15-.05-.18s-.12-.07-.23-.05h0v-.15h.03c.08,0,.15,0,.2-.05.03-.03.07-.1.07-.18,0-.07-.02-.12-.05-.15s-.08-.05-.15-.05-.12.02-.15.05c-.03.03-.07.08-.07.13h-.17c0-.08.03-.17.1-.23l-.03.02Z" style="fill:#8dc120;"/><path d="m204.25,96.16l-.46.96h.33v-.48h.17v.48h.15v.15h-.15v.22h-.17v-.22h-.5v-.15l.46-.96h.17Z" style="fill:#8dc120;"/></g></g></g><g><path d="m166.13,145.41l-.88,2.47h-.55c-.3-1.15-.43-1.73-.43-1.78-.03-.1-.05-.18-.05-.25h-.02s0,.07-.02.13-.02.1-.02.12c0,.05-.18.65-.5,1.78h-.53l-.85-2.47h.51c.37,1.21.55,1.84.55,1.88,0,.1.03.17.05.22.02-.07.03-.13.05-.22,0-.05.17-.66.48-1.88h.5c.3,1.19.46,1.81.46,1.86,0,0,.02.05.03.13.02.05.03.08.03.1.03-.08.05-.17.07-.23s.2-.68.55-1.86h.55Z" style="fill:#fff;"/><path d="m167.59,145.36c.78.03,1.19.46,1.23,1.31-.02.83-.45,1.24-1.26,1.28-.78-.05-1.19-.46-1.24-1.26.03-.85.46-1.29,1.28-1.33Zm-.02,2.21c.46,0,.71-.32.71-.91-.02-.56-.27-.88-.71-.91-.48,0-.73.32-.73.91s.25.88.73.91Z" style="fill:#fff;"/><path d="m169.75,146.61v1.28h-.5v-2.47h.5v.46c.12-.35.35-.53.65-.53.15,0,.3.05.45.13l-.18.45c-.08-.08-.2-.12-.35-.12-.37.02-.56.28-.56.78v.02Z" style="fill:#fff;"/><path d="m171.13,147.89v-3.53h.51v3.53h-.51Z" style="fill:#fff;"/><path d="m173.96,144.34h.51v3.53h-.51v-.38c-.15.3-.43.45-.85.45-.66-.05-1-.46-1.03-1.24,0-.9.38-1.34,1.1-1.36.38.02.63.18.76.48v-1.49l.02.02Zm.02,2.37v-.25c-.05-.43-.27-.66-.66-.71-.45.02-.68.33-.68.93s.23.9.68.91c.43,0,.66-.3.66-.86v-.02Z" style="fill:#fff;"/></g><g><rect x="203.35" y="141.18" width="7.75" height="13.92" style="fill:#eb5c01;"/><path d="m203.83,148.14c0-2.82,1.33-5.34,3.39-6.95-1.51-1.18-3.4-1.89-5.48-1.89-4.88,0-8.85,3.97-8.85,8.85s3.97,8.85,8.85,8.85c2.06,0,3.97-.71,5.48-1.89-2.06-1.63-3.39-4.13-3.39-6.95Z" style="fill:#e60012;"/><path d="m220.7,153.63v-.28h.12v-.05h-.3v.05h.12v.28h.07,0Zm.56,0v-.35h-.08l-.1.23-.1-.23h-.08v.35h.07v-.27l.1.22h.07l.1-.23v.27h.07l-.03.02Z" style="fill:#f5a400;"/><path d="m221.54,148.14c0,4.88-3.97,8.85-8.85,8.85-2.06,0-3.97-.71-5.48-1.89,2.06-1.63,3.39-4.13,3.39-6.95s-1.33-5.34-3.39-6.95c1.51-1.18,3.4-1.89,5.48-1.89,4.9,0,8.85,3.97,8.85,8.85Z" style="fill:#f5a400;"/></g><path d="m176.35,34.41h-23.15c-1.41,0-2.54,1.15-2.54,2.54v89.68c0,1.41,1.15,2.54,2.54,2.54h52.22c1.41,0,2.54-1.15,2.54-2.54V36.93c0-1.41-1.15-2.54-2.54-2.54h-7.8" style="fill:none; stroke:#717071; stroke-linecap:round; stroke-linejoin:round; stroke-width:.2px;"/><g><g><path d="m157.62,24.8h-3.05s-.08.03-.08.08v.25s.03.08.08.08h1.1s.08.03.08.08h0v2.56s.03.08.08.08h.53s.08-.03.08-.08v-2.56h0s.03-.08.08-.08h1.1s.08-.03.08-.08v-.25s-.03-.08-.08-.08h0Z" style="fill:url(#_未命名漸層_10);"/><path d="m153.17,26.06h-1c-.66,0-.71-.08-.71-.4,0-.46.23-.41.95-.41h1.73s.08-.03.08-.08v-.3s-.03-.08-.08-.08h-2.06c-.83,0-1.28.12-1.28.85,0,.83.43.9,1.68.9h.55c.5,0,.63.07.63.43,0,.41-.17.48-.75.48h-2.09s-.08.03-.08.08v.33s.03.08.08.08h2.26c.63,0,1.24-.07,1.24-.81v-.27c0-.53-.37-.78-1.16-.78l.02-.02Z" style="fill:url(#_未命名漸層_10-2);"/><path d="m163.51,26.63s-.03-.05-.02-.08c0,0,.02-.03.08-.05,0,0,.76-.2.76-.83,0-.25-.17-.5-.46-.66-.33-.2-.73-.2-.78-.2h-1.84s-.1.05-.1.1h0v2.95s.03.08.08.08h.53s.08-.03.08-.08v-2.52s.05-.1.1-.1h1.15c.08,0,.27.03.37.08.15.08.25.22.23.37-.02.37-.43.48-.65.5h-.58l1.16,1.66c.05.07.13.08.22.08h.66s-.07-.08-1-1.29Z" style="fill:url(#_未命名漸層_10-3);"/><path d="m167.59,27.49h-2.07s-.08-.03-.08-.08v-2.47s-.07-.13-.13-.13h-.41s-.13.07-.13.13v2.85s.07.13.13.13h2.7s.08-.03.08-.08v-.28s-.03-.08-.08-.08v.02Z" style="fill:url(#_未命名漸層_10-4);"/><path d="m170.94,24.77h-.41s-.13.07-.13.13v1.89c0,.41-.37.66-.95.66s-.95-.25-.95-.66v-1.89s-.07-.13-.13-.13h-.41s-.13.07-.13.13v1.94c0,.63.68,1.08,1.63,1.08s1.63-.46,1.63-1.08v-1.94s-.07-.13-.13-.13Z" style="fill:url(#_未命名漸層_10-5);"/><path d="m173.38,26.36v-.07l1.15-1.34s.02-.03.02-.07c0-.05-.05-.1-.1-.1h-.41c-.1,0-.2.03-.25.1l-.81.93s-.03.02-.05.02-.03,0-.05-.02l-.81-.93s-.15-.1-.25-.1h-.41s-.1.05-.1.1c0,.02,0,.05.02.07l1.15,1.34v.07l-1.38,1.58h.61c.13,0,.2-.03.25-.1l.9-1.03h0s.03-.03.05-.03.03,0,.05.02h0l.9,1.05s.1.1.25.1h.63l-1.38-1.58h.05Z" style="fill:url(#_未命名漸層_10-6);"/><path d="m160.26,27.94h.58l-1.63-3.07h0s-.07-.07-.13-.07h-.4s-.1.03-.12.07h0l-1.64,3.07h.58c.08,0,.17-.05.2-.12h0c.18-.37,1.15-2.31,1.15-2.31,0,0,.02-.02.03-.02,0,0,.03,0,.03.02,0,0,.98,1.99,1.15,2.32.03.07.12.12.2.12v-.02Z" style="fill:url(#_未命名漸層_10-7);"/></g><g><path d="m145.01,24.34h0l2.21-2.21c.23-.22.51-.38.85-.48h-2.34c-.07,0-.13.02-.2.03h-.03c-.22.05-.4.15-.58.28-.05.03-.1.08-.13.12l-2.67,2.67h1.84c.43,0,.83-.18,1.11-.46l-.05.05Z" style="fill:url(#_未命名漸層_10-8);"/><path d="m144.74,25.25h0l-2.19,2.19c-.23.22-.51.4-.86.48h2.36c.07,0,.13-.02.2-.03h.03c.22-.05.4-.15.58-.28.05-.03.1-.08.13-.12l2.67-2.67h-1.84c-.43,0-.83.18-1.11.46l.03-.03Z" style="fill:url(#_未命名漸層_10-9);"/><path d="m148.61,23.39h0v-.02h0c.25-.08.95-.15.95-.15,0,0-.7-.05-.95-.12h0v-.02h0c.03-.08.25-.38.25-.38l-.37.27h0s-.02,0-.02-.02h0c-.08-.37-.13-1.06-.13-1.06h0s-.05.7-.13,1.06h0s0,.02-.02.02h0l-.37-.27s.23.28.25.37h0v.02h0c-.25.08-.95.13-.95.13,0,0,.7.07.95.15h0v.02h0c-.03.08-.25.35-.25.35l.37-.23h0s.02,0,.02.02h0c.08.37.12,1.06.12,1.06h0s.05-.7.13-1.06h0s0-.02.02-.02h0l.37.23s-.22-.27-.25-.35h.02Z" style="fill:url(#_未命名漸層_10-10);"/></g></g><g><path d="m192.14,29.52c.96,0,2.02,1.56,2.02,2.56v13.99c0,1.18-1.34,2.56-2.32,2.56h-9.87c-.7,0-2.26-1.11-2.26-2.26v-14.34c0-1.11,1.06-2.52,2.02-2.52h10.4v.02Z" style="fill:url(#_未命名漸層_11); fill-rule:evenodd;"/><path d="m193.96,35.06s-1.69-.46-1.76,1c0,0,.23,1.76-1.46,1.76-.08,0-1.61-.08-1.61-1.53v-6.77" style="fill:none; stroke:#231814; stroke-width:.08px;"/><polyline points="184.8 29.52 184.8 36.39 189.1 36.39" style="fill:none; stroke:#231814; stroke-width:.08px;"/><polyline points="184.85 48.63 184.8 41.53 189.1 41.53" style="fill:none; stroke:#231814; stroke-width:.08px;"/><path d="m179.74,35.74s2.46,2.07,3.53,2.07c0,0,.85-.03,1.53-1.41" style="fill:none; stroke:#231814; stroke-width:.08px;"/><path d="m179.74,42.09s2.44-1.94,3.52-1.94c0,0,.85.03,1.54,1.34" style="fill:none; stroke:#231814; stroke-width:.08px;"/><path d="m192.28,42.53v-1.26s-.35-1.23-1.53-1.23-1.61,1.11-1.61,1.53v7.07" style="fill:none; stroke:#231814; stroke-width:.08px;"/></g></g><g><ellipse cx="87.59" cy="168.55" rx="31.86" ry="3.73" style="fill:#fff; opacity:.55;"/><g><path d="m143.71,87.63c1.69,2.13-.66,4.37-2.2,5.63-3.94,3.23-8.72,5.53-13.27,7.76-3.63,1.78-7.46.95-11.34.47-2.68-.33-6.13-1.25-8.18.97-2.78,3.02-3.89,7.31-4.27,11.29-.16,1.7-.16,3.29.06,4.85.02.13.04.27.07.41.21,1.3.57,2.58,1.13,3.89,1.83,4.29,4.14,8.38,5.81,12.74,1.24,3.23.94,6.71-.06,10.12-1.2,4.04-3.38,7.99-5.19,11.32-1.27,2.35-2.56,4.79-4.14,6.95-1.03,1.41-2.95,2.9-4.79,2.81-2.1-.11-2.23-2.13-1.99-3.73.96-6.52,5.92-12.06,6.44-18.65.26-3.25-2.65-5.5-5.1-7.13-2.26-1.51-4.71-2.73-7.09-4.04-2.31-1.27-4.94-2.48-6.54-4.64-3.68-4.98-1.81-10.37.01-15.64,1.89-5.45,4.09-10.94,7.18-15.84,1.1-1.75,2.35-3.51,4.02-4.77,1.49-.98,3.29-1.46,5.19-1.64,3.04-.28,6.34.2,8.98.63,4.74.76,9.26,2.9,14.04,3.31,4.64.4,8.81-2.83,12.75-4.83,1.63-.83,6.93-4.14,8.44-2.23Z" style="fill:#fff;"/><path d="m132.22,75.75c-.01-.22-.02-.43-.04-.65-.39.33-.76.67-1.11.94-3.18,2.52-6.5,5.18-10.24,6.81-.03,0-.05.02-.08.02-.81,3.49-2.69,6.69-5.55,8.8.64.19,1.27.39,1.91.58,5.8-2.49,11.19-5.97,15.78-10.32-.33-2.05-.56-4.11-.67-6.19Z" style="fill:#fff;"/><path d="m112.05,66.03c9.54,4.33,10.77,19.57,1.63,25.2-4.57-1.24-9.55-1.98-14.27-1.55-.12,0-.24.02-.35.03-.9.09-1.8.23-2.67.46-7.13-3.71-7.22-13.11-3.23-19.16,3.62-5.49,10.34-7.22,16.55-5.78.83.19,1.61.46,2.35.79Zm1.91,12.58c.11.78,1.29.45,1.18-.33-.17-1.23-.48-2.42-.92-3.57-.28-.73-1.46-.42-1.18.33.44,1.16.75,2.35.92,3.57Z" style="fill:#fff;"/><path d="m114.21,74.71c.45,1.16.75,2.35.92,3.57.11.78-1.08,1.11-1.18.33-.17-1.23-.48-2.42-.92-3.57-.28-.74.91-1.06,1.18-.33Z" style="fill:#333;"/><path d="m109.82,116.48c.19,1.08-.78,2.06-1.51,2.97-.91-.42-1.82-.84-2.73-1.25-.47-3.54.32-7.58,1.52-10.69.3-.77.71-1.75,1.23-2.64.02,2.44.09,4.89.45,7.31.22,1.47.77,2.85,1.03,4.3Z" style="fill:#659cd0;"/><path d="m95.51,137.89c-.48,2.09-.74,4.23-1.4,6.28-.94,2.9-2.64,5.13-4.73,7.28-3.93,4.07-8.32,7.92-13.1,10.97-.92.59-2.19,1.5-3.32,1.5-1.8-.01-2.36-1.95-1.97-3.43.52-1.97,2.07-3.75,3.37-5.25,2.6-2.98,5.73-5.51,8.21-8.58,3.3-4.07,2.78-9.35,2.96-14.28,3.18,2,6.82,3.46,9.98,5.52Z" style="fill:#fff;"/><path d="m144.02,86.19c-1.63-1.2-4.19.24-5.76.91-2.51,1.07-4.91,2.38-7.31,3.66-2.57,1.36-5.12,2.96-8.13,2.74-1.32-.1-2.61-.37-3.88-.72,4.99-2.28,9.61-5.29,13.7-8.95.17-.15.33-.32.5-.47-.09-.47-.17-.94-.24-1.42-4.59,4.34-9.98,7.83-15.78,10.32-.64-.19-1.27-.39-1.91-.58,2.86-2.11,4.74-5.31,5.55-8.8.03,0,.05-.01.08-.02,3.74-1.63,7.06-4.29,10.24-6.81.35-.27.72-.61,1.11-.94-.03-.48-.05-.97-.06-1.46-3.55,2.74-7.01,5.82-11.09,7.78.72-4.97-.7-10.27-4.52-13.68-1.24-1.11-2.59-2-4.02-2.67-3.06-1.45-6.49-1.88-10.01-1.29-5.75.96-10.01,4.6-12.18,10-2.37,5.88-.95,13.42,4.54,16.95-.36.16-.71.35-1.04.56-.04.02-.08.04-.12.07-3.67,2.74-5.9,7.37-7.79,11.41-1.25,2.68-2.36,5.44-3.38,8.22-1.05,2.9-2.33,5.98-2.8,9.04-.64,4.19,1.1,9.07,4.6,11.56,0,0,0,0,.01,0,0,.04-.02.09-.02.13-.16,3.13.1,6.39-.52,9.47-.52,2.58-1.92,4.52-3.71,6.36-3.26,3.37-7.19,6.55-9.48,10.71-1.69,3.07-.94,8.18,3.62,6.58,2.53-.89,4.79-2.76,6.88-4.38,2.49-1.93,4.88-3.99,7.15-6.18,2.45-2.36,4.93-4.78,6.32-7.93,1.09-2.48,1.45-5.1,2.02-7.71.82.6,1.6,1.25,2.31,1.99,1.43,1.46,1.92,2.73,1.54,4.7-.34,1.73-1.01,3.4-1.67,5.03-1.46,3.6-3.27,7.12-4.26,10.89-.59,2.23-1.05,5.6,1.69,6.59,2.86,1.04,5.89-1.51,7.36-3.73,3.62-5.46,7.07-11.66,8.95-18.06.24-.8.45-1.6.64-2.41.86-3.75.33-6.62-1.17-10.13-1.87-4.38-4.47-8.58-5.92-13.12-.08-.24-.15-.48-.21-.73.78.36,1.57.72,2.35,1.08.32.14.64.07.84-.22.66-.97,1.39-1.87,2.2-2.73.14-.15.24-.4.16-.6-1.73-4.4-1.82-9.06-1.83-13.73,0-.06,0-.11-.02-.16.54-.52,1.17-.89,1.89-.97,1.8-.18,3.7.17,5.48.39,3.67.46,7.74,1.39,11.21-.28,4.71-2.26,9.54-4.65,13.68-7.85,2.32-1.79,5.78-5.79,2.23-8.4Zm-50.87-15.18c3.62-5.49,10.34-7.22,16.55-5.78.83.19,1.61.46,2.35.79,9.54,4.33,10.77,19.57,1.63,25.2-4.57-1.24-9.55-1.98-14.27-1.55-.12,0-.24.02-.35.03-.9.09-1.8.23-2.67.46-7.13-3.71-7.22-13.11-3.23-19.16Zm.95,73.15c-.94,2.9-2.64,5.13-4.73,7.28-3.93,4.07-8.32,7.92-13.1,10.97-.92.59-2.19,1.5-3.32,1.5-1.8-.01-2.36-1.95-1.97-3.43.52-1.97,2.07-3.75,3.37-5.25,2.6-2.98,5.73-5.51,8.21-8.58,3.3-4.07,2.78-9.35,2.96-14.28,3.18,2,6.82,3.46,9.98,5.52-.48,2.09-.74,4.23-1.4,6.28Zm15.72-27.68c.19,1.08-.78,2.06-1.51,2.97-.91-.42-1.82-.84-2.73-1.25-.47-3.54.32-7.58,1.52-10.69.3-.77.71-1.75,1.23-2.64.02,2.44.09,4.89.45,7.31.22,1.47.77,2.85,1.03,4.3Zm31.7-23.22c-3.94,3.23-8.72,5.53-13.27,7.76-3.63,1.78-7.46.95-11.34.47-2.68-.33-6.13-1.25-8.18.97-2.78,3.02-3.89,7.31-4.27,11.29-.16,1.7-.16,3.29.06,4.85.02.14.05.29.07.41.21,1.3.57,2.58,1.13,3.89,1.83,4.29,4.14,8.38,5.81,12.74,1.24,3.23.94,6.71-.06,10.12-1.2,4.04-3.38,7.99-5.19,11.32-1.27,2.35-2.56,4.79-4.14,6.95-1.03,1.41-2.95,2.9-4.79,2.81-2.1-.11-2.23-2.13-1.99-3.73.96-6.52,5.92-12.06,6.44-18.65.26-3.25-2.65-5.5-5.1-7.13-2.26-1.51-4.71-2.73-7.09-4.04-2.31-1.27-4.94-2.48-6.54-4.64-3.68-4.98-1.81-10.37.01-15.64,1.89-5.45,4.09-10.94,7.18-15.84,1.1-1.75,2.35-3.51,4.02-4.77,1.49-.98,3.29-1.46,5.19-1.64,3.04-.28,6.34.2,8.98.63,4.74.76,9.26,2.9,14.04,3.31,4.64.4,8.81-2.83,12.75-4.83,1.63-.83,6.93-4.14,8.44-2.23,1.69,2.13-.66,4.37-2.2,5.63Z" style="fill:#333;"/></g></g></svg>