<?xml version="1.0" encoding="utf-8"?>
<!-- Generator: Adobe Illustrator 27.2.0, SVG Export Plug-In . SVG Version: 6.00 Build 0)  -->
<svg version="1.1" id="_圖層_1" xmlns="http://www.w3.org/2000/svg" xmlns:xlink="http://www.w3.org/1999/xlink" x="0px" y="0px"
	 viewBox="0 0 416 50" style="enable-background:new 0 0 416 50;" xml:space="preserve">
<style type="text/css">
	.st0{fill:#009D95;}
	.st1{fill:#FFFFFF;}
	.st2{fill:#00A19B;}
</style>
<g>
	<g>
		<g>
			<path class="st0" d="M47.4,16c3.7,9.4,1.1,20.5-6.3,27.1c-6.4,5.8-15.9,8-24.3,5.1C7.2,45.1,0.5,36.4,0,26.2
				C-0.5,16.6,4.5,8,12.8,3.4c7.6-4.4,19-3.7,26,1.6C42.6,7.6,45.6,11.8,47.4,16z"/>
			<g>
				<path class="st1" d="M45.5,27.9h0.8c-0.1-0.5-0.9-0.3-1.2-0.8c0.3-0.1,0.7,0.1,1,0.2v-0.1c-0.1-0.1-0.5-0.1-0.4-0.4
					c-2.2-0.9-4.2-1.9-6.1-3.4c-1.6-0.9-2.4-3.1-4.1-3.7c-0.3-0.4-0.4-0.8-0.6-1.3l-0.2,0.1c-0.3-0.4-0.4-0.9-0.6-1.3
					c-0.2-0.3-0.7-0.4-1.1-0.4c-0.5,0.3-1.4-0.2-1.7,0.1l0.3,0.2c-0.1,0.2-0.2,0.3-0.4,0.2c-1.1-0.8-2-2-2.8-3.1
					c0.4-1.3-1.2-1.6-1.8-2.5c-0.8-0.7-1.9,0-2.7,0.2c-1.4-0.4-2.8-0.7-4.2-0.8c-0.6,0.2-0.9,0.8-1.2,1.2c-0.9,1.3-1.3,2.8-2.3,4.1
					c-0.3,0.6-1,0.3-1.4,0.7c-0.9,0-1.7,0.3-2.4,0.8c0,0.1-0.1,0.2-0.2,0.2c-0.2,0.4-0.5,0.8-0.8,1.2c-0.7,1-2.1,1.3-3.1,1.9
					c-1.3,0.8-2.5,1.5-3.6,2.6l0,0.1c-0.5,0.8-1.3,1.3-1.8,2c0.5-0.1,0.4-0.8,1.1-0.7c0.1,0.4-0.3,0.6-0.4,0.8
					C3.6,26,3.8,25.9,4,25.9c-0.1,0.3-0.3,0.4-0.6,0.6c0.2-0.1,0.2,0.2,0.3,0.2c0.2,0,0.6-0.4,1-0.2c-0.3,0.3-0.6,0.7-0.8,0.8v0.1
					c0.2,0,0.3,0,0.4-0.2c0.3-0.1,0.6-0.6,0.9-0.6l-0.5,0.8L5.3,27c0.1,0.2-0.3,0.4-0.1,0.6c0.4-0.2,0.5-0.7,0.9-0.9
					c-0.1,0.4-0.5,0.7-0.7,1.1c0.2-0.2,0.8-0.4,0.7-0.8c0.4-0.4,0.9-0.7,1.2-1.2c1.1-1.2,1.8-2.5,3.5-2.8c0,0.1-0.1,0.1,0,0.1
					c0.9-0.8,2.2-0.8,3.1-1.7c0.1-0.2,0.4-0.6,0.7-0.5v-0.1c0-0.2,0.2-0.4,0.5-0.3l0,0.2c0.7-0.8,1.9-0.5,2.4-1.3c0,0,0,0.1,0,0.1
					c0.8-0.2,1.3-1,1.8-1.6c0.3-0.5,0.5-1,0.9-1.3c0.2-0.4,0.4-0.9,0.8-1.3c0.4,0,1-0.1,1.5,0.1c0.6,0.8,1.6,0.3,2.5,0.4
					c0,0.5,0.5,0,0.5,0.5c0.7,0.3,1,1.5,1.6,2.1c-0.4,0.3-0.9,0.7-1,1.2c-0.6,0.1,0,0.8-0.7,0.8c0.2-0.2,0.6-0.2,0.8,0l-0.1,0.2
					c-0.7,0.3-1.5,0.9-2.2,1.3l0.1,0.1c-0.2,0.2-0.4,0.4-0.5,0.5h0.1c0,0,0,0,0,0c-0.1,0-0.1,0.1-0.1,0.2h0.1c0,0,0,0,0,0
					c0,0,0,0,0,0c0.2,0,0.5-0.4,0.7-0.2c0.1,0,0,0.1,0,0.2c0.2-0.4,0.5,0.1,0.7,0.1c-0.3,0.3-0.8,0.7-1.2,1h0.4
					c-0.1,0.5-0.7,0.3-0.9,0.7c0.3,0,0.1,0.4,0,0.4c0.2,0,0.4-0.3,0.6-0.1c-0.1,0.4-0.6,0.4-0.6,0.8c0.3-0.2,0.5-0.8,1-0.6
					c0,0.2-0.3,0.2-0.1,0.5c0.2-0.1,0.3-0.3,0.6-0.2c0.1,0,0.2,0.1,0.1,0.2c0.2-0.2,0.6,0,0.8-0.2c0.7-1,2-0.8,3-1.3l0-0.2
					c0.1-0.6,1-0.5,1.5-0.7c0.1-0.6,0.9-0.1,1.2-0.7c0.3-0.3,0.5,0.1,0.8,0.1c0.4-0.2,0.9-0.2,1.3-0.4c0.9-0.2,1.7,1,2.2,1.5
					c1.2,1.5,3,2.6,4.5,3.4c-0.8-0.6-1.7-1-2.5-1.7c0-0.2,0.2-0.1,0.3-0.1c0.7,0.6,1.5,1,2.2,1.5c1.5,1.3,3.4,1.9,5,2.6l-0.2-0.2
					c0.1-0.1,0-0.2,0.1-0.2l0.3,0.2c0-0.2,0.3-0.2,0.4-0.3c-0.2-0.5-0.9-0.6-1.3-0.9c-1.3-0.8-2.8-1.2-3.9-2.3l0,0
					c1.4,0.9,2.9,1.5,4.5,2.2c0.2,0.5,0.6,0.2,1,0.4C45.7,28,45.5,28,45.5,27.9z"/>
				<path class="st1" d="M24.5,21l-0.2-0.1c0.1,0.4-0.3,0.3-0.5,0.5l0-0.2l-0.4,0.3c0,0.4-0.6,0.2-0.7,0.6c0.3,0,0.6-0.5,1.1-0.4
					C23.8,21.3,24.3,21.2,24.5,21z"/>
				<path class="st1" d="M22.9,21.3c-0.2,0.2-0.4,0.2-0.5,0.4C22.6,21.6,22.8,21.5,22.9,21.3z"/>
			</g>
		</g>
	</g>
	<g>
		<g>
			<path class="st0" d="M255.2,24.1h12.3v2.8h-9v3.7h8.4v2.8h-8.4V38h9.3v2.8h-12.6V24.1z"/>
			<path class="st0" d="M282.4,35.1c0.2,0.9,0.6,3.2,3.6,3.2c2.3,0,3.3-1.2,3.3-2.3c0-1.4-1.2-1.7-4.2-2.4c-1.6-0.4-5.3-1.3-5.3-5
				c0-1.8,1.2-4.6,6.1-4.6c3.3,0,6.2,1.3,6.4,5l-3.4,0.1c-0.1-0.9-0.4-2.4-3-2.4c-1,0-2.8,0.3-2.8,1.6c0,1.1,1,1.5,3.7,2.2
				c2.5,0.6,6,1.4,6,5.5c0,2-1.3,3.7-2.7,4.4c-1.5,0.7-3.2,0.7-3.9,0.7c-1.8,0-6.2-0.2-6.8-5.7L282.4,35.1z"/>
			<path class="st0" d="M302,24.1v9c0,2,0,2.8,0.4,3.6c0.6,1.2,1.9,1.5,2.9,1.5c3.2,0,3.2-2,3.2-4.9v-9.2h3.3v8.7
				c0,3-0.1,4.6-0.9,5.9c-1.3,2-3.7,2.3-5.5,2.3c-6.8,0-6.8-4.2-6.8-8v-8.9H302z"/>
			<path class="st0" d="M318.7,24.1h3.2l6.8,11.1h0V24.1h3.1v16.6h-3.4l-6.6-10.8h0v10.8h-3.1V24.1z"/>
			<path class="st0" d="M275,38.6c0-1.2-1-2.1-2.1-2.1c-1.2,0-2.1,1-2.1,2.1c0,1.2,1,2.1,2.1,2.1C274,40.8,275,39.8,275,38.6z"/>
			<path class="st0" d="M351.6,27.5c0.8,0,1.5,0.1,2,0.3c0.6,0.3,0.9,0.8,0.9,1.6c0,0.7-0.2,1.2-0.7,1.5c-0.5,0.3-1,0.4-1.8,0.4
				h-4.1v-3.7H351.6z M352.1,34c0.7,0,1.3,0.1,1.7,0.3c0.7,0.3,1.1,0.9,1.1,1.8c0,1-0.4,1.7-1.1,2.1c-0.4,0.2-1,0.3-1.7,0.3h-4.1V34
				H352.1z M352.7,24.6h-8.1v16.8h7.5c0.9,0,1.6-0.1,2.4-0.2c0.7-0.2,1.4-0.4,1.9-0.8c0.5-0.4,0.9-0.8,1.2-1.3
				c0.5-0.8,0.7-1.7,0.7-2.7c0-1-0.2-1.8-0.6-2.5c-0.4-0.7-1.1-1.2-1.9-1.5c0.6-0.3,1-0.6,1.3-1c0.5-0.6,0.8-1.4,0.8-2.5
				c0-1-0.3-1.8-0.8-2.6C356.2,25.3,354.7,24.7,352.7,24.6z"/>
			<path class="st0" d="M369.3,28.5l2.1,6.6h-4.3L369.3,28.5z M361.4,41.4h3.7l1.1-3.4h6.2l1.1,3.4h3.8l-5.9-16.8h-4L361.4,41.4z"/>
			<path class="st0" d="M380.7,24.6h3.6l6.6,11.7V24.6h3.2v16.8h-3.5l-6.8-11.9v11.9h-3.2V24.6z"/>
			<path class="st0" d="M400.6,24.6h3.5v6.9l6.5-6.9h4.5l-6.9,6.9l7.2,9.8h-4.5l-5.2-7.3l-1.7,1.7v5.6h-3.5V24.6z"/>
		</g>
	</g>
	<polygon class="st2" points="131.5,34.4 138.5,34.4 138.5,13.9 143.6,13.9 143.6,41.2 138.5,41.2 138.5,39.3 119.1,39.3 119.1,41 
		113.9,41 113.9,13.6 119.1,13.6 119.1,34.4 126.2,34.3 126.2,9.1 131.5,9.1 	"/>
	<g>
		<polygon class="st2" points="84.5,35.6 84.5,26.6 95.2,26.6 95.2,21.6 84.5,21.6 84.5,14.5 96,14.5 96,9.3 67.7,9.3 67.7,14.5 
			79.1,14.5 79.1,21.6 68.4,21.6 68.4,26.6 79.1,26.6 79.1,35.6 66.1,35.6 66.1,40.6 97.4,40.6 97.4,35.6 		"/>
		<path class="st2" d="M89.3,28.1c-1.1,0.3-2,1.5-2.1,2.6c0,0.9,0.1,1.7,0.7,2.3c0.9,0.9,2.1,1.4,3.4,1c0.9-0.2,1.8-1.2,2-2.1
			c0.2-0.9,0.1-1.8-0.4-2.5C92,28.2,90.6,27.8,89.3,28.1z"/>
	</g>
	<g>
		
			<rect x="168.9" y="29.4" transform="matrix(0.213 -0.9771 0.9771 0.213 104.625 191.9093)" class="st2" width="5.1" height="3.3"/>
		<path class="st2" d="M187.1,33.1c3.7-2.7,4.5-3.2,4.5-3.2s-2.9-3-3-3c-0.1,0-2.5,1.7-3.6,2.4c-0.3-1-0.5-2.1-0.6-3.4h0.9h2.3h2.3
			V9.6h-2.3h-2.3H179h-2.1h-2.5v5.3v20.8c-0.5,0.1-1,0.2-1.5,0.3l-0.1-2.1l-4.2,0.7v-7.5h4.6v-4.1h-4.6v-1.6h3.3v-2
			c0.2,0.1,0.3,0.2,0.3,0.2l2.1-4.8c-4.3-2.4-5.4-5.8-5.4-5.8h-2.2h-2.2c0,0-1.5,4.3-5.8,6.7l2.1,4.8c0,0,0.4-0.3,0.9-0.8v1.7h2.7
			v1.6h-5v4.1h5v8.2l-5.1,0.9l0.1,4.5l12.9-2.5l0,2.4l10.3-1.8l-0.2-4.1c1.8,2.9,4.3,4.9,6.6,6l2.2-4.3
			C190.1,35.6,188.5,34.7,187.1,33.1z M164.4,17.4c1-1,1.9-2.2,2.5-3.1c0.6,1.1,1.7,2.2,2.7,3.1H164.4z M179,14.1h6.4v2.1H179V14.1z
			 M179,34.9v-9.1h1.3c0,3.4,0.8,6.2,2.1,8.5C181.9,34.5,180.5,34.7,179,34.9z M179,22.1V20h6.4v2.2H179z"/>
		<polygon class="st2" points="163.6,34 162.9,28.5 159.5,29.1 160.3,34.6 		"/>
	</g>
	<g>
		<rect x="218" y="9.3" class="st2" width="17.9" height="4.8"/>
		<path class="st2" d="M237.2,19.6h-20.8l-3.5-2.5c0,0-3.8,6.4-7.7,9.1l2.2,5.2c0,0,1-0.9,2.4-2.3v11.4h4.9v-17
			c0.6-0.9,1.2-1.8,1.7-2.7v3.5h11.1v10.8c0,0.4-0.3,0.7-0.7,0.7h-5.7l1.9,4.8h5.8c2,0,3.6-1.6,3.6-3.6V24.3h4.8V19.6z"/>
		<path class="st2" d="M216.4,11.7c-1.4-0.9-2.8-1.9-4.1-2.9c-1.9,2.4-4.3,4.9-6.9,6.5l2.3,4.7C211,17.9,214.1,14.7,216.4,11.7z"/>
	</g>
</g>
</svg>
