<?xml version="1.0" encoding="UTF-8"?><svg id="_圖層_1" xmlns="http://www.w3.org/2000/svg" viewBox="0 0 471 214"><g><path d="m135.71,38.95c.29.4.21.88-.35,1.15-1.59.77-3.9,1.33-6.11,1.5-.33.02-.54-.1-.6-.38-.06-.27.06-.5.4-.58,1.84-.42,3.96-1.1,5.28-1.83.12-.06.25-.12.37-.15h-2.65c-.61,0-.96-.35-.96-.96v-4.63c0-.61.35-.96.96-.96h9.68c.61,0,.96.35.96.96v4.63c0,.61-.35.96-.96.96h-6.4c.13.06.27.15.37.29Zm-6.78-9.47v-1.98c0-.61.35-.96.96-.96h2.84s-.02-.04-.04-.06c-.38-.5-.96-1.19-1.46-1.69-.21-.21-.19-.4-.06-.61.13-.21.35-.21.63-.08.6.27,1.52.85,2.06,1.33.38.35.46.77.19,1.11h2v-2.04c0-.54.31-.85.85-.85s.85.31.85.85v2.04h1.67c.5-.73.86-1.38,1.17-2.04.27-.58.71-.71,1.21-.42.52.29.46.83.13,1.23-.37.46-.81.88-1.19,1.23h3.15c.61,0,.96.35.96.96v1.94c0,.54-.29.79-.83.79s-.83-.25-.83-.79v-1.61c0-.13-.1-.23-.23-.23h-12.16c-.13,0-.23.1-.23.23v1.65c0,.54-.29.77-.83.77s-.83-.23-.83-.77Zm11.85-1.17c.61,0,.96.35.96.96v1.21c0,.61-.35.96-.96.96h-7.78c-.61,0-.96-.35-.96-.96v-1.21c0-.61.35-.96.96-.96h7.78Zm-8.03,5.69h8.3v-.63c0-.13-.1-.23-.23-.23h-7.84c-.13,0-.23.1-.23.23v.63Zm0,1.81h8.3v-.88h-8.3v.88Zm.23,1.83h7.84c.13,0,.23-.1.23-.23v-.65h-8.3v.65c0,.13.1.23.23.23Zm7.15-8.05c0-.13-.1-.23-.23-.23h-6.01c-.13,0-.23.1-.23.23v.6c0,.13.1.23.23.23h6.01c.13,0,.23-.1.23-.23v-.6Zm4.67,11.51c-.21.56-.73.69-1.31.44-1.59-.69-3.57-1.38-5.32-1.9-.31-.1-.44-.33-.38-.58.06-.27.23-.38.52-.37,1.81.15,4.3.61,5.86,1.17.65.23.86.63.63,1.23Z" style="fill:#c76555;"/><path d="m157.94,33.36c-.15-.6-.33-1.19-.52-1.77v9.26c0,.5-.29.79-.79.79s-.79-.29-.79-.79v-7.84c-.42,1.38-1.02,2.75-1.86,3.92-.19.31-.42.35-.63.17-.23-.17-.25-.4-.1-.69,1.04-1.77,1.98-4.32,2.36-7.68h-1.65c-.35,0-.54-.21-.54-.54s.19-.52.54-.52h1.88v-3.32c0-.5.29-.79.79-.79s.79.29.79.79v3.32h1.52c.35,0,.54.19.54.52,0,.35-.19.54-.54.54h-1.52v.86c.56.83,1.27,2.06,1.71,3.32.17.42.04.75-.37.9-.38.15-.69-.02-.83-.46Zm10.83,7.9c-1.44-1.1-1.38-4.98-1.38-11.07v-4.11c0-.13-.1-.23-.23-.23h-5.82c-.13,0-.23.1-.23.23v5.07c0,5.3-.46,8.15-2.34,10.32-.17.21-.4.23-.6.08-.19-.15-.25-.35-.1-.6,1.34-2.11,1.52-5.01,1.52-9.22v-5.97c0-.61.35-.96.96-.96h7.42c.61,0,.96.35.96.96v4.42c0,4.65,0,8.78.46,9.41.27.37.33-.04.29-2.27,0-.35.15-.54.42-.54s.42.15.48.48c.61,3.8-.42,5.03-1.81,4Zm-.98-1.33c.1.42-.08.71-.5.83-.42.12-.71-.08-.77-.52-.06-.38-.13-.77-.21-1.13-1.34.44-3.32,1-4.94,1.23-.5.1-.83-.1-.9-.6-.08-.48.13-.79.67-.83.77-.06,1.58-.12,2.38-.21v-3.09h-.98c-.61,0-.96-.35-.96-.96v-3.55c0-.61.35-.96.96-.96h.98v-1.9h-1.65c-.35,0-.54-.21-.54-.54s.19-.52.54-.52h4.73c.35,0,.54.19.54.52,0,.35-.19.54-.54.54h-1.65v1.9h1c.61,0,.96.35.96.96v3.55c0,.61-.35.96-.96.96h-1v2.92c.42-.08.81-.13,1.17-.23-.1-.38-.19-.75-.31-1.09-.1-.29.04-.48.27-.58s.42-.02.56.23c.52.88.9,2.04,1.15,3.07Zm-4.8-5.38h.6v-3.36h-.6c-.13,0-.23.1-.23.23v2.9c0,.13.1.23.23.23Zm2.52-3.36h-.61v3.36h.61c.13,0,.23-.1.23-.23v-2.9c0-.13-.1-.23-.23-.23Z" style="fill:#c76555;"/><path d="m182.95,34.18v3.75c.54-.17,1.06-.35,1.56-.52.29-.1.5-.06.63.17.13.25.04.46-.25.65-1,.65-3.34,1.73-5.48,2.38-.61.19-1.08,0-1.23-.6s.08-.96.75-1.1l.08-.02v-5.96c0-.48.27-.75.75-.75s.75.27.75.75v5.63c.27-.06.54-.13.79-.19v-7.63h-1.21c-.61,0-.96-.35-.96-.96v-4.23c0-.61.35-.96.96-.96h3.73c.61,0,.96.35.96.96v4.23c0,.61-.35.96-.96.96h-.86v2.36h1.73c.35,0,.54.19.54.52,0,.35-.19.54-.54.54h-1.73Zm-2.02-4.48h2.07c.13,0,.23-.1.23-.23v-3.57c0-.13-.1-.23-.23-.23h-2.07c-.13,0-.23.1-.23.23v3.57c0,.13.1.23.23.23Zm4.03-3.17c0-.33.21-.52.54-.52h2.29c.75,0,1.11.46.92,1.19-.63,2.46-2.21,4.11-3.88,5.07-.25.15-.48.1-.6-.1-.13-.23-.1-.4.13-.6,1.5-1.25,2.38-2.65,2.8-4.26.04-.15-.06-.25-.21-.25h-1.46c-.33,0-.54-.19-.54-.54Zm8.89,7.68v6.61c0,.54-.29.83-.83.83s-.83-.29-.83-.83v-.46h-4.92v.48c0,.54-.29.83-.83.83s-.83-.29-.83-.83v-6.63c0-.61.35-.96.96-.96h6.3c.61,0,.96.35.96.96Zm1.15-2.34c-.38.54-.86.58-1.4.19-1.21-.86-2.11-2.13-2.73-4.02v3.15c0,1.61-1.92,2.06-3.82,1-.25-.13-.31-.35-.25-.58.06-.25.25-.33.58-.27,1.61.29,1.84.19,1.84-.67v-6.09c0-.54.29-.83.83-.83s.83.29.83.83v.9c.21.79.44,1.46.73,2.04.56-.52,1-1.06,1.48-1.79.35-.54.75-.61,1.21-.29.48.35.42.88-.06,1.31-.83.73-1.42,1.13-2.21,1.5.61.9,1.42,1.58,2.59,2.27.6.35.77.81.38,1.34Zm-7.72,4.44h4.92v-1.77c0-.13-.1-.23-.23-.23h-4.46c-.13,0-.23.1-.23.23v1.77Zm4.92,3v-2h-4.92v2h4.92Z" style="fill:#c76555;"/><path d="m220.38,37.01c0,.35-.21.56-.56.56h-2.13v3.25c0,.54-.31.85-.85.85s-.85-.31-.85-.85v-.36h-10.07c-.35,0-.56-.21-.56-.56s.21-.56.56-.56h10.07v-1.77h-11.81c-.35,0-.56-.21-.56-.56s.21-.56.56-.56h11.81v-1.38c0-.13-.1-.23-.23-.23h-9.53c-.35,0-.56-.21-.56-.56s.21-.56.56-.56h10.49c.61,0,.96.35.96.96v1.77h2.13c.35,0,.56.21.56.56Zm-16.43-6.36v-2.77c0-.61.35-.96.96-.96h6.01v-1.5h-5.71c-.35,0-.54-.21-.54-.54s.19-.52.54-.52h13.1c.35,0,.54.19.54.52,0,.35-.19.54-.54.54h-5.71v1.5h6.11c.61,0,.96.35.96.96v2.77c0,.54-.31.85-.85.85s-.85-.31-.85-.85v-2.44c0-.13-.1-.23-.23-.23h-5.15v4.44c0,.54-.31.85-.85.85s-.85-.31-.85-.85v-4.44h-5.05c-.13,0-.23.1-.23.23v2.44c0,.54-.31.85-.85.85s-.85-.31-.85-.85Zm6.21-1.09c0,.33-.17.5-.5.5h-2.82c-.33,0-.5-.17-.5-.5s.17-.5.5-.5h2.82c.33,0,.5.17.5.5Zm0,2c0,.33-.17.5-.5.5h-2.82c-.33,0-.5-.17-.5-.5s.17-.5.5-.5h2.82c.33,0,.5.17.5.5Zm7.15-2c0,.33-.17.5-.5.5h-2.92c-.33,0-.5-.17-.5-.5s.17-.5.5-.5h2.92c.33,0,.5.17.5.5Zm0,1.98c0,.33-.17.5-.5.5h-2.92c-.33,0-.5-.17-.5-.5s.17-.5.5-.5h2.92c.33,0,.5.17.5.5Z" style="fill:#c76555;"/><path d="m234.59,37.02c.44.44.44.88.08,1.27-.4.44-.92.44-1.33-.1-.29-.38-.58-.73-.86-1.08-.86,1.77-2.02,3.23-3.5,4.32-.29.19-.52.17-.71-.02-.17-.25-.15-.46.12-.71,1.19-1.09,2.25-2.65,3.05-4.65-.38-.36-.81-.71-1.25-1.06-.06.21-.1.42-.15.63-.13.58-.48.79-.94.67-.5-.12-.67-.46-.54-1.02.48-2.06.9-4.46,1.21-6.67h-1.08c-.35,0-.54-.21-.54-.54s.19-.52.54-.52h1.23c.17-1.25.31-2.4.4-3.34.06-.48.33-.69.83-.67.5.02.81.35.75.79-.1.85-.23,1.96-.4,3.23h2c.63,0,.98.35.94,1-.15,2.69-.6,5.09-1.36,7.15.54.4,1.06.85,1.52,1.31Zm-2.73-2.13c.56-1.75.94-3.77,1.04-6.01,0-.15-.06-.25-.21-.25h-1.34c-.25,1.77-.58,3.69-.94,5.44.5.25,1,.52,1.46.83Zm13.58.23c0,.35-.19.54-.54.54h-10.37c-.35,0-.54-.21-.54-.54s.19-.52.54-.52h2.67c-.21-.54-.44-1.02-.63-1.4-.04-.1-.08-.17-.08-.25-.61,0-.96-.35-.96-.96v-1.52c0-.61.35-.96.96-.96h6.19c.61,0,.96.35.96.96v1.52c0,.61-.35.96-.96.96.04.17-.02.36-.12.54-.21.38-.5.77-.79,1.11h3.13c.35,0,.54.19.54.52Zm-11.28-9.14c0-.33.19-.52.54-.52h4.03v-1.06c0-.54.29-.83.83-.83s.83.29.83.83v1.06h4.09c.35,0,.54.19.54.52,0,.35-.19.54-.54.54h-4.09v1.02h3.29c.35,0,.54.19.54.52,0,.35-.19.54-.54.54h-8.16c-.35,0-.54-.21-.54-.54s.19-.52.54-.52h3.23v-1.02h-4.03c-.35,0-.54-.21-.54-.54Zm9.62,11.64v3.21c0,.52-.29.81-.81.81s-.81-.29-.81-.81v-.37h-5.23v.37c0,.52-.29.81-.81.81s-.81-.29-.81-.81v-3.21c0-.61.35-.96.96-.96h6.53c.61,0,.96.35.96.96Zm-1.61,1.79v-1.46c0-.13-.1-.23-.23-.23h-4.76c-.13,0-.23.1-.23.23v1.46h5.23Zm-5.11-7.74c0,.13.1.23.23.23h4.53c.13,0,.23-.1.23-.23v-.86c0-.13-.1-.23-.23-.23h-4.53c-.13,0-.23.1-.23.23v.86Zm1.69,2.94h1.75c.23-.5.42-1.02.61-1.65h-3.46c.35.35.69.71.96,1.13.13.19.17.36.13.52Z" style="fill:#c76555;"/><path d="m270.5,40.04c0,.58-.31.92-.9.96-2.23.15-5.07.19-7.26.1-2.82-.12-4.61-.5-5.78-2.61-.1-.17-.23-.15-.31.02-.48.98-.85,1.75-1.58,2.56-.4.44-.81.5-1.21.1-.4-.4-.38-.83.06-1.23.75-.67,1.44-1.33,1.96-2.04v-4.13c0-.13-.1-.23-.23-.23h-1.61c-.35,0-.54-.21-.54-.54s.19-.52.54-.52h2.54c.62,0,.96.35.96.96v4.38c.98,1.44,2.8,1.81,4.71,1.82,2.84.04,5.55-.17,7.68-.4.63-.08.98.21.98.81Zm-16.89-11.7c-.21-.21-.23-.42-.1-.65.13-.21.35-.27.61-.13.85.38,1.83,1.02,2.65,1.75.48.38.54.88.12,1.31-.44.44-.88.42-1.29-.08-.58-.77-1.33-1.58-2-2.19Zm.4-3.63c-.19-.19-.21-.4-.08-.6.13-.19.33-.27.56-.15.85.35,1.84.94,2.69,1.63.46.36.48.83.1,1.27-.38.44-.85.42-1.25-.06-.58-.75-1.27-1.44-2.02-2.09Zm3.44,2.52c0-.33.19-.52.54-.52h1.9v-2.38c0-.5.29-.77.79-.77s.79.27.79.77v2.38h1.94c.35,0,.54.19.54.52,0,.35-.19.54-.54.54h-2.56c0,.71-.02,1.36-.04,1.98h2c.61,0,.98.37.96,1.02-.1,3.61-.21,5.59-.35,6.51-.27,1.79-1.9,2.04-3.65.88-.23-.15-.29-.35-.21-.58.08-.21.27-.31.58-.23,1.4.35,1.65.29,1.77-.48.13-.85.27-2.57.31-5.82,0-.17-.1-.25-.23-.25h-1.23c-.21,3.23-.85,5.28-2.34,7.19-.21.25-.42.31-.65.13-.21-.15-.25-.38-.08-.67,1.29-2.15,1.58-4.3,1.59-9.68h-1.29c-.35,0-.54-.21-.54-.54Zm5.99,1.46c.88-1.38,1.21-2.75,1.48-4.48.1-.6.44-.75,1-.67.56.08.79.48.63,1.06-.13.5-.29.98-.46,1.42h3.69c.33,0,.52.19.52.52,0,.35-.19.54-.52.54h-4.15c-.38.77-.85,1.46-1.44,2.15-.21.25-.44.29-.65.13-.21-.17-.25-.38-.1-.67Zm3.05,8.16v-2.92h-2.02c-.35,0-.54-.19-.54-.54,0-.33.19-.52.54-.52h2.02v-1.23c0-.5.29-.79.79-.79h.08c.25-.38.44-.77.56-1.11.04-.12.02-.25-.15-.25h-2.57c-.35,0-.54-.21-.54-.54s.19-.52.54-.52h3.57c.88,0,1.08.6.65,1.33-.38.63-.88,1.33-1.34,1.81v1.31h1.82c.35,0,.54.19.54.52,0,.35-.19.54-.54.54h-1.82v3.55c0,1.33-1.46,1.81-3.63.79-.29-.13-.38-.35-.31-.6.08-.23.27-.33.6-.27,1.59.29,1.77.12,1.77-.56Z" style="fill:#c76555;"/><path d="m278.53,32.68c0-4.21,2.38-7.15,6.32-7.15,1.75,0,3.21.69,3.86,1.31.35.33.38.81.1,1.11-.31.29-.79.27-1.19-.02-.61-.44-1.58-1-2.8-1-2.48,0-4.25,1.88-4.25,5.82s1.5,6.03,4.25,6.03c1.17,0,2.11-.35,2.88-.94.44-.35.92-.4,1.23-.02.31.38.25.92-.17,1.25-.86.69-2.25,1.11-4,1.11-3.94,0-6.22-2.69-6.22-7.51Z" style="fill:#c76555;"/><path d="m306.26,33.41v5.86c0,.58-.33.92-.92.92s-.92-.33-.92-.92v-5.69c0-1.67-.79-2.59-2.17-2.59s-2.36,1.11-2.77,2.21v6.07c0,.58-.33.92-.92.92s-.92-.33-.92-.92v-13.37c0-.58.33-.92.92-.92s.92.33.92.92v5.44c.73-1.13,1.81-1.71,3.25-1.71,1.98,0,3.54,1.31,3.54,3.78Z" style="fill:#c76555;"/><path d="m315.02,26.77c0-.67.54-1.19,1.23-1.19s1.19.5,1.19,1.19-.52,1.19-1.19,1.19-1.23-.54-1.23-1.19Zm.29,12.51v-8.57c0-.58.33-.92.92-.92s.92.33.92.92v8.57c0,.58-.33.92-.92.92s-.92-.33-.92-.92Z" style="fill:#c76555;"/><path d="m326.55,37.7v-11.85c0-.58.33-.92.92-.92s.92.33.92.92v11.99c0,.69.19.92.65.92s.54-.19.98-.19c.37,0,.65.29.65.71,0,.77-.94.94-1.92.92-1.61-.04-2.21-.85-2.21-2.5Z" style="fill:#c76555;"/><path d="m338.23,37.7v-11.85c0-.58.33-.92.92-.92s.92.33.92.92v11.99c0,.69.19.92.65.92s.54-.19.98-.19c.37,0,.65.29.65.71,0,.77-.94.94-1.92.92-1.61-.04-2.21-.85-2.21-2.5Z" style="fill:#c76555;"/></g><g><path d="m35.49,141.6h48.72v48.91h-48.72c-6.07,0-11-4.93-11-11v-26.91c0-6.07,4.93-11,11-11Z" style="fill:#c76555;"/><rect x="24.49" y="141.6" width="422.03" height="48.91" rx="11" ry="11" style="fill:none; stroke:#c76555; stroke-miterlimit:10; stroke-width:1.03px;"/><g><path d="m46.27,161.61v-3.5h-5.41c-.31,0-.49-.18-.49-.49s.18-.47.49-.47h5.41v-1.67h-3.25c-.47,0-.74-.27-.74-.74v-4.78c0-.47.27-.74.74-.74h7.92c.47,0,.74.27.74.74v4.78c0,.47-.27.74-.74.74h-3.28v1.67h5.46c.31,0,.49.16.49.47s-.18.49-.49.49h-5.46v3.5c0,.44-.25.69-.69.69s-.7-.25-.7-.69Zm4.08-9.71v-1.61c0-.1-.07-.18-.18-.18h-6.39c-.1,0-.18.07-.18.18v1.61h6.74Zm-6.56,2.69h6.39c.1,0,.18-.07.18-.18v-1.66h-6.74v1.66c0,.1.07.18.18.18Z" style="fill:#fff;"/><path d="m59.26,158.7c-.18,1.04-.67,2.23-1.14,2.93-.27.4-.71.49-1.08.18-.35-.3-.33-.69.01-1.06.5-.53,1.04-1.46,1.43-2.32.1-.24.31-.28.53-.22.22.09.28.28.24.5Zm.55-2.72v.64c0,.1.07.18.18.18h8.58c.49,0,.75.28.72.78-.09,1.51-.22,2.65-.41,3.64-.25,1.33-2.07,1.39-3.84.4-.18-.1-.22-.33-.15-.5.07-.18.22-.25.47-.21,1.92.4,2.19.3,2.31-.4.1-.61.22-1.64.28-2.68,0-.12-.06-.18-.18-.18h-8.55c-.47,0-.74-.27-.74-.74v-6.02c0-.47.27-.74.74-.74h2.03c.13-.37.31-.86.46-1.38.15-.47.5-.62.95-.47.41.13.55.52.31.92-.19.31-.43.65-.69.93h4.27c.47,0,.74.27.74.74v2.69c0,.47-.27.74-.74.74h-6.73v.8h9.48c.27,0,.43.16.43.43s-.16.43-.43.43h-9.48Zm0-4.83v.71h6.14v-.71c0-.1-.07-.18-.18-.18h-5.78c-.1,0-.18.07-.18.18Zm6.14,2.19v-.69h-6.14v.87h5.96c.1,0,.18-.07.18-.18Zm-4.11,7.66c.1.47-.07.75-.53.84-.47.09-.74-.16-.78-.62-.07-.81-.16-1.77-.25-2.5-.03-.24.09-.37.28-.43.21-.06.38.02.49.25.31.72.64,1.66.8,2.45Zm2.54-.64c.18.4.04.72-.33.87-.37.15-.74.03-.86-.4-.19-.71-.52-1.61-.74-2.2-.07-.22.01-.4.18-.49.18-.09.35-.07.52.13.46.59.95,1.43,1.23,2.08Zm1.18-.31c-.28-.55-.58-1.14-.83-1.54-.15-.24-.13-.43.03-.55.16-.13.35-.12.53.04.41.35.9.92,1.26,1.42.27.37.21.68-.12.89-.34.22-.67.12-.87-.27Z" style="fill:#fff;"/><path d="m42.68,179.08c-.18-.09-.25-.28-.18-.46.06-.18.18-.24.43-.19,1.09.18,1.35.03,1.35-.8,0-1.08-.4-2.13-1.05-3.05-.19-.27-.25-.56-.12-.86.4-.92.77-1.98,1.01-3.06.03-.12-.04-.19-.16-.19h-1.63v11.77c0,.4-.22.62-.62.62s-.62-.22-.62-.62v-12.39c0-.4.22-.62.62-.62.33,0,.53.15.61.43h1.85c.21-.25.56-.37.93-.21.37.16.56.52.34,1.12-.55,1.49-1.08,2.53-1.67,3.42-.06.09-.04.16.03.25,1.06,1.09,1.72,2.28,1.72,3.62,0,1.72-1.36,2.01-2.82,1.21Zm10.79,3.28c-.25.43-.68.52-1.14.19-1.8-1.29-3.37-3.49-3.79-7.01h-1.14v5.18c.64-.15,1.23-.31,1.7-.44.24-.07.41-.03.5.16.09.19.04.4-.15.5-1.12.62-2.85,1.27-4.23,1.58-.43.09-.78-.06-.87-.5-.07-.4.06-.72.53-.8.38-.06.8-.13,1.21-.22v-10.6c0-.47.27-.74.74-.74h4.79c.47,0,.74.27.74.74v4.41c0,.47-.27.74-.74.74h-2.32c.22,1.04.56,1.92.96,2.69.56-.5,1.03-1.08,1.46-1.76.25-.4.64-.47,1.01-.21.38.28.34.68.03,1.02-.62.67-1.42,1.23-2.11,1.6.69,1.05,1.54,1.82,2.47,2.4.43.28.59.64.34,1.08Zm-6.06-10.19h3.67v-1.52c0-.1-.07-.18-.18-.18h-3.31c-.1,0-.18.07-.18.18v1.52Zm0,2.56h3.49c.1,0,.18-.07.18-.18v-1.57h-3.67v1.74Z" style="fill:#fff;"/><path d="m69.73,181.29c0,.52-.24.78-.89.83-1.15.06-1.92.09-2.88.06-3.16-.07-4.79-.58-5.99-2.99-.61,1.51-1.51,2.66-2.53,3.4-.22.16-.43.13-.56-.01-.13-.16-.13-.35.06-.55,1.27-1.35,2.13-3.24,2.35-5.86.04-.49.35-.69.8-.64.46.07.64.35.59.78-.07.67-.21,1.3-.37,1.88.69,1.23,1.36,1.91,2.48,2.26v-5.88h-3.56c-.27,0-.43-.16-.43-.43s.16-.43.43-.43h8.12c.27,0,.43.16.43.43s-.16.43-.43.43h-3.19v2.34h3.8c.27,0,.43.16.43.43s-.16.43-.43.43h-3.8v2.96c.47.04.99.07,1.6.07,1.17.01,2.25-.07,3.09-.18.56-.06.89.18.89.67Zm-12.55-7.73v-1.76c0-.47.27-.74.74-.74h4.64v-1.54c0-.44.24-.68.68-.68s.68.24.68.68v1.54h4.64c.47,0,.74.27.74.74v1.74c0,.41-.24.65-.65.65s-.65-.24-.65-.65v-1.42c0-.1-.07-.18-.18-.18h-9.17c-.1,0-.18.07-.18.18v1.43c0,.41-.24.65-.65.65s-.65-.24-.65-.65Z" style="fill:#fff;"/></g><g><path d="m103.25,160.88c0,.37-.21.57-.57.57h-1.9v3.87c.47-.16.9-.35,1.33-.55.29-.14.55-.1.72.12.16.27.06.53-.18.72-.55.41-1.19.82-1.86,1.19v6.45c0,1.7-1.74,2.44-4.42,1.19-.27-.12-.35-.33-.27-.59.08-.25.27-.37.59-.31,1.99.37,2.29.18,2.29-.8v-5.02c-.57.25-1.13.47-1.66.66-.61.2-1.11.04-1.29-.68-.14-.57.08-.98.66-1.13.76-.18,1.54-.41,2.29-.63v-4.48h-2.27c-.37,0-.57-.23-.57-.57s.21-.55.57-.55h2.27v-3.52c0-.57.33-.9.9-.9s.9.33.9.9v3.52h1.9c.37,0,.57.21.57.55Zm10.24.82v12.45c0,.57-.33.9-.9.9s-.9-.33-.9-.9v-1.11h-6.39v1.17c0,.57-.31.88-.88.88s-.88-.31-.88-.88v-12.51c0-.66.37-1.02,1.02-1.02h2.99v-3.87c0-.59.33-.92.92-.92s.92.33.92.92v3.87h3.07c.66,0,1.02.37,1.02,1.02Zm-5.94.1h-2.01c-.14,0-.25.1-.25.25v3.93h2.25v-4.18Zm0,5.3h-2.25v4.81h2.25v-4.81Zm4.14-5.06c0-.14-.1-.25-.25-.25h-2.05v4.18h2.29v-3.93Zm0,5.06h-2.29v4.81h2.29v-4.81Z" style="fill:#c76555;"/><path d="m129.46,173.41c-.53.33-1.13.12-1.41-.43-.43-.88-1.97-3.67-3.26-5.9-.37.04-.78.06-1.19.08-.72.02-1.27.02-1.88-.02v5.43c0,.66-.35,1-1,1s-1-.35-1-1v-13.06c0-.82.43-1.29,1.23-1.35.72-.06,1.62-.1,2.54-.1,3.5,0,6.18,1.29,6.18,4.44,0,2.15-1.09,3.56-3.15,4.22,1.45,2.23,2.7,4.36,3.26,5.3.33.53.23,1.06-.31,1.39Zm-1.9-10.83c0-2.11-1.37-3.11-4.14-3.11-.49,0-1.09.02-1.43.06-.18.02-.27.12-.27.29v5.92c.57.04,1.25.04,1.84.02,2.83-.1,3.99-1.04,3.99-3.17Z" style="fill:#c76555;"/><path d="m134.84,159.26c0-.72.57-1.27,1.31-1.27s1.27.53,1.27,1.27-.55,1.27-1.27,1.27-1.31-.57-1.31-1.27Zm.31,13.33v-9.13c0-.61.35-.98.98-.98s.98.35.98.98v9.13c0,.61-.35.98-.98.98s-.98-.35-.98-.98Z" style="fill:#c76555;"/><path d="m157.9,166.02v6.57c0,.61-.35.98-.98.98s-.98-.35-.98-.98v-6.23c0-1.78-.72-2.7-2.07-2.66-1.13.04-2.13.96-2.52,2.29v6.59c0,.61-.35.98-.98.98s-.98-.35-.98-.98v-6.35c0-1.68-.7-2.58-1.97-2.54-1.35.04-2.27,1.17-2.62,2.35v6.53c0,.61-.35.98-.98.98s-.98-.35-.98-.98v-9.28c0-.63.35-.98.98-.98s.98.35.98.98v.66c.68-1.11,1.68-1.68,3.09-1.68s2.52.64,3.07,1.86c.72-1.25,1.82-1.86,3.42-1.86,2.19,0,3.52,1.43,3.52,3.73Z" style="fill:#c76555;"/><path d="m162.69,167.78c0-3.3,2.05-5.47,5.3-5.47s5.1,2.38,5.1,5.47c0,3.65-1.92,5.82-5.26,5.82s-5.14-2.21-5.14-5.82Zm8.29.08c-.06-2.64-1.15-4.14-3.09-4.12-2.03.02-3.13,1.5-3.07,4.12.06,2.83,1.11,4.34,3.07,4.3,1.99-.04,3.15-1.6,3.09-4.3Z" style="fill:#c76555;"/><path d="m192.32,163.48c-.7,2.29-2.01,6.53-2.87,9.17-.21.63-.61.92-1.25.92s-1.06-.31-1.25-.94c-.86-2.97-1.97-6.92-2.29-8.03h-.06c-.35,1.17-1.58,5.1-2.5,8.07-.18.59-.61.9-1.25.9-.59,0-1.06-.31-1.25-.9-.88-2.85-2.07-6.57-2.87-9.07-.18-.57.02-1.06.63-1.23.59-.16,1.06.06,1.23.68.7,2.62,1.82,6.27,2.33,8.05h.1c.55-1.74,1.66-5.47,2.29-7.8.18-.68.59-.98,1.27-.98s1.06.29,1.27.96c.68,2.23,1.78,5.98,2.33,7.82h.1c.53-1.78,1.62-5.61,2.25-8.09.14-.55.61-.8,1.15-.63.55.16.78.57.61,1.11Z" style="fill:#c76555;"/><path d="m205.04,166.18v6.49c0,.57-.33.9-.9.9s-.94-.31-.94-.88v-1.09c-.86,1.27-2.27,1.97-3.89,1.97-2.09,0-3.4-1.21-3.4-3.17,0-2.31,2.17-3.89,5.59-3.99.68-.02,1.31.04,1.64.1v-.23c0-1.7-.78-2.58-2.27-2.58s-2.4.8-3.05,1.45c-.33.33-.82.41-1.15.12-.31-.27-.35-.68-.06-1.08.61-.88,2.07-1.88,4.28-1.88,1.39,0,2.54.37,3.24,1.06.61.61.92,1.54.92,2.81Zm-1.97,1.62c-.39-.06-.96-.1-1.58-.08-2.56.08-3.58,1.29-3.58,2.54s.55,1.84,1.68,1.88c1.37.04,2.78-.94,3.48-2.17v-2.17Z" style="fill:#c76555;"/><path d="m216.65,161.67c-.49.9-1.11,1.8-1.78,2.68v9.83c0,.59-.33.92-.92.92s-.92-.33-.92-.92v-7.78c-.82.8-1.68,1.47-2.52,1.97-.29.16-.53.08-.68-.12-.16-.25-.12-.47.12-.7,1.92-1.66,3.79-4.16,5.04-6.72.29-.61.76-.78,1.31-.53.55.25.66.8.35,1.37Zm-6.49.78c-.16-.23-.16-.45.12-.72,1.5-1.33,2.99-3.38,3.87-5.22.29-.61.86-.7,1.35-.47.53.25.63.78.29,1.37-1.17,1.95-2.91,3.87-4.87,5.16-.33.2-.59.12-.76-.12Zm18,.72c0,.39-.23.61-.61.61h-2.85v9.07c0,2.09-1.72,3.01-5.67,1.43-.31-.12-.41-.37-.33-.66.08-.29.29-.39.63-.35,3.28.41,3.44.14,3.44-.9v-8.6h-4.91c-.39,0-.61-.23-.61-.61s.23-.61.61-.61h9.69c.39,0,.61.23.61.61Zm-9.93-5.51c0-.39.23-.61.61-.61h7.78c.39,0,.61.23.61.61s-.23.61-.61.61h-7.78c-.39,0-.61-.23-.61-.61Z" style="fill:#c76555;"/><path d="m250.45,169.76c0,.43-.25.66-.68.66h-7.17v2.74c0,1.78-1.66,2.85-5.47,1.15-.29-.12-.39-.35-.31-.63s.29-.39.63-.35c2.91.43,3.21.25,3.21-.66v-2.25h-7.47c-.43,0-.68-.23-.68-.66s.25-.66.68-.66h7.47v-.88c0-.61.35-.96.96-.96.31,0,.55.08.72.27.59-.43,1.27-.96,1.84-1.52.16-.16.08-.29-.12-.29h-7.58c-.39,0-.61-.23-.61-.61s.23-.61.61-.61h8.97c.47,0,.84.14,1.04.45.23.33.16.8-.39,1.29-.96.86-2.35,1.72-3.52,2.25v.61h7.17c.43,0,.68.23.68.66Zm-17.73-4.98c-.12-.33-.04-.59.29-.76,2.27-1.09,4.77-2.72,6.14-4.59h-5.04c-.43,0-.68-.23-.68-.63s.25-.63.68-.63h6.39v-1.41c0-.61.35-.96.96-.96s.96.35.96.96v1.41h6.45c.43,0,.68.23.68.63s-.25.63-.68.63h-5.98c1.9,1.64,4.61,2.81,6.72,3.44.7.2.92.7.72,1.35-.21.66-.84.8-1.52.53-2.44-.92-4.89-2.62-6.39-4.36v2.93c0,.61-.35.96-.96.96s-.96-.35-.96-.96v-2.83c-1.41,1.68-4.12,3.5-7.09,4.55-.33.1-.57.02-.7-.27Z" style="fill:#c76555;"/><path d="m263.54,164.75c0,.37-.2.57-.57.57h-2.48v.66c.84.68,1.76,1.58,2.5,2.58.35.47.37.94-.1,1.31-.47.39-.96.23-1.27-.37-.39-.78-.78-1.47-1.13-2.09v6.94c0,.57-.31.88-.88.88s-.88-.31-.88-.88v-5.9c-.76,1.43-1.74,2.72-3.13,4.03-.27.25-.53.27-.72.06-.18-.2-.14-.47.08-.72,1.37-1.6,2.68-3.85,3.48-6.51h-2.64c-.37,0-.57-.23-.57-.57s.2-.55.57-.55h2.93v-2.11c0-.57.31-.88.88-.88s.88.31.88.88v2.11h2.48c.37,0,.57.2.57.55Zm-8.54-2.23c-.18-.21-.16-.43.04-.68,1.31-1.41,2.23-3.36,2.81-5.22.18-.63.63-.88,1.23-.7.63.2.78.74.63,1.15-.12.35-.29.74-.47,1.13h4.63c.37,0,.57.2.57.55,0,.37-.2.57-.57.57h-2.42c.31.41.57.88.84,1.47.25.49.08.86-.43,1.04-.53.2-.88,0-1-.51-.14-.68-.37-1.31-.61-2.01h-1.64c-.7,1.08-1.66,2.21-2.93,3.19-.25.2-.49.2-.68,0Zm18.16-3.77c0,.37-.21.57-.57.57h-3.3c.33.45.66.96.92,1.58.29.55.08,1-.49,1.19-.57.2-.94-.08-1.08-.63-.14-.7-.37-1.41-.61-2.13h-1.86c-.68,1-1.52,1.97-2.54,2.74-.25.21-.51.23-.72,0-.2-.2-.16-.45.06-.72,1.31-1.41,1.99-3.03,2.54-4.73.21-.63.68-.86,1.29-.66.59.2.8.72.51,1.27-.14.33-.29.63-.47.96h5.75c.37,0,.57.2.57.55Zm-1.04,4.81v10.75c0,.57-.31.84-.88.84s-.88-.27-.88-.84v-.68h-4.53v.76c0,.57-.31.82-.88.82s-.88-.25-.88-.82v-10.83c0-.66.37-1.02,1.02-1.02h6c.66,0,1.02.37,1.02,1.02Zm-6.29,2.17h4.53v-1.82c0-.14-.1-.25-.25-.25h-4.03c-.14,0-.25.1-.25.25v1.82Zm0,3.32h4.53v-2.23h-4.53v2.23Zm4.53,3.44v-2.35h-4.53v2.35h4.53Z" style="fill:#c76555;"/><path d="m287.16,168c-1.35-1.47-2.74-2.95-3.99-4.22-.35-.33-.35-.61-.08-.96.25-.31.59-.37.94-.14,1.62,1.04,3.44,2.38,4.83,3.52.7.57.72,1.21.14,1.86-.57.61-1.23.59-1.84-.06Z" style="fill:#c76555;"/><path d="m302.89,173.9v-16.07c0-.66.37-1.02,1.02-1.02h10.48c.66,0,1.02.37,1.02,1.02v16.05c0,.61-.35.96-.96.96s-.96-.35-.96-.96v-1.39h-8.68v1.41c0,.61-.35.96-.96.96s-.96-.35-.96-.96Zm10.61-10.1v-5.45c0-.14-.1-.25-.25-.25h-8.19c-.14,0-.25.1-.25.25v5.45h8.68Zm0,7.37v-6.1h-8.68v6.1h8.68Z" style="fill:#c76555;"/><path d="m340.5,171.26c-.41.57-1,.59-1.54.2-2.38-1.7-5.06-5.32-6.43-8.56v6.06h3.11c.41,0,.66.25.66.66s-.25.66-.66.66h-3.11v3.87c0,.61-.35.96-.96.96s-.96-.35-.96-.96v-3.87h-3.09c-.41,0-.66-.25-.66-.66s.25-.66.66-.66h3.09v-5.71c-1.56,3.56-4.73,6.92-7.45,8.66-.33.18-.59.1-.76-.16-.14-.27-.08-.51.2-.72,2.76-2.17,5.53-6,6.9-9.69h-6.04c-.43,0-.68-.25-.68-.68s.25-.66.68-.66h7.15v-3.13c0-.61.35-.96.96-.96s.96.35.96.96v3.13h7.11c.43,0,.68.23.68.66s-.25.68-.68.68h-6.63c1.43,2.97,3.93,6.1,7.25,8.42.55.39.59.98.25,1.49Z" style="fill:#c76555;"/><path d="m348.35,173.45c-.27-.16-.35-.37-.27-.66.06-.25.31-.35.63-.29,1.99.41,2.29.16,2.29-.55v-6.16h-2.83c-.04,4.81-.35,6.66-2.42,9.03-.23.27-.45.29-.66.1-.23-.2-.25-.41-.08-.7,1.21-2.25,1.39-4.77,1.43-8.44h-.94c-.37,0-.57-.21-.57-.57,0-.35.2-.55.57-.55h.94v-4.77c0-.66.37-1.02,1.02-1.02h1.25c.14-.74.29-1.52.37-2.21.06-.61.41-.9,1.02-.78.63.12.92.59.66,1.25-.23.61-.49,1.21-.8,1.74h1.68c.66,0,1.02.37,1.02,1.02v12.45c0,1.86-1.92,2.54-4.34,1.11Zm2.66-8.78v-4.42c0-.14-.1-.25-.25-.25h-2.33c-.14,0-.25.1-.25.25v4.42h2.83Zm-.57-1.33c.12.51-.08.84-.59.94-.51.1-.82-.16-.86-.7-.04-.88-.18-1.76-.33-2.56-.04-.31.08-.51.35-.57.25-.06.47.04.59.33.37.76.68,1.7.84,2.56Zm-1.5,6.7c0-.98-.14-2.05-.27-2.93-.04-.31.08-.51.35-.59.25-.08.45.04.57.33.37.84.78,2.05.92,2.99.12.55-.14.88-.7.98-.55.1-.84-.2-.88-.78Zm12.47,4.53c-2.17,0-2.44-.39-2.44-2.21v-8.03c0-.14-.1-.25-.25-.25h-2.21c-.14,0-.25.1-.25.25v2.4c0,3.54-.61,6.63-3.62,8.42-.27.16-.49.08-.63-.12-.16-.23-.1-.43.12-.63,2.23-2.05,2.38-3.93,2.38-8.09v-2.31c0-.66.37-1.02,1.02-1.02h4.22c.66,0,1.02.37,1.02,1.02v7.92c0,.84.08.98.78.98.55,0,.57-.53.57-3.34,0-.35.16-.55.43-.55s.45.16.51.49c.82,4.34.31,5.08-1.66,5.08Zm-8.48-14.54c0-.35.21-.55.57-.55h3.4v-2.7c0-.59.33-.92.92-.92s.92.33.92.92v2.7h3.71c.37,0,.57.2.57.55,0,.37-.21.57-.57.57h-8.95c-.37,0-.57-.23-.57-.57Z" style="fill:#c76555;"/><path d="m385.57,173.84c0,.41-.25.66-.68.66h-16.57c-.43,0-.68-.23-.68-.66s.25-.68.68-.68h7.31v-4.38h-5.3c-.41,0-.63-.25-.63-.63,0-.41.23-.66.63-.66h12.59c.41,0,.63.25.63.66s-.23.63-.63.63h-5.32v4.38h7.29c.43,0,.68.25.68.68Zm-17.3-11.22v-2.74c0-.66.37-1.02,1.02-1.02h6.33v-2.03c0-.63.35-.98,1-.98s1,.35,1,.98v2.03h6.35c.66,0,1.02.37,1.02,1.02v2.6c0,.59-.33.92-.92.92s-.92-.33-.92-.92v-2.07c0-.14-.1-.25-.25-.25h-3.22v3.13c0,.94.27,1.23,1.43,1.23,1,0,1.97-.08,2.83-.35.45-.14.92-.12,1.17.45.2.51,0,.98-.7,1.19-.84.25-1.9.35-3.5.35-2.76,0-3.07-.59-3.07-2.21v-3.79h-2.5c-.25,3.71-1.66,6.1-6.31,7.29-.35.08-.57-.04-.7-.35-.12-.29.04-.57.39-.72,3.73-1.49,4.59-2.91,4.75-6.23h-3.13c-.14,0-.25.1-.25.25v2.21c0,.59-.33.92-.92.92s-.92-.33-.92-.92Z" style="fill:#c76555;"/><path d="m394.07,164.11v10.26c0,.53-.29.84-.82.84s-.84-.31-.84-.84v-8.09c-.35,1.35-.86,2.83-1.54,3.97-.16.35-.43.41-.68.27-.25-.18-.35-.41-.18-.74.9-2.05,1.78-5.1,2.21-8.25h-1.37c-.35,0-.55-.21-.55-.55s.2-.57.55-.57h1.56v-3.67c0-.53.31-.84.84-.84s.82.31.82.84v3.67h1.25c.27,0,.45.12.51.35.08-.25.29-.39.63-.41h.02c.35-.98.66-2.25.9-3.48.1-.53.47-.76.98-.61.51.14.68.55.43,1.15-.45,1.15-.86,2.13-1.29,2.89l1-.12c.12-.31.25-.61.35-.94.16-.51.57-.74,1.06-.51.45.23.57.66.31,1.13-.68,1.31-1.52,2.5-2.31,3.46l1.33-.18c-.06-.23-.12-.47-.2-.72s0-.45.25-.53c.23-.1.43-.04.55.18.37.74.61,1.37.84,2.11.12.39-.04.66-.41.76-.37.1-.66-.04-.72-.41l-.12-.57c-1,.41-1.99.72-2.74.88-.45.1-.76-.08-.88-.55-.14-.51.1-.78.61-.82.12,0,.23-.02.35-.02.47-.74.9-1.47,1.29-2.23-.47.18-.92.33-1.39.43-.39.1-.72-.04-.82-.45-.06.25-.25.37-.53.37h-1.25v1.09c.72.72,1.35,1.54,1.78,2.25.27.39.18.74-.23.98-.43.27-.82.12-1-.33-.14-.47-.35-.96-.55-1.41Zm13.97,6.76c.66,3.81-.02,4.83-2.38,3.93-1.06-.41-1.9-1.21-2.58-2.27-1.58,1.11-3.38,1.92-5.16,2.33-.33.06-.53-.06-.61-.35-.08-.27.04-.49.37-.61,1.7-.61,3.3-1.39,4.75-2.64-.47-1.09-.82-2.33-1.06-3.73h-2.42c-.02.31-.04.59-.08.88.98.57,1.84,1.23,2.48,1.86.39.35.35.84-.02,1.17-.39.35-.86.31-1.19-.12-.45-.66-.96-1.27-1.43-1.82-.43,2.19-1.37,4.08-3.26,5.37-.29.21-.55.16-.74-.08-.18-.23-.12-.47.12-.72,1.47-1.45,2.21-3.38,2.42-6.53h-1.43c-.37,0-.57-.23-.57-.57s.2-.55.57-.55h1.47c.02-.25.02-.49.02-.74,0-.59.33-.88.86-.88s.84.29.84.88v.74h2.17c-.35-2.44-.47-5.2-.47-8.05v-1.76c0-.53.29-.82.82-.82s.82.29.82.82v1.82c0,2.93.14,5.67.49,7.99h2.38s-.02-.04-.02-.06c-.23-.51-.53-1.11-.84-1.64-.04-.06-.06-.14-.08-.2-.27.06-.49.12-.72.16-.43.1-.72-.1-.78-.55s.06-.72.55-.76c.1,0,.2-.02.31-.02.51-.78.9-1.49,1.23-2.19-.51.18-1.02.31-1.52.41-.45.12-.76-.08-.84-.55-.08-.49.14-.74.64-.76h.06c.35-.96.61-2.21.86-3.4.1-.51.47-.78,1-.63.51.14.68.57.47,1.09-.49,1.17-.92,2.13-1.33,2.87.41-.02.78-.08,1.15-.12.16-.37.31-.72.45-1.11.21-.51.57-.68,1.06-.45.49.23.61.66.35,1.15-.76,1.37-1.64,2.6-2.46,3.58.57-.06,1.11-.16,1.62-.25-.08-.25-.16-.49-.27-.74-.08-.25.04-.43.23-.51.2-.08.41-.04.53.14.43.63.86,1.45,1.11,2.19.14.41.02.7-.37.82-.43.14-.72-.04-.82-.45-.06-.23-.1-.45-.16-.66-.43.16-.9.33-1.37.47.43.45.86.98,1.15,1.41.2.27.23.55.06.76h1.31c.37,0,.57.2.57.55,0,.37-.21.57-.57.57h-4.73c.18.9.41,1.72.7,2.46.45-.51.9-1.09,1.33-1.72.29-.43.68-.59,1.17-.33.45.25.55.78.27,1.19-.59.84-1.29,1.62-2.07,2.31.45.76.98,1.31,1.64,1.66.8.43.96.37.96-2.23,0-.37.2-.55.49-.55.27,0,.45.2.51.55Z" style="fill:#c76555;"/><path d="m418.03,171.16c-1.6,1.35-3.48,2.35-4.77,2.79-.33.1-.53.08-.66-.16-.14-.29-.08-.49.23-.68,1.33-.82,2.83-1.97,3.99-3.38.43-.51.92-.72,1.43-.25.51.47.53,1.02-.23,1.68Zm12.7-3.11c0,.37-.2.57-.57.57h-7.29v4.24c0,2.42-2.07,2.64-5.04,1.62-.31-.1-.43-.35-.35-.61.08-.29.31-.33.63-.31,2.44.23,2.91.1,2.91-.94v-3.99h-7.64c-.37,0-.57-.23-.57-.57s.2-.55.57-.55h16.77c.37,0,.57.2.57.55Zm-17.51-10.75c0-.35.2-.55.57-.55h15.77c.37,0,.57.21.57.55,0,.37-.2.57-.57.57h-4.89v1.49h3.42c.66,0,1.02.37,1.02,1.02v2.48c0,.66-.37,1.02-1.02,1.02h-12.82c-.66,0-1.02-.37-1.02-1.02v-2.48c0-.66.37-1.02,1.02-1.02h3.3v-1.49h-4.77c-.37,0-.57-.23-.57-.57Zm14.95,8.38c0,.37-.2.57-.57.57h-11.63c-.37,0-.57-.23-.57-.57s.2-.55.57-.55h11.63c.37,0,.57.2.57.55Zm-9.6-5.18h-2.31c-.14,0-.25.1-.25.25v1.78c0,.14.1.25.25.25h2.31v-2.27Zm1.72-1.13h2.66v-1.49h-2.66v1.49Zm0,3.4h2.66v-2.27h-2.66v2.27Zm9.5,10.63c-.45.53-1.06.51-1.58-.04-1-1.11-2.27-2.27-3.5-3.21-.27-.21-.31-.43-.16-.7.12-.25.37-.29.68-.16,1.45.61,3.13,1.6,4.34,2.56.57.47.7,1,.23,1.56Zm-5.12-10.63h2.44c.14,0,.25-.1.25-.25v-1.78c0-.14-.1-.25-.25-.25h-2.44v2.27Z" style="fill:#c76555;"/></g></g><g><g><path d="m26.65,116.45c0-.93.54-1.51,1.51-1.51h12.11v-11.79h-8.91c-.9,0-1.44-.5-1.44-1.4s.54-1.44,1.44-1.44h8.91v-9.13h-10.35c-.97,0-1.51-.58-1.51-1.51s.54-1.51,1.51-1.51h25.69c.93,0,1.51.54,1.51,1.51s-.57,1.51-1.51,1.51h-10.42v9.13h9.02c.9,0,1.44.54,1.44,1.44s-.54,1.4-1.44,1.4h-9.02v11.79h12.22c.97,0,1.51.58,1.51,1.51s-.54,1.51-1.51,1.51h-29.25c-.97,0-1.51-.54-1.51-1.51Zm23.93-4.35c-1.04-1.98-2.3-4.02-3.45-5.82-.36-.57-.36-1.19.04-1.58.47-.43,1.01-.32,1.54.04,1.83,1.15,3.88,2.98,5.5,4.85,1.19,1.26,1.04,2.59-.25,3.56-1.29.93-2.55.57-3.38-1.04Z" style="stroke:#fff; stroke-linecap:round; stroke-linejoin:round; stroke-width:4.78px;"/><path d="m100.07,95.86v21.74c0,1.51-.83,2.23-2.34,2.23s-2.34-.72-2.34-2.23v-1.37h-18.72v1.47c0,1.55-.79,2.26-2.34,2.26s-2.34-.72-2.34-2.26v-22.03c0-1.44.83-2.23,2.34-2.23s2.34.79,2.34,2.23v17.61h6.9v-24.9c0-1.55.9-2.37,2.44-2.37s2.44.83,2.44,2.37v24.9h6.94v-17.43c0-1.4.83-2.23,2.34-2.23s2.34.83,2.34,2.23Z" style="stroke:#fff; stroke-linecap:round; stroke-linejoin:round; stroke-width:4.78px;"/><path d="m145.2,100.1c0,.97-.5,1.51-1.44,1.51h-13.58v1.98c3.49,1.29,7.12,2.95,10.35,4.96,1.44.9,1.76,2.44.75,3.7-.97,1.19-2.3,1.44-3.59.22-2.16-2.05-4.89-4.31-7.51-6.18v11.36c0,1.37-.86,2.23-2.44,2.23s-2.44-.86-2.44-2.23v-16.03h-10.89c-.93,0-1.44-.54-1.44-1.51s.5-1.51,1.44-1.51h10.89v-10.64c0-1.37.86-2.26,2.44-2.26s2.44.9,2.44,2.26v3.45h10.6c.86,0,1.37.58,1.37,1.47s-.5,1.44-1.37,1.44h-10.6v4.28h13.58c.93,0,1.44.54,1.44,1.51Z" style="stroke:#fff; stroke-linecap:round; stroke-linejoin:round; stroke-width:4.78px;"/><path d="m169.86,101.03c0,5-.11,9.38-.5,14.55-.32,3.56-3.16,4.85-7.51,2.84-.65-.32-.9-.83-.72-1.44.22-.61.54-.83,1.29-.72,2.59.43,2.91.11,3.05-1.22.29-3.77.5-8.91.47-13.19,0-.29-.18-.43-.43-.43h-1.58c-.36,9.06-1.69,13.76-5.57,17.72-.5.5-1.11.54-1.54.18-.5-.4-.54-.93-.22-1.51,2.7-4.6,3.38-9.67,3.34-22.6h-2.44c-.83,0-1.33-.5-1.33-1.29s.5-1.26,1.33-1.26h4.17v-4.42c0-1.33.83-2.12,2.26-2.12s2.26.79,2.26,2.12v4.42h3.31c.83,0,1.33.47,1.33,1.26s-.5,1.29-1.33,1.29h-5.46c0,1.29,0,2.55-.04,3.7h3.74c1.37,0,2.08.75,2.12,2.12Zm-.22-3.99c1.76-2.44,2.87-5.64,3.63-9.2.32-1.44,1.4-2.01,2.87-1.69,1.47.32,1.9,1.44,1.44,2.95-.18.61-.4,1.26-.65,1.87h9.42c.83,0,1.33.5,1.33,1.29s-.5,1.33-1.33,1.33h-10.74c-1.08,1.83-2.52,3.56-4.31,4.92-.54.43-1.08.43-1.51,0s-.5-.93-.14-1.47Zm17.82,21.45c-1.04,1.15-2.37,1.22-3.67,0-3.13-2.98-5.57-8.8-5.97-18.04-.61.11-1.26.18-1.87.25v13.62c.97-.22,1.87-.43,2.73-.68.86-.22,1.29-.04,1.58.57.29.61.14,1.11-.54,1.62-1.87,1.33-4.89,2.59-7.22,3.09-1.37.32-2.37-.11-2.66-1.4-.32-1.33.29-2.16,1.8-2.37.07,0,.14-.04.22-.04v-16.06c0-1.22.72-1.87,2.05-1.87,1.11,0,1.83.47,2.01,1.37,2.12-.75,4.35-1.87,6.14-3.16,1.22-.9,2.34-.72,3.05.32.68,1.04.5,2.08-.9,2.8-1.15.57-2.59,1.08-4.1,1.44.18,2.01.47,3.77.86,5.35.86-.79,1.65-1.69,2.44-2.69.86-1.11,1.9-1.15,2.84-.32.93.86.75,1.94-.29,2.84-1.19,1.01-2.66,1.9-4.24,2.55,1.11,2.88,2.84,5.17,5.32,7.29,1.19,1.08,1.44,2.37.4,3.52Z" style="stroke:#fff; stroke-linecap:round; stroke-linejoin:round; stroke-width:4.78px;"/><path d="m229.11,118.75c-3.16.25-7.73.32-11.79.18-6.07-.25-9.45-.93-11.53-4.53-.18-.29-.4-.29-.54.04-.75,1.58-1.4,2.98-2.7,4.49-.93,1.11-2.05,1.01-2.95,0-.9-.97-.72-1.98.36-2.91,1.11-.97,2.3-1.98,3.05-2.91v-7.76c0-.25-.18-.43-.43-.43h-2.3c-.83,0-1.29-.47-1.29-1.26s.47-1.29,1.29-1.29h4.74c1.4,0,2.19.79,2.19,2.19v7.98c1.33,2.19,4.89,2.77,9.81,2.73,4.42,0,8.44-.4,11.89-.83,1.65-.22,2.48.54,2.52,1.98.04,1.47-.65,2.19-2.34,2.34Zm-29.11-23.39c-.47-.5-.5-.97-.22-1.47.32-.5.79-.65,1.44-.36,1.58.58,3.34,1.62,4.82,2.8,1.19.83,1.29,1.98.36,2.98-.97,1.04-2.01.97-2.98-.18-.93-1.29-2.19-2.66-3.41-3.77Zm.75-6.86c-.43-.47-.5-.97-.18-1.44.36-.47.79-.61,1.37-.4,1.55.57,3.31,1.55,4.78,2.66,1.19.83,1.26,1.94.36,2.95-.93,1.04-1.98.97-2.95-.18-.9-1.19-2.01-2.37-3.38-3.59Zm7.8,3.38h2.62v-3.95c0-1.19.75-1.94,2.16-1.94s2.12.72,2.12,1.94v3.95h2.48c.83,0,1.29.47,1.29,1.26s-.47,1.29-1.29,1.29h-3.99c0,1.11-.04,2.16-.07,3.16h3.2c1.4,0,2.19.75,2.19,2.23-.04,5.57-.25,9.02-.5,11.03-.4,3.38-3.56,4.17-6.86,2.12-.54-.36-.68-.86-.47-1.4.18-.54.61-.75,1.33-.61,1.98.4,2.23.25,2.41-.9.29-1.83.47-5.03.5-9.49,0-.32-.18-.47-.43-.47h-1.55c-.47,5.68-1.69,9.45-4.2,12.47-.43.54-.93.61-1.47.22-.5-.32-.61-.79-.29-1.47,1.83-3.77,2.41-7.47,2.44-16.89h-1.62c-.83,0-1.26-.47-1.26-1.29s.43-1.26,1.26-1.26Zm9.99,3.23c1.26-2.26,1.94-4.74,2.37-7.4.22-1.33,1.01-1.83,2.26-1.62,1.26.18,1.83,1.26,1.44,2.48-.18.58-.36,1.15-.58,1.69h6.15c.79,0,1.26.47,1.26,1.26s-.47,1.29-1.26,1.29h-7.29c-.43.79-.9,1.54-1.4,2.23.22-.07.43-.14.72-.14h6.22c1.72,0,2.41,1.22,1.51,2.84-.65,1.15-1.51,2.23-2.34,2.98.04.14.04.25.04.4v2.01h2.52c.83,0,1.29.47,1.29,1.29s-.47,1.26-1.29,1.26h-2.52v5.1c0,3.2-3.13,4.31-7.12,2.16-.65-.36-.83-.86-.68-1.4.18-.58.65-.83,1.4-.72,2.23.36,2.52.14,2.52-1.04v-4.1h-2.87c-.86,0-1.29-.47-1.29-1.26s.43-1.29,1.29-1.29h2.87v-2.01c0-1.11.68-1.76,1.94-1.76h.22c.25-.47.47-.93.65-1.44.07-.29-.04-.5-.32-.5h-4.02c-.83,0-1.26-.47-1.26-1.26,0-.14,0-.29.04-.43-.18.25-.36.47-.54.68-.5.54-1.04.65-1.55.29-.54-.4-.68-.9-.36-1.58Z" style="stroke:#fff; stroke-linecap:round; stroke-linejoin:round; stroke-width:4.78px;"/><path d="m258.26,101.75v16.17c0,1.22-.75,1.87-2.08,1.87s-2.08-.65-2.08-1.87v-2.77c-2.59.93-5.53,1.65-8.55,2.26-1.37.32-2.34-.22-2.55-1.58-.22-1.33.36-2.16,1.83-2.26.29-.04.57-.04.86-.07v-11.75h-2.01c-.79,0-1.26-.47-1.26-1.33s.47-1.29,1.26-1.29h29.54c.83,0,1.26.47,1.26,1.29s-.43,1.33-1.26,1.33h-14.95Zm-11-6.22v-5.97c0-1.33.75-2.08,2.08-2.08h18.22c1.33,0,2.08.75,2.08,2.08v5.97c0,1.33-.75,2.08-2.08,2.08h-18.22c-1.33,0-2.08-.75-2.08-2.08Zm6.83,6.22h-4.31v2.01h4.31v-2.01Zm0,4.38h-4.31v2.05h4.31v-2.05Zm0,6.43v-2.01h-4.31v2.59c1.51-.18,2.98-.36,4.31-.58Zm-2.44-21.09h13.62v-1.15c0-.25-.18-.43-.43-.43h-12.76c-.25,0-.43.18-.43.43v1.15Zm0,3.31c0,.25.18.43.43.43h12.76c.25,0,.43-.18.43-.43v-1.11h-13.62v1.11Zm22.6,23.61c-.61,1.44-1.87,1.69-3.27,1.04-1.69-.79-3.23-1.83-4.6-3.16-1.83,1.55-3.99,2.73-6.47,3.52-.68.22-1.19,0-1.4-.65-.22-.58-.07-1.15.58-1.47,2.12-1.04,3.88-2.3,5.32-3.77-1.54-2.23-2.66-4.92-3.16-8.01h-1.19c-.83,0-1.26-.43-1.26-1.26s.43-1.22,1.26-1.22h10.03c1.8,0,2.66,1.04,2.3,2.69-.65,2.84-1.76,5.28-3.34,7.37,1.11.75,2.37,1.37,3.77,1.9,1.58.65,2.01,1.65,1.44,3.02Zm-7.83-7.11c.93-1.51,1.54-3.16,1.87-4.85.07-.32-.07-.54-.36-.54h-4.49c.68,2.16,1.69,3.92,2.98,5.39Z" style="stroke:#fff; stroke-linecap:round; stroke-linejoin:round; stroke-width:4.78px;"/><path d="m317.12,91.15c0,.86-.5,1.37-1.37,1.37h-28.39c-.83,0-1.33-.5-1.33-1.37s.5-1.37,1.33-1.37h11.64v-1.73c0-1.37.9-2.23,2.59-2.23s2.59.86,2.59,2.23v1.73h11.57c.86,0,1.37.5,1.37,1.37Zm-1.15,14.01v10.17c0,4.1-3.67,5.25-9.16,3.2-.68-.29-.97-.75-.86-1.37.14-.65.58-.97,1.4-.9,3.56.4,4.1.07,4.1-1.72v-8.52c0-.25-.18-.43-.43-.43h-18.97c-.25,0-.43.18-.43.43v11.61c0,1.37-.83,2.08-2.26,2.08s-2.3-.72-2.3-2.08v-12.47c0-1.37.83-2.19,2.19-2.19h24.58c1.37,0,2.16.83,2.16,2.19Zm-22.14-3.7c-1.33,0-2.08-.75-2.08-2.08v-3.23c0-1.37.75-2.12,2.08-2.12h15.42c1.37,0,2.12.75,2.12,2.12v3.23c0,1.33-.75,2.08-2.12,2.08h-15.42Zm12.83,13.73h-10.28c-1.33,0-2.08-.75-2.08-2.08v-3.77c0-1.37.75-2.12,2.08-2.12h10.28c1.33,0,2.08.75,2.08,2.12v3.77c0,1.33-.75,2.08-2.08,2.08Zm-10.6-16.67c0,.25.18.43.43.43h10.1c.25,0,.43-.18.43-.43v-1.55c0-.25-.18-.43-.43-.43h-10.1c-.25,0-.43.18-.43.43v1.55Zm8.59,11.54c0-.25-.18-.43-.43-.43h-5.39c-.25,0-.43.18-.43.43v2.26c0,.25.18.43.43.43h5.39c.25,0,.43-.18.43-.43v-2.26Z" style="stroke:#fff; stroke-linecap:round; stroke-linejoin:round; stroke-width:4.78px;"/><path d="m360.64,110.77c0,.86-.5,1.37-1.37,1.37h-12v3.81c0,4.02-4.35,5.1-10.49,2.52-.65-.29-.9-.79-.75-1.4.14-.65.61-.86,1.4-.75,4.64.57,5.07.25,5.07-1.04v-3.13h-12.36c-.86,0-1.37-.5-1.37-1.37s.5-1.33,1.37-1.33h12.36v-.83c0-1.29.83-2.05,2.37-2.05.72,0,1.33.18,1.72.47,1.01-.4,2.08-.9,2.95-1.44.36-.22.22-.58-.18-.58h-15.56c-.83,0-1.33-.5-1.33-1.29s.5-1.29,1.33-1.29h19.55c1.19,0,1.94.32,2.3,1.01.43.86.14,1.94-1.19,2.77-2.08,1.29-4.71,2.3-7.19,2.91v.32h12c.86,0,1.37.5,1.37,1.33Zm-31.59-19.73c0-.86.5-1.37,1.37-1.37h11.82v-1.83c0-1.29.86-1.98,2.44-1.98s2.44.68,2.44,1.98v1.83h11.75c.86,0,1.33.5,1.33,1.37s-.47,1.4-1.33,1.4h-28.46c-.86,0-1.37-.5-1.37-1.4Zm23.93,2.8c1.33,0,2.08.72,2.08,2.08v3.02c0,1.33-.75,2.08-2.08,2.08h-16.6c-1.37,0-2.12-.75-2.12-2.08v-3.02c0-1.37.75-2.08,2.12-2.08h16.6Zm-2.34,2.8c0-.25-.18-.43-.43-.43h-11.1c-.25,0-.43.18-.43.43v1.55c0,.25.18.43.43.43h11.1c.25,0,.43-.18.43-.43v-1.55Z" style="stroke:#fff; stroke-linecap:round; stroke-linejoin:round; stroke-width:4.78px;"/></g><g><path d="m26.65,116.45c0-.93.54-1.51,1.51-1.51h12.11v-11.79h-8.91c-.9,0-1.44-.5-1.44-1.4s.54-1.44,1.44-1.44h8.91v-9.13h-10.35c-.97,0-1.51-.58-1.51-1.51s.54-1.51,1.51-1.51h25.69c.93,0,1.51.54,1.51,1.51s-.57,1.51-1.51,1.51h-10.42v9.13h9.02c.9,0,1.44.54,1.44,1.44s-.54,1.4-1.44,1.4h-9.02v11.79h12.22c.97,0,1.51.58,1.51,1.51s-.54,1.51-1.51,1.51h-29.25c-.97,0-1.51-.54-1.51-1.51Zm23.93-4.35c-1.04-1.98-2.3-4.02-3.45-5.82-.36-.57-.36-1.19.04-1.58.47-.43,1.01-.32,1.54.04,1.83,1.15,3.88,2.98,5.5,4.85,1.19,1.26,1.04,2.59-.25,3.56-1.29.93-2.55.57-3.38-1.04Z" style="fill:#754c24;"/><path d="m100.07,95.86v21.74c0,1.51-.83,2.23-2.34,2.23s-2.34-.72-2.34-2.23v-1.37h-18.72v1.47c0,1.55-.79,2.26-2.34,2.26s-2.34-.72-2.34-2.26v-22.03c0-1.44.83-2.23,2.34-2.23s2.34.79,2.34,2.23v17.61h6.9v-24.9c0-1.55.9-2.37,2.44-2.37s2.44.83,2.44,2.37v24.9h6.94v-17.43c0-1.4.83-2.23,2.34-2.23s2.34.83,2.34,2.23Z" style="fill:#754c24;"/><path d="m145.2,100.1c0,.97-.5,1.51-1.44,1.51h-13.58v1.98c3.49,1.29,7.12,2.95,10.35,4.96,1.44.9,1.76,2.44.75,3.7-.97,1.19-2.3,1.44-3.59.22-2.16-2.05-4.89-4.31-7.51-6.18v11.36c0,1.37-.86,2.23-2.44,2.23s-2.44-.86-2.44-2.23v-16.03h-10.89c-.93,0-1.44-.54-1.44-1.51s.5-1.51,1.44-1.51h10.89v-10.64c0-1.37.86-2.26,2.44-2.26s2.44.9,2.44,2.26v3.45h10.6c.86,0,1.37.58,1.37,1.47s-.5,1.44-1.37,1.44h-10.6v4.28h13.58c.93,0,1.44.54,1.44,1.51Z" style="fill:#754c24;"/><path d="m169.86,101.03c0,5-.11,9.38-.5,14.55-.32,3.56-3.16,4.85-7.51,2.84-.65-.32-.9-.83-.72-1.44.22-.61.54-.83,1.29-.72,2.59.43,2.91.11,3.05-1.22.29-3.77.5-8.91.47-13.19,0-.29-.18-.43-.43-.43h-1.58c-.36,9.06-1.69,13.76-5.57,17.72-.5.5-1.11.54-1.54.18-.5-.4-.54-.93-.22-1.51,2.7-4.6,3.38-9.67,3.34-22.6h-2.44c-.83,0-1.33-.5-1.33-1.29s.5-1.26,1.33-1.26h4.17v-4.42c0-1.33.83-2.12,2.26-2.12s2.26.79,2.26,2.12v4.42h3.31c.83,0,1.33.47,1.33,1.26s-.5,1.29-1.33,1.29h-5.46c0,1.29,0,2.55-.04,3.7h3.74c1.37,0,2.08.75,2.12,2.12Zm-.22-3.99c1.76-2.44,2.87-5.64,3.63-9.2.32-1.44,1.4-2.01,2.87-1.69,1.47.32,1.9,1.44,1.44,2.95-.18.61-.4,1.26-.65,1.87h9.42c.83,0,1.33.5,1.33,1.29s-.5,1.33-1.33,1.33h-10.74c-1.08,1.83-2.52,3.56-4.31,4.92-.54.43-1.08.43-1.51,0s-.5-.93-.14-1.47Zm17.82,21.45c-1.04,1.15-2.37,1.22-3.67,0-3.13-2.98-5.57-8.8-5.97-18.04-.61.11-1.26.18-1.87.25v13.62c.97-.22,1.87-.43,2.73-.68.86-.22,1.29-.04,1.58.57.29.61.14,1.11-.54,1.62-1.87,1.33-4.89,2.59-7.22,3.09-1.37.32-2.37-.11-2.66-1.4-.32-1.33.29-2.16,1.8-2.37.07,0,.14-.04.22-.04v-16.06c0-1.22.72-1.87,2.05-1.87,1.11,0,1.83.47,2.01,1.37,2.12-.75,4.35-1.87,6.14-3.16,1.22-.9,2.34-.72,3.05.32.68,1.04.5,2.08-.9,2.8-1.15.57-2.59,1.08-4.1,1.44.18,2.01.47,3.77.86,5.35.86-.79,1.65-1.69,2.44-2.69.86-1.11,1.9-1.15,2.84-.32.93.86.75,1.94-.29,2.84-1.19,1.01-2.66,1.9-4.24,2.55,1.11,2.88,2.84,5.17,5.32,7.29,1.19,1.08,1.44,2.37.4,3.52Z" style="fill:#754c24;"/><path d="m229.11,118.75c-3.16.25-7.73.32-11.79.18-6.07-.25-9.45-.93-11.53-4.53-.18-.29-.4-.29-.54.04-.75,1.58-1.4,2.98-2.7,4.49-.93,1.11-2.05,1.01-2.95,0-.9-.97-.72-1.98.36-2.91,1.11-.97,2.3-1.98,3.05-2.91v-7.76c0-.25-.18-.43-.43-.43h-2.3c-.83,0-1.29-.47-1.29-1.26s.47-1.29,1.29-1.29h4.74c1.4,0,2.19.79,2.19,2.19v7.98c1.33,2.19,4.89,2.77,9.81,2.73,4.42,0,8.44-.4,11.89-.83,1.65-.22,2.48.54,2.52,1.98.04,1.47-.65,2.19-2.34,2.34Zm-29.11-23.39c-.47-.5-.5-.97-.22-1.47.32-.5.79-.65,1.44-.36,1.58.58,3.34,1.62,4.82,2.8,1.19.83,1.29,1.98.36,2.98-.97,1.04-2.01.97-2.98-.18-.93-1.29-2.19-2.66-3.41-3.77Zm.75-6.86c-.43-.47-.5-.97-.18-1.44.36-.47.79-.61,1.37-.4,1.55.57,3.31,1.55,4.78,2.66,1.19.83,1.26,1.94.36,2.95-.93,1.04-1.98.97-2.95-.18-.9-1.19-2.01-2.37-3.38-3.59Zm7.8,3.38h2.62v-3.95c0-1.19.75-1.94,2.16-1.94s2.12.72,2.12,1.94v3.95h2.48c.83,0,1.29.47,1.29,1.26s-.47,1.29-1.29,1.29h-3.99c0,1.11-.04,2.16-.07,3.16h3.2c1.4,0,2.19.75,2.19,2.23-.04,5.57-.25,9.02-.5,11.03-.4,3.38-3.56,4.17-6.86,2.12-.54-.36-.68-.86-.47-1.4.18-.54.61-.75,1.33-.61,1.98.4,2.23.25,2.41-.9.29-1.83.47-5.03.5-9.49,0-.32-.18-.47-.43-.47h-1.55c-.47,5.68-1.69,9.45-4.2,12.47-.43.54-.93.61-1.47.22-.5-.32-.61-.79-.29-1.47,1.83-3.77,2.41-7.47,2.44-16.89h-1.62c-.83,0-1.26-.47-1.26-1.29s.43-1.26,1.26-1.26Zm9.99,3.23c1.26-2.26,1.94-4.74,2.37-7.4.22-1.33,1.01-1.83,2.26-1.62,1.26.18,1.83,1.26,1.44,2.48-.18.58-.36,1.15-.58,1.69h6.15c.79,0,1.26.47,1.26,1.26s-.47,1.29-1.26,1.29h-7.29c-.43.79-.9,1.54-1.4,2.23.22-.07.43-.14.72-.14h6.22c1.72,0,2.41,1.22,1.51,2.84-.65,1.15-1.51,2.23-2.34,2.98.04.14.04.25.04.4v2.01h2.52c.83,0,1.29.47,1.29,1.29s-.47,1.26-1.29,1.26h-2.52v5.1c0,3.2-3.13,4.31-7.12,2.16-.65-.36-.83-.86-.68-1.4.18-.58.65-.83,1.4-.72,2.23.36,2.52.14,2.52-1.04v-4.1h-2.87c-.86,0-1.29-.47-1.29-1.26s.43-1.29,1.29-1.29h2.87v-2.01c0-1.11.68-1.76,1.94-1.76h.22c.25-.47.47-.93.65-1.44.07-.29-.04-.5-.32-.5h-4.02c-.83,0-1.26-.47-1.26-1.26,0-.14,0-.29.04-.43-.18.25-.36.47-.54.68-.5.54-1.04.65-1.55.29-.54-.4-.68-.9-.36-1.58Z" style="fill:#754c24;"/><path d="m258.26,101.75v16.17c0,1.22-.75,1.87-2.08,1.87s-2.08-.65-2.08-1.87v-2.77c-2.59.93-5.53,1.65-8.55,2.26-1.37.32-2.34-.22-2.55-1.58-.22-1.33.36-2.16,1.83-2.26.29-.04.57-.04.86-.07v-11.75h-2.01c-.79,0-1.26-.47-1.26-1.33s.47-1.29,1.26-1.29h29.54c.83,0,1.26.47,1.26,1.29s-.43,1.33-1.26,1.33h-14.95Zm-11-6.22v-5.97c0-1.33.75-2.08,2.08-2.08h18.22c1.33,0,2.08.75,2.08,2.08v5.97c0,1.33-.75,2.08-2.08,2.08h-18.22c-1.33,0-2.08-.75-2.08-2.08Zm6.83,6.22h-4.31v2.01h4.31v-2.01Zm0,4.38h-4.31v2.05h4.31v-2.05Zm0,6.43v-2.01h-4.31v2.59c1.51-.18,2.98-.36,4.31-.58Zm-2.44-21.09h13.62v-1.15c0-.25-.18-.43-.43-.43h-12.76c-.25,0-.43.18-.43.43v1.15Zm0,3.31c0,.25.18.43.43.43h12.76c.25,0,.43-.18.43-.43v-1.11h-13.62v1.11Zm22.6,23.61c-.61,1.44-1.87,1.69-3.27,1.04-1.69-.79-3.23-1.83-4.6-3.16-1.83,1.55-3.99,2.73-6.47,3.52-.68.22-1.19,0-1.4-.65-.22-.58-.07-1.15.58-1.47,2.12-1.04,3.88-2.3,5.32-3.77-1.54-2.23-2.66-4.92-3.16-8.01h-1.19c-.83,0-1.26-.43-1.26-1.26s.43-1.22,1.26-1.22h10.03c1.8,0,2.66,1.04,2.3,2.69-.65,2.84-1.76,5.28-3.34,7.37,1.11.75,2.37,1.37,3.77,1.9,1.58.65,2.01,1.65,1.44,3.02Zm-7.83-7.11c.93-1.51,1.54-3.16,1.87-4.85.07-.32-.07-.54-.36-.54h-4.49c.68,2.16,1.69,3.92,2.98,5.39Z" style="fill:#754c24;"/><path d="m317.12,91.15c0,.86-.5,1.37-1.37,1.37h-28.39c-.83,0-1.33-.5-1.33-1.37s.5-1.37,1.33-1.37h11.64v-1.73c0-1.37.9-2.23,2.59-2.23s2.59.86,2.59,2.23v1.73h11.57c.86,0,1.37.5,1.37,1.37Zm-1.15,14.01v10.17c0,4.1-3.67,5.25-9.16,3.2-.68-.29-.97-.75-.86-1.37.14-.65.58-.97,1.4-.9,3.56.4,4.1.07,4.1-1.72v-8.52c0-.25-.18-.43-.43-.43h-18.97c-.25,0-.43.18-.43.43v11.61c0,1.37-.83,2.08-2.26,2.08s-2.3-.72-2.3-2.08v-12.47c0-1.37.83-2.19,2.19-2.19h24.58c1.37,0,2.16.83,2.16,2.19Zm-22.14-3.7c-1.33,0-2.08-.75-2.08-2.08v-3.23c0-1.37.75-2.12,2.08-2.12h15.42c1.37,0,2.12.75,2.12,2.12v3.23c0,1.33-.75,2.08-2.12,2.08h-15.42Zm12.83,13.73h-10.28c-1.33,0-2.08-.75-2.08-2.08v-3.77c0-1.37.75-2.12,2.08-2.12h10.28c1.33,0,2.08.75,2.08,2.12v3.77c0,1.33-.75,2.08-2.08,2.08Zm-10.6-16.67c0,.25.18.43.43.43h10.1c.25,0,.43-.18.43-.43v-1.55c0-.25-.18-.43-.43-.43h-10.1c-.25,0-.43.18-.43.43v1.55Zm8.59,11.54c0-.25-.18-.43-.43-.43h-5.39c-.25,0-.43.18-.43.43v2.26c0,.25.18.43.43.43h5.39c.25,0,.43-.18.43-.43v-2.26Z" style="fill:#754c24;"/><path d="m360.64,110.77c0,.86-.5,1.37-1.37,1.37h-12v3.81c0,4.02-4.35,5.1-10.49,2.52-.65-.29-.9-.79-.75-1.4.14-.65.61-.86,1.4-.75,4.64.57,5.07.25,5.07-1.04v-3.13h-12.36c-.86,0-1.37-.5-1.37-1.37s.5-1.33,1.37-1.33h12.36v-.83c0-1.29.83-2.05,2.37-2.05.72,0,1.33.18,1.72.47,1.01-.4,2.08-.9,2.95-1.44.36-.22.22-.58-.18-.58h-15.56c-.83,0-1.33-.5-1.33-1.29s.5-1.29,1.33-1.29h19.55c1.19,0,1.94.32,2.3,1.01.43.86.14,1.94-1.19,2.77-2.08,1.29-4.71,2.3-7.19,2.91v.32h12c.86,0,1.37.5,1.37,1.33Zm-31.59-19.73c0-.86.5-1.37,1.37-1.37h11.82v-1.83c0-1.29.86-1.98,2.44-1.98s2.44.68,2.44,1.98v1.83h11.75c.86,0,1.33.5,1.33,1.37s-.47,1.4-1.33,1.4h-28.46c-.86,0-1.37-.5-1.37-1.4Zm23.93,2.8c1.33,0,2.08.72,2.08,2.08v3.02c0,1.33-.75,2.08-2.08,2.08h-16.6c-1.37,0-2.12-.75-2.12-2.08v-3.02c0-1.37.75-2.08,2.12-2.08h16.6Zm-2.34,2.8c0-.25-.18-.43-.43-.43h-11.1c-.25,0-.43.18-.43.43v1.55c0,.25.18.43.43.43h11.1c.25,0,.43-.18.43-.43v-1.55Z" style="fill:#754c24;"/></g><g><path d="m374.75,118.67c-1.32-.84-1.79-2.42-1.11-3.79.63-1.21,2.11-1.69,3.42-1.05,1.63.74,4.06,1.69,6.11,1.69,4.9,0,8.38-2.11,8.38-6.53,0-4.95-3-6.8-9.91-6.85-1.58-.05-2.63-1-2.63-2.53,0-1.42,1.05-2.48,2.63-2.48,6.01,0,8.96-2.21,8.96-5.95s-2.21-5.53-6.27-5.53c-2.16,0-4.06,1-5.48,2.11-1.26,1-3.21,1.05-4.16-.53-.95-1.42-.47-2.9,1-3.95,2.42-1.79,6.48-2.69,9.43-2.69,7.06,0,12.65,3.32,12.65,9.8,0,4.27-2.74,7.53-7.69,8.75,5.95.84,9.27,4.32,9.27,9.69,0,7.64-6.06,11.91-15.33,11.91-3.06,0-7.01-.63-9.27-2.06Z" style="fill:#e65f44; stroke:#fff; stroke-linecap:round; stroke-linejoin:round; stroke-width:5.98px;"/><path d="m408.41,90.21c0-6.32,4.27-9.8,8.59-9.8s8.17,3.53,8.17,9.48c0,6.53-3.42,10.06-8.43,10.06-4.32,0-8.33-3.42-8.33-9.75Zm3.06,25.87l26.13-34.56c1-1.42,2.42-1.63,3.9-.58,1.42,1,1.69,2.37.58,3.79l-26.34,34.67c-1.05,1.42-2.48,1.63-3.79.53-1.37-1.11-1.53-2.42-.47-3.85Zm8.27-25.92c.05-3.42-.84-5.53-2.85-5.58-1.74,0-2.9,2-2.9,5.58s1.11,5.64,2.85,5.64c2,0,2.85-2.16,2.9-5.64Zm7.85,21.02c0-6.38,4.22-9.8,8.59-9.85,4.48,0,8.17,3.53,8.17,9.54,0,6.48-3.37,10.01-8.48,10.01-4.27,0-8.27-3.42-8.27-9.69Zm11.38-.21c0-3.37-.95-5.53-2.95-5.53-1.63,0-2.85,1.95-2.85,5.69,0,3.53,1.11,5.64,2.85,5.53,1.95-.05,2.9-2.16,2.95-5.69Z" style="fill:#e65f44; stroke:#fff; stroke-linecap:round; stroke-linejoin:round; stroke-width:5.98px;"/></g><g><path d="m374.75,118.67c-1.32-.84-1.79-2.42-1.11-3.79.63-1.21,2.11-1.69,3.42-1.05,1.63.74,4.06,1.69,6.11,1.69,4.9,0,8.38-2.11,8.38-6.53,0-4.95-3-6.8-9.91-6.85-1.58-.05-2.63-1-2.63-2.53,0-1.42,1.05-2.48,2.63-2.48,6.01,0,8.96-2.21,8.96-5.95s-2.21-5.53-6.27-5.53c-2.16,0-4.06,1-5.48,2.11-1.26,1-3.21,1.05-4.16-.53-.95-1.42-.47-2.9,1-3.95,2.42-1.79,6.48-2.69,9.43-2.69,7.06,0,12.65,3.32,12.65,9.8,0,4.27-2.74,7.53-7.69,8.75,5.95.84,9.27,4.32,9.27,9.69,0,7.64-6.06,11.91-15.33,11.91-3.06,0-7.01-.63-9.27-2.06Z" style="fill:#e65f44;"/><path d="m408.41,90.21c0-6.32,4.27-9.8,8.59-9.8s8.17,3.53,8.17,9.48c0,6.53-3.42,10.06-8.43,10.06-4.32,0-8.33-3.42-8.33-9.75Zm3.06,25.87l26.13-34.56c1-1.42,2.42-1.63,3.9-.58,1.42,1,1.69,2.37.58,3.79l-26.34,34.67c-1.05,1.42-2.48,1.63-3.79.53-1.37-1.11-1.53-2.42-.47-3.85Zm8.27-25.92c.05-3.42-.84-5.53-2.85-5.58-1.74,0-2.9,2-2.9,5.58s1.11,5.64,2.85,5.64c2,0,2.85-2.16,2.9-5.64Zm7.85,21.02c0-6.38,4.22-9.8,8.59-9.85,4.48,0,8.17,3.53,8.17,9.54,0,6.48-3.37,10.01-8.48,10.01-4.27,0-8.27-3.42-8.27-9.69Zm11.38-.21c0-3.37-.95-5.53-2.95-5.53-1.63,0-2.85,1.95-2.85,5.69,0,3.53,1.11,5.64,2.85,5.53,1.95-.05,2.9-2.16,2.95-5.69Z" style="fill:#e65f44;"/></g></g><line x1="173.59" y1="54.94" x2="297.41" y2="54.94" style="fill:none; stroke:#c76555; stroke-miterlimit:10; stroke-width:1.03px;"/></svg>