<?xml version="1.0" encoding="UTF-8"?>
<svg id="_圖層_1" data-name="圖層 1" xmlns="http://www.w3.org/2000/svg" viewBox="0 0 566 227">
  <defs>
    <style>
      .cls-1 {
        fill: none;
      }

      .cls-1, .cls-2, .cls-3, .cls-4, .cls-5, .cls-6, .cls-7, .cls-8 {
        stroke-width: 0px;
      }

      .cls-2 {
        fill: #785e49;
      }

      .cls-3 {
        fill: #595757;
      }

      .cls-4 {
        fill: #dc6a37;
      }

      .cls-5 {
        fill: #00a19b;
      }

      .cls-6 {
        fill: #fff;
      }

      .cls-7 {
        fill: #f7645e;
      }

      .cls-8 {
        fill: #696a68;
      }
    </style>
  </defs>
  <g>
    <path class="cls-8" d="m28.04,176.53h13.16v2.98H11.13v-2.98h13.43c-.3-.78-.64-1.49-1.01-2.17l3.59-.61c.3.85.61,1.76.91,2.77Zm4.87,28.55l-.74-2.88,2.6.14c1.25,0,1.89-.47,1.89-1.35v-8.56H15.69v12.75h-3.04v-15.53h27.06v12.01c0,2.27-1.35,3.42-3.99,3.42h-2.81Zm3.04-23.98v7.04h-19.52v-7.04h19.52Zm-2.88,12.96v7.1h-13.77v-7.1h13.77Zm-.2-10.52h-13.36v2.17h13.36v-2.17Zm-2.64,12.89h-8.05v2.37h8.05v-2.37Z"/>
    <path class="cls-8" d="m48.38,184.69v-1.62l-.91,1.12-1.66-2.3c1.76-2.1,3.42-4.6,4.91-7.48h2.1c1.59,1.83,3.08,3.69,4.47,5.65l-1.76,1.89v2.74h-2.2v3.08h3.25v2.91h-3.25v9.51c1.01-.27,2-.54,2.98-.81v2.94c-2.88.88-5.95,1.59-9.27,2.2l-.75-2.98c1.42-.2,2.81-.44,4.2-.71v-10.15h-3.59v-2.91h3.59v-3.08h-2.1Zm1.56,14.51l-2.1.54c-.41-2.27-.88-4.43-1.42-6.53l2.13-.68c.54,1.96.98,4.16,1.39,6.66Zm5.21-17.32c-1.25-1.86-2.3-3.28-3.15-4.3-.81,1.49-1.73,2.94-2.71,4.3h5.85Zm1.93,10.66c-.34,2.17-.78,4.09-1.32,5.78l-2-.74c.44-1.45.85-3.32,1.22-5.62l2.1.58Zm4.13-16.04v-2.54h2.98v2.54h3.28v2.77h-3.28v1.79h4.5c-.07-2.2-.1-4.53-.1-7.04h2.71c0,2.57.03,4.91.1,7.04h5.07v2.84h-4.97c.1,3.18.27,5.72.54,7.61.07.68.17,1.29.24,1.89.75-2.27,1.35-4.87,1.83-7.81l2.47,1.05c-.85,4.67-1.96,8.52-3.38,11.57.07.3.13.58.24.81.47,1.56.81,2.33,1.08,2.33s.54-1.59.81-4.77l2.27,1.25c-.61,4.74-1.46,7.1-2.57,7.1-.88,0-1.83-1.05-2.84-3.08-.17-.34-.3-.64-.44-.98-1.01,1.59-2.17,2.84-3.38,3.79l-1.05-1.56c-2.98.41-6.16.78-9.54,1.08l-.71-2.71c1.42-.1,2.84-.2,4.2-.34v-2.1h-3.48v-2.37h3.48v-1.66c-.95.03-1.93.07-2.94.07l-.74-2.2c3.75,0,6.93-.3,9.51-.91l1.22,2.1c-1.18.3-2.54.54-4.06.71v1.89h3.38v2.37h-3.38v1.79l3.72-.51v.98c1.02-1.08,1.89-2.37,2.67-3.89-.37-1.49-.71-3.15-1.01-5.01-.37-2.33-.64-5.18-.81-8.52h-12.08v-2.84h4.5v-1.79h-3.35v-2.77h3.35Zm6.26,8.73v6.06h-9.34v-6.06h9.34Zm-2.67,2.03h-3.99v1.96h3.99v-1.96Zm12.28-8.32l-2.06,1.42c-.74-1.32-1.69-2.77-2.88-4.36l2.06-1.29c1.22,1.62,2.2,3.01,2.88,4.23Z"/>
    <path class="cls-8" d="m86.88,198.12c-.74,2.27-1.73,4.5-2.94,6.66l-2.47-1.29c1.29-2.2,2.27-4.36,3.01-6.53l2.4,1.15Zm5.41-23.04v21.08h-9.61v-21.08h9.61Zm-2.88,5.95v-3.28h-3.82v3.28h3.82Zm0,6.09v-3.55h-3.82v3.55h3.82Zm0,2.57h-3.82v3.79h3.82v-3.79Zm4.03,12.99l-2.3,1.59c-.78-1.83-1.83-3.82-3.11-5.99l2.23-1.39c1.35,2.17,2.44,4.09,3.18,5.78Zm7.24-28.72v2.3h4.53v-2.3h2.98v2.3h3.79v2.5h-3.79v1.76h3.15v2.4h-3.15v1.79h4.46v2.5h-8.29v1.62h6.66v8.42h1.73v2.6h-1.73v2.57c0,1.73-1.01,2.6-3.04,2.6h-2.67l-.68-2.6,2.5.1c.64,0,.98-.27.98-.74v-1.93h-10.42v5.21h-2.91v-5.21h-1.89v-2.6h1.89v-8.42h6.6v-1.62h-8.15v-2.5h4.5v-1.79h-3.15v-2.4h3.15v-1.76h-3.82v-2.5h3.82v-2.3h2.94Zm-2.98,17.25v1.93h3.69v-1.93h-3.69Zm3.69,6.06v-1.96h-3.69v1.96h3.69Zm3.82-16.75v-1.76h-4.53v1.76h4.53Zm0,4.19v-1.79h-4.53v1.79h4.53Zm2.91,6.5h-3.75v1.93h3.75v-1.93Zm0,6.06v-1.96h-3.75v1.96h3.75Z"/>
    <path class="cls-8" d="m147.88,175.04v2.77h-9.91v2.17h7.54v7.98h-25.51v-7.98h7.54v-2.17h-9.91v-2.77h30.24Zm-.54,19.38v2.74h-12.65v7.88h-3.11v-7.88h-13.4v-2.74h29.16Zm-18.67,5.41c-2.27,1.89-5.04,3.52-8.29,4.94l-1.93-2.5c3.21-1.25,5.92-2.71,8.08-4.33l2.13,1.89Zm15.53-9.91v2.64h-22.63v-2.64h22.63Zm-16.64-7.31h-4.43v2.74h4.43v-2.74Zm7.38-4.8h-4.33v2.17h4.33v-2.17Zm0,4.8h-4.33v2.74h4.33v-2.74Zm12.75,19.93l-2.23,2.23c-1.79-1.49-4.33-3.11-7.58-4.87l2.13-2.03c3.04,1.56,5.58,3.11,7.68,4.67Zm-5.28-19.93h-4.43v2.74h4.43v-2.74Z"/>
    <path class="cls-8" d="m160.84,187.46l-2.13,2.1c-1.35-1.56-3.28-3.21-5.75-5.04l2.17-2.03c2.23,1.66,4.16,3.32,5.72,4.97Zm-.07-7.95l-2.1,2.1c-1.32-1.62-3.15-3.35-5.48-5.21l2.1-2c2.17,1.69,3.99,3.42,5.48,5.11Zm.27,13.13c-1.42,4.33-2.98,8.39-4.7,12.18l-2.94-1.35c1.89-3.89,3.52-7.85,4.87-11.91l2.77,1.08Zm4.7-16.37v-2.33h3.04v2.33h6.97v-2.33h3.04v2.33h4.63v2.88h-4.63v4.63h-5.11v1.83h9.1v16.44c0,2.03-1.01,3.08-3.01,3.08h-3.01l-.78-2.84,2.88.17c.68,0,1.01-.34,1.01-1.01v-2l-.95,1.32c-.88-1.08-1.52-2.6-1.86-4.57-.47,1.89-1.22,3.45-2.17,4.74l-1.12-2.17c1.22-1.42,1.96-3.28,2.27-5.65h-1.42v-2.17h3.42c0,3.42.61,5.92,1.83,7.51v-10.05h-6.19v16.24h-2.84v-4.43l-.81,1.12c-.91-1.15-1.56-2.81-1.89-4.94-.54,2.1-1.35,3.82-2.44,5.24l-.98-1.93v5.35h-2.88v-19.45h9v-1.83h-5.11v-4.63h-4.6v-2.88h4.6Zm1.42,16.85h-1.49v-2.17h3.45c0,3.59.58,6.22,1.73,7.92v-10.45h-6.12v10.86c1.29-1.56,2.1-3.59,2.44-6.16Zm1.62-11.91h6.97v-2.06h-6.97v2.06Z"/>
    <path class="cls-8" d="m189.9,189.79l-1.62-2.13c2.44-1.96,4.13-4.33,5.04-7.1l2.71.41c-.17.54-.34,1.08-.54,1.56h5.85v2.17c-.78,1.69-1.66,3.21-2.67,4.5,1.89,1.25,3.55,2.5,5.04,3.75l-2.13,2.13c-.17-.17-.34-.3-.47-.44v10.22h-2.84v-1.66h-5.04v1.83h-2.81v-9.88c-.34.1-.64.2-.95.3l-1.29-2.57c2.47-.64,4.6-1.76,6.39-3.32-.85-.58-1.69-1.15-2.57-1.69-.64.68-1.35,1.32-2.1,1.93Zm13.02-7.31h-2.77v-3.01h-8.59v3.01h-2.77v-5.68h5.58c-.27-.85-.58-1.62-.91-2.37l3.15-.51c.27.88.54,1.83.81,2.88h5.51v5.68Zm-10.11,11.6h7.71c-1.08-.98-2.3-1.96-3.65-2.91-1.25,1.15-2.61,2.13-4.06,2.91Zm5.45,6.39v-3.75h-5.04v3.75h5.04Zm-.03-15.46h-3.99c-.2.34-.41.64-.61.91.98.58,1.89,1.15,2.77,1.73.68-.81,1.29-1.69,1.83-2.64Zm11.81,15.36c-1.49,1.89-3.35,3.59-5.51,5.04l-1.89-2.44c2.06-1.29,3.79-2.81,5.21-4.53l2.2,1.93Zm-.81-19.93c.1-.81.17-1.66.24-2.5h-5.95v-2.84h15.43v2.84h-6.33c-.07.88-.14,1.69-.24,2.5h5.45v17.93h-13.29v-17.93h4.7Zm5.65,5.11v-2.47h-7.44v2.47h7.44Zm0,4.94v-2.37h-7.44v2.37h7.44Zm0,2.54h-7.44v2.57h7.44v-2.57Zm4.67,10.05l-2.17,2.13c-1.15-1.52-2.77-3.15-4.87-4.87l2-1.93c2,1.56,3.69,3.11,5.04,4.67Z"/>
    <path class="cls-8" d="m232.53,174.06v6.56h6.8c0,11.03-.17,17.83-.51,20.43-.34,2.57-2.03,3.86-5.01,3.86-.54,0-1.42-.07-2.64-.17l-.81-2.94c1.15.1,2.13.17,2.94.17,1.42,0,2.27-.81,2.5-2.37.2-1.59.3-6.87.37-15.87h-3.65c-.2,9.84-2.4,17.05-6.63,21.65l-2.4-2.13c3.75-4.06,5.72-10.59,5.85-19.52h-5.14v-3.11h5.14v-6.56h3.18Zm20.94,30.62h-3.11v-2.13h-5.34v2.13h-3.08v-25.95h11.54v25.95Zm-3.11-5.21v-17.66h-5.34v17.66h5.34Z"/>
    <path class="cls-8" d="m264.81,198.15c-.78,2.27-1.76,4.47-2.98,6.63l-2.57-1.32c1.25-2.2,2.27-4.36,3.01-6.53l2.54,1.22Zm5.72-23.04v21.08h-10.18v-21.08h10.18Zm-3.08,6.26v-3.48h-4.03v3.48h4.03Zm0,5.92v-3.28h-4.03v3.28h4.03Zm0,2.6h-4.03v3.52h4.03v-3.52Zm4.26,12.72l-2.33,1.69c-.81-1.83-1.93-3.82-3.35-5.99l2.33-1.45c1.49,2.2,2.6,4.13,3.35,5.75Zm6.97-24.56h3.79c.61-1.42,1.08-2.84,1.39-4.33l2.94.41c-.3,1.39-.74,2.71-1.35,3.92h3.96v12.08h-17.56v-12.08h3.89c-.51-1.32-1.08-2.54-1.69-3.65l3.15-.54c.51,1.22,1.01,2.64,1.49,4.19Zm9.54,27.13h-2.94v-1.22h-9.03v1.22h-2.98v-13.26h14.95v13.26Zm-9-24.42h-4.53v6.7h4.53v-6.7Zm-.64,5.34l-2,.54c-.34-1.49-.78-2.94-1.25-4.33l1.96-.64c.47,1.29.91,2.77,1.29,4.43Zm6.7,10.59v-2.1h-9.03v2.1h9.03Zm0,4.63v-2.2h-9.03v2.2h9.03Zm1.25-20.57h-4.67v6.7h4.67v-6.7Zm-.71,1.32c-.37,1.76-.85,3.31-1.45,4.67l-2-.71c.54-1.22,1.01-2.71,1.42-4.5l2.03.54Z"/>
    <path class="cls-8" d="m316.47,179.73v3.15h-8.05v21.01h-3.65v-21.01h-8.08v-3.15h19.79Z"/>
    <path class="cls-8" d="m338.84,181.35c1.73,1.35,2.81,3.35,3.25,6.06h-3.72c-.34-1.62-1.08-2.84-2.23-3.65-1.15-.85-2.71-1.25-4.6-1.25-2.33,0-4.2.78-5.58,2.4-1.49,1.69-2.2,4.03-2.2,7s.64,5.14,2,6.7c1.42,1.69,3.65,2.54,6.66,2.54,1.18,0,2.3-.17,3.35-.44,1.01-.27,1.89-.68,2.71-1.18v-5.24h-6.66v-3.15h10.35v10.15c-1.25.98-2.71,1.73-4.36,2.27-1.76.54-3.69.81-5.78.81-3.86,0-6.83-1.22-8.96-3.65-2-2.27-2.98-5.21-2.98-8.8s.98-6.6,2.98-8.93c2.1-2.5,4.94-3.72,8.49-3.72,3.08,0,5.51.68,7.31,2.1Z"/>
    <path class="cls-8" d="m362.35,188.56c1.56,1.73,2.37,3.92,2.37,6.6s-.78,4.84-2.33,6.53c-1.62,1.76-3.75,2.67-6.39,2.67s-4.77-.91-6.39-2.67c-1.56-1.69-2.33-3.89-2.33-6.53s.78-4.87,2.37-6.6c1.59-1.76,3.72-2.64,6.36-2.64s4.77.88,6.36,2.64Zm-10.22,2.27c-.81,1.12-1.18,2.57-1.18,4.33s.37,3.18,1.18,4.3c.91,1.29,2.2,1.96,3.86,1.96s2.94-.68,3.89-1.96c.81-1.15,1.22-2.57,1.22-4.3s-.41-3.21-1.22-4.33c-.95-1.32-2.23-1.96-3.89-1.96s-2.94.64-3.86,1.96Z"/>
    <path class="cls-8" d="m373.38,198.45c-.14,2.5-.51,4.74-1.05,6.7l-2.6-.78c.64-1.83,1.05-3.89,1.18-6.22l2.47.3Zm2.91-9v-1.86h-5.65v-12.55h14.07v12.55h-5.62v1.86h5.14v2.54h-5.14v1.96h5.92v2.84h-14.71v-2.84h5.99v-1.96h-5.21v-2.54h5.21Zm.2-11.98h-3.28v7.68h3.28v-7.68Zm-.27,6.22l-1.66.44c-.34-1.69-.74-3.32-1.22-4.87l1.66-.51c.47,1.42.88,3.04,1.22,4.94Zm1.05,20.8l-2.61.3c-.07-2.64-.13-4.7-.24-6.16l2.33-.3c.24,1.49.41,3.55.51,6.16Zm4.23-.68l-2.57.58c-.27-2.17-.58-4.09-.91-5.75l2.3-.47c.44,1.73.85,3.62,1.18,5.65Zm.68-26.35h-3.38v7.68h3.38v-7.68Zm-.41,1.42c-.2,1.83-.51,3.59-.98,5.28l-1.69-.57c.41-1.62.71-3.35.91-5.18l1.76.47Zm3.55,24.12l-2.33.85c-.37-1.89-.81-3.72-1.35-5.48l2.27-.64c.61,1.89,1.08,3.65,1.42,5.28Zm8.69-28.89v5.99h6.93v2.94h-6.93v5.41h5.58v16.71h-3.01v-1.66h-7.27v1.66h-3.04v-16.71h4.63v-14.34h3.11Zm2.57,26.49v-9.24h-7.27v9.24h7.27Z"/>
    <path class="cls-8" d="m412.43,175.65v-1.66h2.91v1.66h5.31v3.72h1.32v2.64h-1.32v3.72h-5.31v1.35h5.78v5.85h-6.29c-.27.51-.54.98-.78,1.42h7.17v2c-.88,1.56-2.17,2.94-3.79,4.19,1.46.61,2.94,1.29,4.43,2.03l-.07-.1c2.13-1.49,3.89-3.31,5.28-5.55-1.35-2.5-2.23-5.31-2.71-8.39-.37.74-.74,1.42-1.12,2.03l-2.03-2.5c1.86-3.59,3.11-8.36,3.79-14.38l3.15.54c-.2,1.62-.47,3.18-.74,4.63h8.59v3.08h-2.06c-.2,5.89-1.32,10.89-3.35,14.95,1.56,2.3,3.55,4.26,5.99,5.89l-1.93,2.54c-2.33-1.56-4.26-3.42-5.78-5.51-1.49,2.13-3.25,3.96-5.34,5.48l-1.52-2.5-1.66,2.17c-1.89-1.01-3.72-1.93-5.55-2.71-2.13,1.15-4.63,2.17-7.54,3.01l-1.76-2.3c2.3-.61,4.3-1.25,6.06-2-1.32-.51-2.64-.95-3.92-1.32.64-.98,1.25-1.93,1.86-2.84h-3.89v-2.44h5.38c.27-.51.54-.98.81-1.42h-5.11v-5.85h5.75v-1.35h-5.28v-3.72h-1.29v-2.64h1.29v-3.72h5.28Zm0,13.5h-3.01v1.69h3.01v-1.69Zm0-9.51v-1.76h-2.54v1.76h2.54Zm0,2.1h-2.54v1.79h2.54v-1.79Zm5.31,15.05h-5.11c-.41.61-.74,1.18-1.05,1.69.95.27,1.93.58,2.94.91,1.29-.81,2.37-1.66,3.21-2.6Zm.17-17.15v-1.76h-2.57v1.76h2.57Zm0,2.1h-2.57v1.79h2.57v-1.79Zm.47,7.41h-3.04v1.69h3.04v-1.69Zm8.53-2.67c.3,2.6.91,4.97,1.86,7.1,1.32-3.28,2.06-7.17,2.23-11.64h-4.26c-.51,1.89-1.08,3.59-1.69,5.11l1.86-.58Z"/>
    <path class="cls-7" d="m460.9,175.83v18.39h4.17v3.65h-4.17v6.01h-4.36v-6.01h-13.56v-4.36l13.71-17.68h4.2Zm-14.18,18.39h9.82v-12.57h-.12l-9.71,12.57Z"/>
    <path class="cls-7" d="m488.48,175.83v4.05h-13.4l-.79,7.7h.12c.86-.86,1.85-1.49,2.99-1.89,1.02-.39,2.16-.59,3.42-.59,2.63,0,4.79.86,6.44,2.59,1.65,1.73,2.51,4.13,2.51,7.15s-1.1,5.27-3.3,7.11c-2.04,1.65-4.44,2.48-7.23,2.48-2.55,0-4.75-.71-6.56-2.08-2.04-1.53-3.14-3.61-3.34-6.21h4.52c.2,1.53.79,2.67,1.81,3.42.86.63,2.08.98,3.62.98,1.65,0,3.06-.51,4.2-1.53,1.1-1.02,1.69-2.4,1.69-4.13,0-1.89-.51-3.38-1.45-4.44-.94-1.1-2.36-1.61-4.17-1.61-1.22,0-2.28.2-3.14.63-.98.47-1.73,1.18-2.28,2.16h-4.28l1.53-15.8h17.09Z"/>
    <path class="cls-7" d="m512.76,179.37c1.73,2.59,2.59,6.09,2.59,10.49s-.86,7.9-2.59,10.49c-1.85,2.71-4.4,4.09-7.66,4.09s-5.85-1.38-7.66-4.09c-1.73-2.59-2.59-6.09-2.59-10.49s.86-7.9,2.59-10.49c1.81-2.75,4.36-4.09,7.66-4.09s5.82,1.34,7.66,4.09Zm-12.38,3.54c-.63,1.69-.94,4.01-.94,6.95s.31,5.23.94,6.95c.9,2.48,2.48,3.73,4.71,3.73s3.77-1.26,4.71-3.73c.63-1.73.94-4.05.94-6.95s-.31-5.27-.94-6.95c-.94-2.51-2.51-3.73-4.71-3.73s-3.81,1.22-4.71,3.73Z"/>
    <path class="cls-8" d="m526.11,198.45c-.14,2.5-.51,4.74-1.05,6.7l-2.6-.78c.64-1.83,1.05-3.89,1.18-6.22l2.47.3Zm2.91-9v-1.86h-5.65v-12.55h14.07v12.55h-5.62v1.86h5.14v2.54h-5.14v1.96h5.92v2.84h-14.71v-2.84h5.99v-1.96h-5.21v-2.54h5.21Zm.2-11.98h-3.28v7.68h3.28v-7.68Zm-.27,6.22l-1.66.44c-.34-1.69-.74-3.32-1.22-4.87l1.66-.51c.47,1.42.88,3.04,1.22,4.94Zm1.05,20.8l-2.61.3c-.07-2.64-.13-4.7-.24-6.16l2.33-.3c.24,1.49.41,3.55.51,6.16Zm4.23-.68l-2.57.58c-.27-2.17-.58-4.09-.91-5.75l2.3-.47c.44,1.73.85,3.62,1.18,5.65Zm.68-26.35h-3.38v7.68h3.38v-7.68Zm-.41,1.42c-.2,1.83-.51,3.59-.98,5.28l-1.69-.57c.41-1.62.71-3.35.91-5.18l1.76.47Zm3.55,24.12l-2.33.85c-.37-1.89-.81-3.72-1.35-5.48l2.27-.64c.61,1.89,1.08,3.65,1.42,5.28Zm8.69-28.89v5.99h6.93v2.94h-6.93v5.41h5.58v16.71h-3.01v-1.66h-7.27v1.66h-3.04v-16.71h4.63v-14.34h3.11Zm2.57,26.49v-9.24h-7.27v9.24h7.27Z"/>
  </g>
  <g>
    <g>
      <g>
        <polygon class="cls-4" points="223.51 30.26 198.34 30.26 198.34 36.36 207.23 36.36 207.23 58.07 214.61 58.07 214.61 36.36 223.51 36.36 223.51 30.26"/>
        <path class="cls-8" d="m286.97,37.6h0c-.28-1.81-.97-3.28-2.06-4.38-1.08-1.08-2.46-1.86-4.12-2.31-3.61-.99-7.53-.84-11.27.24-2.08.6-4.05,1.5-5.88,2.68-1.83,1.18-3.49,2.65-4.95,4.39-1.46,1.74-2.62,3.78-3.45,6.05-.87,2.37-1.23,4.47-1.07,6.24.16,1.8.73,3.33,1.72,4.53.98,1.19,2.3,2.1,3.92,2.7,1.59.58,3.43.88,5.48.88,2.18,0,4.34-.31,6.42-.93,2.08-.62,4.06-1.54,5.89-2.76,1.82-1.22,3.47-2.73,4.91-4.51,1.44-1.78,2.6-3.86,3.44-6.18.96-2.62,1.3-4.85,1.03-6.64Zm-7.52,2.98c-.29,1.3-.65,2.54-1.07,3.69-.11.29-.29.78-.56,1.46-.26.66-.62,1.4-1.08,2.2-.46.81-1.02,1.66-1.67,2.54-.64.86-1.39,1.65-2.25,2.36-.84.7-1.82,1.28-2.89,1.73-1.06.44-2.26.66-3.57.66s-2.23-.19-2.91-.58c-.67-.38-1.18-.86-1.5-1.45-.33-.6-.52-1.28-.57-2.05-.05-.8,0-1.61.12-2.4.13-.81.31-1.57.53-2.28.23-.73.43-1.32.59-1.77.16-.45.4-1.05.71-1.79.3-.72.69-1.51,1.16-2.34.46-.82,1.03-1.66,1.68-2.49.64-.82,1.4-1.57,2.25-2.24.85-.66,1.81-1.2,2.87-1.61,1.05-.4,2.25-.61,3.57-.61,1.62,0,2.79.33,3.49.97.72.66,1.14,1.47,1.29,2.49.16,1.06.1,2.23-.18,3.49h0Z"/>
        <path class="cls-8" d="m244.34,45.93l-3.2,8.73c-.44.09-.98.19-1.63.3-.77.13-1.63.19-2.58.19-1.1,0-2.13-.18-3.07-.53-.91-.34-1.63-.88-2.18-1.66-.54-.77-.84-1.82-.88-3.13-.04-1.35.31-3.04,1.03-5.03.68-1.85,1.53-3.49,2.55-4.88,1.01-1.39,2.15-2.55,3.39-3.47,1.23-.91,2.58-1.6,4-2.05,1.43-.45,2.9-.68,4.38-.68h5.44s1.25-3.46,1.25-3.46c0,0-5.99-.01-6.31-.01-2.4,0-4.78.32-7.07.94-2.29.63-4.44,1.56-6.4,2.78-1.96,1.22-3.7,2.71-5.17,4.45-1.48,1.74-2.64,3.75-3.46,5.97-.82,2.24-1.12,4.27-.9,6.04.22,1.79.89,3.32,1.99,4.53,1.08,1.2,2.55,2.12,4.37,2.74,1.78.61,3.84.91,6.1.91,2.13,0,4.1-.21,5.86-.62,1.73-.4,3.41-.87,4.99-1.38l.24-.08,3.89-10.62h-6.64Z"/>
        <g>
          <path class="cls-3" d="m75,28.91h2.64v2.2h12.81v2.55h-28.46v-2.55h13v-2.2Zm9.04,26.41v.09c1.13.19,1.86.22,2.17.06.47-.31.69-.72.69-1.26v-7.87c0-.13-.06-.19-.19-.19h-20.9c-.13,0-.19.06-.19.19v11.71h-2.68v-13.69c0-.44.22-.66.63-.66h25.37c.44,0,.63.22.63.66v10.96c0,1.07-.41,1.89-1.26,2.49-1.04.69-2.9.72-5.64.13v-2.27h-13.88c-.22,0-.35-.13-.35-.35v-7.15c0-.22.13-.35.35-.35h14.89c.25,0,.38.13.38.35v7.15h-.03Zm1.86-13.1h-19.27c-.25,0-.38-.13-.38-.38v-6.36c0-.25.13-.38.38-.38h19.27c.25,0,.38.13.38.38v6.36c0,.25-.13.38-.38.38Zm-16.87-4.69c-.09,0-.13.03-.09.13v1.98c-.03.09,0,.13.09.13h14.45l.13-.13v-1.98c0-.09-.03-.13-.13-.13h-14.45Zm1.98,12.62c-.09,0-.13.03-.09.09v2.99l.09.13h10.52l.09-.13v-2.99l-.09-.09h-10.52Z"/>
          <path class="cls-3" d="m97.29,35.84l-2.33-1.54c2.61-1.73,4.34-3.4,5.07-4.94h2.42l-.16.47c1.16,1.04,2.39,2.01,3.72,2.9l-1.89,1.86c-1.01-.85-2.01-1.73-2.9-2.68-.91,1.2-2.24,2.52-3.94,3.94Zm1.86,8.59h-3.53v-2.42h3.53v-2.49h-2.77v-2.42h7.78v2.42h-2.58v2.49h3.31v2.42h-3.31v9.29l2.61-1.2,1.07,2.3c-2.01,1.13-5.13,2.33-9.26,3.53l-1.01-2.36,4.16-1.39v-10.17Zm-1.45,2.36c.41,2.49.72,4.63.88,6.33l-2.39.13c-.13-2.08-.44-4.16-.88-6.17l2.39-.28Zm7.37-.31c-.16,2.3-.44,4.12-.72,5.54l-2.24-.47c.44-2.2.69-4,.69-5.38l2.27.31Zm16.12,7.4c.22.69.44,1.04.6,1.04.09,0,.16-.09.19-.31.13-.47.19-1.86.19-4.12l2.33.66c-.22,4.03-.72,6.3-1.39,6.77-.31.25-.69.35-1.07.35-.44,0-.88-.25-1.29-.79-.63-.82-1.26-1.98-1.79-3.53-1.54,2.3-2.61,3.81-3.18,4.47l-2.08-1.29,1.2-1.39-8.94,1.67-.6-2.33,4.12-.66v-2.55h-3.53v-2.05h3.53v-1.89h-3.4v-2.05h9.13v2.05h-3.31v1.89h3.31v2.05h-3.31v2.17l2.86-.5.31,1.95c.98-1.2,1.98-2.64,2.99-4.31-1.04-3.75-1.67-8.44-1.92-14.01h-10.67v-2.17h3.87v-1.64h-3.02v-2.17h3.02v-2.01h2.42v2.01h2.96v2.17h-2.96v1.64h4.28l-.06-5.67,2.39.22v5.45h4.94v2.17h-4.88c.22,4.5.6,8.12,1.16,10.8.91-2.27,1.64-5.13,2.11-8.5l2.17.31c-.63,4.38-1.83,8.25-3.56,11.52l.85,2.58Zm-6.14-9.38h-8.63c-.19,0-.28-.09-.28-.31v-5.42c0-.19.09-.28.28-.28h8.63c.19,0,.28.09.28.28v5.42c0,.22-.09.31-.28.31Zm-6.61-3.94c-.09,0-.13.03-.09.09v1.67l.09.09h4.6l.13-.09v-1.67l-.13-.09h-4.6Zm13.03-11.24c.79.91,1.61,2.05,2.49,3.49l-1.86,1.23c-.88-1.48-1.7-2.61-2.39-3.4l1.76-1.32Z"/>
          <path class="cls-3" d="m148.82,36.25h-10.83v-2.01c-2.39.82-5.19,1.61-8.5,2.3l-.91-2.55c7.05-.98,11.9-2.71,14.39-5.04l2.27.91-.22.22c3.94,2.01,8.31,3.34,13.03,3.87l-.98,2.55c-2.46-.5-5.23-1.26-8.25-2.24v1.98Zm6.2,9.66h-23.67c-.22,0-.31-.13-.31-.35v-7.56c0-.22.09-.31.31-.31h23.67c.19,0,.31.09.31.31v7.56c0,.22-.13.35-.31.35Zm-1.51,12.06h-20.56c-.19,0-.31-.13-.31-.38v-9.85c0-.19.13-.31.31-.31h20.56c.25,0,.35.13.35.31v9.85c0,.25-.09.38-.35.38Zm-16.12-14.26h4.69v-3.84h-8.53c-.09,0-.13.03-.09.09v3.65l.09.09h3.81c-.6-1.07-1.1-1.86-1.57-2.42l2.08-1.35c.5.66,1.07,1.48,1.61,2.52l-2.08,1.26Zm13.82,7.9v-1.89c0-.09-.03-.13-.13-.13h-15.68c-.09,0-.13.03-.09.13v1.89h15.9Zm-15.9,2.17v1.86l.09.13h15.68l.13-.13v-1.86h-15.9Zm7.9-22.1c-.79.47-2.3,1.29-4.44,2.27h9.22c-1.51-.66-3.12-1.39-4.79-2.27Zm5.92,12.03h3.65l.13-.09v-3.65l-.13-.09h-8.25v3.84h1.61c1.04-1.45,1.79-2.71,2.27-3.75l2.14,1.23c-.38.79-.82,1.64-1.42,2.52Z"/>
          <path class="cls-3" d="m172.84,56.33c-3.56.88-6.89,1.57-10.04,1.98l-.31-2.64c3.18-.31,6.45-1.01,9.85-1.95l.5,2.61Zm15.8-2.86h-23.67c-.25,0-.38-.13-.38-.38v-14.7c0-.25.13-.38.38-.38h23.67c.25,0,.38.13.38.38v14.7c0,.25-.13.38-.38.38Zm-.54-16.97h-22.64c-.22,0-.35-.13-.35-.38v-5.89c0-.22.13-.35.35-.35h22.64c.25,0,.38.13.38.35v5.89c0,.25-.13.38-.38.38Zm-1.89,5.89v-1.95c0-.09-.03-.13-.13-.13h-18.61c-.09,0-.13.03-.09.13v1.95h18.83Zm-18.83,6.58v2.05c-.03.09,0,.13.09.16h18.61l.13-.16v-2.05h-18.83Zm18.83-2.17v-2.24h-18.83v2.24h18.83Zm-18.32-14.61c-.09,0-.13.03-.09.13v1.73c-.03.09,0,.13.09.16h17.79l.13-.16v-1.73c0-.09-.03-.13-.13-.13h-17.79Zm13.79,21.66c3.56.47,6.8,1.23,9.66,2.08l-.76,2.52c-2.96-.85-6.14-1.57-9.51-2.01l.6-2.58Z"/>
        </g>
      </g>
      <rect class="cls-1" x="62" y="28.91" width="225.06" height="29.53"/>
    </g>
    <g>
      <g>
        <path class="cls-5" d="m375.15,37.68c2.47,6.36.72,13.87-4.3,18.36-4.33,3.96-10.75,5.42-16.49,3.48-6.43-2.15-10.93-8.03-11.27-14.91-.34-6.5,3.02-12.38,8.66-15.47,5.15-2.99,12.89-2.5,17.59,1.11,2.58,1.77,4.64,4.55,5.81,7.44Z"/>
        <g>
          <path class="cls-6" d="m373.91,45.73h.53c-.1-.34-.59-.2-.79-.51.2-.07.46.03.66.14v-.03c-.1-.07-.33-.07-.26-.27-1.52-.58-2.87-1.3-4.16-2.29-1.06-.61-1.62-2.07-2.8-2.48-.2-.27-.26-.54-.43-.85l-.13.07c-.23-.27-.26-.61-.43-.88-.17-.24-.5-.3-.73-.3-.36.2-.92-.14-1.15.07l.2.1c-.07.1-.13.2-.3.17-.73-.54-1.35-1.36-1.91-2.07.3-.85-.79-1.05-1.19-1.66-.56-.44-1.29,0-1.85.17-.92-.27-1.88-.44-2.87-.54-.4.1-.63.54-.83.81-.59.85-.86,1.9-1.55,2.75-.2.37-.69.2-.96.48-.59,0-1.12.2-1.62.51-.03.07-.07.17-.17.13-.13.27-.33.51-.53.78-.5.68-1.42.88-2.11,1.29-.86.51-1.72.98-2.41,1.77l.03.03c-.36.54-.89.85-1.25,1.36.36-.1.3-.54.73-.47.1.27-.23.37-.26.54.13-.07.3-.17.43-.14-.07.2-.23.3-.4.44.17-.07.13.1.2.14.17.03.43-.27.66-.14-.2.2-.43.44-.56.54v.03c.13,0,.23,0,.3-.1.23-.03.43-.37.63-.41l-.36.51.4-.31c.1.14-.23.24-.07.37.3-.14.36-.44.63-.58-.03.27-.33.47-.46.71.13-.14.53-.24.46-.51.26-.27.59-.48.79-.81.73-.82,1.25-1.66,2.34-1.9.03.03-.07.07,0,.03.59-.51,1.52-.51,2.08-1.12.1-.14.26-.41.49-.34v-.07c.03-.14.17-.24.33-.2l.03.14c.46-.54,1.25-.34,1.62-.85v.07c.53-.17.89-.68,1.19-1.09.2-.31.33-.65.59-.85.17-.27.26-.61.53-.85.3-.03.69-.07.99.03.4.54,1.09.24,1.68.27.03.31.33,0,.36.31.49.24.66.98,1.09,1.39-.26.17-.59.44-.66.81-.43.07-.03.54-.46.58.13-.17.4-.17.53,0l-.1.1c-.5.24-.99.58-1.49.88l.07.07c-.13.1-.26.27-.36.34h.1s0,.01.02.02c-.05.03-.1.06-.08.14h.1s.02-.02.03-.03c0,0,0,0,0,0,.17,0,.33-.24.46-.1.03.03-.03.07-.03.1.16-.24.36.03.46.03-.23.2-.53.44-.79.64h.26c-.1.31-.46.2-.63.47.2,0,.07.24,0,.27.13-.03.26-.2.43-.1-.1.24-.4.27-.43.54.23-.14.36-.54.66-.41.03.1-.2.14-.1.31.13-.03.23-.2.4-.13.07,0,.13.07.1.13.13-.17.39,0,.53-.13.46-.65,1.35-.54,2.01-.85l-.03-.17c.1-.41.69-.31,1.02-.44.1-.41.63-.1.79-.47.2-.17.36.07.56.07.27-.13.63-.1.86-.24.63-.14,1.15.64,1.52,1.02.83,1.02,2.05,1.76,3.07,2.27-.56-.41-1.15-.68-1.72-1.12.03-.1.13-.07.2-.07.5.37.99.64,1.49.98,1.02.85,2.28,1.3,3.4,1.78l-.17-.14s-.03-.1.03-.14l.23.14c.03-.14.2-.14.3-.17-.17-.31-.59-.41-.89-.58-.86-.51-1.91-.79-2.67-1.54l.03-.03c.96.61,1.95,1.03,3.03,1.51.16.34.43.14.69.24-.07-.03-.2-.03-.2-.14Z"/>
          <path class="cls-6" d="m359.67,41.03l-.17-.07c.1.28-.23.21-.33.31l-.03-.1-.27.21c-.03.28-.43.1-.47.38.23,0,.43-.31.73-.28.03-.21.37-.31.53-.45Z"/>
          <path class="cls-6" d="m358.6,41.24c-.17.1-.3.1-.37.28.17-.04.3-.14.37-.28Z"/>
        </g>
      </g>
      <polygon class="cls-5" points="431.92 49.86 436.67 49.86 436.67 36.03 440.08 36.03 440.08 54.75 436.67 54.75 436.67 53.21 423.6 53.17 423.59 54.75 420.06 54.75 420.06 35.87 423.57 35.87 423.57 49.86 428.38 49.83 428.38 32.86 431.92 32.86 431.92 49.86"/>
      <g>
        <rect class="cls-5" x="457.49" y="46.86" width="3.54" height="2.26" transform="translate(314.55 486.49) rotate(-77.7)"/>
        <path class="cls-5" d="m470.17,49.44c2.6-1.89,3.09-2.24,3.09-2.24,0,0-2.02-2.07-2.09-2.09-.05-.02-1.77,1.15-2.48,1.64-.21-.68-.36-1.45-.42-2.33h3.75v-11.3h-10.68v18.16c-.37.07-.71.13-1.02.19l-.07-1.42-2.91.51v-5.23h3.19v-2.84h-3.19v-1.1h2.32v-1.39c.13.1.21.16.21.16l1.47-3.33c-3-1.66-3.76-4.03-3.76-4.03h-3s-1.01,3.01-4.01,4.67l1.47,3.33s.25-.21.62-.56v1.15h1.88v1.1h-3.47v2.84h3.47v5.72l-3.54.62.07,3.13,8.94-1.7-.02,1.66,7.19-1.26-.15-2.85c1.22,2.05,2.96,3.42,4.56,4.18l1.52-2.99c-.88-.62-2-1.28-2.94-2.38Zm-15.81-10.9c.66-.71,1.32-1.5,1.72-2.19.45.76,1.17,1.54,1.86,2.19h-3.58Zm10.12-2.32h4.41v1.49h-4.41v-1.49Zm0,14.5v-6.31h.92c0,2.37.58,4.33,1.45,5.91-.35.06-1.27.21-2.37.4Zm0-8.91v-1.5h4.41v1.5h-4.41Z"/>
        <polygon class="cls-5" points="453.84 50.05 453.31 46.27 450.97 46.7 451.5 50.5 453.84 50.05"/>
      </g>
      <g>
        <rect class="cls-5" x="490.71" y="33.05" width="12.37" height="3.31"/>
        <path class="cls-5" d="m504,40.19h-14.39l-2.42-1.73s-2.64,4.43-5.35,6.29l1.51,3.63s.7-.6,1.67-1.57v7.86h3.38v-11.8c.43-.6.82-1.22,1.16-1.84v2.43h7.69v7.44c0,.26-.21.47-.47.47h-3.91l1.31,3.3h4.04c1.37,0,2.48-1.11,2.48-2.48v-8.73h3.3v-3.27Z"/>
        <path class="cls-5" d="m489.61,34.7c-.97-.64-1.92-1.34-2.86-1.98-1.35,1.68-2.99,3.39-4.74,4.5l1.58,3.26c2.25-1.45,4.37-3.67,6.02-5.79Z"/>
      </g>
      <g>
        <polygon class="cls-5" points="400.24 50.89 400.23 44.78 407.51 44.78 407.51 41.45 400.23 41.42 400.23 36.61 408.03 36.61 408.03 33.16 388.93 33.16 388.93 36.61 396.63 36.61 396.63 41.42 389.42 41.42 389.42 44.78 396.63 44.78 396.63 50.89 387.85 50.89 387.85 54.27 408.98 54.27 408.98 50.89 400.24 50.89"/>
        <path class="cls-5" d="m403.48,45.84c-.75.21-1.38.99-1.45,1.76-.03.6.1,1.12.46,1.54.59.62,1.41.92,2.26.65.62-.16,1.21-.82,1.37-1.44.14-.59.03-1.21-.26-1.68-.52-.82-1.51-1.11-2.39-.85Z"/>
      </g>
    </g>
    <polygon class="cls-3" points="328.42 32.08 326.75 30.42 315.06 42.1 303.38 30.42 301.71 32.08 313.4 43.77 301.71 55.45 303.38 57.12 315.06 45.44 326.75 57.12 328.42 55.45 316.73 43.77 328.42 32.08"/>
  </g>
  <g>
    <g>
      <path class="cls-2" d="m101.28,97.96v5h-18.18v11.32h15.92v5h-15.92v14.94h19.11v5h-43.41v-5h19.11v-14.94h-15.83v-5h15.83v-11.32h-18.08v-5h41.45Zm-2.3,32.34l-4.07,2.89c-1.67-2.94-3.87-6.22-6.61-9.85l3.97-2.5c2.89,3.63,5.14,6.76,6.71,9.46Z"/>
      <path class="cls-2" d="m151.9,104.23v35.77h-5.14v-2.79h-29.64v2.74h-5.14v-36.01h5.14v28.37h12.25v-36.21h5.19v36.21h12.2v-28.07h5.14Z"/>
      <path class="cls-2" d="m204.77,116.33v4.12h-27.34l-2.69,4.12c-1.03-1.27-2.06-2.35-3.04-3.33v19.5h-5.1v-18.32c-1.37,1.57-2.79,3.14-4.36,4.7l-1.62-5.39c5-5.1,8.38-10.09,10.19-14.94h-9.21v-4.9h5.14c-.69-1.81-1.47-3.58-2.25-5.24l4.85-1.37c.98,2.4,1.71,4.61,2.25,6.62h4.21v4.31c-.93,3.09-2.3,6.17-4.12,9.21v.2c1.91,1.27,3.67,2.65,5.29,4.21v-3.48h27.78Zm-2.01,5.83v10.39h-3.04l-1.27,2.84h7.25v4.41h-29.89v-4.41h7.64l-1.13-2.84h-3.33v-10.39h23.76Zm-18.08-23.27v-3.04h4.61v3.04h3.48v-3.04h4.61v3.04h6.61v15.92h-25.97v-15.92h6.66Zm.69,6.17v-2.16h-2.99v2.16h2.99Zm0,3.38h-2.99v2.3h2.99v-2.3Zm12.84,17.64h-14.6v2.5h14.6v-2.5Zm-4.7,9.31l1.27-2.84h-7.5l1.13,2.84h5.1Zm-3.92-30.33h2.89v-2.16h-2.89v2.16Zm2.89,3.38h-2.89v2.3h2.89v-2.3Zm4.17-3.38h2.94v-2.16h-2.94v2.16Zm2.94,3.38h-2.94v2.3h2.94v-2.3Z"/>
      <path class="cls-2" d="m224.91,107.51v3.97c-1.47,2.45-3.23,4.85-5.19,7.3h5.68v3.33c-.69,3.53-1.47,6.42-2.35,8.72.39.29.78.59,1.13.93,1.57,1.47,3.04,2.55,4.41,3.14,1.42.54,3.43.88,6.08.98,2.65,0,5.68.05,9.11.05s8.13-.15,13.82-.34l-1.18,4.8h-12c-3.33,0-6.66-.1-9.95-.2-3.33-.15-5.83-.54-7.55-1.18-2.06-.83-3.87-2.11-5.54-3.87-.34-.39-.73-.54-1.13-.54-.88,0-2.4,2.11-4.46,6.42l-3.67-3.43c2.21-4.26,4.36-6.81,6.42-7.64.88-2.16,1.57-4.46,2.06-6.91h-6.91v-3.82c2.25-2.55,4.17-4.9,5.63-7.1h-6.42v-4.61h12Zm-.29-4.65l-3.28,3.28c-1.76-2.16-4.21-4.56-7.45-7.1l3.33-3.14c2.89,2.3,5.34,4.61,7.4,6.96Zm29.01-5.88v16.85h-9.75v2.55h12v13.43c0,3.09-1.62,4.65-4.75,4.65h-4.31l-1.08-4.07,4.07.2c1.03,0,1.57-.59,1.57-1.76v-8.33h-8.04v4.41c.88-.1,1.76-.2,2.55-.29-.29-.98-.54-1.91-.83-2.79l3.23-1.08c.83,2.35,1.57,5.05,2.25,8.13l-3.38.83c-.1-.59-.25-1.08-.34-1.57-3.04.64-7.59,1.18-13.57,1.67l-.69-4.21c2.35-.1,4.56-.2,6.57-.29v-4.8h-7.15v13.18h-4.56v-17.3h11.76v-2.55h-9.55v-16.85h24.01Zm-14.45,6.76v-2.89h-5v2.89h5Zm0,3.53h-5v2.89h5v-2.89Zm4.7-3.53h5.14v-2.89h-5.14v2.89Zm5.14,3.53h-5.14v2.89h5.14v-2.89Z"/>
      <path class="cls-2" d="m308.75,97.81c-.54.59-1.08,1.18-1.62,1.71h12.69v3.97c-5.29,9.41-15.09,14.75-29.45,15.97l-2.11-4.65c3.92-.2,7.45-.74,10.63-1.52-1.32-1.62-2.69-3.04-4.07-4.31l4.41-2.16c1.57,1.52,3.04,3.14,4.46,4.85,4.31-1.81,7.74-4.36,10.24-7.64h-12.69c-3.77,2.21-8.23,3.87-13.38,5l-2.99-4.66c8.62-1.57,15.09-4.56,19.3-8.97l4.56,2.4Zm-.1,33.66c4.56-2.01,8.23-4.75,11.02-8.23h-12.98c-4.21,1.96-9.16,3.48-14.9,4.66l-2.99-4.56c10.68-.98,18.47-4.12,23.47-9.36l4.36,2.35c-.78.78-1.62,1.57-2.5,2.3h12.15v3.97c-7.05,11.42-20.09,17.39-39.2,17.88l-2.11-4.9c7.2,0,13.47-.78,18.81-2.35-1.47-1.86-2.94-3.53-4.46-5l4.51-2.21c1.67,1.67,3.23,3.48,4.8,5.44Z"/>
      <path class="cls-2" d="m434.09,95.7v4.61h15.29v4.65h-15.29v4.26h18.18v4.8h-8.72c-.59,1.86-1.37,3.63-2.35,5.34h8.13v4.7h-15.24v4.26h18.96v4.8h-18.96v7.84h-5v-7.84h-18.96v-4.8h18.96v-4.26h-15.24v-4.7h7.94c-.59-1.91-1.27-3.67-1.96-5.34h-8.92v-4.8h18.18v-4.26h-15.29v-4.65h15.29v-4.61h5Zm1.96,23.67c.98-1.76,1.76-3.53,2.25-5.34h-13.23c.59,1.67,1.22,3.48,1.81,5.34h9.16Z"/>
      <path class="cls-2" d="m461.97,127.11l-1.62-5.39c5.68-5.1,9.55-10.09,11.66-14.94h-10.58v-4.9h6.17c-.64-1.81-1.32-3.58-2.11-5.24l4.8-1.37c.88,2.4,1.62,4.61,2.11,6.62h4.7v4.31c-1.18,3.53-2.94,6.96-5.39,10.39,2.25,1.42,4.31,2.99,6.17,4.75l-2.79,4.21c-1.18-1.42-2.3-2.65-3.43-3.67v19.16h-5v-18.42c-1.47,1.52-3.04,3.04-4.7,4.51Zm42.97-29.89v4.51h-27.05v-4.51h27.05Zm-.49,43.85h-4.8v-1.71h-16.66v1.71h-4.8v-22.83h26.26v22.83Zm-2.16-37.04v11.61h-21.85v-11.61h21.85Zm-13.38,22.49v-4.07h-5.93v4.07h5.93Zm0,8.43v-4.21h-5.93v4.21h5.93Zm8.57-26.9h-12.25v3.58h12.25v-3.58Zm-3.77,18.47h5.93v-4.07h-5.93v4.07Zm5.93,8.43v-4.21h-5.93v4.21h5.93Z"/>
    </g>
    <circle class="cls-7" cx="367.17" cy="119" r="37"/>
    <path class="cls-6" d="m351.87,131.3c-.19,3.55-.62,6.77-1.34,9.55l-4.08-1.25c.86-2.59,1.44-5.52,1.63-8.78l3.79.48Zm3.79-13.01v-2.3h-7.92v-18.1h20.16v18.1h-7.87v2.3h7.15v3.94h-7.15v2.35h8.21v4.42h-20.88v-4.42h8.3v-2.35h-7.25v-3.94h7.25Zm.34-16.66h-4.27v2.5l2.45-.77c.62,1.97,1.2,4.27,1.68,6.86l-2.59.67c-.43-2.21-.96-4.37-1.54-6.38v7.73h4.27v-10.61Zm1.39,38.16l-4.03.53c-.05-3.74-.14-6.67-.29-8.74l3.6-.48c.34,2.11.58,5.04.72,8.69Zm6-1.01l-3.98.91c-.34-3.07-.77-5.76-1.25-8.11l3.55-.72c.62,2.4,1.2,5.04,1.68,7.92Zm.53-37.16h-4.42v10.61h4.42v-10.61Zm-.29,1.97c-.24,2.59-.67,5.04-1.3,7.39l-2.59-.91c.58-2.26.96-4.66,1.2-7.2l2.69.72Zm5.14,34.04l-3.55,1.3c-.53-2.64-1.15-5.23-1.87-7.73l3.5-1.01c.82,2.69,1.44,5.14,1.92,7.44Zm12.48-40.95v8.35h9.65v4.56h-9.65v7.3h7.78v23.95h-4.7v-2.26h-9.7v2.26h-4.7v-23.95h6.43v-20.21h4.9Zm3.07,37.4v-12.67h-9.7v12.67h9.7Z"/>
  </g>
</svg>