<?xml version="1.0" encoding="UTF-8"?>
<svg xmlns="http://www.w3.org/2000/svg" xmlns:xlink="http://www.w3.org/1999/xlink" viewBox="0 0 600 400">
  <defs>
    <style>
      .cls-1 {
        clip-path: url(#clippath);
      }

      .cls-2, .cls-3, .cls-4, .cls-5, .cls-6, .cls-7, .cls-8, .cls-9, .cls-10, .cls-11, .cls-12, .cls-13, .cls-14, .cls-15, .cls-16, .cls-17 {
        stroke-width: 0px;
      }

      .cls-2, .cls-18 {
        fill: none;
      }

      .cls-19, .cls-20 {
        mix-blend-mode: multiply;
      }

      .cls-21 {
        clip-path: url(#clippath-1);
      }

      .cls-22 {
        clip-path: url(#clippath-4);
      }

      .cls-23 {
        clip-path: url(#clippath-3);
      }

      .cls-24 {
        clip-path: url(#clippath-2);
      }

      .cls-25 {
        isolation: isolate;
      }

      .cls-20 {
        opacity: .3;
      }

      .cls-3 {
        fill: #f2f5ed;
      }

      .cls-4 {
        fill: #5ad1ca;
      }

      .cls-5 {
        fill: #2c3320;
      }

      .cls-6 {
        fill: #70e0ff;
      }

      .cls-7 {
        fill: #dfe6d3;
      }

      .cls-8 {
        fill: #abaeff;
      }

      .cls-9 {
        fill: #333;
      }

      .cls-10 {
        fill: #ff8585;
      }

      .cls-11 {
        fill: #fff;
      }

      .cls-12 {
        fill: #ffe873;
      }

      .cls-13 {
        fill: #ffac59;
      }

      .cls-14 {
        fill: #e5f7dc;
      }

      .cls-15 {
        fill: #eafcf7;
      }

      .cls-16 {
        fill: #f0f5f3;
      }

      .cls-17 {
        fill: #f7931e;
      }

      .cls-18 {
        stroke: #e5f7dc;
        stroke-miterlimit: 10;
        stroke-width: .25px;
      }
    </style>
    <clipPath id="clippath">
      <circle class="cls-2" cx="443.98" cy="345.7" r="33.18" transform="translate(-114.41 415.2) rotate(-45)"/>
    </clipPath>
    <clipPath id="clippath-1">
      <circle class="cls-2" cx="126.74" cy="112.02" r="39.36" transform="translate(-36.3 66.98) rotate(-26.03)"/>
    </clipPath>
    <clipPath id="clippath-2">
      <circle class="cls-2" cx="485.14" cy="37.36" r="39.36" transform="translate(32.82 216.69) rotate(-26.03)"/>
    </clipPath>
    <clipPath id="clippath-3">
      <polygon class="cls-2" points="304.02 230.57 209.09 230.57 209.8 238.73 212.43 269.28 218.58 340.53 304.02 359.06 389.46 340.53 395.51 270.4 398.32 237.91 398.95 230.57 304.02 230.57"/>
    </clipPath>
    <clipPath id="clippath-4">
      <polygon class="cls-2" points="475.51 95.31 124.49 95.31 124.49 230.43 210.09 230.43 210.09 230.43 305.02 251.02 399.95 230.43 399.95 230.43 475.51 230.43 475.51 95.31"/>
    </clipPath>
  </defs>
  <g class="cls-25">
    <g id="_圖層_1" data-name="圖層 1">
      <g class="cls-1">
        <g>
          <rect class="cls-18" x="376.59" y="298.38" width="119.85" height=".79" transform="translate(-91.77 271.93) rotate(-31.48)"/>
          <rect class="cls-18" x="378.49" y="301.48" width="119.85" height=".79" transform="translate(-93.12 273.38) rotate(-31.48)"/>
          <rect class="cls-18" x="380.39" y="304.58" width="119.85" height=".79" transform="translate(-94.46 274.83) rotate(-31.48)"/>
          <rect class="cls-18" x="382.29" y="307.69" width="119.85" height=".79" transform="translate(-95.8 276.28) rotate(-31.48)"/>
          <rect class="cls-18" x="384.19" y="310.79" width="119.85" height=".79" transform="translate(-97.14 277.73) rotate(-31.48)"/>
          <rect class="cls-18" x="386.09" y="313.89" width="119.85" height=".79" transform="translate(-98.48 279.18) rotate(-31.48)"/>
          <rect class="cls-18" x="387.99" y="316.99" width="119.85" height=".79" transform="translate(-99.82 280.63) rotate(-31.48)"/>
          <rect class="cls-18" x="389.89" y="320.1" width="119.85" height=".79" transform="translate(-101.16 282.08) rotate(-31.48)"/>
          <rect class="cls-18" x="391.79" y="323.2" width="119.85" height=".79" transform="translate(-102.5 283.52) rotate(-31.48)"/>
          <rect class="cls-18" x="393.69" y="326.3" width="119.85" height=".79" transform="translate(-103.84 284.97) rotate(-31.48)"/>
          <rect class="cls-18" x="395.59" y="329.4" width="119.85" height=".79" transform="translate(-105.18 286.42) rotate(-31.48)"/>
          <rect class="cls-18" x="397.49" y="332.51" width="119.85" height=".79" transform="translate(-106.52 287.87) rotate(-31.48)"/>
          <rect class="cls-18" x="399.39" y="335.61" width="119.85" height=".79" transform="translate(-107.86 289.31) rotate(-31.48)"/>
          <rect class="cls-18" x="401.28" y="338.71" width="119.85" height=".79" transform="translate(-109.2 290.76) rotate(-31.48)"/>
          <rect class="cls-18" x="403.18" y="341.81" width="119.85" height=".79" transform="translate(-110.54 292.21) rotate(-31.48)"/>
          <rect class="cls-18" x="405.08" y="344.92" width="119.85" height=".79" transform="translate(-111.88 293.66) rotate(-31.48)"/>
          <rect class="cls-18" x="406.98" y="348.02" width="119.85" height=".79" transform="translate(-113.22 295.11) rotate(-31.48)"/>
          <rect class="cls-18" x="408.88" y="351.12" width="119.85" height=".79" transform="translate(-114.57 296.55) rotate(-31.48)"/>
          <rect class="cls-18" x="410.78" y="354.22" width="119.85" height=".79" transform="translate(-115.91 298) rotate(-31.48)"/>
          <rect class="cls-18" x="412.68" y="357.33" width="119.85" height=".79" transform="translate(-117.25 299.45) rotate(-31.48)"/>
          <rect class="cls-18" x="414.58" y="360.43" width="119.85" height=".79" transform="translate(-118.59 300.9) rotate(-31.48)"/>
          <rect class="cls-18" x="416.48" y="363.53" width="119.85" height=".79" transform="translate(-119.93 302.36) rotate(-31.48)"/>
          <rect class="cls-18" x="418.38" y="366.64" width="119.85" height=".79" transform="translate(-121.27 303.81) rotate(-31.48)"/>
          <rect class="cls-18" x="420.28" y="369.74" width="119.85" height=".79" transform="translate(-122.61 305.26) rotate(-31.48)"/>
          <rect class="cls-18" x="422.18" y="372.84" width="119.85" height=".79" transform="translate(-123.95 306.7) rotate(-31.48)"/>
          <rect class="cls-18" x="424.08" y="375.94" width="119.85" height=".79" transform="translate(-125.29 308.15) rotate(-31.48)"/>
        </g>
      </g>
      <g class="cls-21">
        <g>
          <rect class="cls-18" x="46.79" y="55.88" width="142.18" height=".94" transform="translate(-12.08 69.84) rotate(-31.48)"/>
          <rect class="cls-18" x="49.04" y="59.56" width="142.18" height=".94" transform="translate(-13.67 71.56) rotate(-31.48)"/>
          <rect class="cls-18" x="51.3" y="63.24" width="142.18" height=".94" transform="translate(-15.26 73.28) rotate(-31.48)"/>
          <rect class="cls-18" x="53.55" y="66.92" width="142.18" height=".94" transform="translate(-16.85 75) rotate(-31.48)"/>
          <rect class="cls-18" x="55.8" y="70.6" width="142.18" height=".94" transform="translate(-18.44 76.72) rotate(-31.48)"/>
          <rect class="cls-18" x="58.06" y="74.28" width="142.18" height=".94" transform="translate(-20.03 78.44) rotate(-31.48)"/>
          <rect class="cls-18" x="60.31" y="77.96" width="142.18" height=".94" transform="translate(-21.62 80.15) rotate(-31.48)"/>
          <rect class="cls-18" x="62.56" y="81.64" width="142.18" height=".94" transform="translate(-23.21 81.88) rotate(-31.48)"/>
          <rect class="cls-18" x="64.82" y="85.32" width="142.18" height=".94" transform="translate(-24.8 83.6) rotate(-31.48)"/>
          <rect class="cls-18" x="67.07" y="89.01" width="142.18" height=".94" transform="translate(-26.39 85.31) rotate(-31.48)"/>
          <rect class="cls-18" x="69.32" y="92.69" width="142.18" height=".94" transform="translate(-27.98 87.03) rotate(-31.48)"/>
          <rect class="cls-18" x="71.58" y="96.37" width="142.18" height=".94" transform="translate(-29.57 88.75) rotate(-31.48)"/>
          <rect class="cls-18" x="73.83" y="100.05" width="142.18" height=".94" transform="translate(-31.16 90.46) rotate(-31.48)"/>
          <rect class="cls-18" x="76.09" y="103.73" width="142.18" height=".94" transform="translate(-32.75 92.19) rotate(-31.48)"/>
          <rect class="cls-18" x="78.34" y="107.41" width="142.18" height=".94" transform="translate(-34.34 93.9) rotate(-31.48)"/>
          <rect class="cls-18" x="80.59" y="111.09" width="142.18" height=".94" transform="translate(-35.93 95.62) rotate(-31.48)"/>
          <rect class="cls-18" x="82.85" y="114.77" width="142.18" height=".94" transform="translate(-37.52 97.34) rotate(-31.48)"/>
          <rect class="cls-18" x="85.1" y="118.45" width="142.18" height=".94" transform="translate(-39.11 99.06) rotate(-31.48)"/>
          <rect class="cls-18" x="87.35" y="122.13" width="142.18" height=".94" transform="translate(-40.7 100.78) rotate(-31.48)"/>
          <rect class="cls-18" x="89.61" y="125.81" width="142.18" height=".94" transform="translate(-42.29 102.49) rotate(-31.48)"/>
          <rect class="cls-18" x="91.86" y="129.49" width="142.18" height=".94" transform="translate(-43.88 104.21) rotate(-31.48)"/>
          <rect class="cls-18" x="94.11" y="133.17" width="142.18" height=".94" transform="translate(-45.47 105.93) rotate(-31.48)"/>
          <rect class="cls-18" x="96.37" y="136.85" width="142.18" height=".94" transform="translate(-47.06 107.65) rotate(-31.48)"/>
          <rect class="cls-18" x="98.62" y="140.53" width="142.18" height=".94" transform="translate(-48.65 109.37) rotate(-31.48)"/>
          <rect class="cls-18" x="100.87" y="144.21" width="142.18" height=".94" transform="translate(-50.24 111.09) rotate(-31.48)"/>
          <rect class="cls-18" x="103.13" y="147.89" width="142.18" height=".94" transform="translate(-51.83 112.8) rotate(-31.48)"/>
        </g>
      </g>
      <g class="cls-24">
        <g>
          <rect class="cls-18" x="405.2" y="-18.78" width="142.18" height=".94" transform="translate(79.65 246.01) rotate(-31.48)"/>
          <rect class="cls-18" x="407.45" y="-15.1" width="142.18" height=".94" transform="translate(78.06 247.73) rotate(-31.48)"/>
          <rect class="cls-18" x="409.7" y="-11.42" width="142.18" height=".94" transform="translate(76.47 249.45) rotate(-31.48)"/>
          <rect class="cls-18" x="411.96" y="-7.74" width="142.18" height=".94" transform="translate(74.88 251.17) rotate(-31.48)"/>
          <rect class="cls-18" x="414.21" y="-4.06" width="142.18" height=".94" transform="translate(73.29 252.89) rotate(-31.48)"/>
          <rect class="cls-18" x="416.46" y="-.38" width="142.18" height=".94" transform="translate(71.7 254.61) rotate(-31.48)"/>
          <rect class="cls-18" x="418.72" y="3.3" width="142.18" height=".94" transform="translate(70.11 256.32) rotate(-31.48)"/>
          <rect class="cls-18" x="420.97" y="6.99" width="142.18" height=".94" transform="translate(68.52 258.04) rotate(-31.48)"/>
          <rect class="cls-18" x="423.22" y="10.67" width="142.18" height=".94" transform="translate(66.94 259.77) rotate(-31.48)"/>
          <rect class="cls-18" x="425.48" y="14.35" width="142.18" height=".94" transform="translate(65.34 261.47) rotate(-31.48)"/>
          <rect class="cls-18" x="427.73" y="18.03" width="142.18" height=".94" transform="translate(63.75 263.19) rotate(-31.48)"/>
          <rect class="cls-18" x="429.99" y="21.71" width="142.18" height=".94" transform="translate(62.16 264.92) rotate(-31.48)"/>
          <rect class="cls-18" x="432.24" y="25.39" width="142.18" height=".94" transform="translate(60.57 266.63) rotate(-31.48)"/>
          <rect class="cls-18" x="434.49" y="29.07" width="142.18" height=".94" transform="translate(58.98 268.36) rotate(-31.48)"/>
          <rect class="cls-18" x="436.75" y="32.75" width="142.18" height=".94" transform="translate(57.39 270.07) rotate(-31.48)"/>
          <rect class="cls-18" x="439" y="36.43" width="142.18" height=".94" transform="translate(55.8 271.78) rotate(-31.48)"/>
          <rect class="cls-18" x="441.25" y="40.11" width="142.18" height=".94" transform="translate(54.21 273.5) rotate(-31.48)"/>
          <rect class="cls-18" x="443.51" y="43.79" width="142.18" height=".94" transform="translate(52.62 275.23) rotate(-31.48)"/>
          <rect class="cls-18" x="445.76" y="47.47" width="142.18" height=".94" transform="translate(51.03 276.95) rotate(-31.48)"/>
          <rect class="cls-18" x="448.01" y="51.15" width="142.18" height=".94" transform="translate(49.44 278.66) rotate(-31.48)"/>
          <rect class="cls-18" x="450.27" y="54.83" width="142.18" height=".94" transform="translate(47.85 280.38) rotate(-31.48)"/>
          <rect class="cls-18" x="452.52" y="58.51" width="142.18" height=".94" transform="translate(46.26 282.1) rotate(-31.48)"/>
          <rect class="cls-18" x="454.77" y="62.19" width="142.18" height=".94" transform="translate(44.67 283.81) rotate(-31.48)"/>
          <rect class="cls-18" x="457.03" y="65.87" width="142.18" height=".94" transform="translate(43.08 285.54) rotate(-31.48)"/>
          <rect class="cls-18" x="459.28" y="69.55" width="142.18" height=".94" transform="translate(41.49 287.26) rotate(-31.48)"/>
          <rect class="cls-18" x="461.53" y="73.23" width="142.18" height=".94" transform="translate(39.9 288.97) rotate(-31.48)"/>
        </g>
      </g>
      <g>
        <path class="cls-14" d="m349.93,23.96c-.24,0-.48-.1-.65-.27-.04-.04-.08-.09-.11-.14-.03-.05-.06-.1-.09-.16-.02-.06-.04-.11-.05-.17-.01-.06-.02-.12-.02-.18s0-.12.02-.18c.01-.06.03-.12.05-.17.02-.06.05-.11.09-.16.03-.05.07-.1.11-.14.17-.17.41-.27.65-.27s.48.1.65.27c.04.04.08.09.11.14.03.05.06.1.09.16.02.05.04.11.05.17.01.06.02.12.02.18s0,.12-.02.18c-.01.06-.03.12-.05.17-.02.05-.05.11-.09.16-.03.05-.07.1-.11.14-.17.17-.41.27-.65.27Z"/>
        <path class="cls-14" d="m326.12,46.85c-.36-.36-.36-.94,0-1.3h0c.36-.36.94-.36,1.3,0h0c.36.36.36.94,0,1.3h0c-.18.18-.41.27-.65.27h0c-.23,0-.47-.09-.65-.27Zm2.9-2.9c-.36-.36-.36-.94,0-1.3h0c.36-.36.94-.36,1.3,0h0c.36.36.36.94,0,1.3h0c-.18.18-.41.27-.65.27h0c-.23,0-.47-.09-.65-.27Zm2.89-2.89c-.36-.36-.36-.94,0-1.3h0c.36-.36.94-.36,1.3,0h0c.36.36.36.94,0,1.3h0c-.18.18-.41.27-.65.27h0c-.23,0-.47-.09-.65-.27Zm2.9-2.9c-.36-.36-.36-.94,0-1.3h0c.36-.36.94-.36,1.3,0h0c.36.36.36.94,0,1.3h0c-.18.18-.41.27-.65.27h0c-.23,0-.47-.09-.65-.27Zm2.89-2.89c-.36-.36-.36-.94,0-1.3h0c.36-.36.94-.36,1.3,0h0c.36.36.36.94,0,1.3h0c-.18.18-.41.27-.65.27h0c-.23,0-.47-.09-.65-.27Zm2.9-2.9c-.36-.36-.36-.94,0-1.3h0c.36-.36.94-.36,1.3,0h0c.36.36.36.94,0,1.3h0c-.18.18-.41.27-.65.27h0c-.23,0-.47-.09-.65-.27Zm2.9-2.9c-.36-.36-.36-.94,0-1.3h0c.36-.36.94-.36,1.3,0h0c.36.36.36.94,0,1.3h0c-.18.18-.41.27-.65.27h0c-.23,0-.47-.09-.65-.27Zm2.89-2.89c-.36-.36-.36-.94,0-1.3h0c.36-.36.94-.36,1.3,0h0c.36.36.36.94,0,1.3h0c-.18.18-.41.27-.65.27h0c-.23,0-.47-.09-.65-.27Z"/>
        <path class="cls-14" d="m323.87,50.01c-.24,0-.48-.1-.65-.27-.04-.04-.08-.09-.11-.14-.03-.05-.06-.1-.09-.16-.02-.05-.04-.11-.05-.17-.01-.06-.02-.12-.02-.18,0-.24.1-.48.27-.65.04-.04.09-.08.14-.11.05-.03.1-.06.16-.08.06-.02.11-.04.17-.05.12-.02.24-.02.36,0,.06.01.12.03.17.05.05.02.11.05.16.08.05.03.1.07.14.11.17.17.27.41.27.65s-.1.48-.27.65c-.04.04-.09.08-.14.11-.05.04-.1.06-.16.09-.05.02-.11.04-.17.05-.06.01-.12.02-.18.02Z"/>
      </g>
      <g>
        <g>
          <path class="cls-8" d="m104.23,215.54c1.21,1.66,2.41,3.33,3.62,4.99-1.39,6.66-7.61,11.17-14.37,10.41-1.21-1.66-2.41-3.33-3.62-4.99,6.76.76,12.98-3.75,14.37-10.41Z"/>
          <path class="cls-9" d="m94.98,231.46c-.51,0-1.03-.03-1.55-.09-.12-.01-.23-.08-.31-.18l-3.62-4.99c-.1-.14-.11-.33-.02-.48.09-.15.25-.24.43-.22,6.57.73,12.54-3.59,13.89-10.07.04-.17.17-.3.34-.34.17-.04.35.03.45.17l3.62,4.99c.07.1.1.23.07.35-1.34,6.41-6.91,10.84-13.3,10.85Zm-1.26-.94c6.43.62,12.25-3.59,13.66-9.9l-2.95-4.07c-1.71,6.09-7.34,10.17-13.66,9.9l2.95,4.07Z"/>
        </g>
        <g>
          <path class="cls-8" d="m541.93,99.6c-1.11,1.73-2.23,3.45-3.34,5.18-6.71,1.12-13.17-3.05-14.91-9.62,1.11-1.73,2.23-3.45,3.34-5.18,1.75,6.57,8.21,10.74,14.91,9.62Z"/>
          <path class="cls-9" d="m536.38,105.4c-6.09,0-11.51-4.05-13.12-10.13-.03-.12-.01-.25.06-.35l3.34-5.18c.09-.15.26-.22.44-.2.17.03.31.15.36.32,1.7,6.39,7.9,10.39,14.42,9.3.17-.03.34.05.44.19.1.15.1.33,0,.48l-3.34,5.18c-.07.1-.17.17-.3.19-.77.13-1.53.19-2.29.19Zm-12.22-10.17c1.75,6.22,7.79,10.11,14.18,9.14l2.72-4.22c-6.3.61-12.14-3.16-14.18-9.14l-2.72,4.22Z"/>
        </g>
        <g>
          <path class="cls-10" d="m79.76,326.56c1.28-1.58,2.56-3.16,3.84-4.74,6.72-.38,12.62,4.4,13.63,11.05-1.28,1.58-2.56,3.16-3.84,4.74-1.01-6.65-6.92-11.44-13.63-11.05Z"/>
          <path class="cls-9" d="m93.39,338.05s-.08,0-.11-.02c-.17-.05-.29-.19-.32-.36-.98-6.46-6.65-11.05-13.17-10.68-.17,0-.34-.08-.42-.24-.08-.15-.06-.34.05-.48l3.84-4.74c.08-.1.19-.15.32-.16,6.98-.4,13.04,4.51,14.09,11.43.02.12-.02.25-.09.34l-3.84,4.74c-.08.1-.21.16-.34.16Zm-12.7-11.95c6.25.08,11.58,4.4,12.95,10.5l3.12-3.85c-1.06-6.3-6.57-10.76-12.95-10.5l-3.12,3.85Z"/>
        </g>
        <g>
          <path class="cls-6" d="m297.95,68.21c-.54,1.96-1.07,3.92-1.61,5.88-5.99,3.06-13.33,1.05-16.93-4.63.54-1.96,1.07-3.92,1.61-5.88,3.61,5.68,10.94,7.68,16.93,4.63Z"/>
          <path class="cls-9" d="m290.39,75.97c-4.47,0-8.79-2.24-11.35-6.27-.07-.1-.09-.23-.05-.35l1.61-5.88c.05-.17.19-.29.36-.32.17-.03.34.05.44.2,3.5,5.52,10.54,7.44,16.36,4.47.15-.08.34-.06.48.05.13.11.19.29.15.46l-1.61,5.88c-.03.12-.11.22-.22.28-1.97,1.01-4.08,1.49-6.15,1.49Zm-10.51-6.58c3.5,5.34,10.35,7.21,16.08,4.39l1.31-4.78c-5.75,2.45-12.38.64-16.08-4.39l-1.31,4.78Z"/>
        </g>
        <g>
          <path class="cls-6" d="m501.23,346.51c1.42,1.45,2.84,2.91,4.26,4.36-.4,6.71-5.84,12.02-12.56,12.26-1.42-1.45-2.84-2.91-4.26-4.36,6.72-.24,12.16-5.54,12.56-12.26Z"/>
          <path class="cls-9" d="m492.93,363.57c-.12,0-.23-.05-.31-.13l-4.26-4.36c-.12-.12-.16-.31-.09-.47.06-.16.22-.27.39-.28,6.53-.23,11.75-5.32,12.14-11.85.01-.17.12-.32.28-.39.16-.06.35-.02.47.1l4.26,4.36c.09.09.13.21.12.33-.41,6.98-6,12.43-12.98,12.67,0,0-.01,0-.02,0Zm-3.28-4.43l3.46,3.54c6.38-.32,11.46-5.28,11.93-11.65l-3.46-3.54c-.8,6.2-5.72,10.99-11.93,11.65Z"/>
        </g>
        <g>
          <circle class="cls-10" cx="567.24" cy="285.16" r="4.16" transform="translate(84.96 698.05) rotate(-67.26)"/>
          <path class="cls-9" d="m567.24,289.76c-2.54,0-4.6-2.06-4.6-4.6s2.06-4.6,4.6-4.6,4.6,2.06,4.6,4.6-2.06,4.6-4.6,4.6Zm0-8.32c-2.05,0-3.72,1.67-3.72,3.72s1.67,3.72,3.72,3.72,3.72-1.67,3.72-3.72-1.67-3.72-3.72-3.72Z"/>
        </g>
        <g>
          <polygon class="cls-10" points="118.45 69.75 128.33 64.05 118.45 58.35 118.45 69.75"/>
          <path class="cls-9" d="m118.45,70.19c-.08,0-.15-.02-.22-.06-.14-.08-.22-.22-.22-.38v-11.41c0-.16.08-.3.22-.38.14-.08.3-.08.44,0l9.88,5.7c.14.08.22.22.22.38s-.08.3-.22.38l-9.88,5.7c-.07.04-.14.06-.22.06Zm.44-11.08v9.89l8.56-4.94-8.56-4.94Z"/>
        </g>
      </g>
      <g>
        <g>
          <path class="cls-14" d="m393.91,59.17c-.06,0-.12,0-.18-.02-.06-.01-.12-.03-.17-.05-.05-.02-.11-.05-.16-.09-.05-.03-.1-.07-.14-.11-.17-.17-.27-.41-.27-.65,0-.06,0-.12.02-.18.01-.06.03-.12.05-.17.02-.05.05-.11.08-.16.03-.05.07-.1.11-.14.04-.04.09-.08.14-.11.05-.03.1-.06.16-.08.05-.02.11-.04.17-.05.12-.02.24-.02.36,0,.06.01.12.03.17.05.05.02.11.05.16.08.05.03.1.07.14.11.04.04.08.09.11.14.03.05.06.1.08.16.02.05.04.11.05.17.01.06.02.12.02.18,0,.24-.1.48-.27.65-.04.04-.09.08-.14.11-.05.03-.1.06-.16.09-.05.02-.11.04-.17.05-.06.01-.12.02-.18.02Z"/>
          <path class="cls-14" d="m370.1,82.06c-.36-.36-.36-.94,0-1.3h0c.36-.36.94-.36,1.3,0h0c.36.36.36.94,0,1.3h0c-.18.18-.41.27-.65.27h0c-.23,0-.47-.09-.65-.27Zm2.9-2.89c-.36-.36-.36-.94,0-1.3h0c.36-.36.94-.36,1.3,0h0c.36.36.36.94,0,1.3h0c-.18.18-.41.27-.65.27h0c-.23,0-.47-.09-.65-.27Zm2.9-2.9c-.36-.36-.36-.94,0-1.3h0c.36-.36.94-.36,1.3,0h0c.36.36.36.94,0,1.3h0c-.18.18-.41.27-.65.27h0c-.23,0-.47-.09-.65-.27Zm2.89-2.9c-.36-.36-.36-.94,0-1.3h0c.36-.36.94-.36,1.3,0h0c.36.36.36.94,0,1.3h0c-.18.18-.41.27-.65.27h0c-.23,0-.47-.09-.65-.27Zm2.9-2.89c-.36-.36-.36-.94,0-1.3h0c.36-.36.94-.36,1.3,0h0c.36.36.36.94,0,1.3h0c-.18.18-.41.27-.65.27h0c-.23,0-.47-.09-.65-.27Zm2.89-2.9c-.36-.36-.36-.94,0-1.3h0c.36-.36.94-.36,1.3,0h0c.36.36.36.94,0,1.3h0c-.18.18-.41.27-.65.27h0c-.23,0-.47-.09-.65-.27Zm2.9-2.89c-.36-.36-.36-.94,0-1.3h0c.36-.36.94-.36,1.3,0h0c.36.36.36.94,0,1.3h0c-.18.18-.41.27-.65.27h0c-.23,0-.47-.09-.65-.27Zm2.9-2.9c-.36-.36-.36-.94,0-1.3h0c.36-.36.94-.36,1.3,0h0c.36.36.36.94,0,1.3h0c-.18.18-.41.27-.65.27h0c-.23,0-.47-.09-.65-.27Z"/>
          <path class="cls-14" d="m367.85,85.22c-.24,0-.48-.1-.65-.27-.04-.04-.08-.09-.11-.14-.03-.05-.06-.1-.08-.16-.02-.05-.04-.11-.05-.17-.01-.06-.02-.12-.02-.18s0-.12.02-.18c.01-.06.03-.12.05-.17.02-.05.05-.11.08-.16.03-.05.07-.1.11-.14.17-.17.41-.27.65-.27s.48.1.65.27c.04.04.08.09.11.14.04.05.06.1.09.16.02.05.04.11.05.17.01.06.02.12.02.18s0,.12-.02.18c-.01.06-.03.12-.05.17-.02.05-.05.11-.09.16-.03.05-.07.1-.11.14-.17.17-.41.27-.65.27Z"/>
        </g>
        <path class="cls-14" d="m393.91,78.71c-.31,0-.62-.12-.86-.36-.47-.47-.47-1.24,0-1.72l21.44-21.44c.47-.47,1.24-.47,1.72,0s.47,1.24,0,1.72l-21.44,21.44c-.24.24-.55.36-.86.36Z"/>
      </g>
      <g>
        <path class="cls-14" d="m196.76,357.2c-.39,0-.71-.32-.71-.71v-7.74c0-.39.32-.71.71-.71s.71.32.71.71v7.74c0,.39-.32.71-.71.71Z"/>
        <path class="cls-14" d="m200.63,353.33h-7.74c-.39,0-.71-.32-.71-.71s.32-.71.71-.71h7.74c.39,0,.71.32.71.71s-.32.71-.71.71Z"/>
      </g>
      <path class="cls-14" d="m147.93,376.56c-.3,0-.55-.24-.55-.54l-.05-4.92c0-.15.06-.29.16-.39.1-.1.25-.16.39-.16l4.36.04-.04-4.36c0-.15.06-.29.16-.39.1-.1.25-.16.39-.16l4.36.04-.04-4.36c0-.15.06-.29.16-.39.1-.1.24-.16.39-.16l4.92.05c.3,0,.55.25.54.55,0,.3-.25.54-.55.54l-4.36-.04.04,4.36c0,.15-.06.29-.16.39-.1.1-.24.16-.39.16l-4.36-.04.04,4.36c0,.15-.06.29-.16.39-.1.1-.25.15-.39.16l-4.36-.04.04,4.36c0,.3-.24.55-.54.55h0Z"/>
      <path class="cls-14" d="m73.21,34.59c-.3,0-.55-.24-.55-.54l-.05-4.92c0-.15.06-.29.16-.39.1-.1.24-.16.39-.16l4.36.04-.04-4.36c0-.15.06-.29.16-.39.1-.1.24-.16.39-.16l4.36.04-.04-4.36c0-.15.06-.29.16-.39s.24-.16.39-.16l4.92.05c.3,0,.55.25.54.55,0,.3-.25.54-.55.54h0l-4.36-.04.04,4.36c0,.15-.06.29-.16.39-.1.1-.25.16-.39.16l-4.36-.04.04,4.36c0,.15-.06.29-.16.39-.1.1-.25.16-.39.16l-4.36-.04.04,4.36c0,.3-.24.55-.54.55h0Z"/>
      <path class="cls-17" d="m179.87,303.15c-9.37-2.51-11.16-4.55-13.36-15.24-2.2,10.69-3.99,12.72-13.36,15.24,9.37,2.51,11.16,4.55,13.36,15.24,2.2-10.69,3.99-12.72,13.36-15.24Z"/>
      <path class="cls-17" d="m490.71,147.14c-9.37-2.51-11.16-4.55-13.36-15.24-2.2,10.69-3.99,12.72-13.36,15.24,9.37,2.51,11.16,4.55,13.36,15.24,2.2-10.69,3.99-12.72,13.36-15.24Z"/>
      <path class="cls-17" d="m455.37,234.57c-3.82-1.02-4.55-1.86-5.45-6.21-.9,4.36-1.63,5.19-5.45,6.21,3.82,1.02,4.55,1.86,5.45,6.21.9-4.36,1.63-5.19,5.45-6.21Z"/>
      <path class="cls-17" d="m201.93,271.13c-3.82-1.02-4.55-1.86-5.45-6.21-.9,4.36-1.63,5.19-5.45,6.21,3.82,1.02,4.55,1.86,5.45,6.21.9-4.36,1.63-5.19,5.45-6.21Z"/>
      <circle class="cls-14" cx="163.09" cy="22.21" r="3.33"/>
      <circle class="cls-14" cx="496.35" cy="104.34" r="3.33"/>
      <circle class="cls-11" cx="498.02" cy="4.3" r="1.66" transform="translate(12.34 114.54) rotate(-13.28)"/>
      <circle class="cls-14" cx="128.41" cy="221.93" r="3.49" transform="translate(-37.61 26.54) rotate(-10.3)"/>
      <g>
        <g>
          <g>
            <path class="cls-12" d="m556.6,217.68s0,0,0,0l-.02-.06h0c-1-3.58-10.94-4.2-22.29-1.38-11.42,2.84-19.95,8.08-19.04,11.72,0,0,0,0,0,0l1.5,6.04c.9,3.63,10.89,4.28,22.31,1.44,11.42-2.84,19.95-8.08,19.04-11.72l-1.5-6.04s0,0,0,0Z"/>
            <path class="cls-9" d="m526.01,237.87c-.73,0-1.43-.02-2.1-.06-4.59-.3-7.29-1.56-7.81-3.65l-1.5-6.04c-.52-2.09,1.28-4.47,5.19-6.88,3.65-2.25,8.74-4.25,14.33-5.64,10.18-2.53,21.69-2.76,23.07,1.78,0,.03.02.05.03.08l.02.06s0,0,0,0l1.5,6.04c.52,2.09-1.28,4.47-5.19,6.88-3.65,2.25-8.74,4.25-14.33,5.64-4.71,1.17-9.31,1.79-13.2,1.79Zm21.24-22.72c-3.54,0-7.94.52-12.81,1.73-5.46,1.36-10.42,3.3-13.96,5.48-3.24,1.99-4.96,4.02-4.61,5.44l1.5,6.04c.7,2.81,9.7,3.89,21.51.96,5.46-1.36,10.42-3.3,13.96-5.48,3.24-1.99,4.96-4.02,4.61-5.44l-1.5-6.05s0-.02-.01-.04c-.45-1.62-3.72-2.65-8.69-2.65Z"/>
          </g>
          <path class="cls-13" d="m519.05,226.85c1.61-2.22,4.25-3.49,6.68-4.61,2.69-1.24,5.51-2.13,8.38-2.86,2.79-.71,5.63-1.2,8.49-1.48,1.4-.14,2.8-.25,4.2-.23.76,0,5.31.19,4.44,1.67-.18.3.19.71.5.5.82-.56.76-1.67.01-2.29-1.08-.89-2.95-.95-4.28-1.01-3.6-.16-7.36.37-10.89,1.11-3.49.73-6.84,1.85-10.08,3.32-2.8,1.27-6.34,2.79-7.89,5.61-.16.29.25.52.44.26h0Z"/>
          <g>
            <path class="cls-13" d="m520.86,232.48c-.07.76.06,1.76.48,2.41.14.23.43.15.53-.07.16-.39-.04-.79-.15-1.17-.13-.44-.25-.86-.44-1.29-.1-.22-.4-.08-.41.11h0Z"/>
            <path class="cls-13" d="m525.08,232.74c.19.53.38,1.05.59,1.58.16.41.26.9.65,1.15.15.1.37,0,.41-.17.12-.47-.18-.94-.36-1.38-.2-.49-.41-.97-.63-1.46-.16-.37-.79-.11-.66.28h0Z"/>
            <path class="cls-13" d="m529.43,232.25c.02.47.14.9.27,1.36.13.42.18.89.46,1.23.15.18.47.08.52-.14.1-.45-.11-.96-.25-1.39-.16-.45-.35-.84-.66-1.21-.11-.13-.36-.03-.35.14h0Z"/>
            <path class="cls-13" d="m533.92,231.9c.08.46.19.92.31,1.37.1.37.13.81.49,1.01.12.07.31.04.38-.1.19-.38-.01-.73-.12-1.12-.13-.45-.25-.9-.37-1.36-.12-.46-.78-.26-.7.19h0Z"/>
            <path class="cls-13" d="m539.24,230.33c.1.51.25,1,.42,1.49.14.42.23.9.54,1.21.2.2.49.03.52-.22.05-.46-.21-.96-.37-1.39-.16-.45-.34-.9-.56-1.34-.16-.32-.62-.09-.56.23h0Z"/>
            <path class="cls-13" d="m544.26,228.79c.11.45.25.88.41,1.31.14.37.26.8.54,1.08.19.2.57.05.56-.23-.01-.4-.23-.77-.37-1.14-.16-.4-.31-.81-.46-1.21-.16-.41-.78-.26-.67.18h0Z"/>
            <path class="cls-13" d="m549.32,226.84c.13.48.25.96.39,1.43.12.41.21.88.53,1.18.17.16.51.11.56-.15.09-.45-.09-.85-.24-1.27-.17-.47-.35-.93-.52-1.4-.16-.44-.85-.27-.72.2h0Z"/>
            <path class="cls-13" d="m554.1,223.92c-.15.44.11,1.06.23,1.5.07.29.17,1.01.64.85.45-.15.17-.83.09-1.13-.12-.46-.23-1.06-.62-1.36-.13-.1-.31.01-.35.14h0Z"/>
          </g>
        </g>
        <path class="cls-11" d="m517.53,228.87c.12,1.12,1.84,1.43,2.74,1.64,1.72.39,3.52.42,5.28.34,3.91-.17,7.79-.9,11.56-1.94,3.66-1.01,7.29-2.28,10.74-3.88,1.68-.77,3.3-1.67,4.76-2.8.96-.74,2.25-1.68,2.07-3.04-.04-.29-.42-.26-.56-.07-.97,1.33-1.92,2.26-3.32,3.18-1.28.84-2.65,1.55-4.05,2.18-2.98,1.34-6.09,2.46-9.22,3.41-3.09.94-6.27,1.64-9.48,1.98-1.55.16-3.11.27-4.67.22-.83-.02-1.66-.08-2.48-.22-.66-.11-2.74-.34-2.97-1.05-.07-.2-.41-.18-.39.05h0Z"/>
      </g>
      <g>
        <g>
          <g>
            <path class="cls-12" d="m81.01,169.35s0,0,0,0v-.08s0,0,0,0c.44-4.5-10.57-9.59-24.71-11.38-14.22-1.81-26.21.39-26.78,4.92,0,0,0,0,0,0l-.96,7.52c-.58,4.52,10.48,9.66,24.7,11.46,14.22,1.81,26.21-.39,26.78-4.92l.96-7.52s0,0,0,0Z"/>
            <path class="cls-9" d="m62.91,183.23c-3.08,0-6.38-.21-9.74-.64-6.96-.88-13.4-2.58-18.13-4.78-5.08-2.36-7.59-4.98-7.26-7.58l.96-7.52c.33-2.6,3.42-4.51,8.93-5.52,5.14-.94,11.8-.98,18.75-.09,6.91.88,13.32,2.56,18.05,4.74,5.01,2.31,7.55,4.88,7.36,7.43,0,.03,0,.07,0,.1v.08s-.01,0-.01,0l-.96,7.52c-.33,2.6-3.42,4.51-8.93,5.52-2.66.49-5.72.73-9.02.73Zm-16.16-25.17c-9.65,0-16.08,2.16-16.42,4.85l-.96,7.52c-.22,1.76,2.15,3.97,6.35,5.92,4.59,2.13,10.86,3.78,17.66,4.65,6.8.86,13.28.84,18.26-.08,4.55-.84,7.4-2.38,7.62-4.14l.96-7.52h0s0,0,0,0c0-.02,0-.03,0-.05.17-1.76-2.23-3.97-6.43-5.9-4.59-2.11-10.83-3.75-17.58-4.61-3.39-.43-6.57-.62-9.46-.62Z"/>
          </g>
          <path class="cls-13" d="m34.3,163.26c2.92-1.91,6.66-2.16,10.06-2.34,3.59-.19,7.2.06,10.77.51,3.67.47,7.3,1.26,10.85,2.3,1.59.47,3.19.96,4.7,1.64.75.34,5.11,2.36,3.57,3.49-.4.3-.17.92.34.81,1.39-.28,1.49-1.9.78-2.87-.98-1.35-2.89-2.17-4.37-2.8-3.99-1.72-8.39-2.77-12.66-3.47-4.4-.72-8.82-.94-13.28-.65-3.67.23-8.19.42-11.14,2.9-.27.23.08.68.38.49h0Z"/>
          <g>
            <path class="cls-13" d="m33.93,170.38c-.43.87-.72,2.06-.53,3.03.05.26.41.33.59.15.35-.36.32-.79.36-1.27.05-.6.12-1.17.09-1.78-.01-.25-.38-.39-.5-.14h0Z"/>
            <path class="cls-13" d="m38.59,172.61c-.02.65-.03,1.3-.03,1.95,0,.54-.1,1.13.21,1.6.14.21.44.22.58,0,.3-.47.19-1.06.18-1.6,0-.65-.04-1.3-.07-1.95-.03-.56-.86-.57-.88,0h0Z"/>
            <path class="cls-13" d="m43.74,173.96c-.17.52-.23,1.03-.27,1.58-.04.52-.19,1.11-.04,1.61.1.32.52.37.7.09.28-.45.27-1.06.29-1.58.03-.59,0-1.14-.2-1.69-.08-.23-.4-.24-.48,0h0Z"/>
            <path class="cls-13" d="m49.02,175.44c-.1.54-.19,1.08-.25,1.62-.05.48-.23,1.05.07,1.47.12.17.37.24.54.07.35-.36.28-.84.33-1.32.06-.57.12-1.15.18-1.72.05-.49-.77-.61-.87-.12h0Z"/>
            <path class="cls-13" d="m55.75,176.01c-.1.58-.15,1.16-.19,1.75-.03.56-.16,1.22.05,1.75.11.27.52.4.68.09.24-.5.2-1.04.22-1.59.02-.64.03-1.27-.03-1.91-.04-.38-.65-.54-.73-.1h0Z"/>
            <path class="cls-13" d="m62.11,176.58c-.07.53-.1,1.05-.11,1.58-.01.48-.07,1.01.11,1.46.14.35.64.4.77,0,.15-.46.07-.98.07-1.46,0-.53,0-1.05,0-1.58,0-.56-.78-.53-.85,0h0Z"/>
            <path class="cls-13" d="m68.72,176.59c-.1,1-.51,2.42-.08,3.37.13.29.56.24.7,0,.28-.46.25-1.02.26-1.54.02-.61.01-1.22.02-1.83.01-.59-.85-.57-.91,0h0Z"/>
            <path class="cls-13" d="m75.41,175.36c-.35.47-.32,1.29-.39,1.85-.04.33-.22,1.15.36,1.17.53.02.55-.72.59-1.07.07-.6.25-1.41-.06-1.95-.11-.21-.37-.16-.5,0h0Z"/>
          </g>
        </g>
        <path class="cls-11" d="m31.72,164.88c-.39,1.46,1.92,2.77,2.96,3.4,1.66,1.01,3.48,1.75,5.32,2.37,4.41,1.49,9.01,2.35,13.64,2.84,4.68.5,9.46.67,14.17.36,2.15-.14,4.31-.42,6.39-1,1.39-.39,3.61-.92,3.96-2.57.06-.29-.26-.61-.54-.42-1.49.99-2.86,1.61-4.61,2.04-2,.48-4.05.71-6.1.82-4.02.21-8.08.12-12.09-.18-4.16-.31-8.3-.99-12.31-2.13-1.89-.54-3.77-1.15-5.55-1.98-.74-.34-1.46-.73-2.15-1.15-.72-.44-2.65-1.4-2.61-2.33.01-.27-.4-.32-.47-.06h0Z"/>
      </g>
      <g>
        <g>
          <g>
            <path class="cls-12" d="m201.58,162.56s0,0,0,0l.04-.06h0c2.45-3.64-4.6-13.06-15.84-21.11-11.3-8.1-22.55-11.75-25.13-8.15,0,0,0,0,0,0l-4.28,5.98c-2.58,3.6,4.5,13.07,15.8,21.17,11.3,8.1,22.55,11.75,25.13,8.15l4.28-5.98s0,0,0,0Z"/>
            <path class="cls-9" d="m193.67,170.71c-1.61,0-3.59-.37-5.9-1.12-4.82-1.56-10.52-4.61-16.05-8.57-5.53-3.96-10.24-8.38-13.27-12.44-3.25-4.36-4.18-7.75-2.7-9.82l4.28-5.98c1.48-2.07,5-2.27,10.17-.6,4.82,1.56,10.52,4.61,16.05,8.57,5.49,3.94,10.19,8.33,13.22,12.37,3.21,4.28,4.2,7.64,2.85,9.74-.02.03-.03.06-.05.09l-4.33,6.04c-.82,1.14-2.26,1.72-4.26,1.72Zm-29.37-38.07c-1.46,0-2.5.35-3.01,1.05l-4.28,5.98c-1.99,2.78,3.93,11.71,15.62,20.08,5.4,3.87,10.95,6.84,15.62,8.35,4.27,1.39,7.42,1.38,8.42-.02l4.28-5.98s0,0,0,0h0s.02-.03.02-.04c.96-1.42-.08-4.41-2.77-8-2.94-3.92-7.51-8.19-12.88-12.04-5.4-3.87-10.95-6.84-15.62-8.35-2.12-.69-3.97-1.03-5.41-1.03Z"/>
          </g>
          <path class="cls-13" d="m164.52,135.82c3.57-.3,7.13,1.39,10.26,2.92,3.01,1.48,5.86,3.31,8.58,5.28,2.73,1.98,5.31,4.18,7.72,6.53,1.18,1.16,2.35,2.34,3.38,3.64.59.75,3.49,4.56,1.49,4.83-.45.06-.37.72,0,.83.95.29,1.87-.42,2.02-1.37.22-1.37-.84-2.87-1.57-3.93-1.75-2.57-4.07-4.77-6.37-6.85-4.64-4.21-9.84-7.67-15.59-10.19-3.05-1.34-6.6-2.99-10-2.29-.33.07-.26.62.08.59h0Z"/>
          <g>
            <path class="cls-13" d="m160.93,141.73c-.44.32-.78.67-1.11,1.1-.28.37-.67.78-.74,1.25-.03.19.08.41.31.4.53-.03.74-.5.99-.89.32-.5.66-.97.91-1.5.1-.21-.12-.52-.36-.36h0Z"/>
            <path class="cls-13" d="m163.89,145.77c-.33.57-.65,1.14-.96,1.72-.25.47-.62.94-.52,1.49.04.23.31.27.48.2.48-.22.67-.86.9-1.3.29-.55.56-1.11.83-1.67.23-.49-.46-.91-.73-.43h0Z"/>
            <path class="cls-13" d="m167.65,149.3c-.4.38-.7.82-1.01,1.29-.28.43-.7.86-.74,1.37-.03.31.33.42.56.32.45-.19.74-.82.99-1.22.3-.49.52-.97.6-1.52.04-.23-.21-.41-.4-.23h0Z"/>
            <path class="cls-13" d="m171.48,152.99c-.35.43-.68.86-1,1.32-.26.37-.74.84-.58,1.32.04.13.17.26.32.24.52-.06.69-.56.96-.95.32-.47.64-.94.96-1.41.27-.4-.36-.9-.67-.52h0Z"/>
            <path class="cls-13" d="m176.96,156.59c-.38.47-.71.98-1.02,1.49-.29.47-.69.97-.72,1.52-.01.27.32.45.54.31.47-.29.72-.9.99-1.37.3-.52.59-1.05.82-1.61.14-.33-.38-.62-.6-.35h0Z"/>
            <path class="cls-13" d="m182.13,160c-.31.44-.59.9-.86,1.37-.23.42-.53.85-.55,1.33-.02.36.42.47.66.27.35-.3.52-.81.74-1.22.24-.45.49-.89.73-1.34.25-.47-.41-.84-.71-.41h0Z"/>
            <path class="cls-13" d="m187.76,163.05c-.32.48-.66.96-.98,1.44-.28.43-.63.87-.65,1.4,0,.31.34.48.6.34.46-.24.7-.78.95-1.21.29-.5.56-1.02.85-1.52.28-.5-.45-.91-.76-.44h0Z"/>
            <path class="cls-13" d="m194.04,165.1c-.35.16-.6.57-.83.87-.25.35-.58.72-.75,1.12-.19.44.29.85.67.52.34-.29.6-.73.84-1.1.22-.34.49-.75.49-1.17,0-.23-.23-.33-.42-.24h0Z"/>
          </g>
        </g>
        <path class="cls-11" d="m161.58,136.01c-.82.72-.08,2.1.26,2.91.6,1.42,1.51,2.71,2.47,3.92,2.1,2.64,4.62,4.97,7.23,7.09,5.25,4.26,11.19,7.98,17.39,10.7,1.78.78,3.62,1.45,5.53,1.85,1.32.27,3.25.75,4.26-.42.18-.21.08-.65-.25-.61-.94.09-1.79.22-2.73.08-.9-.14-1.8-.36-2.67-.61-1.97-.57-3.86-1.37-5.7-2.27-3.44-1.69-6.79-3.6-10-5.68-3.26-2.12-6.34-4.51-9.12-7.23-1.38-1.34-2.72-2.76-3.87-4.31-.5-.68-.96-1.39-1.38-2.12-.35-.63-1.56-2.3-1.05-2.99.16-.22-.18-.45-.37-.28h0Z"/>
      </g>
      <g>
        <g>
          <g>
            <path class="cls-12" d="m399.43,85.51h0s-.04-.09-.04-.09h0c-2.14-4.89-13.23-4.98-24.86-.19-11.7,4.83-19.52,12.77-17.47,17.75,0,0,0,0,0,0l3.41,8.28c2.05,4.98,13.2,5.1,24.9.27,11.7-4.83,19.52-12.77,17.47-17.75l-3.41-8.28s0,0,0,0Z"/>
            <path class="cls-9" d="m369.6,115.79c-4.97,0-8.62-1.43-9.79-4.26l-3.41-8.28c-2.23-5.41,5.61-13.61,17.85-18.66,12.08-4.98,23.35-4.76,25.74.49.01.02.03.05.04.07l.04.09,3.41,8.28c1.11,2.68-.22,6.12-3.73,9.69-3.36,3.42-8.38,6.6-14.12,8.97-5.85,2.41-11.49,3.61-16.03,3.61Zm20.76-33.36c-4.4,0-9.98,1.16-15.57,3.47-11.13,4.59-18.96,12.3-17.09,16.83l3.41,8.28c1.87,4.53,12.85,4.48,23.99-.11,5.57-2.3,10.43-5.37,13.66-8.66,3.05-3.09,4.3-6.07,3.43-8.17l-3.41-8.28s0,0,0,0v-.03s-.03-.03-.03-.04c-.96-2.19-4.11-3.29-8.38-3.29Z"/>
          </g>
          <path class="cls-13" d="m360.94,101.08c1.1-3.13,3.74-5.33,6.35-7.22,2.54-1.84,5.37-3.31,8.27-4.49,2.78-1.13,5.68-1.98,8.62-2.57,1.66-.33,3.36-.62,5.06-.64,1.21-.02,5.4.04,4.76,2.2-.13.44.44.76.76.44.9-.92.33-2.37-.57-3.05-1.43-1.07-3.7-1.08-5.41-1.01-3.94.16-8,1.18-11.69,2.54-3.66,1.35-7.05,3.21-10.16,5.56-2.72,2.05-5.88,4.55-6.6,8.06-.08.4.48.55.61.17h0Z"/>
          <g>
            <path class="cls-13" d="m364.5,108.82c.1.87.38,1.65.71,2.45.12.28.4,1.11.85,1.02,1.01-.2-.8-3.21-1.05-3.61-.13-.21-.55-.15-.51.14h0Z"/>
            <path class="cls-13" d="m369.21,108.93c.33.67.67,1.34,1.03,2.01.29.54.52,1.25,1.07,1.56.24.13.5-.04.52-.3.04-.63-.44-1.23-.73-1.77-.36-.66-.73-1.31-1.11-1.96-.29-.5-1.03-.06-.77.45h0Z"/>
            <path class="cls-13" d="m373.85,107.9c.13.63.36,1.18.63,1.77.25.54.42,1.25.86,1.67.25.24.65.06.67-.28.03-.59-.38-1.25-.63-1.78-.29-.61-.62-1.15-1.1-1.63-.18-.19-.47,0-.42.25h0Z"/>
            <path class="cls-13" d="m378.62,106.97c.21.6.44,1.19.69,1.78.22.51.37,1.19.88,1.47.19.1.46.02.51-.21.12-.56-.23-1.03-.45-1.53-.27-.62-.54-1.23-.8-1.85-.2-.47-.99-.13-.82.35h0Z"/>
            <path class="cls-13" d="m384.01,104.39c.23.65.51,1.28.8,1.9.28.59.52,1.33,1.01,1.78.23.2.67.08.65-.27-.04-.63-.41-1.19-.69-1.75-.33-.66-.67-1.32-1.08-1.95-.22-.34-.84-.13-.69.29h0Z"/>
            <path class="cls-13" d="m389.06,101.86c.23.57.49,1.13.77,1.68.26.52.51,1.17.95,1.56.32.27.75,0,.68-.39-.09-.55-.48-1.06-.74-1.55-.29-.54-.57-1.09-.86-1.63-.23-.42-.98-.13-.79.33h0Z"/>
            <path class="cls-13" d="m394.08,98.86c.27.62.52,1.24.79,1.85.24.55.45,1.19.92,1.59.26.22.72.09.71-.29,0-.62-.35-1.18-.63-1.72-.32-.63-.66-1.26-.99-1.89-.28-.54-1.03-.07-.8.47h0Z"/>
            <path class="cls-13" d="m398.48,94.44c-.05.59.34,1.27.56,1.81.2.48.32,1.16.87,1.31.12.03.25-.02.32-.13.31-.51-.11-1.13-.32-1.62-.24-.56-.48-1.27-.99-1.63-.2-.14-.42.05-.44.25h0Z"/>
          </g>
        </g>
        <path class="cls-11" d="m360.76,105.64c.28,1.51,2.76,1.87,4,2.06,1.95.29,3.91.17,5.85-.11,4.12-.59,8.09-1.92,11.86-3.64,3.76-1.72,7.45-3.83,10.73-6.35,1.5-1.15,2.89-2.44,4.05-3.94.92-1.19,2.24-2.9,1.48-4.45-.12-.24-.54-.26-.65,0-.31.71-.4,1.47-.77,2.16-.45.85-1.08,1.62-1.71,2.34-1.13,1.3-2.44,2.43-3.83,3.45-2.79,2.04-5.81,3.82-8.89,5.38-3.17,1.6-6.51,2.87-9.98,3.63-1.78.39-3.6.67-5.42.73-1.05.03-2.1-.02-3.13-.2-.86-.15-2.74-.33-3.14-1.23-.12-.27-.49-.06-.45.19h0Z"/>
      </g>
      <g>
        <g>
          <g>
            <g>
              <polygon class="cls-11" points="304.02 230.57 304.02 359.06 218.58 340.53 212.43 269.28 209.8 238.73 209.09 230.57 304.02 230.57"/>
              <path class="cls-9" d="m304.02,359.81c-.05,0-.11,0-.16-.02l-85.44-18.53c-.32-.07-.56-.34-.59-.67l-9.49-109.95c-.02-.21.05-.41.19-.57.14-.15.34-.24.55-.24h94.93c.41,0,.75.33.75.75v128.49c0,.23-.1.44-.28.58-.13.11-.3.17-.47.17Zm-84.74-19.89l83.99,18.22v-126.82h-93.37l9.38,108.6Z"/>
            </g>
            <g>
              <polygon class="cls-15" points="398.95 230.57 398.32 237.91 395.51 270.4 389.46 340.53 304.02 359.06 304.02 230.57 398.95 230.57"/>
              <path class="cls-9" d="m304.02,359.81c-.17,0-.33-.06-.47-.17-.18-.14-.28-.36-.28-.58v-128.49c0-.41.33-.75.75-.75h94.93c.21,0,.41.09.55.24.14.15.21.36.19.57l-3.44,39.83-6.05,70.12c-.03.33-.27.6-.59.67l-85.44,18.53c-.05.01-.11.02-.16.02Zm.75-128.49v126.82l83.99-18.22,6.01-69.58,3.37-39.02h-93.37Z"/>
            </g>
            <path class="cls-9" d="m304.02,231.32h-94.93c-.41,0-.75-.33-.75-.75s.33-.75.75-.75h94.93c.41,0,.75.33.75.75s-.33.75-.75.75Z"/>
            <path class="cls-9" d="m398.95,231.32h-94.93c-.41,0-.75-.33-.75-.75s.33-.75.75-.75h94.93c.41,0,.75.33.75.75s-.33.75-.75.75Z"/>
            <g>
              <polygon class="cls-7" points="209.09 230.58 304.02 251.17 398.95 230.58 304.02 214.9 209.09 230.58"/>
              <path class="cls-9" d="m304.02,251.91c-.05,0-.11,0-.16-.02l-94.93-20.59c-.35-.08-.6-.39-.59-.75,0-.36.27-.66.62-.72l94.93-15.68c.08-.01.16-.01.24,0l94.93,15.68c.35.06.62.36.62.72,0,.36-.24.67-.59.75l-94.93,20.59c-.05.01-.11.02-.16.02Zm-90.95-21.24l90.95,19.73,90.95-19.73-90.95-15.02-90.95,15.02Z"/>
            </g>
          </g>
          <g class="cls-19">
            <g>
              <polygon class="cls-4" points="247.32 239.32 251.86 348.08 264.25 350.46 260.37 241.37 247.32 239.32"/>
              <polygon class="cls-4" points="351.07 240.82 348.44 348.79 361.47 345.57 364.83 237.31 351.07 240.82"/>
            </g>
          </g>
          <g class="cls-19">
            <polygon class="cls-3" points="398.32 237.91 395.51 270.4 328.7 286.34 306.63 254.94 304.02 259.3 287.32 287.14 212.43 269.28 209.8 238.73 210.46 237.64 301.68 251.17 304.02 251.37 305.69 251.51 398.32 237.91"/>
          </g>
          <g class="cls-20">
            <g class="cls-23">
              <g>
                <rect class="cls-4" x="109.21" y="191.59" width="188.87" height=".54" transform="translate(-76.02 200.27) rotate(-45.02)"/>
                <rect class="cls-4" x="116.16" y="198.54" width="188.87" height=".54" transform="translate(-78.9 207.23) rotate(-45.02)"/>
                <rect class="cls-4" x="123.11" y="205.5" width="188.87" height=".54" transform="translate(-81.78 214.18) rotate(-45.02)"/>
                <rect class="cls-4" x="130.07" y="212.45" width="188.87" height=".54" transform="translate(-84.66 221.14) rotate(-45.02)"/>
                <rect class="cls-4" x="137.02" y="219.4" width="188.87" height=".54" transform="translate(-87.54 228.11) rotate(-45.02)"/>
                <rect class="cls-4" x="143.97" y="226.35" width="188.87" height=".54" transform="translate(-90.42 235.07) rotate(-45.02)"/>
                <rect class="cls-4" x="150.92" y="233.31" width="188.87" height=".54" transform="translate(-93.3 242.02) rotate(-45.02)"/>
                <rect class="cls-4" x="157.88" y="240.26" width="188.87" height=".54" transform="translate(-96.18 248.97) rotate(-45.02)"/>
                <rect class="cls-4" x="164.83" y="247.21" width="188.87" height=".54" transform="translate(-99.06 255.92) rotate(-45.02)"/>
                <rect class="cls-4" x="171.78" y="254.16" width="188.87" height=".54" transform="translate(-101.94 262.87) rotate(-45.02)"/>
                <rect class="cls-4" x="178.74" y="261.12" width="188.87" height=".54" transform="translate(-104.82 269.83) rotate(-45.02)"/>
                <rect class="cls-4" x="185.69" y="268.07" width="188.87" height=".54" transform="translate(-107.7 276.8) rotate(-45.02)"/>
                <rect class="cls-4" x="192.64" y="275.02" width="188.87" height=".54" transform="translate(-110.58 283.75) rotate(-45.02)"/>
                <rect class="cls-4" x="199.59" y="281.98" width="188.87" height=".54" transform="translate(-113.46 290.72) rotate(-45.02)"/>
                <rect class="cls-4" x="206.55" y="288.93" width="188.87" height=".54" transform="translate(-116.34 297.67) rotate(-45.02)"/>
                <rect class="cls-4" x="213.5" y="295.88" width="188.87" height=".54" transform="translate(-119.22 304.61) rotate(-45.02)"/>
                <rect class="cls-4" x="220.45" y="302.83" width="188.87" height=".54" transform="translate(-122.1 311.56) rotate(-45.02)"/>
                <rect class="cls-4" x="227.4" y="309.79" width="188.87" height=".54" transform="translate(-124.98 318.52) rotate(-45.02)"/>
                <rect class="cls-4" x="234.36" y="316.74" width="188.87" height=".54" transform="translate(-127.86 325.48) rotate(-45.02)"/>
                <rect class="cls-4" x="241.31" y="323.69" width="188.87" height=".54" transform="translate(-130.74 332.45) rotate(-45.02)"/>
                <rect class="cls-4" x="248.26" y="330.65" width="188.87" height=".54" transform="translate(-133.62 339.42) rotate(-45.02)"/>
                <rect class="cls-4" x="255.22" y="337.6" width="188.87" height=".54" transform="translate(-136.5 346.37) rotate(-45.02)"/>
                <rect class="cls-4" x="262.17" y="344.55" width="188.87" height=".54" transform="translate(-139.38 353.31) rotate(-45.02)"/>
                <rect class="cls-4" x="269.12" y="351.5" width="188.87" height=".54" transform="translate(-142.26 360.27) rotate(-45.02)"/>
                <rect class="cls-4" x="276.07" y="358.46" width="188.87" height=".54" transform="translate(-145.14 367.13) rotate(-45.01)"/>
                <rect class="cls-4" x="283.03" y="365.41" width="188.87" height=".54" transform="translate(-148.02 374.01) rotate(-45)"/>
              </g>
            </g>
          </g>
        </g>
        <g>
          <g class="cls-22">
            <g>
              <g>
                <g>
                  <path class="cls-12" d="m352.78,229.39s0,0,0,0l-.03-.07h0c-1.71-3.84-12.94-2.91-25.2,2.11-12.33,5.05-21.02,12.32-19.41,16.24,0,0,0,0,0,0l2.67,6.52c1.61,3.92,12.9,3.01,25.23-2.04,12.33-5.05,21.02-12.32,19.41-16.24l-2.67-6.52s0,0,0,0Z"/>
                  <path class="cls-9" d="m317.23,257.38c-3.89,0-6.33-.99-7.12-2.9l-2.67-6.52c-.92-2.25.7-5.21,4.69-8.56,3.72-3.12,9.1-6.19,15.13-8.66,5.99-2.45,11.95-4.03,16.78-4.43,5.11-.43,8.34.49,9.36,2.64.02.03.03.06.04.09l.03.07h0s2.67,6.52,2.67,6.52c.92,2.26-.7,5.21-4.69,8.55-3.72,3.12-9.1,6.19-15.13,8.66-6.03,2.47-12.02,4.05-16.86,4.44-.79.06-1.53.1-2.23.1Zm29.08-29.65c-4.46,0-11.06,1.36-18.48,4.4-12.75,5.22-20.25,12.24-19,15.27l2.67,6.52c1.24,3.03,11.51,2.77,24.26-2.45,12.75-5.22,20.25-12.24,19-15.27l-2.67-6.52h0s0,0,0,0c0-.01-.01-.03-.02-.04-.55-1.23-2.62-1.9-5.75-1.9Z"/>
                </g>
                <path class="cls-13" d="m312.2,245.86c1.49-2.86,4.36-4.77,7.01-6.47,2.79-1.78,5.78-3.23,8.83-4.48,2.91-1.19,5.92-2.17,8.98-2.94,1.71-.43,3.44-.83,5.19-1.03.77-.09,5.62-.53,4.86,1.15-.19.43.28.82.65.5.92-.8.41-2.1-.53-2.61-1.58-.85-4.01-.48-5.68-.25-3.94.54-7.89,1.68-11.61,3.08-3.68,1.39-7.15,3.16-10.45,5.3-2.9,1.88-6.52,4.14-7.79,7.52-.11.31.38.51.53.22h0Z"/>
                <g>
                  <path class="cls-13" d="m315.17,251.79c.05.9.36,1.99.96,2.69.16.19.49.08.54-.14.12-.45-.11-.79-.3-1.2-.24-.51-.44-1-.74-1.47-.13-.2-.48-.13-.47.13h0Z"/>
                  <path class="cls-13" d="m319.97,251.46c.3.56.59,1.11.91,1.65.26.45.44.96.94,1.16.21.09.37-.13.4-.3.07-.5-.36-.99-.61-1.41-.3-.51-.61-1.02-.93-1.52-.28-.44-.95-.05-.7.41h0Z"/>
                  <path class="cls-13" d="m324.74,250.19c.1.5.29.94.5,1.4.2.42.34,1.01.7,1.31.25.21.57.06.61-.25.06-.47-.29-1.02-.5-1.43-.24-.49-.52-.91-.93-1.26-.18-.15-.43,0-.38.22h0Z"/>
                  <path class="cls-13" d="m329.69,248.98c.17.51.36,1.01.58,1.5.19.43.3.92.77,1.1.16.06.34-.07.39-.22.14-.44-.18-.85-.35-1.25-.21-.48-.42-.97-.63-1.46-.18-.43-.9-.12-.75.32h0Z"/>
                  <path class="cls-13" d="m335.4,246.36c.19.55.44,1.07.7,1.59.23.47.43,1.04.87,1.35.22.16.52-.05.52-.3,0-.5-.34-.98-.57-1.41-.27-.51-.55-1.03-.89-1.5-.21-.3-.77-.13-.63.27h0Z"/>
                  <path class="cls-13" d="m340.77,243.81c.2.48.42.95.67,1.41.23.43.44.91.84,1.19.29.21.59-.13.54-.42-.07-.44-.4-.84-.62-1.22-.24-.42-.47-.85-.71-1.27-.21-.37-.89-.12-.72.3h0Z"/>
                  <path class="cls-13" d="m346.15,240.88c.23.51.44,1.04.68,1.55.21.46.38.92.8,1.21.25.17.56-.06.57-.33.02-.5-.28-.96-.51-1.38-.26-.49-.54-.98-.81-1.47-.26-.49-.94-.06-.73.43h0Z"/>
                  <path class="cls-13" d="m351.01,236.75c-.06.39.12.77.26,1.13.16.41.31.87.55,1.24.07.11.21.22.36.2.08,0,.14-.01.21-.06.16-.12.22-.27.19-.47-.07-.42-.3-.86-.48-1.24-.16-.34-.35-.77-.69-.97-.14-.08-.37-.02-.39.16h0Z"/>
                </g>
              </g>
              <path class="cls-11" d="m310.86,248.36c.21,1.3,2.72,1.33,3.71,1.38,2.04.11,4.09-.2,6.08-.6,4.18-.84,8.22-2.26,12.13-3.97,3.87-1.69,7.66-3.68,11.21-5.98,1.62-1.05,3.19-2.21,4.58-3.55,1.05-1.02,2.8-2.58,2.32-4.2-.08-.27-.49-.35-.63-.08-.42.8-.74,1.57-1.34,2.26-.55.63-1.15,1.22-1.77,1.78-1.32,1.19-2.76,2.22-4.26,3.18-3.01,1.92-6.19,3.63-9.41,5.17-3.3,1.59-6.73,2.9-10.27,3.85-1.85.49-3.74.91-5.65,1.14-.92.11-1.85.17-2.77.15-.71-.01-3.22.09-3.51-.65-.11-.27-.48-.17-.43.12h0Z"/>
            </g>
            <g>
              <g>
                <g>
                  <path class="cls-12" d="m345.94,208.4s0,0,0,0l-.04-.05h0c-2.56-2.69-11.63,1.41-20.35,9.22-8.76,7.85-13.84,16.48-11.34,19.27,0,0,0,0,0,0l4.15,4.64c2.5,2.79,11.63-1.32,20.39-9.17,8.76-7.85,13.84-16.48,11.34-19.27l-4.15-4.64s0,0,0,0Z"/>
                  <path class="cls-9" d="m320.78,243.02c-1.27,0-2.26-.37-2.91-1.1l-4.16-4.64c-1.44-1.6-.96-4.55,1.37-8.51,2.18-3.7,5.74-7.85,10.02-11.69,7.82-7,17.88-12.59,21.22-9.23.02.02.04.04.06.06l.04.05s0,0,0,0l4.16,4.64c1.44,1.6.96,4.55-1.37,8.51-2.18,3.7-5.74,7.85-10.02,11.69-4.29,3.84-8.8,6.93-12.71,8.69-2.27,1.02-4.19,1.53-5.69,1.53Zm22.77-34.82c-3.45,0-10.34,3.39-17.56,9.86-4.19,3.75-7.66,7.79-9.77,11.38-1.93,3.27-2.5,5.87-1.53,6.96l4.15,4.64c1.93,2.16,10.4-1.1,19.46-9.22,9.06-8.12,13.23-16.18,11.29-18.34l-4.15-4.64s0,0,0,0h0s-.02-.02-.03-.03c-.39-.41-1.03-.61-1.87-.61Z"/>
                </g>
                <path class="cls-13" d="m317.04,234.14c.41-2.91,2.32-5.45,4.09-7.7,1.66-2.11,3.56-4.03,5.54-5.84,2.06-1.88,4.26-3.6,6.57-5.16,1.19-.8,2.4-1.58,3.66-2.26.52-.28,5.16-2.59,5.08-.78-.02.36.51.5.68.18.46-.89-.13-1.84-1.08-2.03-1.45-.29-3.19.61-4.46,1.22-3.18,1.55-6.18,3.72-8.89,5.98-2.7,2.24-5.09,4.75-7.24,7.52-1.93,2.48-4.38,5.51-4.45,8.79,0,.28.46.36.5.07h0Z"/>
                <g>
                  <path class="cls-13" d="m321.29,238.22c.19.44.45.79.75,1.15.26.3.51.64.89.79.13.05.31-.05.33-.19.07-.45-.25-.69-.54-.98-.36-.36-.68-.72-1.08-1.04-.2-.16-.45.03-.35.27h0Z"/>
                  <path class="cls-13" d="m325.14,236.46c.4.37.8.73,1.22,1.08.32.27.7.76,1.15.73.14,0,.29-.12.28-.28-.05-.48-.52-.73-.87-1.02-.42-.35-.84-.69-1.27-1.03-.35-.28-.86.19-.51.51h0Z"/>
                  <path class="cls-13" d="m328.75,234c.24.4.53.72.86,1.06.28.28.6.8,1,.88.19.04.41-.08.4-.3-.03-.46-.53-.83-.84-1.14-.36-.35-.73-.62-1.19-.8-.17-.07-.31.16-.23.3h0Z"/>
                  <path class="cls-13" d="m332.56,231.58c.45.57.94,1.11,1.46,1.63.1.1.25.14.38.1.16-.05.23-.12.27-.27.04-.13,0-.29-.1-.38-.51-.52-1.01-1.05-1.5-1.59-.33-.35-.79.16-.51.51h0Z"/>
                  <path class="cls-13" d="m336.53,227.71c.31.4.67.75,1.04,1.1.3.29.66.77,1.08.84.23.04.43-.13.37-.37-.1-.44-.63-.78-.95-1.08-.37-.34-.75-.68-1.17-.97-.31-.21-.56.23-.37.48h0Z"/>
                  <path class="cls-13" d="m340.25,224c.3.33.62.64.95.94.28.26.63.65,1.01.73.3.06.48-.22.37-.48-.15-.35-.6-.6-.88-.84-.32-.28-.64-.56-.96-.84-.34-.29-.79.16-.49.49h0Z"/>
                  <path class="cls-13" d="m343.8,219.91c.33.35.65.71.99,1.05.29.3.62.74,1.05.82.26.05.47-.15.41-.41-.09-.43-.53-.74-.84-1.03-.36-.33-.72-.64-1.08-.96-.35-.32-.86.18-.53.53h0Z"/>
                  <path class="cls-13" d="m346.65,215.09c.08.34.39.65.62.9.26.28.5.61.82.83.32.22.64-.2.49-.49-.17-.34-.49-.63-.75-.9-.24-.25-.54-.56-.88-.64-.18-.04-.33.11-.29.29h0Z"/>
                </g>
              </g>
              <path class="cls-11" d="m316.66,236.58c.53.97,2.4.37,3.2.15,1.7-.46,3.31-1.28,4.82-2.17,3.16-1.85,6.05-4.13,8.74-6.61,2.79-2.57,5.4-5.37,7.75-8.35,1.11-1.41,2.15-2.88,2.97-4.48.63-1.22,1.74-3.13.85-4.44-.13-.19-.52-.21-.56.07-.25,1.71-.71,3.11-1.57,4.63-.84,1.5-1.85,2.89-2.93,4.22-1.98,2.45-4.11,4.8-6.35,7-2.31,2.27-4.8,4.35-7.5,6.13-1.26.83-2.55,1.61-3.91,2.27-.81.4-1.65.73-2.52,1-.57.17-2.24.85-2.69.33-.15-.17-.41.05-.31.24h0Z"/>
            </g>
            <g>
              <g>
                <g>
                  <path class="cls-12" d="m298.26,251.36s0,0,0,0l.03-.06h0c1.43-3.63-6.51-10.45-17.81-15.28-11.37-4.86-21.84-5.86-23.38-2.25,0,0,0,0,0,0l-2.57,6.02c-1.55,3.62,6.42,10.49,17.79,15.34,11.37,4.86,21.84,5.86,23.38,2.25l2.57-6.02s0,0,0,0Z"/>
                  <path class="cls-9" d="m289.99,260.24c-.74,0-1.53-.04-2.38-.12-4.49-.43-10.02-1.98-15.58-4.35-5.56-2.38-10.5-5.31-13.92-8.25-3.66-3.16-5.12-5.92-4.23-8l2.57-6.02c.89-2.08,3.9-2.93,8.71-2.47,4.49.43,10.02,1.98,15.58,4.35,5.53,2.36,10.45,5.27,13.86,8.2,3.61,3.1,5.11,5.83,4.35,7.91,0,.03-.02.06-.03.08l-2.6,6.08c-.73,1.71-2.9,2.59-6.33,2.59Zm-27.15-27.95c-2.78,0-4.64.62-5.12,1.75l-2.57,6.02c-1.19,2.8,5.67,9.41,17.42,14.43,11.75,5.02,21.28,5.41,22.47,2.61l2.57-6.02s0,0,0,0h0s0-.03.01-.04c1.1-2.81-5.79-9.41-17.44-14.39-5.43-2.32-10.82-3.83-15.17-4.25-.78-.07-1.51-.11-2.18-.11Z"/>
                </g>
                <path class="cls-13" d="m260.95,235.27c2.97-.9,6.21-.2,9.16.5,2.98.7,5.89,1.75,8.69,2.97,2.66,1.16,5.24,2.51,7.72,4.03,1.22.75,2.44,1.53,3.58,2.41.52.4,4.26,3.51,2.66,4.17-.39.16-.36.73.1.75,1.2.05,1.68-1.17,1.33-2.17-.51-1.48-2.11-2.72-3.3-3.65-2.83-2.22-6.06-4.05-9.3-5.58-3.34-1.58-6.8-2.76-10.4-3.59-3.24-.74-7.27-1.74-10.44-.33-.28.12-.08.58.21.49h0Z"/>
                <g>
                  <path class="cls-13" d="m258.95,241.1c-.56.62-1.08,1.54-1.15,2.38-.02.23.27.37.45.26.38-.22.46-.62.61-1.01.17-.47.36-.92.48-1.41.05-.21-.23-.41-.39-.23h0Z"/>
                  <path class="cls-13" d="m262.3,244.05c-.17.54-.33,1.07-.48,1.61-.13.45-.35.92-.2,1.38.07.21.32.28.49.13.36-.32.4-.83.52-1.28.15-.54.28-1.09.4-1.63.11-.47-.58-.67-.73-.2h0Z"/>
                  <path class="cls-13" d="m266.25,246.38c-.27.39-.43.8-.6,1.24-.15.41-.44.88-.41,1.32.02.3.34.42.56.23.34-.29.47-.84.61-1.25.17-.48.26-.94.23-1.44-.01-.21-.28-.29-.4-.11h0Z"/>
                  <path class="cls-13" d="m270.27,248.86c-.22.45-.43.9-.62,1.36-.17.41-.41.8-.23,1.23.06.15.28.17.4.11.38-.19.44-.67.59-1.04.18-.46.37-.91.55-1.37.16-.4-.5-.68-.7-.29h0Z"/>
                  <path class="cls-13" d="m275.72,250.92c-.22.46-.4.93-.57,1.41-.16.45-.43.99-.37,1.47.03.26.33.45.55.23.33-.34.42-.84.56-1.28.16-.52.32-1.04.42-1.58.06-.33-.41-.6-.58-.25h0Z"/>
                  <path class="cls-13" d="m280.91,252.81c-.18.42-.33.84-.47,1.28-.13.41-.34.89-.28,1.33.04.34.43.47.64.17.24-.34.29-.8.4-1.2.12-.44.25-.87.38-1.3.11-.39-.5-.67-.67-.28h0Z"/>
                  <path class="cls-13" d="m286.35,254.46c-.19.49-.4.97-.58,1.46-.17.44-.36.85-.28,1.32.05.28.41.32.59.16.34-.31.45-.81.58-1.23.16-.5.29-1,.44-1.49.15-.49-.57-.67-.75-.21h0Z"/>
                  <path class="cls-13" d="m292.24,254.99c-.4.28-.56.88-.74,1.31-.13.3-.56.99-.08,1.22.46.21.67-.51.79-.8.19-.46.53-1.08.39-1.58-.04-.14-.23-.24-.37-.15h0Z"/>
                </g>
              </g>
              <path class="cls-11" d="m258.42,236.01c-.63,1.06.75,2.49,1.41,3.25,1.19,1.36,2.63,2.48,4.1,3.5,3.16,2.18,6.61,3.92,10.16,5.38,3.69,1.52,7.53,2.76,11.42,3.68,1.98.47,4.02.81,6.06.84,1.32.02,3.36.14,4.11-1.2.13-.24-.09-.55-.36-.47-1.68.51-3.12.69-4.89.57-1.87-.12-3.72-.49-5.54-.94-3.22-.8-6.42-1.79-9.53-2.95-3.18-1.19-6.26-2.66-9.16-4.43-1.4-.86-2.78-1.78-4.04-2.84-.62-.52-1.22-1.08-1.76-1.68-.46-.5-1.86-1.76-1.59-2.53.08-.23-.26-.36-.38-.16h0Z"/>
            </g>
          </g>
          <g>
            <polygon class="cls-11" points="210.09 230.68 193.62 257.91 286.95 280.18 305.02 251.27 210.09 230.68"/>
            <path class="cls-9" d="m286.95,280.92c-.06,0-.12,0-.17-.02l-93.33-22.26c-.23-.06-.42-.22-.52-.44-.09-.22-.07-.47.05-.67l16.47-27.24c.16-.27.48-.41.8-.34l94.93,20.59c.24.05.44.22.53.44.09.22.07.48-.05.69l-18.07,28.91c-.14.22-.38.35-.63.35Zm-92.16-23.5l91.82,21.9,17.22-27.55-93.37-20.25-15.67,25.91Z"/>
          </g>
          <g>
            <polygon class="cls-16" points="399.95 230.68 416.42 257.91 323.09 280.18 305.02 251.27 399.95 230.68"/>
            <path class="cls-9" d="m323.09,280.92c-.25,0-.49-.13-.63-.35l-18.07-28.91c-.13-.21-.15-.46-.05-.69.09-.22.29-.39.53-.44l94.93-20.59c.31-.07.63.07.8.34l16.47,27.24c.12.2.14.45.05.67-.09.22-.28.38-.52.44l-93.33,22.26c-.06.01-.12.02-.17.02Zm-16.87-29.15l17.22,27.55,91.82-21.9-15.67-25.91-93.37,20.25Z"/>
          </g>
          <g>
            <g>
              <path class="cls-4" d="m261.4,241.18s-3.02-14.64-14.16-21.5c-1.72-1.06-7.84-4.2-7.84-4.2l-25.95-6.5s31.16,12.5,32.71,29.44l15.25,2.75Z"/>
              <path class="cls-5" d="m261.4,241.93s-.09,0-.13-.01l-15.25-2.75c-.33-.06-.58-.33-.61-.67-1.49-16.29-31.93-28.7-32.24-28.82-.36-.15-.55-.55-.43-.92.12-.37.51-.59.89-.49l25.95,6.5c.06.01.11.03.16.06.25.13,6.17,3.17,7.89,4.23,11.29,6.95,14.37,21.37,14.5,21.99.05.24-.02.49-.2.67-.14.15-.34.23-.53.23Zm-14.57-4.14l13.57,2.45c-.95-3.48-4.56-14.39-13.55-19.93-1.57-.97-7.01-3.77-7.72-4.13l-18.37-4.6c2.63,1.35,5.74,3.09,8.87,5.14,10.51,6.9,16.3,13.99,17.2,21.07Z"/>
            </g>
            <g>
              <path class="cls-4" d="m248.96,220.97s-24.07-17.1-52.36-16.93c-7.29.05-17.92-1.16-28.51-6.07,0,0,16.49,13.8,32.94,13.29,16.94-.53,31.91.76,47.93,9.71Z"/>
              <path class="cls-5" d="m248.96,221.72c-.12,0-.25-.03-.36-.09-15.61-8.72-30.3-10.15-47.55-9.61-.3,0-.6.01-.91.01-8.36,0-16.59-3.53-22.11-6.56-6.17-3.38-10.25-6.78-10.42-6.92-.29-.24-.35-.66-.15-.97.2-.32.6-.43.94-.28,11.44,5.3,22.57,6.03,28.19,6,14.76-.09,28.31,4.55,37.1,8.46,9.51,4.24,15.64,8.56,15.7,8.6.32.23.41.67.2,1.01-.14.22-.38.35-.63.35Zm-41.9-11.3c10.1,0,19.43.94,28.75,3.96-.88-.42-1.8-.85-2.76-1.27-8.64-3.84-21.99-8.41-36.45-8.32-4.8.03-13.54-.49-23.12-3.83,6.06,4,16.86,9.89,27.52,9.56,2.05-.06,4.07-.1,6.06-.1Z"/>
            </g>
            <g>
              <path class="cls-4" d="m161.22,198.03c-2.98-2.82-12.5-13.97-12.5-13.97l20.85,2.73s8.4,18.87,32.67,24.44c0,0-25.32,1.62-41.02-13.2Z"/>
              <path class="cls-5" d="m199.95,212.03c-2.59,0-7.1-.17-12.46-1.11-7.67-1.34-18.54-4.57-26.78-12.35-2.98-2.81-12.17-13.58-12.56-14.03-.2-.23-.24-.57-.09-.84.15-.27.45-.42.75-.38l20.85,2.73c.26.03.48.2.59.44.02.05,2.13,4.7,7.14,9.97,4.61,4.85,12.69,11.22,25.02,14.05.36.08.61.42.58.79-.03.37-.33.66-.7.68-.09,0-.93.06-2.34.06Zm-49.4-26.98c2.69,3.13,8.91,10.29,11.18,12.44,7.96,7.52,18.52,10.65,25.98,11.96,3.46.61,6.59.88,9.05,1-9.77-3.31-16.44-8.74-20.49-13.02-4.38-4.62-6.58-8.71-7.19-9.96l-18.52-2.43Z"/>
            </g>
          </g>
          <g>
            <g>
              <path class="cls-4" d="m350.93,240.84s2.67-14.71,13.65-21.83c1.69-1.1,7.74-4.38,7.74-4.38l25.79-7.11s-30.86,13.23-32,30.21l-15.18,3.11Z"/>
              <path class="cls-5" d="m350.93,241.59c-.19,0-.38-.08-.52-.21-.18-.17-.26-.42-.21-.67.11-.61,2.86-15.11,13.98-22.32,1.7-1.1,7.54-4.28,7.79-4.41.05-.03.1-.05.16-.06l25.79-7.11c.38-.1.77.1.9.47s-.05.78-.41.93c-.3.13-30.45,13.25-31.55,29.57-.02.34-.27.61-.59.68l-15.18,3.11s-.1.02-.15.02Zm21.67-26.26c-.7.38-6.07,3.31-7.62,4.31-8.86,5.74-12.2,16.74-13.07,20.24l13.5-2.77c.74-7.1,6.35-14.31,16.7-21.47,3.07-2.12,6.14-3.93,8.74-5.35l-18.26,5.03Z"/>
            </g>
            <g>
              <path class="cls-4" d="m362.88,220.34s23.66-17.67,51.95-18.16c7.29-.13,17.89-1.58,28.36-6.74,0,0-16.16,14.18-32.62,14.06-16.94-.13-31.88,1.51-47.69,10.84Z"/>
              <path class="cls-5" d="m362.88,221.09c-.24,0-.48-.12-.62-.33-.22-.33-.14-.77.17-1.01.06-.04,6.08-4.51,15.49-8.97,8.69-4.12,22.14-9.08,36.89-9.33,5.62-.1,16.73-1.09,28.04-6.67.34-.17.74-.06.95.25.21.31.15.73-.13.98-.17.15-4.16,3.63-10.25,7.16-5.64,3.27-14.18,7.15-22.86,7.09-17.26-.13-31.91,1.65-47.31,10.74-.12.07-.25.1-.38.1Zm74.99-22.54c-9.5,3.57-18.23,4.3-23.03,4.38-15.26.26-29.27,5.64-38.81,10.46,11.01-3.84,22.11-4.72,34.54-4.63.07,0,.14,0,.21,0,10.6,0,21.17-6.09,27.09-10.21Z"/>
            </g>
            <g>
              <path class="cls-4" d="m450.06,195.33c2.92-2.89,12.17-14.27,12.17-14.27l-20.78,3.22s-7.95,19.06-32.08,25.21c0,0,25.35,1.02,40.7-14.16Z"/>
              <path class="cls-5" d="m410.43,210.26c-.66,0-1.04-.01-1.1-.02-.37-.01-.67-.3-.71-.67-.04-.37.2-.71.56-.8,12.26-3.12,20.19-9.68,24.68-14.64,4.88-5.38,6.88-10.09,6.9-10.13.1-.24.32-.41.57-.45l20.78-3.22c.31-.05.61.1.76.37.15.27.13.6-.07.84-.38.47-9.31,11.44-12.22,14.33-8.06,7.98-18.85,11.46-26.48,12.98-6.34,1.26-11.5,1.42-13.67,1.42Zm31.53-25.29c-.59,1.26-2.68,5.4-6.95,10.12-3.96,4.37-10.49,9.95-20.18,13.5,2.45-.18,5.58-.53,9.02-1.22,7.42-1.48,17.9-4.86,25.68-12.57h0c2.22-2.2,8.27-9.51,10.88-12.7l-18.45,2.86Z"/>
            </g>
          </g>
          <g>
            <g>
              <path class="cls-12" d="m282.02,211.23l-2.07,3.22c-.11.17-.1.4.03.56l2.42,2.96c.29.36-.04.87-.49.76l-3.7-.98c-.2-.05-.41.03-.52.2l-2.07,3.22c-.25.39-.84.23-.87-.23l-.22-3.82c-.01-.2-.15-.38-.35-.43l-3.7-.98c-.44-.12-.48-.73-.05-.9l3.57-1.39c.19-.07.31-.26.3-.47l-.22-3.82c-.03-.46.55-.68.84-.33l2.42,2.96c.13.16.35.22.54.14l3.57-1.39c.43-.17.82.31.57.7Z"/>
              <path class="cls-9" d="m275.23,221.89c-.08,0-.17-.01-.26-.03-.41-.11-.7-.46-.72-.88l-.22-3.8-3.68-.97c-.41-.11-.7-.46-.72-.88-.02-.43.22-.8.62-.96l3.55-1.38-.22-3.8c-.02-.43.22-.8.62-.96.4-.16.83-.04,1.1.29l2.41,2.95,3.55-1.38c.4-.16.83-.04,1.1.29.27.33.3.78.06,1.14h0l-2.06,3.2,2.41,2.95c.27.33.3.78.06,1.14-.23.36-.65.52-1.06.41l-3.68-.97-2.06,3.2c-.18.29-.48.45-.81.45Zm-4.55-6.64l3.63.96c.41.11.7.46.72.88l.21,3.75,2.03-3.16c.23-.35.66-.52,1.06-.41l3.63.96-2.37-2.91c-.27-.33-.29-.78-.06-1.14l2.03-3.16-3.5,1.36c-.39.15-.84.04-1.1-.29l-2.37-2.91.21,3.75c.02.42-.22.81-.62.96l-3.5,1.36Zm11.34-4.02h0,0Z"/>
            </g>
            <g>
              <path class="cls-12" d="m252.06,191.76l1.88,4.87c.1.26.36.43.64.41l5.22-.28c.62-.03.93.75.44,1.15l-4.06,3.29c-.22.18-.3.47-.2.73l1.88,4.87c.22.58-.43,1.11-.95.77l-4.38-2.84c-.23-.15-.54-.14-.76.04l-4.06,3.29c-.49.39-1.19-.06-1.03-.67l1.35-5.05c.07-.27-.04-.56-.27-.71l-4.38-2.84c-.53-.34-.31-1.15.32-1.19l5.22-.28c.28-.01.52-.21.59-.48l1.35-5.05c.16-.6,1-.65,1.23-.07Z"/>
              <path class="cls-9" d="m247.3,208.85c-.24,0-.48-.07-.69-.21-.47-.3-.68-.85-.54-1.39l1.35-5.05s0-.02-.01-.03l-4.38-2.84c-.47-.3-.68-.85-.54-1.39.14-.54.6-.91,1.16-.94l5.22-.28s.02,0,.02-.02l1.35-5.05c.14-.54.6-.91,1.16-.94.56-.03,1.05.29,1.25.81h0l1.88,4.87s.01.02.02.02l5.22-.28c.56-.03,1.05.29,1.25.81.2.52.05,1.09-.38,1.44l-4.06,3.29s-.01.02,0,.03l1.88,4.88c.2.52.05,1.09-.38,1.44-.43.35-1.02.38-1.49.08l-4.38-2.84s-.02,0-.03,0l-4.06,3.29c-.24.19-.52.29-.8.29Zm4.16-16.88s-.02,0-.02,0l-1.35,5.06c-.14.53-.61.91-1.16.94l-5.22.28s-.03.03-.02.04l4.39,2.85c.46.3.68.86.54,1.39l-1.35,5.05s.02.03.03.03h0l4.07-3.3c.43-.35,1.03-.38,1.49-.08l4.38,2.84s.04,0,.04-.02l-1.88-4.89c-.2-.51-.04-1.09.38-1.44l4.06-3.29s0-.04,0-.04l-5.23.28c-.55.03-1.05-.3-1.25-.81l-1.88-4.87s0-.01,0-.01c0,0,0,0-.01,0Z"/>
            </g>
            <g>
              <path class="cls-12" d="m347.91,174.82l-1.73,5.95c-.09.32.03.66.31.85l5.13,3.48c.61.42.34,1.38-.41,1.4l-6.2.2c-.33.01-.62.23-.71.55l-1.73,5.95c-.21.71-1.21.74-1.46.05l-2.1-5.83c-.11-.31-.41-.52-.75-.51l-6.2.2c-.74.02-1.08-.92-.49-1.37l4.9-3.8c.26-.2.36-.55.25-.87l-2.1-5.83c-.25-.7.54-1.31,1.15-.89l5.13,3.48c.27.19.64.18.9-.03l4.9-3.8c.59-.46,1.41.11,1.21.82Z"/>
              <path class="cls-9" d="m341.83,194.5c-.64,0-1.19-.39-1.41-1l-2.1-5.83s-.02-.02-.03-.02l-6.2.2c-.67.02-1.24-.37-1.46-.99-.23-.62-.03-1.29.49-1.7l4.9-3.8s.01-.02,0-.03l-2.1-5.83c-.23-.63-.03-1.29.49-1.7.53-.41,1.22-.43,1.77-.06l5.13,3.48s.02,0,.03,0l4.9-3.8c.53-.41,1.22-.43,1.77-.06.55.37.78,1.03.6,1.66h0s-1.73,5.96-1.73,5.96c0,.01,0,.02.01.03l5.13,3.48c.55.37.78,1.03.6,1.67-.19.64-.73,1.06-1.4,1.08l-6.2.2s-.02,0-.03.02l-1.73,5.95c-.19.64-.73,1.06-1.4,1.08-.02,0-.03,0-.05,0Zm-3.54-8.32c.63,0,1.2.39,1.42,1l2.1,5.83s.04.02.05.01l1.73-5.97c.18-.63.74-1.06,1.4-1.08l6.2-.2s.03-.03.03-.04l-5.14-3.49c-.54-.37-.78-1.04-.6-1.66l1.73-5.95s0-.02,0-.02c0,0-.02-.02-.03-.02l-4.91,3.81c-.52.4-1.23.42-1.77.06l-5.13-3.48s-.04,0-.05.02l2.11,5.85c.22.62.02,1.3-.49,1.7l-4.9,3.8s0,.04,0,.05l6.21-.2s.03,0,.05,0Zm9.62-11.36h0,0Z"/>
            </g>
          </g>
        </g>
      </g>
    </g>
  </g>
</svg>