<?xml version="1.0" encoding="utf-8"?>
<!-- Generator: Adobe Illustrator 27.2.0, SVG Export Plug-In . SVG Version: 6.00 Build 0)  -->
<svg version="1.1" id="圖層_1" xmlns="http://www.w3.org/2000/svg" xmlns:xlink="http://www.w3.org/1999/xlink" x="0px" y="0px"
	 viewBox="0 0 192 192" style="enable-background:new 0 0 192 192;" xml:space="preserve">
<style type="text/css">
	
		.st0{clip-path:url(#SVGID_00000141432304080019697460000010967298904950579098_);fill:url(#SVGID_00000044866114323927300030000006080767832363773368_);}
	.st1{clip-path:url(#SVGID_00000141432304080019697460000010967298904950579098_);}
	
		.st2{fill:url(#SVGID_00000101789250600473644990000009910864208460519556_);stroke:#44A6DA;stroke-width:2.4199;stroke-miterlimit:10;}
	
		.st3{fill:url(#SVGID_00000154408642009676076980000017792408063112456588_);stroke:#44A6DA;stroke-width:2.0166;stroke-miterlimit:10;}
	
		.st4{fill:url(#SVGID_00000152223636170814348150000006469474740558719678_);stroke:#44A6DA;stroke-width:2.4199;stroke-miterlimit:10;}
	.st5{fill:#00A19B;stroke:#A1D6D4;stroke-width:3.2266;stroke-miterlimit:10;}
	.st6{fill:none;stroke:#A1D6D4;stroke-width:3.6299;stroke-miterlimit:10;}
	.st7{fill:#FFFFFF;}
	.st8{fill:none;stroke:#44A6DA;stroke-width:2.4199;stroke-linecap:round;stroke-miterlimit:10;}
	
		.st9{fill:url(#SVGID_00000174583752927754675130000011730608947515272849_);stroke:#44A6DA;stroke-width:2.4199;stroke-miterlimit:10;}
	.st10{fill:url(#SVGID_00000127016186626736984280000011652545029254957440_);}
	.st11{fill:none;stroke:url(#SVGID_00000173880281726938643210000006977886341963516600_);stroke-width:1.21;stroke-miterlimit:10;}
	.st12{fill:none;stroke:#585862;stroke-width:5.6465;stroke-miterlimit:10;}
	.st13{fill:#585862;}
	.st14{fill:#777789;}
	.st15{fill:#0B51A2;}
	.st16{fill:#EFF6FC;}
	.st17{fill:#FFFFFF;stroke:#44A6DA;stroke-width:2.4199;stroke-miterlimit:10;}
	.st18{fill:none;stroke:#3D8080;stroke-width:5.6465;stroke-linecap:round;stroke-linejoin:round;stroke-miterlimit:10;}
</style>
<g>
	<g>
		<defs>
			<circle id="SVGID_1_" cx="96" cy="84.2" r="82.7"/>
		</defs>
		<clipPath id="SVGID_00000123419774416161572190000006533553164022752397_">
			<use xlink:href="#SVGID_1_"  style="overflow:visible;"/>
		</clipPath>
		
			<linearGradient id="SVGID_00000154401036522477715300000004631023664448242874_" gradientUnits="userSpaceOnUse" x1="192.563" y1="-16.4019" x2="3.1857" y2="179.1445">
			<stop  offset="0.1204" style="stop-color:#91C799"/>
			<stop  offset="0.5405" style="stop-color:#2DA59E"/>
		</linearGradient>
		
			<rect x="3.1" y="-7.8" style="clip-path:url(#SVGID_00000123419774416161572190000006533553164022752397_);fill:url(#SVGID_00000154401036522477715300000004631023664448242874_);" width="184.1" height="184.1"/>
		<g style="clip-path:url(#SVGID_00000123419774416161572190000006533553164022752397_);">
			<g>
				
					<linearGradient id="SVGID_00000080170122485668859510000016887787903036191415_" gradientUnits="userSpaceOnUse" x1="-839.1043" y1="1477.5541" x2="-876.2899" y2="1389.7594" gradientTransform="matrix(0.9655 -0.2603 0.2603 0.9655 600.7975 -1466.4382)">
					<stop  offset="0" style="stop-color:#DEEEF6"/>
					<stop  offset="0.2891" style="stop-color:#F7FAFD"/>
					<stop  offset="1" style="stop-color:#A2CDEB"/>
				</linearGradient>
				
					<path style="fill:url(#SVGID_00000080170122485668859510000016887787903036191415_);stroke:#44A6DA;stroke-width:2.4199;stroke-miterlimit:10;" d="
					M169.3,179.4L169.3,179.4c-4.3,2.9-10.1,1.9-13.3-2.2l-37.4-49c-4.9-6.4-3.3-15.6,3.4-20l0,0c6.7-4.4,15.8-2.3,19.8,4.7
					l30.6,53.5C174.9,170.8,173.6,176.6,169.3,179.4z"/>
				
					<linearGradient id="SVGID_00000124157512190234169380000009006831560805319578_" gradientUnits="userSpaceOnUse" x1="922.0603" y1="93.5484" x2="978.03" y2="172.4331" gradientTransform="matrix(0.9984 -5.673912e-02 5.673912e-02 0.9984 -902.4412 39.5673)">
					<stop  offset="0" style="stop-color:#DEEEF6"/>
					<stop  offset="0.2185" style="stop-color:#F7FAFD"/>
					<stop  offset="1" style="stop-color:#A2CDEB"/>
				</linearGradient>
				
					<path style="fill:url(#SVGID_00000124157512190234169380000009006831560805319578_);stroke:#44A6DA;stroke-width:2.0166;stroke-miterlimit:10;" d="
					M24.3,81L24.3,81c3.9-3.3,9.8-2.9,13.3,0.8c0,0,7.2,11,16.7,22.4c10.3,12.2,26.8,23.7,25.3,21.9c5.5,5.8,5,15-1.2,20.1l0,0
					c-6.1,5.1-15.6,9.8-20.3,3.4c0,0-12.6-17.4-20.6-28.5s-15-26.8-15-26.8C19.7,90.1,20.4,84.3,24.3,81z"/>
				
					<linearGradient id="SVGID_00000105406004932327961920000007966037015636700856_" gradientUnits="userSpaceOnUse" x1="1107.1482" y1="-183.5285" x2="1107.1482" y2="-37.1183" gradientTransform="matrix(0.9988 4.833199e-02 -4.833199e-02 0.9988 -1016.4629 233.5408)">
					<stop  offset="0.1896" style="stop-color:#F7FAFD"/>
					<stop  offset="0.8282" style="stop-color:#A2CDEB"/>
				</linearGradient>
				
					<path style="fill:url(#SVGID_00000105406004932327961920000007966037015636700856_);stroke:#44A6DA;stroke-width:2.4199;stroke-miterlimit:10;" d="
					M52.9,120.2c-1.7-10.6,8.7-19.4,20.6-17.5c7.1,1.1,15.4,2.1,24.4,2.6c9.2,0.4,17.7,0.2,25-0.2c11.9-0.7,21.4,8.8,19,19.1
					l-13.1,47.3c-2.8,12-14.4,20.6-28.3,21.1c-2,0.1-4,0.1-6.1,0c-2-0.1-3.9-0.3-5.7-0.5c-13.5-1.7-24.1-11.3-26-23.2L52.9,120.2z"
					/>
				<g>
					<g>
						<path class="st5" d="M109.8,123.5c2.1,5.4,0.6,11.8-3.6,15.6c-3.7,3.4-9.1,4.6-14,2.9c-5.4-1.8-9.3-6.8-9.6-12.6
							c-0.3-5.5,2.6-10.5,7.3-13.1c4.4-2.5,10.9-2.1,14.9,0.9C107,118.7,108.8,121,109.8,123.5z"/>
						<path class="st6" d="M109.8,123.5c2.1,5.4,0.6,11.8-3.6,15.6c-3.7,3.4-9.1,4.6-14,2.9c-5.4-1.8-9.3-6.8-9.6-12.6
							c-0.3-5.5,2.6-10.5,7.3-13.1c4.4-2.5,10.9-2.1,14.9,0.9C107,118.7,108.8,121,109.8,123.5z"/>
						<path class="st7" d="M96.2,123c0.4-0.1,1-0.5,1.5-0.1c0.3,0.5,1.2,0.6,0.9,1.3c0.4,0.6,0.9,1.2,1.5,1.6c0.1,0,0.2-0.1,0.2-0.1
							l-0.2-0.1c0.2-0.2,0.6,0.1,0.9-0.1c0.2,0,0.4,0.1,0.6,0.2c0.1,0.2,0.2,0.5,0.3,0.7l0.1-0.1c0.1,0.2,0.2,0.5,0.3,0.7
							c0.9,0.3,1.4,1.5,2.2,1.9c1,0.8,2.1,1.3,3.3,1.8c-0.1,0.2,0.1,0.2,0.2,0.2v0c-0.2-0.1-0.4-0.2-0.5-0.1
							c0.2,0.2,0.5,0.1,0.6,0.4h-0.4c0,0.1,0.1,0.1,0.2,0.1c-0.2-0.1-0.4,0.1-0.5-0.2c-0.9-0.4-1.6-0.7-2.4-1.2l0,0
							c0.6,0.6,1.4,0.8,2.1,1.2c0.2,0.1,0.6,0.2,0.7,0.5c-0.1,0-0.2,0-0.2,0.1l-0.2-0.1c-0.1,0,0,0.1,0,0.1l0.1,0.1
							c-0.9-0.4-1.9-0.7-2.7-1.4c-0.4-0.3-0.8-0.5-1.2-0.8c-0.1,0-0.1,0-0.2,0.1c0.4,0.3,0.9,0.6,1.3,0.9c-0.8-0.4-1.8-1-2.4-1.8
							c-0.3-0.3-0.7-0.9-1.2-0.8c-0.2,0.1-0.5,0.1-0.7,0.2c-0.2,0-0.3-0.2-0.4-0.1c-0.1,0.3-0.5,0.1-0.6,0.4c-0.3,0.1-0.7,0-0.8,0.3
							l0,0.1c-0.5,0.2-1.2,0.2-1.6,0.7c-0.1,0.1-0.3,0-0.4,0.1c0-0.1,0-0.1-0.1-0.1c-0.1-0.1-0.2,0.1-0.3,0.1
							c-0.1-0.1,0.1-0.2,0.1-0.2c-0.2-0.1-0.3,0.2-0.5,0.3c0-0.2,0.3-0.2,0.3-0.4c-0.1-0.1-0.2,0.1-0.3,0.1c0.1,0,0.2-0.2,0-0.2
							c0.1-0.2,0.4-0.1,0.5-0.4h-0.2c0.2-0.2,0.4-0.3,0.6-0.5c-0.1,0-0.2-0.2-0.4,0c0,0,0.1-0.1,0-0.1c-0.1-0.1-0.2,0.1-0.4,0.1
							c0,0,0-0.1-0.1-0.1H96c0.1-0.1,0.2-0.2,0.3-0.3l-0.1-0.1c0.4-0.2,0.8-0.5,1.2-0.7l0.1-0.1c-0.1-0.1-0.3-0.1-0.4,0
							c0.3,0,0-0.4,0.4-0.5c0.1-0.3,0.3-0.5,0.5-0.6c-0.3-0.3-0.5-0.9-0.9-1.1c0-0.2-0.3,0-0.3-0.2c-0.5,0-1,0.2-1.3-0.2
							c-0.2-0.1-0.5-0.1-0.8,0c-0.2,0.2-0.3,0.5-0.4,0.7c-0.2,0.2-0.3,0.4-0.5,0.7c-0.2,0.3-0.5,0.7-0.9,0.9c0,0,0-0.1,0-0.1
							c-0.3,0.4-0.9,0.2-1.3,0.7l0-0.1c-0.1,0-0.2,0.1-0.3,0.2v0.1c-0.2-0.1-0.3,0.2-0.4,0.3c-0.4,0.5-1.2,0.5-1.6,0.9
							c-0.1,0,0,0,0,0c-0.9,0.2-1.3,0.9-1.8,1.5c-0.2,0.3-0.4,0.4-0.6,0.6c0.1,0.2-0.3,0.3-0.4,0.4c0.1-0.2,0.3-0.3,0.4-0.6
							c-0.2,0.1-0.3,0.3-0.5,0.5c-0.1-0.1,0.1-0.2,0.1-0.3l-0.3,0.2l0.3-0.4c-0.2,0-0.3,0.3-0.5,0.3c-0.1,0.1-0.1,0.1-0.2,0.1v0
							c0.1-0.1,0.3-0.3,0.4-0.4c-0.2-0.1-0.4,0.1-0.5,0.1c-0.1,0,0-0.2-0.2-0.1c0.1-0.1,0.3-0.2,0.3-0.3c-0.1,0-0.2,0.1-0.3,0.1
							c0-0.1,0.3-0.2,0.2-0.4c-0.3-0.1-0.3,0.3-0.6,0.4c0.3-0.4,0.7-0.6,1-1.1l0,0c0.5-0.6,1.2-1,1.9-1.4c0.5-0.3,1.3-0.5,1.7-1
							c0.2-0.2,0.3-0.4,0.4-0.6c0.1,0,0.1-0.1,0.1-0.1c0.4-0.2,0.8-0.4,1.3-0.4c0.2-0.2,0.6-0.1,0.8-0.4c0.5-0.7,0.8-1.5,1.2-2.2
							c0.2-0.2,0.3-0.6,0.6-0.6C94.8,122.7,95.5,122.8,96.2,123z"/>
					</g>
				</g>
				<path class="st8" d="M43,90.5c-0.2-0.1-4.6-1.9-10.1,0.8c-3.9,1.9-6.8,5.2-7.3,8.6"/>
				<path class="st8" d="M152.1,171.1c0.2,0.1,4.7,1.5,10-1.5c3.8-2.2,6.4-5.7,6.7-9.1"/>
				<path class="st8" d="M57.5,141.5c1.7,1.6,16.4,14.3,41.2,14.9c20.8,0.5,34-8,36.5-9.7"/>
			</g>
			<g>
				
					<linearGradient id="SVGID_00000129207500799800457700000010855983837336816023_" gradientUnits="userSpaceOnUse" x1="831.0867" y1="20.7729" x2="831.0867" y2="135.1409" gradientTransform="matrix(1 0 0 1 -732 0)">
					<stop  offset="0" style="stop-color:#DEEEF6"/>
					<stop  offset="0.2888" style="stop-color:#F7FAFD"/>
					<stop  offset="1" style="stop-color:#A2CDEB"/>
				</linearGradient>
				
					<path style="fill:url(#SVGID_00000129207500799800457700000010855983837336816023_);stroke:#44A6DA;stroke-width:2.4199;stroke-miterlimit:10;" d="
					M155.3,73.1c0.6,14.2-10,26.4-24.1,27.9c-10.4,1.1-23,1.6-35.8,0.4c-12.3-1.1-23.7-3.8-33.1-6.6c-13.6-4.1-21.8-18-18.6-31.8
					l0.1-0.3c6.1-26.4,30.7-44.3,57.7-41.7l5,0.5C133.3,24,154.2,46.1,155.3,73.1L155.3,73.1z"/>
				<g>
					<g>
						
							<linearGradient id="SVGID_00000088124070010028101370000014736111150686380735_" gradientUnits="userSpaceOnUse" x1="830.9876" y1="65.8628" x2="833.553" y2="34.4483" gradientTransform="matrix(1 0 0 1 -732 0)">
							<stop  offset="0" style="stop-color:#5299D3"/>
							<stop  offset="0.507" style="stop-color:#BDDEF5"/>
							<stop  offset="1" style="stop-color:#5299D3"/>
						</linearGradient>
						<path style="fill:url(#SVGID_00000088124070010028101370000014736111150686380735_);" d="M125.7,65.6
							c-17.6-3.2-35.4-4.4-53-3.8C66.3,62,61.6,57.3,62,50.9c0.1-1,0.1-2,0.2-3c0.5-6.4,6-12,12.3-12.2c17.6-0.5,35.4,0.9,53,4.2
							c6.3,1.2,11.1,7.5,10.6,13.8c-0.1,1-0.1,1.9-0.2,2.9C137.5,62.8,132,66.7,125.7,65.6z"/>
						
							<linearGradient id="SVGID_00000089568465619026239620000014811989214797562810_" gradientUnits="userSpaceOnUse" x1="831.2134" y1="64.4117" x2="833.3075" y2="35.7577" gradientTransform="matrix(1 0 0 1 -732 0)">
							<stop  offset="0" style="stop-color:#4680B0"/>
							<stop  offset="0.5144" style="stop-color:#6398D1"/>
							<stop  offset="1" style="stop-color:#4680B0"/>
						</linearGradient>
						
							<path style="fill:none;stroke:url(#SVGID_00000089568465619026239620000014811989214797562810_);stroke-width:1.21;stroke-miterlimit:10;" d="
							M125.7,65.6c-17.6-3.2-35.4-4.4-53-3.8C66.3,62,61.6,57.3,62,50.9c0.1-1,0.1-2,0.2-3c0.5-6.4,6-12,12.3-12.2
							c17.6-0.5,35.4,0.9,53,4.2c6.3,1.2,11.1,7.5,10.6,13.8c-0.1,1-0.1,1.9-0.2,2.9C137.5,62.8,132,66.7,125.7,65.6z"/>
					</g>
				</g>
				<path class="st12" d="M49,45c6.9-21.7,29.4-32.6,55-31.3c29.2,1.6,49.5,20.2,49.4,43.2"/>
				<g>
					<path class="st13" d="M33.4,46.3c2.9-6.5,6.6-11.3,9.4-10.4l0,0l0.3,0.1l5.5,2.5L37.8,62.9l-5.5-2.5L32,60.2l0,0
						C29.6,58.6,30.6,52.8,33.4,46.3L33.4,46.3z M33.4,46.3"/>
					<path class="st14" d="M39.7,48.9c3.9-8.5,8.5-15.1,11.4-14.3l0,0l0.3,0.1l5.7,2.6L42.6,69.5l-5.7-2.6l-0.3-0.1l0,0
						C34.1,65,35.8,57.5,39.7,48.9L39.7,48.9z M39.7,48.9"/>
				</g>
				<g>
					<circle class="st15" cx="84.3" cy="48.7" r="7.6"/>
					<circle class="st16" cx="87.5" cy="46.4" r="2.8"/>
				</g>
				<g>
					<circle class="st15" cx="115.5" cy="50.8" r="7.6"/>
					<circle class="st16" cx="118.8" cy="48.5" r="3"/>
				</g>
				<path class="st17" d="M117.5,76.9c-0.6,7.4-9.6,12.8-20.2,12C86.7,88.1,78.5,81.4,79.1,74s9.1-2.8,19.8-2S118.1,69.4,117.5,76.9
					z"/>
				<path class="st13" d="M157.8,70.9l-2.7,0.1c-0.2,13.5-5.6,19.6-16.6,20.5l-16.3-0.6c-0.5-1.8-3.2-3.3-6.5-3.6
					c-3.8-0.3-6,1.1-6.1,3.2c-0.2,2.1,1.7,3.9,5.5,4.3c2.3,0.2,4.5-0.2,5.9-1.1c5.8,0.1,13.1,0.2,18.1,0.1
					C155.5,92.7,157.7,79,157.8,70.9L157.8,70.9z M157.8,70.9"/>
				<g>
					<path class="st13" d="M166.7,59.7c-1.1-6.8-3.3-12.2-5.8-12.2l0,0l-5.4,0.9l4.2,25.5L165,73l0,0
						C167.4,72.2,167.8,66.5,166.7,59.7L166.7,59.7z M166.7,59.7"/>
					<path class="st14" d="M160.4,60.4c-1.5-9-4-16.3-6.5-16.3l0,0l-5.4,0.9l5.5,33.8l5.4-0.9l0,0C161.8,76.9,161.9,69.4,160.4,60.4
						L160.4,60.4z M160.4,60.4"/>
				</g>
			</g>
		</g>
	</g>
	<g>
		<g>
			<path class="st18" d="M23.4,151.3c0.4,0.2,0.6,0.3,0.6,0.5c0,0.3-0.2,0.5-0.6,0.7c-0.2,0.3-0.3,0.6-0.5,0.8h11v3.1h-6.4
				c-0.1,1.3-0.2,2.4-0.3,3.5H36v3.3h-8c1,1,1.9,1.8,2.7,2.2c0.9,0.6,2.2,1.2,3.9,1.7l-2.8,3.3c-1.5-0.8-2.8-1.7-3.9-2.7
				c-0.8-0.7-1.5-1.5-2.2-2.4c-0.1,0.2-0.3,0.4-0.3,0.5c-1.7,2.8-4.5,5-8.5,6.7l-2.8-3c4.1-1.7,6.8-3.6,8.3-5.7
				c0.1-0.2,0.3-0.4,0.4-0.7h-8v-3.3h2.6l-2.4-1.5c2.3-2.4,4.3-5.2,5.9-8.4L23.4,151.3z M23.9,156.4h-3c-0.9,1.3-1.9,2.4-2.8,3.5
				h5.5C23.8,158.9,23.8,157.7,23.9,156.4z M44.9,171v17h-3.6v-1.5H24.8v1.6h-3.6V171H44.9z M41.2,177.3v-2.9H24.8v2.9H41.2z
				 M41.2,183.2v-3H24.8v3H41.2z M49.7,154.1v15.2H37v-15.2H49.7z M46.2,157.4h-5.8v8.5h5.8V157.4z"/>
			<path class="st18" d="M66.3,151.4c0.5,0.2,0.8,0.4,0.8,0.5c0,0.3-0.3,0.6-0.8,1c-0.9,1.9-2.1,3.8-3.4,5.9
				c2.4-0.2,4.7-0.3,6.9-0.6c-0.5-1.1-1.2-2.1-1.9-3.3l2.8-0.8c2,2.9,3.5,5.6,4.3,8.1l-3.5,0.8c-0.2-0.6-0.3-1.2-0.5-1.9
				c-3.3,0.4-7.9,0.9-14,1.5c-0.3,0.5-0.5,0.7-0.8,0.7c-0.3,0-0.4-0.2-0.4-0.5l-0.8-3.4c1.3,0,2.5-0.1,3.8-0.2
				c0.7-1.2,1.3-2.3,1.7-3.3c1-1.9,1.8-3.8,2.4-5.7L66.3,151.4z M72.8,164.8v19.1c0,1.6-0.8,2.7-2.4,3.2c-1.3,0.4-2.5,0.6-3.8,0.6
				l-1.3-3.5l2.9,0c0.8,0,1.2-0.5,1.2-1.3v-2.8H61v7.6h-3.5v-22.9h1.6H72.8z M69.4,170.9v-3H61v3H69.4z M69.4,177.1v-3.3H61v3.3
				H69.4z M79.9,152c0.5,0.1,0.8,0.3,0.8,0.6c0,0.3-0.3,0.7-0.7,1.1c-0.4,0.3-0.6,0.8-0.6,1.4v2.7c1.1-0.3,2.1-0.5,3.1-0.9
				c1.8-0.6,3.9-1.5,6.4-2.9l2.5,2.6c0.2,0.2,0.3,0.3,0.3,0.5c-0.1,0.3-0.2,0.3-0.3,0.3l-0.7-0.2c-0.2,0-0.5,0.1-0.8,0.2
				c-3.5,1.6-7,2.8-10.5,3.6v0.8c0,1.1,0.2,2,0.5,2.6c0.3,0.5,1.1,0.7,2.3,0.7h3.1c1.3,0,2.2-0.2,2.8-0.6c0.7-0.3,1.2-1.4,1.6-3.2
				l3.5,1.5c-0.7,2.4-1.5,4-2.5,4.6c-0.8,0.7-1.9,1-3.1,1h-6.9c-1.7,0-2.9-0.5-3.8-1.5c-0.8-0.9-1.1-2.3-1.1-4.1v-11.5L79.9,152z
				 M79.9,170.4c0.5,0.1,0.8,0.3,0.8,0.6c0,0.3-0.3,0.7-0.7,1.1c-0.4,0.3-0.6,0.8-0.6,1.3v2.4c1.2-0.3,2.3-0.5,3.2-0.8
				c1.8-0.5,3.9-1.4,6.4-2.7l2.5,2.6c0.2,0.2,0.3,0.4,0.3,0.5c-0.1,0.3-0.2,0.3-0.3,0.3l-0.7-0.2c-0.2,0-0.5,0.1-0.8,0.2
				c-3.5,1.5-7.1,2.6-10.7,3.3v1.8c0,1.1,0.2,2,0.5,2.6c0.3,0.5,1.1,0.7,2.3,0.7H85c1.3,0,2.2-0.2,2.8-0.6c0.7-0.3,1.2-1.5,1.6-3.3
				l3.5,1.5c-0.7,2.5-1.5,4.1-2.5,4.8c-0.8,0.6-1.9,1-3.1,1h-6.6c-1.7,0-2.9-0.5-3.8-1.5c-0.8-1-1.1-2.3-1.1-4.1v-12L79.9,170.4z"/>
			<path class="st18" d="M118.3,150.3c0.7,0.1,1.1,0.3,1.1,0.5c0,0.2-0.3,0.5-0.8,1v2.3H134v8.4h-3.7v-4.9h-16.5l1.8,0.9
				c0.3,0.2,0.4,0.5,0.4,0.7c0,0.3-0.4,0.5-1.2,0.7c-0.4,0.5-0.8,1.1-1.2,1.5h12.3c0.2-0.2,0.3-0.3,0.5-0.5c0.2,0,0.4,0.1,0.5,0.3
				l2.4,1.9c0.3,0.2,0.5,0.4,0.5,0.7c0,0.4-0.5,0.7-1.3,1c-2.9,2.4-5.6,4.4-7.9,5.9c3.5,1.3,8.7,2.5,15.8,3.3l-2.3,3.6
				c-2.3-0.3-4.3-0.8-6.2-1.2v11.9H124v-1.6h-14.8v1.6h-3.8v-11.8c-2.2,0.5-4.6,0.8-7.2,1.1L97,174c6.4-0.5,11.7-1.7,16.1-3.5
				c-1.7-1.1-3.4-2.5-5.1-4.1c-1.6,1.1-3.5,2.1-5.7,3.2l-2.7-2.6c2.5-1.1,4.5-2.1,5.9-3.1c1.2-0.8,2.3-1.7,3.3-2.6
				c1.1-1.1,2.1-2.4,3.2-3.7h-9.6v4.9h-3.7v-8.4h16V150L118.3,150.3z M126.6,176c-3.7-0.8-6.9-1.9-9.3-3.1c-0.2-0.1-0.4-0.2-0.5-0.3
				c-0.8,0.4-1.4,0.7-2.1,1c-2.1,0.9-4.6,1.7-7.5,2.4H126.6z M124,183.2v-4h-14.8v4H124z M116.6,168.8c1.9-1.1,3.9-2.5,5.9-4.3h-12
				c0,0,0,0,0,0C112.4,166.3,114.5,167.7,116.6,168.8z"/>
			<path class="st18" d="M142.6,151.2h12.8v33.6c0,1.6-1,2.7-2.9,3.2c-1.6,0.4-3.1,0.6-4.6,0.6l-1.3-3.5l3.8-0.1
				c1.1-0.1,1.6-0.5,1.6-1.3v-9.1h-6.2c-0.1,1.4-0.3,2.8-0.5,4.1c-0.5,3.5-1.3,6.7-2.4,9.4l-3.5-1.8c1.1-2.6,1.9-5.3,2.4-8.2
				c0.5-3.5,0.8-7,0.8-10.6v-13.1V151.2z M151.9,171.5v-6.9H146v2.9c0,1.4,0,2.7-0.1,4H151.9z M151.9,161.5v-7.1H146v7.1H151.9z
				 M175.4,151.3c0,5-0.2,8.2-0.6,9.4c-0.3,1.3-0.9,2.2-1.7,2.6c-0.9,0.5-2.5,0.8-4.7,0.8l-1.6-3.6c2.1,0,3.4-0.1,3.8-0.3
				c0.3-0.2,0.6-0.6,0.9-1.4c0.3-0.6,0.4-2.1,0.5-4.3h-9.9v11.8h12.3c0.3-0.2,0.6-0.3,0.9-0.3l0.5,0.4l1.5,1.7
				c0.2,0.3,0.3,0.6,0.3,0.8c0,0.3-0.4,0.6-1.2,1c-1.2,4.1-2.3,7.1-3.3,8.9c-0.3,0.6-0.6,1.2-1,1.8c1.5,1.7,3.5,3.4,5.9,5.1
				l-3.5,2.7c-1.8-1.7-3.3-3.3-4.6-4.8c-1.2,1.5-2.9,3.1-4.9,4.8l-2.7-2.8c2.4-1.8,4.1-3.4,5.4-4.9c-0.9-1.4-1.6-2.8-2.2-4.2
				c-0.8-1.6-1.5-3.9-2.1-6.9h-1.4v17.3h-3.5v-35.4h1.6H175.4z M169.9,177.4c0.4-0.8,0.8-1.6,1.2-2.4c0.6-1.4,1.3-3.3,2-5.6h-6.4
				C167.5,172.7,168.6,175.3,169.9,177.4z"/>
		</g>
		<g>
			<path class="st7" d="M23.4,151.3c0.4,0.2,0.6,0.3,0.6,0.5c0,0.3-0.2,0.5-0.6,0.7c-0.2,0.3-0.3,0.6-0.5,0.8h11v3.1h-6.4
				c-0.1,1.3-0.2,2.4-0.3,3.5H36v3.3h-8c1,1,1.9,1.8,2.7,2.2c0.9,0.6,2.2,1.2,3.9,1.7l-2.8,3.3c-1.5-0.8-2.8-1.7-3.9-2.7
				c-0.8-0.7-1.5-1.5-2.2-2.4c-0.1,0.2-0.3,0.4-0.3,0.5c-1.7,2.8-4.5,5-8.5,6.7l-2.8-3c4.1-1.7,6.8-3.6,8.3-5.7
				c0.1-0.2,0.3-0.4,0.4-0.7h-8v-3.3h2.6l-2.4-1.5c2.3-2.4,4.3-5.2,5.9-8.4L23.4,151.3z M23.9,156.4h-3c-0.9,1.3-1.9,2.4-2.8,3.5
				h5.5C23.8,158.9,23.8,157.7,23.9,156.4z M44.9,171v17h-3.6v-1.5H24.8v1.6h-3.6V171H44.9z M41.2,177.3v-2.9H24.8v2.9H41.2z
				 M41.2,183.2v-3H24.8v3H41.2z M49.7,154.1v15.2H37v-15.2H49.7z M46.2,157.4h-5.8v8.5h5.8V157.4z"/>
			<path class="st7" d="M66.3,151.4c0.5,0.2,0.8,0.4,0.8,0.5c0,0.3-0.3,0.6-0.8,1c-0.9,1.9-2.1,3.8-3.4,5.9c2.4-0.2,4.7-0.3,6.9-0.6
				c-0.5-1.1-1.2-2.1-1.9-3.3l2.8-0.8c2,2.9,3.5,5.6,4.3,8.1l-3.5,0.8c-0.2-0.6-0.3-1.2-0.5-1.9c-3.3,0.4-7.9,0.9-14,1.5
				c-0.3,0.5-0.5,0.7-0.8,0.7c-0.3,0-0.4-0.2-0.4-0.5l-0.8-3.4c1.3,0,2.5-0.1,3.8-0.2c0.7-1.2,1.3-2.3,1.7-3.3
				c1-1.9,1.8-3.8,2.4-5.7L66.3,151.4z M72.8,164.8v19.1c0,1.6-0.8,2.7-2.4,3.2c-1.3,0.4-2.5,0.6-3.8,0.6l-1.3-3.5l2.9,0
				c0.8,0,1.2-0.5,1.2-1.3v-2.8H61v7.6h-3.5v-22.9h1.6H72.8z M69.4,170.9v-3H61v3H69.4z M69.4,177.1v-3.3H61v3.3H69.4z M79.9,152
				c0.5,0.1,0.8,0.3,0.8,0.6c0,0.3-0.3,0.7-0.7,1.1c-0.4,0.3-0.6,0.8-0.6,1.4v2.7c1.1-0.3,2.1-0.5,3.1-0.9c1.8-0.6,3.9-1.5,6.4-2.9
				l2.5,2.6c0.2,0.2,0.3,0.3,0.3,0.5c-0.1,0.3-0.2,0.3-0.3,0.3l-0.7-0.2c-0.2,0-0.5,0.1-0.8,0.2c-3.5,1.6-7,2.8-10.5,3.6v0.8
				c0,1.1,0.2,2,0.5,2.6c0.3,0.5,1.1,0.7,2.3,0.7h3.1c1.3,0,2.2-0.2,2.8-0.6c0.7-0.3,1.2-1.4,1.6-3.2l3.5,1.5
				c-0.7,2.4-1.5,4-2.5,4.6c-0.8,0.7-1.9,1-3.1,1h-6.9c-1.7,0-2.9-0.5-3.8-1.5c-0.8-0.9-1.1-2.3-1.1-4.1v-11.5L79.9,152z
				 M79.9,170.4c0.5,0.1,0.8,0.3,0.8,0.6c0,0.3-0.3,0.7-0.7,1.1c-0.4,0.3-0.6,0.8-0.6,1.3v2.4c1.2-0.3,2.3-0.5,3.2-0.8
				c1.8-0.5,3.9-1.4,6.4-2.7l2.5,2.6c0.2,0.2,0.3,0.4,0.3,0.5c-0.1,0.3-0.2,0.3-0.3,0.3l-0.7-0.2c-0.2,0-0.5,0.1-0.8,0.2
				c-3.5,1.5-7.1,2.6-10.7,3.3v1.8c0,1.1,0.2,2,0.5,2.6c0.3,0.5,1.1,0.7,2.3,0.7H85c1.3,0,2.2-0.2,2.8-0.6c0.7-0.3,1.2-1.5,1.6-3.3
				l3.5,1.5c-0.7,2.5-1.5,4.1-2.5,4.8c-0.8,0.6-1.9,1-3.1,1h-6.6c-1.7,0-2.9-0.5-3.8-1.5c-0.8-1-1.1-2.3-1.1-4.1v-12L79.9,170.4z"/>
			<path class="st7" d="M118.3,150.3c0.7,0.1,1.1,0.3,1.1,0.5c0,0.2-0.3,0.5-0.8,1v2.3H134v8.4h-3.7v-4.9h-16.5l1.8,0.9
				c0.3,0.2,0.4,0.5,0.4,0.7c0,0.3-0.4,0.5-1.2,0.7c-0.4,0.5-0.8,1.1-1.2,1.5h12.3c0.2-0.2,0.3-0.3,0.5-0.5c0.2,0,0.4,0.1,0.5,0.3
				l2.4,1.9c0.3,0.2,0.5,0.4,0.5,0.7c0,0.4-0.5,0.7-1.3,1c-2.9,2.4-5.6,4.4-7.9,5.9c3.5,1.3,8.7,2.5,15.8,3.3l-2.3,3.6
				c-2.3-0.3-4.3-0.8-6.2-1.2v11.9H124v-1.6h-14.8v1.6h-3.8v-11.8c-2.2,0.5-4.6,0.8-7.2,1.1L97,174c6.4-0.5,11.7-1.7,16.1-3.5
				c-1.7-1.1-3.4-2.5-5.1-4.1c-1.6,1.1-3.5,2.1-5.7,3.2l-2.7-2.6c2.5-1.1,4.5-2.1,5.9-3.1c1.2-0.8,2.3-1.7,3.3-2.6
				c1.1-1.1,2.1-2.4,3.2-3.7h-9.6v4.9h-3.7v-8.4h16V150L118.3,150.3z M126.6,176c-3.7-0.8-6.9-1.9-9.3-3.1c-0.2-0.1-0.4-0.2-0.5-0.3
				c-0.8,0.4-1.4,0.7-2.1,1c-2.1,0.9-4.6,1.7-7.5,2.4H126.6z M124,183.2v-4h-14.8v4H124z M116.6,168.8c1.9-1.1,3.9-2.5,5.9-4.3h-12
				c0,0,0,0,0,0C112.4,166.3,114.5,167.7,116.6,168.8z"/>
			<path class="st7" d="M142.6,151.2h12.8v33.6c0,1.6-1,2.7-2.9,3.2c-1.6,0.4-3.1,0.6-4.6,0.6l-1.3-3.5l3.8-0.1
				c1.1-0.1,1.6-0.5,1.6-1.3v-9.1h-6.2c-0.1,1.4-0.3,2.8-0.5,4.1c-0.5,3.5-1.3,6.7-2.4,9.4l-3.5-1.8c1.1-2.6,1.9-5.3,2.4-8.2
				c0.5-3.5,0.8-7,0.8-10.6v-13.1V151.2z M151.9,171.5v-6.9H146v2.9c0,1.4,0,2.7-0.1,4H151.9z M151.9,161.5v-7.1H146v7.1H151.9z
				 M175.4,151.3c0,5-0.2,8.2-0.6,9.4c-0.3,1.3-0.9,2.2-1.7,2.6c-0.9,0.5-2.5,0.8-4.7,0.8l-1.6-3.6c2.1,0,3.4-0.1,3.8-0.3
				c0.3-0.2,0.6-0.6,0.9-1.4c0.3-0.6,0.4-2.1,0.5-4.3h-9.9v11.8h12.3c0.3-0.2,0.6-0.3,0.9-0.3l0.5,0.4l1.5,1.7
				c0.2,0.3,0.3,0.6,0.3,0.8c0,0.3-0.4,0.6-1.2,1c-1.2,4.1-2.3,7.1-3.3,8.9c-0.3,0.6-0.6,1.2-1,1.8c1.5,1.7,3.5,3.4,5.9,5.1
				l-3.5,2.7c-1.8-1.7-3.3-3.3-4.6-4.8c-1.2,1.5-2.9,3.1-4.9,4.8l-2.7-2.8c2.4-1.8,4.1-3.4,5.4-4.9c-0.9-1.4-1.6-2.8-2.2-4.2
				c-0.8-1.6-1.5-3.9-2.1-6.9h-1.4v17.3h-3.5v-35.4h1.6H175.4z M169.9,177.4c0.4-0.8,0.8-1.6,1.2-2.4c0.6-1.4,1.3-3.3,2-5.6h-6.4
				C167.5,172.7,168.6,175.3,169.9,177.4z"/>
		</g>
	</g>
</g>
</svg>
