<?xml version="1.0" encoding="UTF-8"?><svg id="_圖層_1" xmlns="http://www.w3.org/2000/svg" viewBox="0 0 280 154"><path d="m113.41,62.51c-3.29,0-6.23,1.5-8.25,3.86v-2.48h-8.25v40.34h9.17v-14.12c2.01,1.66,4.56,2.66,7.33,2.66,8.1,0,14.67-6.77,14.67-15.13s-6.57-15.13-14.67-15.13Zm14.67,15.13c0-8.35-6.57-15.13-14.67-15.13m-.92,21.82c-3.54,0-6.42-3-6.42-6.69s2.87-6.69,6.42-6.69,6.42,3,6.42,6.69-2.87,6.69-6.42,6.69Z" fill="#2e499d"/><circle cx="137.71" cy="87.27" r="5.5" fill="#f8b500"/><path d="m85.91,60.04c-2.84,0-5.13-2.3-5.13-5.13s2.3-5.13,5.13-5.13,5.13,2.3,5.13,5.13-2.3,5.13-5.13,5.13Z" fill="#2e499d" fill-rule="evenodd"/><rect x="81.33" y="63.89" width="9.17" height="27.5" fill="#2e499d"/><polygon points="27.23 51.05 27.23 58.76 39.15 58.76 39.15 91.39 48.32 91.39 48.32 58.76 60.24 58.76 60.24 51.05 27.23 51.05" fill="#2e499d" fill-rule="evenodd"/><path d="m162.46,84.33c-3.54,0-6.42-3-6.42-6.69s2.87-6.69,6.42-6.69c1.82,0,3.46.79,4.63,2.06l6.07-6.07c-2.74-2.74-6.52-4.43-10.7-4.43-8.35,0-15.13,6.77-15.13,15.13s6.77,15.13,15.13,15.13c4.18,0,7.96-1.69,10.7-4.43l-6.07-6.07c-1.17,1.27-2.81,2.06-4.63,2.06Z" fill="#2e499d"/><path d="m242.71,62.51c-3.71,0-6.73,1.4-8.54,4.51-1.65-2.89-4.67-4.51-8.21-4.51s-6.32,1.67-8.02,4.5v-3.12h-8.25v27.5h9.17v-17.15c0-2.32,1.81-4.21,4.03-4.21s4.03,1.88,4.03,4.21v17.15h8.62v-17.15c0-2.32,1.81-4.21,4.03-4.21s4.03,1.88,4.03,4.21v17.15h9.17v-18.88c0-6.21-3.9-10-10.06-10Z" fill="#2e499d" fill-rule="evenodd"/><path d="m189.97,62.51c-8.35,0-15.13,6.77-15.13,15.13s6.77,15.13,15.13,15.13c8.35,0,15.13-6.77,15.13-15.13s-6.77-15.13-15.13-15.13Zm0,21.82c-3.54,0-6.42-3-6.42-6.69s2.87-6.69,6.42-6.69,6.42,3,6.42,6.69-2.87,6.69-6.42,6.69Z" fill="#2e499d"/><path d="m74.91,63.75c-3.46,0-6.5,1.79-8.25,4.5v-4.35h-8.25v27.5h9.2v-11.54c0-4.74,3.45-7.7,7.7-7.7.49,0,.97.06,1.44.15v-8.42c-.6-.08-1.21-.14-1.83-.14Z" fill="#2e499d"/></svg>