<?xml version="1.0" encoding="UTF-8"?><svg id="_圖層_1" xmlns="http://www.w3.org/2000/svg" viewBox="0 0 280 154"><path d="m108.72,93.05c-6.17,0-11.2,5.02-11.2,11.2s5.02,11.2,11.2,11.2,11.2-5.02,11.2-11.2-5.02-11.2-11.2-11.2" fill="#fcb613"/><path d="m77.42,93.05c-6.17,0-11.2,5.02-11.2,11.2s5.02,11.2,11.2,11.2,11.2-5.02,11.2-11.2-5.02-11.2-11.2-11.2" fill="#ed343e"/><path d="m140.01,93.05c-6.17,0-11.2,5.02-11.2,11.2s5.02,11.2,11.2,11.2,11.2-5.02,11.2-11.2-5.02-11.2-11.2-11.2" fill="#00af56"/><path d="m202.59,93.05c-6.17,0-11.2,5.02-11.2,11.2s5.02,11.2,11.2,11.2,11.2-5.02,11.2-11.2-5.02-11.2-11.2-11.2" fill="#00a8df"/><path d="m171.3,93.05c-6.17,0-11.2,5.02-11.2,11.2s5.02,11.2,11.2,11.2,11.2-5.02,11.2-11.2-5.02-11.2-11.2-11.2" fill="#a04699"/><path d="m86.76,61.32c0-5.24-3.95-9.19-9.19-9.19s-9.19,3.95-9.19,9.19,3.95,9.19,9.19,9.19,9.19-3.95,9.19-9.19m-22.22,0c0-7.26,5.83-12.74,13.04-12.74s13.04,5.43,13.04,12.69v11.16c0,1.14-.79,1.93-1.98,1.93s-1.98-.79-1.98-1.93v-3.26h-.2c-1.53,2.62-4.59,4.89-9.14,4.89-7.01,0-12.79-5.43-12.79-12.74" fill="#595a5a"/><path d="m117.97,61.32c0-5.24-3.95-9.19-9.19-9.19s-9.19,3.95-9.19,9.19,3.95,9.19,9.19,9.19,9.19-3.95,9.19-9.19m-17.19,20.99c-1.04-.49-1.53-1.38-1.14-2.42.4-1.09,1.38-1.53,2.42-1.04,1.78.84,4,1.43,6.37,1.43,5.88,0,9.43-3.51,9.43-9.48v-1.63h-.2c-1.53,2.62-4.59,4.89-9.14,4.89-7.01,0-12.79-5.43-12.79-12.74s5.83-12.74,13.04-12.74,13.04,5.43,13.04,12.69v9.28c0,8-5.14,13.38-13.53,13.38-2.57,0-5.14-.49-7.51-1.63" fill="#595a5a"/><path d="m149.19,61.32c0-5.24-3.95-9.19-9.19-9.19s-9.19,3.95-9.19,9.19,3.95,9.19,9.19,9.19,9.19-3.95,9.19-9.19m-22.22,0c0-7.26,5.78-12.74,13.04-12.74s13.04,5.48,13.04,12.74-5.78,12.74-13.04,12.74-13.04-5.48-13.04-12.74" fill="#595a5a"/><path d="m180.4,61.32c0-5.24-3.95-9.19-9.19-9.19s-9.19,3.95-9.19,9.19,3.95,9.19,9.19,9.19,9.19-3.95,9.19-9.19m-22.22,0c0-7.26,5.73-12.74,12.79-12.74,4.54,0,7.61,2.27,9.14,4.89h.2v-12.99c0-1.14.79-1.93,1.98-1.93s1.98.79,1.98,1.93v20.89c0,7.26-5.78,12.69-13.04,12.69s-13.04-5.48-13.04-12.74" fill="#595a5a"/><path d="m211.62,61.32c0-5.24-3.95-9.19-9.19-9.19s-9.19,3.95-9.19,9.19,3.95,9.19,9.19,9.19,9.19-3.95,9.19-9.19m-22.22,0c0-7.26,5.83-12.74,13.04-12.74s13.04,5.43,13.04,12.69v11.16c0,1.14-.79,1.93-1.98,1.93s-1.98-.79-1.98-1.93v-3.26h-.2c-1.53,2.62-4.59,4.89-9.14,4.89-7.01,0-12.79-5.43-12.79-12.74" fill="#595a5a"/></svg>