<?xml version="1.0" encoding="UTF-8"?><svg id="_圖層_1" xmlns="http://www.w3.org/2000/svg" viewBox="0 0 280 154"><path d="m112.92,59.93c0-2.12,1.71-3.83,3.81-3.83s3.82,1.71,3.82,3.83-1.71,3.83-3.82,3.83-3.81-1.72-3.81-3.83Z" style="fill:#003580;"/><path d="m173.17,85.39c0-2.11,1.71-3.83,3.81-3.83s3.82,1.71,3.82,3.83-1.71,3.83-3.82,3.83-3.81-1.72-3.81-3.83Z" style="fill:#009fe3;"/><path d="m50.24,65.48c-6.96,0-12.01,5.01-12.01,11.92s5.05,11.92,12.01,11.92,12.06-5.01,12.06-11.92-5.07-11.92-12.06-11.92Zm0,18.26c-3.29,0-5.57-2.61-5.57-6.35s2.29-6.34,5.57-6.34,5.62,2.61,5.62,6.34-2.26,6.35-5.62,6.35Z" style="fill:#003580;"/><path d="m105.52,77.99c-.27-.51-.58-.94-.91-1.28l-.21-.23.22-.21c.32-.34.65-.74.96-1.2l6.14-9.13h-7.45l-4.61,7.14c-.26.38-.79.58-1.58.58h-1.05v-13.5c0-2.7-1.68-3.07-3.5-3.07h-3.11v31.87h6.61v-9.56h.62c.75,0,1.27.09,1.5.49l3.64,6.88c1.02,1.86,2.03,2.18,3.94,2.18h5.06l-3.77-6.23-2.5-4.74Z" style="fill:#003580;"/><path d="m137.59,65.42c-3.36,0-5.5,1.49-6.7,2.75l-.4.41-.14-.56c-.35-1.35-1.54-2.09-3.33-2.09h-2.96l.02,23.01h6.56v-10.61c0-1.03.14-1.94.41-2.76.73-2.48,2.77-4.03,5.31-4.03,2.05,0,2.85,1.08,2.85,3.88v10.02c0,2.39,1.1,3.5,3.49,3.5h3.12v-14.64c-.01-5.81-2.85-8.89-8.22-8.89Z" style="fill:#003580;"/><path d="m116.82,65.94h-3.11l.02,17.79h0v5.22h3.32s.07,0,.12,0h1.55s1.54,0,1.54,0h0s.01,0,.01,0v-19.5c.01-2.36-1.11-3.5-3.44-3.5Z" style="fill:#003580;"/><path d="m76.01,65.48c-6.96,0-12.02,5.01-12.02,11.92s5.05,11.92,12.02,11.92,12.06-5.01,12.06-11.92-5.08-11.92-12.06-11.92Zm0,18.26c-3.29,0-5.58-2.61-5.58-6.35s2.29-6.34,5.58-6.34,5.62,2.61,5.62,6.34-2.26,6.35-5.62,6.35Z" style="fill:#003580;"/><path d="m216.63,65.48c-6.96,0-12.01,5.01-12.01,11.92s5.05,11.92,12.01,11.92,12.06-5.01,12.06-11.92-5.08-11.92-12.06-11.92Zm0,18.26c-3.29,0-5.58-2.61-5.58-6.35s2.29-6.34,5.58-6.34,5.62,2.61,5.62,6.34-2.27,6.35-5.62,6.35Z" style="fill:#009fe3;"/><path d="m167.55,65.89c-1.24,0-2.2.49-2.69,1.4l-.18.35-.3-.26c-1.06-.92-2.96-2-6.04-2-6.13,0-10.27,4.61-10.27,11.46s4.28,11.63,10.39,11.63c2.09,0,3.74-.48,5.05-1.48l.51-.38v.64c0,3.08-1.99,4.77-5.6,4.77-1.75,0-3.34-.43-4.41-.81-1.39-.42-2.21-.07-2.77,1.32l-.52,1.29-.74,1.88.46.24c2.31,1.22,5.31,1.95,8.02,1.95,5.59,0,12.11-2.86,12.11-10.91l.02-21.11h-3.05Zm-7.92,16.84c-3.58,0-4.86-3.13-4.86-6.06,0-1.29.32-5.5,4.51-5.5,2.08,0,4.87.59,4.87,5.72,0,4.83-2.46,5.85-4.52,5.85Z" style="fill:#003580;"/><path d="m32.63,72.62l-.97-.54.84-.72c.98-.85,2.63-2.74,2.63-6.01,0-5.01-3.89-8.24-9.9-8.24h-7.64c-1.78.07-3.21,1.51-3.23,3.31v28.43h11.01c6.68,0,11-3.64,11-9.27,0-3.04-1.4-5.63-3.74-6.95Zm-12.16-6.37h0v-1.68c0-1.47.62-2.17,1.99-2.26h2.73c2.34,0,3.75,1.4,3.75,3.75,0,1.79-.96,3.87-3.66,3.87h-4.81v-3.69Zm5.34,17.22h-5.34v-6.39c0-1.37.53-2.07,1.7-2.24h3.64c2.6,0,4.28,1.64,4.28,4.29s-1.64,4.34-4.28,4.34Z" style="fill:#003580;"/><path d="m258,65.5c-2.73,0-5.36,1.27-7.04,3.41l-.48.6-.37-.68c-1.21-2.21-3.31-3.34-6.22-3.34s-5.09,1.7-6.04,2.71l-.62.67-.24-.89c-.35-1.28-1.48-1.98-3.21-1.98h-2.76l-.03,22.93h6.26v-10.12c0-.89.11-1.77.33-2.68.6-2.45,2.24-5.08,5-4.82,1.71.17,2.54,1.48,2.54,4.03v13.59h6.31v-10.12c0-1.11.1-1.94.35-2.77.51-2.33,2.22-4.73,4.89-4.73,1.93,0,2.64,1.09,2.64,4.03v10.24c0,2.32,1.03,3.35,3.35,3.35h2.94v-14.64c.01-5.85-2.57-8.81-7.63-8.81Z" style="fill:#009fe3;"/><path d="m201,80.99s-2.72,2.87-6.27,2.87c-3.24,0-6.5-1.98-6.5-6.42,0-3.82,2.53-6.5,6.16-6.5,1.18,0,2.52.42,2.72,1.14l.03.12c.48,1.6,1.95,1.69,2.23,1.69h3.43v-3c0-3.96-5.03-5.39-8.42-5.39-7.24,0-12.5,5.05-12.5,11.99s5.2,11.98,12.37,11.98c6.22,0,9.6-4.09,9.63-4.13l.18-.22-2.72-4.51-.35.39Z" style="fill:#009fe3;"/></svg>