<?xml version="1.0" encoding="UTF-8"?><svg id="_圖層_1" xmlns="http://www.w3.org/2000/svg" viewBox="0 0 280 154"><path d="m243.22,68.31l-9.85,10.84v-21.38c0-.74-.74-1.25-1.43-.99l-5.06,1.9c-.41.16-.69.55-.69.99v35.59c0,.59.48,1.06,1.06,1.06h5.06c.59,0,1.06-.48,1.06-1.06v-11.32l10.51,12.02c.2.23.49.36.8.36h6.62c.91,0,1.4-1.08.79-1.76l-11.72-13.19,10.79-11.62c.63-.68.15-1.78-.78-1.78h-6.38c-.3,0-.58.13-.78.35Z" fill="#ff5b00"/><path d="m206.03,97.24c-8.21,0-14.89-6.96-14.89-15.51,0-8.09,6.44-14.42,14.66-14.42,8.63,0,14.89,6.29,14.89,14.97s-6.16,14.96-14.66,14.96Zm.22-6.7c4.28,0,7.39-3.39,7.39-8.05,0-4.96-3.04-8.42-7.39-8.42s-7.68,3.34-7.68,8.12,3.3,8.34,7.68,8.34Z" fill="#ff5b00"/><path d="m172.17,97.24c-8.21,0-14.89-6.96-14.89-15.51,0-8.09,6.44-14.42,14.66-14.42,8.63,0,14.89,6.29,14.89,14.97s-6.17,14.96-14.66,14.96Zm.22-6.7c4.28,0,7.39-3.39,7.39-8.05,0-4.96-3.04-8.42-7.39-8.42s-7.68,3.34-7.68,8.12,3.23,8.34,7.68,8.34Z" fill="#ff5b00"/><path d="m144.61,95.45l.04-35.81c0-.44.27-.84.69-.99l4.98-1.87c.7-.26,1.44.25,1.44,1l-.06,37.68c0,.59-.48,1.06-1.06,1.06h-4.96c-.59,0-1.06-.48-1.06-1.06Z" fill="#ff5b00"/><path d="m130.75,68.31l-9.85,10.84v-21.38c0-.74-.74-1.25-1.43-.99l-5.06,1.9c-.41.16-.69.55-.69.99v35.59c0,.59.48,1.06,1.06,1.06h5.06c.59,0,1.06-.48,1.06-1.06v-11.32l10.51,12.02c.2.23.49.36.8.36h6.62c.91,0,1.4-1.08.79-1.76l-11.72-13.19,10.79-11.62c.63-.68.15-1.78-.77-1.78h-6.38c-.3,0-.58.13-.78.35Z" fill="#ff5b00"/><path d="m32.7,61.83c1.01.49,2.06.91,3.14,1.25,2.31.73,2.63.42,1.63-1.64-.42-.87-.89-1.71-1.41-2.51-1.01-1.56-1.68-2.14-3.29-.79-.32.27-.62.56-.89.87-.97,1.09-.96,1.96.82,2.81Z" fill="#ff5b00"/><path d="m55.66,106.03c-.4-1.14-.88-2.24-1.43-3.31-1.19-2.29-1.66-2.3-2.46,0-.34.98-.61,1.96-.83,2.96-.42,1.94-.34,2.89,1.89,3.08.44.04.89.04,1.33.02,1.55-.09,2.2-.75,1.5-2.74Z" fill="#4d40cc"/><path d="m87.05,89.3c-.9-1.06-1.73-2.18-2.48-3.36-1.6-2.53-1.34-3.01,1.42-2.48,1.17.23,2.31.52,3.43.88,2.18.7,3.08,1.33,1.98,3.69-.22.47-.47.92-.75,1.35-.98,1.51-2.02,1.77-3.6-.08Z" fill="#00cbd1"/><path d="m72.1,49.17c-.8.68-1.65,1.31-2.54,1.88-1.91,1.21-2.28,1.01-1.87-1.08.17-.88.39-1.75.67-2.59.53-1.65,1.01-2.33,2.79-1.5.35.17.69.35,1.02.57,1.14.74,1.34,1.53-.06,2.72Z" fill="#ffc200"/><path d="m38.4,87.45c-8.89,5.31-11.47-1.39-10.57-10.17,1.4-13.74,10.57-13.98,14.88-4.16,2.6,5.94,1.61,10.79-4.31,14.33Z" fill="#00cbd1"/><path d="m48.74,96.99c0,1.49-.06,2.96-.18,4.42-.25,2.99-2.18,5.49-6.12,2.99-1.61-1.02-3.13-2.18-4.54-3.46-3.26-2.97-4.09-5.84,0-9.43,1.03-.91,2.1-1.77,3.2-2.6,5.12-3.83,7.1-1.24,7.49,4.13.1,1.3.14,2.62.14,3.95Z" fill="#ff5b00"/><path d="m78.46,94.08c-3.18-2.7-6.54-5.18-10.08-7.41-7.59-4.79-9.04-4-7.43,4.25.68,3.49,1.57,6.91,2.64,10.24,2.11,6.51,3.99,9.19,11.06,5.91,1.41-.65,2.76-1.4,4.05-2.24,4.53-2.93,5.32-6.03-.24-10.76Z" fill="#ffc200"/><path d="m74.78,60.46c-.97,1.27-1.91,2.58-2.8,3.91-5.32,7.88-4.79,8.17,2.8,11.5,2.74,1.2,5.55,2.25,8.43,3.16,10.53,3.31,12.14-.39,9.07-9.55-.88-2.61-2.09-5.07-3.58-7.32-4.66-7.02-8.48-8.82-13.92-1.69Z" fill="#ff5b00"/><path d="m58.18,45.3c-2.64.26-5.19.83-7.6,1.7-6.57,2.35-5.6,5.11-1.98,10.38.75,1.09,1.52,2.16,2.32,3.21,4.22,5.57,5.33,6.8,8.75-1.1,1.12-2.58,2.11-5.22,2.97-7.92,1.46-4.57,1.23-6.82-4.46-6.27Z" fill="#4d40cc"/></svg>